G04 #@! TF.GenerationSoftware,KiCad,Pcbnew,9.0.0*
G04 #@! TF.CreationDate,2025-03-31T20:11:42+09:00*
G04 #@! TF.ProjectId,circuit-sugoi-tsuyoi-machine,63697263-7569-4742-9d73-75676f692d74,rev?*
G04 #@! TF.SameCoordinates,Original*
G04 #@! TF.FileFunction,Legend,Bot*
G04 #@! TF.FilePolarity,Positive*
%FSLAX46Y46*%
G04 Gerber Fmt 4.6, Leading zero omitted, Abs format (unit mm)*
G04 Created by KiCad (PCBNEW 9.0.0) date 2025-03-31 20:11:42*
%MOMM*%
%LPD*%
G01*
G04 APERTURE LIST*
G04 Aperture macros list*
%AMRoundRect*
0 Rectangle with rounded corners*
0 $1 Rounding radius*
0 $2 $3 $4 $5 $6 $7 $8 $9 X,Y pos of 4 corners*
0 Add a 4 corners polygon primitive as box body*
4,1,4,$2,$3,$4,$5,$6,$7,$8,$9,$2,$3,0*
0 Add four circle primitives for the rounded corners*
1,1,$1+$1,$2,$3*
1,1,$1+$1,$4,$5*
1,1,$1+$1,$6,$7*
1,1,$1+$1,$8,$9*
0 Add four rect primitives between the rounded corners*
20,1,$1+$1,$2,$3,$4,$5,0*
20,1,$1+$1,$4,$5,$6,$7,0*
20,1,$1+$1,$6,$7,$8,$9,0*
20,1,$1+$1,$8,$9,$2,$3,0*%
G04 Aperture macros list end*
%ADD10RoundRect,0.250000X-0.600000X-0.725000X0.600000X-0.725000X0.600000X0.725000X-0.600000X0.725000X0*%
%ADD11O,1.700000X1.950000*%
%ADD12RoundRect,0.250000X0.725000X-0.600000X0.725000X0.600000X-0.725000X0.600000X-0.725000X-0.600000X0*%
%ADD13O,1.950000X1.700000*%
%ADD14RoundRect,0.250000X0.600000X0.725000X-0.600000X0.725000X-0.600000X-0.725000X0.600000X-0.725000X0*%
%ADD15C,3.200000*%
%ADD16RoundRect,0.250000X-0.512000X0.512000X-0.512000X-0.512000X0.512000X-0.512000X0.512000X0.512000X0*%
%ADD17C,1.524000*%
%ADD18C,1.000000*%
%ADD19RoundRect,0.250000X-0.725000X0.600000X-0.725000X-0.600000X0.725000X-0.600000X0.725000X0.600000X0*%
%ADD20RoundRect,0.250000X-0.265000X-0.615000X0.265000X-0.615000X0.265000X0.615000X-0.265000X0.615000X0*%
%ADD21O,1.030000X1.730000*%
%ADD22C,1.500000*%
G04 APERTURE END LIST*
%LPC*%
D10*
X97500000Y-88000000D03*
D11*
X100000000Y-88000000D03*
X102500000Y-88000000D03*
D12*
X142500000Y-127000000D03*
D13*
X142500000Y-124500000D03*
X142500000Y-122000000D03*
D14*
X186500000Y-105000000D03*
D11*
X184000000Y-105000000D03*
X181500000Y-105000000D03*
D15*
X191500000Y-132000000D03*
D16*
X127500000Y-62250000D03*
D17*
X127500000Y-64750000D03*
X127500000Y-67250000D03*
X127500000Y-69750000D03*
D15*
X91500000Y-57000000D03*
D12*
X171350000Y-127000000D03*
D13*
X171350000Y-124500000D03*
X171350000Y-122000000D03*
D10*
X97500000Y-107000000D03*
D11*
X100000000Y-107000000D03*
X102500000Y-107000000D03*
D18*
X120500000Y-86900000D03*
X120500000Y-85000000D03*
D19*
X103500000Y-62500000D03*
D13*
X103500000Y-65000000D03*
X103500000Y-67500000D03*
X103500000Y-70000000D03*
D15*
X191500000Y-57000000D03*
D16*
X119000000Y-62250000D03*
D17*
X119000000Y-64750000D03*
X119000000Y-67250000D03*
X119000000Y-69750000D03*
D14*
X186500000Y-95500000D03*
D11*
X184000000Y-95500000D03*
X181500000Y-95500000D03*
D12*
X99500000Y-126000000D03*
D13*
X99500000Y-123500000D03*
X99500000Y-121000000D03*
D15*
X91500000Y-132000000D03*
D10*
X179000000Y-70000000D03*
D11*
X181500000Y-70000000D03*
X184000000Y-70000000D03*
X186500000Y-70000000D03*
D20*
X157750000Y-67550000D03*
D21*
X159250000Y-67550000D03*
X160750000Y-67550000D03*
X162250000Y-67550000D03*
X163750000Y-67550000D03*
X165250000Y-67550000D03*
D12*
X152350000Y-127000000D03*
D13*
X152350000Y-124500000D03*
X152350000Y-122000000D03*
D10*
X179000000Y-82000000D03*
D11*
X181500000Y-82000000D03*
X184000000Y-82000000D03*
X186500000Y-82000000D03*
D17*
X125540000Y-121190000D03*
X125500000Y-128750000D03*
X120500000Y-121250000D03*
X120460000Y-128810000D03*
D12*
X161850000Y-127000000D03*
D13*
X161850000Y-124500000D03*
X161850000Y-122000000D03*
D10*
X97500000Y-78500000D03*
D11*
X100000000Y-78500000D03*
X102500000Y-78500000D03*
D10*
X97500000Y-97500000D03*
D11*
X100000000Y-97500000D03*
X102500000Y-97500000D03*
D14*
X186500000Y-124000000D03*
D11*
X184000000Y-124000000D03*
X181500000Y-124000000D03*
D12*
X132850000Y-127000000D03*
D13*
X132850000Y-124500000D03*
X132850000Y-122000000D03*
D22*
X120500000Y-96950000D03*
X120500000Y-92070000D03*
D16*
X136000000Y-62250000D03*
D17*
X136000000Y-64750000D03*
X136000000Y-67250000D03*
X136000000Y-69750000D03*
D16*
X144500000Y-62250000D03*
D17*
X144500000Y-64750000D03*
X144500000Y-67250000D03*
X144500000Y-69750000D03*
D14*
X186500000Y-114500000D03*
D11*
X184000000Y-114500000D03*
X181500000Y-114500000D03*
%LPD*%
M02*
