G04 #@! TF.GenerationSoftware,KiCad,Pcbnew,9.0.0*
G04 #@! TF.CreationDate,2025-03-31T20:11:42+09:00*
G04 #@! TF.ProjectId,circuit-sugoi-tsuyoi-machine,63697263-7569-4742-9d73-75676f692d74,rev?*
G04 #@! TF.SameCoordinates,Original*
G04 #@! TF.FileFunction,Copper,L2,Bot*
G04 #@! TF.FilePolarity,Positive*
%FSLAX46Y46*%
G04 Gerber Fmt 4.6, Leading zero omitted, Abs format (unit mm)*
G04 Created by KiCad (PCBNEW 9.0.0) date 2025-03-31 20:11:42*
%MOMM*%
%LPD*%
G01*
G04 APERTURE LIST*
G04 Aperture macros list*
%AMRoundRect*
0 Rectangle with rounded corners*
0 $1 Rounding radius*
0 $2 $3 $4 $5 $6 $7 $8 $9 X,Y pos of 4 corners*
0 Add a 4 corners polygon primitive as box body*
4,1,4,$2,$3,$4,$5,$6,$7,$8,$9,$2,$3,0*
0 Add four circle primitives for the rounded corners*
1,1,$1+$1,$2,$3*
1,1,$1+$1,$4,$5*
1,1,$1+$1,$6,$7*
1,1,$1+$1,$8,$9*
0 Add four rect primitives between the rounded corners*
20,1,$1+$1,$2,$3,$4,$5,0*
20,1,$1+$1,$4,$5,$6,$7,0*
20,1,$1+$1,$6,$7,$8,$9,0*
20,1,$1+$1,$8,$9,$2,$3,0*%
G04 Aperture macros list end*
G04 #@! TA.AperFunction,ComponentPad*
%ADD10RoundRect,0.250000X-0.600000X-0.725000X0.600000X-0.725000X0.600000X0.725000X-0.600000X0.725000X0*%
G04 #@! TD*
G04 #@! TA.AperFunction,ComponentPad*
%ADD11O,1.700000X1.950000*%
G04 #@! TD*
G04 #@! TA.AperFunction,ComponentPad*
%ADD12RoundRect,0.250000X0.725000X-0.600000X0.725000X0.600000X-0.725000X0.600000X-0.725000X-0.600000X0*%
G04 #@! TD*
G04 #@! TA.AperFunction,ComponentPad*
%ADD13O,1.950000X1.700000*%
G04 #@! TD*
G04 #@! TA.AperFunction,ComponentPad*
%ADD14RoundRect,0.250000X0.600000X0.725000X-0.600000X0.725000X-0.600000X-0.725000X0.600000X-0.725000X0*%
G04 #@! TD*
G04 #@! TA.AperFunction,ComponentPad*
%ADD15RoundRect,0.250000X-0.512000X0.512000X-0.512000X-0.512000X0.512000X-0.512000X0.512000X0.512000X0*%
G04 #@! TD*
G04 #@! TA.AperFunction,ComponentPad*
%ADD16C,1.524000*%
G04 #@! TD*
G04 #@! TA.AperFunction,ComponentPad*
%ADD17C,1.000000*%
G04 #@! TD*
G04 #@! TA.AperFunction,ComponentPad*
%ADD18RoundRect,0.250000X-0.725000X0.600000X-0.725000X-0.600000X0.725000X-0.600000X0.725000X0.600000X0*%
G04 #@! TD*
G04 #@! TA.AperFunction,ComponentPad*
%ADD19RoundRect,0.250000X-0.265000X-0.615000X0.265000X-0.615000X0.265000X0.615000X-0.265000X0.615000X0*%
G04 #@! TD*
G04 #@! TA.AperFunction,ComponentPad*
%ADD20O,1.030000X1.730000*%
G04 #@! TD*
G04 #@! TA.AperFunction,ComponentPad*
%ADD21C,1.500000*%
G04 #@! TD*
G04 #@! TA.AperFunction,ViaPad*
%ADD22C,0.600000*%
G04 #@! TD*
G04 #@! TA.AperFunction,ViaPad*
%ADD23C,0.800000*%
G04 #@! TD*
G04 #@! TA.AperFunction,Conductor*
%ADD24C,0.300000*%
G04 #@! TD*
G04 APERTURE END LIST*
D10*
X97500000Y-88000000D03*
D11*
X100000000Y-88000000D03*
X102500000Y-88000000D03*
D12*
X142500000Y-127000000D03*
D13*
X142500000Y-124500000D03*
X142500000Y-122000000D03*
D14*
X186500000Y-105000000D03*
D11*
X184000000Y-105000000D03*
X181500000Y-105000000D03*
D15*
X127500000Y-62250000D03*
D16*
X127500000Y-64750000D03*
X127500000Y-67250000D03*
X127500000Y-69750000D03*
D12*
X171350000Y-127000000D03*
D13*
X171350000Y-124500000D03*
X171350000Y-122000000D03*
D10*
X97500000Y-107000000D03*
D11*
X100000000Y-107000000D03*
X102500000Y-107000000D03*
D17*
X120500000Y-86900000D03*
X120500000Y-85000000D03*
D18*
X103500000Y-62500000D03*
D13*
X103500000Y-65000000D03*
X103500000Y-67500000D03*
X103500000Y-70000000D03*
D15*
X119000000Y-62250000D03*
D16*
X119000000Y-64750000D03*
X119000000Y-67250000D03*
X119000000Y-69750000D03*
D14*
X186500000Y-95500000D03*
D11*
X184000000Y-95500000D03*
X181500000Y-95500000D03*
D12*
X99500000Y-126000000D03*
D13*
X99500000Y-123500000D03*
X99500000Y-121000000D03*
D10*
X179000000Y-70000000D03*
D11*
X181500000Y-70000000D03*
X184000000Y-70000000D03*
X186500000Y-70000000D03*
D19*
X157750000Y-67550000D03*
D20*
X159250000Y-67550000D03*
X160750000Y-67550000D03*
X162250000Y-67550000D03*
X163750000Y-67550000D03*
X165250000Y-67550000D03*
D12*
X152350000Y-127000000D03*
D13*
X152350000Y-124500000D03*
X152350000Y-122000000D03*
D10*
X179000000Y-82000000D03*
D11*
X181500000Y-82000000D03*
X184000000Y-82000000D03*
X186500000Y-82000000D03*
D16*
X125540000Y-121190000D03*
X125500000Y-128750000D03*
X120500000Y-121250000D03*
X120460000Y-128810000D03*
D12*
X161850000Y-127000000D03*
D13*
X161850000Y-124500000D03*
X161850000Y-122000000D03*
D10*
X97500000Y-78500000D03*
D11*
X100000000Y-78500000D03*
X102500000Y-78500000D03*
D10*
X97500000Y-97500000D03*
D11*
X100000000Y-97500000D03*
X102500000Y-97500000D03*
D14*
X186500000Y-124000000D03*
D11*
X184000000Y-124000000D03*
X181500000Y-124000000D03*
D12*
X132850000Y-127000000D03*
D13*
X132850000Y-124500000D03*
X132850000Y-122000000D03*
D21*
X120500000Y-96950000D03*
X120500000Y-92070000D03*
D15*
X136000000Y-62250000D03*
D16*
X136000000Y-64750000D03*
X136000000Y-67250000D03*
X136000000Y-69750000D03*
D15*
X144500000Y-62250000D03*
D16*
X144500000Y-64750000D03*
X144500000Y-67250000D03*
X144500000Y-69750000D03*
D14*
X186500000Y-114500000D03*
D11*
X184000000Y-114500000D03*
X181500000Y-114500000D03*
D22*
X127500000Y-93750000D03*
D23*
X123500000Y-80000000D03*
X140000000Y-93500000D03*
X147000000Y-102500000D03*
X140000000Y-90500000D03*
X107000000Y-98500000D03*
X151750000Y-100000000D03*
X139000000Y-93500000D03*
X140000000Y-91500000D03*
X138000000Y-92500000D03*
X139000000Y-92500000D03*
X190500000Y-101000000D03*
X139000000Y-90500000D03*
X153000000Y-65500000D03*
X102500000Y-102500000D03*
X148250000Y-87000000D03*
X171000000Y-86500000D03*
X104000000Y-85500000D03*
X154500000Y-89000000D03*
X150000000Y-73000000D03*
X159800000Y-89900000D03*
X95000000Y-126000000D03*
X140000000Y-92500000D03*
X138000000Y-90500000D03*
X126000000Y-86000000D03*
X126000000Y-118000000D03*
X174500000Y-100000000D03*
X157500000Y-73000000D03*
X137500000Y-124000000D03*
X126000000Y-88500000D03*
X125500000Y-74500000D03*
X131250000Y-96500000D03*
X142250000Y-99250000D03*
X160000000Y-117000000D03*
X140000000Y-101500000D03*
X151500000Y-90500000D03*
X157000000Y-107500000D03*
X155000000Y-97000000D03*
X161000000Y-101500000D03*
X173500000Y-104500000D03*
X133500000Y-115500000D03*
X137000000Y-91500000D03*
X155000000Y-80500000D03*
X137000000Y-90500000D03*
X108000000Y-79000000D03*
X131250000Y-87250000D03*
X182000000Y-100500000D03*
X166000000Y-79500000D03*
X184500000Y-89500000D03*
X134719669Y-84780331D03*
X138000000Y-91500000D03*
X150000000Y-88750000D03*
X159700000Y-97900000D03*
X147000000Y-124500000D03*
X141500000Y-109500000D03*
X135500000Y-75500000D03*
X175000000Y-80500000D03*
X137000000Y-93500000D03*
X138000000Y-93500000D03*
X148750000Y-92250000D03*
X124000000Y-106500000D03*
X95500000Y-64500000D03*
X137000000Y-92500000D03*
X126250000Y-97000000D03*
X152500000Y-118000000D03*
X141000000Y-68500000D03*
X163000000Y-84500000D03*
X166750000Y-95500000D03*
X169500000Y-65500000D03*
X112500000Y-108000000D03*
X172500000Y-73500000D03*
X160000000Y-93000000D03*
X146500000Y-111000000D03*
X139000000Y-91500000D03*
X167500000Y-116500000D03*
X112500000Y-93000000D03*
X111000000Y-57500000D03*
X181500000Y-63000000D03*
X112000000Y-68500000D03*
X148500000Y-96750000D03*
X151000000Y-89500000D03*
X150500000Y-97000000D03*
X137969669Y-83030331D03*
X148750000Y-90750000D03*
X147500000Y-90750000D03*
X139250000Y-80500000D03*
X139250000Y-79250000D03*
X120500000Y-77000000D03*
X152000000Y-94250000D03*
X153102099Y-95000000D03*
D22*
X130000000Y-87750000D03*
X129500000Y-88500000D03*
X129250000Y-89750000D03*
D23*
X120500000Y-78500000D03*
D22*
X128750000Y-90750000D03*
D23*
X144000000Y-104000000D03*
X148000000Y-84500000D03*
X130362500Y-100000000D03*
X125000000Y-83000000D03*
X149000000Y-104000000D03*
X170000000Y-93000000D03*
D24*
X120500000Y-100750000D02*
X120500000Y-121250000D01*
X127500000Y-93750000D02*
X120500000Y-100750000D01*
X123500000Y-66060854D02*
X126060854Y-63500000D01*
X123500000Y-80000000D02*
X123500000Y-66060854D01*
X120500000Y-128770000D02*
X120460000Y-128810000D01*
X126060854Y-63500000D02*
X146500000Y-63500000D01*
X120500000Y-121250000D02*
X120500000Y-128770000D01*
X146500000Y-63500000D02*
X154000000Y-71000000D01*
X163750000Y-67900000D02*
X163750000Y-67550000D01*
X154000000Y-71000000D02*
X160650000Y-71000000D01*
X160650000Y-71000000D02*
X163750000Y-67900000D01*
X179000000Y-82000000D02*
X179000000Y-70000000D01*
X179000000Y-82000000D02*
X158500000Y-82000000D01*
X150000000Y-90500000D02*
X151000000Y-89500000D01*
X150000000Y-96500000D02*
X150000000Y-90500000D01*
X158500000Y-82000000D02*
X151000000Y-89500000D01*
X150500000Y-97000000D02*
X150000000Y-96500000D01*
X165250000Y-67900000D02*
X165250000Y-67550000D01*
X139000000Y-82000000D02*
X151150000Y-82000000D01*
X151150000Y-82000000D02*
X165250000Y-67900000D01*
X137969669Y-83030331D02*
X139000000Y-82000000D01*
X130032167Y-76188136D02*
X130117019Y-76272988D01*
X148750000Y-90208520D02*
X148750000Y-90750000D01*
X129000000Y-68750000D02*
X129000000Y-76541480D01*
X140207520Y-87749000D02*
X147207520Y-87749000D01*
X148750000Y-89793480D02*
X148750000Y-90000000D01*
X131729268Y-77885147D02*
X131814120Y-77969999D01*
X130187940Y-77390009D02*
X130541328Y-77036618D01*
X147501000Y-88042479D02*
X147501000Y-88042480D01*
X127500000Y-67250000D02*
X129000000Y-68750000D01*
X129763674Y-77305155D02*
X129848528Y-77390008D01*
X132309258Y-79850739D02*
X132394112Y-79935592D01*
X129339412Y-76541481D02*
X129692755Y-76188135D01*
X148456520Y-88998000D02*
X148750000Y-89291479D01*
X130965592Y-77460883D02*
X130612201Y-77814271D01*
X130612202Y-78153683D02*
X130697056Y-78238536D01*
X133242640Y-80784120D02*
X134713585Y-82255065D01*
X131814120Y-78309411D02*
X131460729Y-78662799D01*
X134713585Y-82255065D02*
X140207520Y-87749000D01*
X132733524Y-79935593D02*
X133086897Y-79582217D01*
X148456521Y-88998000D02*
X148456520Y-88998000D01*
X133157786Y-80699267D02*
X133242640Y-80784120D01*
X131884996Y-79087065D02*
X132238369Y-78733689D01*
X132577781Y-78733690D02*
X132662633Y-78818542D01*
X147207520Y-87749000D02*
X147501000Y-88042479D01*
X130117019Y-76612400D02*
X129763673Y-76965743D01*
X148750000Y-89706520D02*
X148750000Y-89793480D01*
X133511161Y-80006482D02*
X133157785Y-80359855D01*
X133426309Y-79582218D02*
X133511161Y-79667070D01*
X132662633Y-79157954D02*
X132309257Y-79511327D01*
X148750000Y-89291479D02*
X148750000Y-89291480D01*
X148750000Y-89291480D02*
X148750000Y-89706520D01*
X148750000Y-90000000D02*
X148750000Y-90208520D01*
X131036468Y-78238537D02*
X131389856Y-77885146D01*
X131460730Y-79002211D02*
X131545584Y-79087064D01*
X147501000Y-88042480D02*
X148456521Y-88998000D01*
X130880740Y-77036619D02*
X130965592Y-77121471D01*
X129763673Y-76965743D02*
G75*
G03*
X129763722Y-77305106I169727J-169657D01*
G01*
X129692755Y-76188135D02*
G75*
G02*
X130032207Y-76188096I169745J-169665D01*
G01*
X129000000Y-76541480D02*
G75*
G03*
X129339405Y-76541475I169700J169680D01*
G01*
X132662633Y-78818542D02*
G75*
G02*
X132662585Y-79157906I-169733J-169658D01*
G01*
X131460729Y-78662799D02*
G75*
G03*
X131460735Y-79002206I169671J-169701D01*
G01*
X133511161Y-79667070D02*
G75*
G02*
X133511185Y-80006506I-169661J-169730D01*
G01*
X133157785Y-80359855D02*
G75*
G03*
X133157746Y-80699306I169715J-169745D01*
G01*
X130965592Y-77121471D02*
G75*
G02*
X130965615Y-77460906I-169692J-169729D01*
G01*
X132394112Y-79935592D02*
G75*
G03*
X132733505Y-79935575I169688J169692D01*
G01*
X130612201Y-77814271D02*
G75*
G03*
X130612178Y-78153706I169699J-169729D01*
G01*
X132238369Y-78733689D02*
G75*
G02*
X132577806Y-78733664I169731J-169711D01*
G01*
X132309257Y-79511327D02*
G75*
G03*
X132309290Y-79850707I169743J-169673D01*
G01*
X130117019Y-76272988D02*
G75*
G02*
X130117025Y-76612406I-169719J-169712D01*
G01*
X130541328Y-77036618D02*
G75*
G02*
X130880706Y-77036652I169672J-169682D01*
G01*
X133086897Y-79582217D02*
G75*
G02*
X133426306Y-79582221I169703J-169683D01*
G01*
X131545584Y-79087064D02*
G75*
G03*
X131885006Y-79087075I169716J169664D01*
G01*
X131389856Y-77885146D02*
G75*
G02*
X131729306Y-77885108I169744J-169754D01*
G01*
X131814120Y-77969999D02*
G75*
G02*
X131814115Y-78309406I-169720J-169701D01*
G01*
X129848528Y-77390008D02*
G75*
G03*
X130187905Y-77389975I169672J169708D01*
G01*
X130697056Y-78238536D02*
G75*
G03*
X131036505Y-78238575I169744J169736D01*
G01*
X127500000Y-75750000D02*
X128611982Y-76861982D01*
X140000000Y-88250000D02*
X147000000Y-88250000D01*
X127500000Y-69750000D02*
X127500000Y-75750000D01*
X128611982Y-77201393D02*
X128304530Y-77508844D01*
X131801334Y-80051334D02*
X140000000Y-88250000D01*
X148249000Y-90001000D02*
X147500000Y-90750000D01*
X147000000Y-88250000D02*
X148249000Y-89499000D01*
X128728794Y-77933107D02*
X129036245Y-77625655D01*
X128304530Y-77848255D02*
X128389382Y-77933107D01*
X129460510Y-77710510D02*
X131801334Y-80051334D01*
X148249000Y-89499000D02*
X148249000Y-90001000D01*
X129375656Y-77625655D02*
X129460510Y-77710510D01*
X128304530Y-77508844D02*
G75*
G03*
X128304579Y-77848205I169670J-169656D01*
G01*
X128611982Y-76861982D02*
G75*
G02*
X128611995Y-77201406I-169682J-169718D01*
G01*
X129036245Y-77625655D02*
G75*
G02*
X129375656Y-77625654I169706J-169707D01*
G01*
X128389382Y-77933107D02*
G75*
G03*
X128728794Y-77933107I169706J169704D01*
G01*
X144415971Y-75334033D02*
X144331116Y-75418885D01*
X145179645Y-74909767D02*
X145429834Y-75159956D01*
X144331116Y-75418885D02*
X142344376Y-77405624D01*
X144500000Y-67250000D02*
X146000000Y-68750000D01*
X146000000Y-68750000D02*
X146000000Y-73750000D01*
X142344376Y-77405624D02*
X139250000Y-80500000D01*
X146000000Y-73750000D02*
X145179645Y-74570355D01*
X145005569Y-75584222D02*
X144755381Y-75334034D01*
X145429833Y-75499368D02*
X145344981Y-75584221D01*
X145429834Y-75159956D02*
G75*
G02*
X145429872Y-75499406I-169734J-169744D01*
G01*
X145344981Y-75584221D02*
G75*
G02*
X145005594Y-75584197I-169681J169721D01*
G01*
X144755381Y-75334034D02*
G75*
G03*
X144415996Y-75334057I-169681J-169666D01*
G01*
X145179645Y-74570355D02*
G75*
G03*
X145179606Y-74909806I169655J-169745D01*
G01*
X143057499Y-75442501D02*
X143172165Y-75557167D01*
X143416341Y-74104281D02*
X143736323Y-74424263D01*
X142652665Y-74528548D02*
X142567811Y-74613401D01*
X142518570Y-75981432D02*
X142332713Y-76167288D01*
X143172165Y-75786499D02*
X142977232Y-75981433D01*
X143597671Y-75134143D02*
X143481765Y-75018237D01*
X144160588Y-74000000D02*
X143840605Y-73680017D01*
X144500000Y-69750000D02*
X144500000Y-74000000D01*
X142332713Y-76167288D02*
X140243161Y-78256839D01*
X142567811Y-74952812D02*
X143057498Y-75442499D01*
X140243161Y-78256839D02*
X139250000Y-79250000D01*
X144021937Y-74941687D02*
X143829481Y-75134144D01*
X143501194Y-73680017D02*
X143416341Y-73764869D01*
X143481765Y-75018237D02*
X143481764Y-75018236D01*
X143736323Y-74424263D02*
X143906030Y-74593970D01*
X143906030Y-74593970D02*
X144021937Y-74709877D01*
X143481764Y-75018236D02*
X142992076Y-74528548D01*
X143057498Y-75442499D02*
X143057499Y-75442501D01*
X143172165Y-75557167D02*
G75*
G02*
X143172132Y-75786466I-114665J-114633D01*
G01*
X144500000Y-74000000D02*
G75*
G02*
X144160588Y-74000000I-169706J169704D01*
G01*
X143829481Y-75134144D02*
G75*
G02*
X143597694Y-75134120I-115881J115944D01*
G01*
X142992076Y-74528548D02*
G75*
G03*
X142652666Y-74528548I-169705J-169703D01*
G01*
X143840605Y-73680017D02*
G75*
G03*
X143501195Y-73680017I-169705J-169703D01*
G01*
X142977232Y-75981433D02*
G75*
G02*
X142747900Y-75981433I-114666J114667D01*
G01*
X144021937Y-74709877D02*
G75*
G02*
X144021955Y-74941705I-115937J-115923D01*
G01*
X142747900Y-75981433D02*
G75*
G03*
X142518536Y-75981397I-114700J-114667D01*
G01*
X143416341Y-73764869D02*
G75*
G03*
X143416316Y-74104306I169659J-169731D01*
G01*
X142567811Y-74613401D02*
G75*
G03*
X142567817Y-74952805I169689J-169699D01*
G01*
X112399306Y-77000000D02*
X112275388Y-76876082D01*
X112275388Y-76275388D02*
X112151471Y-76151471D01*
X112151471Y-76151471D02*
X111233250Y-75233250D01*
X111233250Y-75233250D02*
X103500000Y-67500000D01*
X120500000Y-77000000D02*
X113000000Y-77000000D01*
X112699652Y-76999999D02*
G75*
G02*
X112399327Y-76999979I-150152J150199D01*
G01*
X112275387Y-76575734D02*
G75*
G03*
X112275349Y-76275428I-150187J150134D01*
G01*
X112275388Y-76876082D02*
G75*
G02*
X112275379Y-76575727I150212J150182D01*
G01*
X113000000Y-77000000D02*
G75*
G03*
X112699627Y-76999973I-150200J-150200D01*
G01*
X152000000Y-94250000D02*
X173250000Y-94250000D01*
X173250000Y-94250000D02*
X184000000Y-105000000D01*
X153102099Y-96540024D02*
X162687075Y-106125000D01*
X153102099Y-95000000D02*
X153102099Y-96540024D01*
X162687075Y-106125000D02*
X175625000Y-106125000D01*
X175625000Y-106125000D02*
X184000000Y-114500000D01*
X130000000Y-87750000D02*
X127250000Y-85000000D01*
X127250000Y-85000000D02*
X120500000Y-85000000D01*
X127900000Y-86900000D02*
X120500000Y-86900000D01*
X129500000Y-88500000D02*
X127900000Y-86900000D01*
X126500000Y-89750000D02*
X124180000Y-92070000D01*
X124180000Y-92070000D02*
X120500000Y-92070000D01*
X129250000Y-89750000D02*
X126500000Y-89750000D01*
X112012432Y-78500000D02*
X112000000Y-78500000D01*
X111241857Y-77221668D02*
X111151468Y-77312056D01*
X109515833Y-76015833D02*
X103500000Y-70000000D01*
X111660588Y-78500000D02*
X111393437Y-78767148D01*
X111666122Y-77306522D02*
X111581268Y-77221668D01*
X111054027Y-78767149D02*
X110969172Y-78682294D01*
X110969172Y-78342882D02*
X111236320Y-78075731D01*
X111406028Y-77906028D02*
X111575733Y-77736322D01*
X111575733Y-77736322D02*
X111666122Y-77645933D01*
X110812056Y-77312056D02*
X110727204Y-77227204D01*
X110727204Y-77227204D02*
X109515833Y-76015833D01*
X120500000Y-78500000D02*
X112012432Y-78500000D01*
X111406025Y-77906026D02*
X111406028Y-77906028D01*
X111236320Y-78075731D02*
X111406025Y-77906026D01*
X111666122Y-77645933D02*
G75*
G03*
X111666150Y-77306495I-169722J169733D01*
G01*
X111393437Y-78767148D02*
G75*
G02*
X111053996Y-78767181I-169737J169748D01*
G01*
X112000000Y-78500000D02*
G75*
G03*
X111660588Y-78500000I-169706J-169701D01*
G01*
X110969172Y-78682294D02*
G75*
G02*
X110969184Y-78342894I169728J169694D01*
G01*
X111581268Y-77221668D02*
G75*
G03*
X111241856Y-77221667I-169706J-169703D01*
G01*
X111151468Y-77312056D02*
G75*
G02*
X110812056Y-77312056I-169706J169704D01*
G01*
X128750000Y-90750000D02*
X127000000Y-90750000D01*
X127000000Y-90750000D02*
X120800000Y-96950000D01*
X120800000Y-96950000D02*
X120500000Y-96950000D01*
X174500000Y-59500000D02*
X164935000Y-59500000D01*
X175500000Y-59500000D02*
X175000000Y-59500000D01*
X149000000Y-123650000D02*
X152350000Y-127000000D01*
X102000000Y-83000000D02*
X97500000Y-78500000D01*
X190500000Y-65250000D02*
X184750000Y-59500000D01*
X125000000Y-83000000D02*
X102000000Y-83000000D01*
X157750000Y-66685000D02*
X157750000Y-67550000D01*
X149000000Y-104000000D02*
X149000000Y-123650000D01*
X164467500Y-59967500D02*
X157750000Y-66685000D01*
X154000000Y-84500000D02*
X148000000Y-84500000D01*
X186500000Y-95500000D02*
X190500000Y-91500000D01*
X175000000Y-59500000D02*
X175000000Y-60000000D01*
X175000000Y-59500000D02*
X174500000Y-59500000D01*
X175000000Y-60000000D02*
X175000000Y-63500000D01*
X128000000Y-122150000D02*
X132850000Y-127000000D01*
X184000000Y-93000000D02*
X186500000Y-95500000D01*
X97500000Y-62500000D02*
X97500000Y-78500000D01*
X144000000Y-125500000D02*
X142500000Y-127000000D01*
X164935000Y-59500000D02*
X164467500Y-59967500D01*
X164500000Y-59500000D02*
X100500000Y-59500000D01*
X128000000Y-102500000D02*
X128000000Y-122150000D01*
X100500000Y-59500000D02*
X97500000Y-62500000D01*
X164935000Y-59500000D02*
X164500000Y-59500000D01*
X184750000Y-59500000D02*
X175500000Y-59500000D01*
X190500000Y-91500000D02*
X190500000Y-65250000D01*
X164500000Y-59935000D02*
X164467500Y-59967500D01*
X174500000Y-59500000D02*
X175000000Y-60000000D01*
X130362500Y-100137500D02*
X128000000Y-102500000D01*
X170000000Y-93000000D02*
X184000000Y-93000000D01*
X164500000Y-59500000D02*
X164500000Y-59935000D01*
X175000000Y-60000000D02*
X175500000Y-59500000D01*
X175000000Y-63500000D02*
X154000000Y-84500000D01*
X130362500Y-100000000D02*
X130362500Y-100137500D01*
X144000000Y-104000000D02*
X144000000Y-125500000D01*
G04 #@! TA.AperFunction,Conductor*
G36*
X174208632Y-60159144D02*
G01*
X174238619Y-60165668D01*
X174243634Y-60169422D01*
X174246231Y-60170185D01*
X174266873Y-60186819D01*
X174313181Y-60233127D01*
X174346666Y-60294450D01*
X174349500Y-60320808D01*
X174349500Y-63179192D01*
X174329815Y-63246231D01*
X174313181Y-63266873D01*
X153766873Y-83813181D01*
X153705550Y-83846666D01*
X153679192Y-83849500D01*
X148674362Y-83849500D01*
X148607323Y-83829815D01*
X148586681Y-83813181D01*
X148574038Y-83800538D01*
X148574034Y-83800535D01*
X148426553Y-83701990D01*
X148426540Y-83701983D01*
X148262667Y-83634106D01*
X148262658Y-83634103D01*
X148088694Y-83599500D01*
X148088691Y-83599500D01*
X147911309Y-83599500D01*
X147911306Y-83599500D01*
X147737341Y-83634103D01*
X147737332Y-83634106D01*
X147573459Y-83701983D01*
X147573446Y-83701990D01*
X147425965Y-83800535D01*
X147425961Y-83800538D01*
X147300538Y-83925961D01*
X147300535Y-83925965D01*
X147201990Y-84073446D01*
X147201983Y-84073459D01*
X147134106Y-84237332D01*
X147134103Y-84237341D01*
X147099500Y-84411304D01*
X147099500Y-84588695D01*
X147134103Y-84762658D01*
X147134106Y-84762667D01*
X147201983Y-84926540D01*
X147201990Y-84926553D01*
X147300535Y-85074034D01*
X147300538Y-85074038D01*
X147425961Y-85199461D01*
X147425965Y-85199464D01*
X147573446Y-85298009D01*
X147573459Y-85298016D01*
X147696363Y-85348923D01*
X147737334Y-85365894D01*
X147737336Y-85365894D01*
X147737341Y-85365896D01*
X147911304Y-85400499D01*
X147911307Y-85400500D01*
X147911309Y-85400500D01*
X148088693Y-85400500D01*
X148088694Y-85400499D01*
X148146682Y-85388964D01*
X148262658Y-85365896D01*
X148262661Y-85365894D01*
X148262666Y-85365894D01*
X148426547Y-85298013D01*
X148574035Y-85199464D01*
X148574038Y-85199461D01*
X148586681Y-85186819D01*
X148648004Y-85153334D01*
X148674362Y-85150500D01*
X154064069Y-85150500D01*
X154119386Y-85139496D01*
X154188975Y-85145722D01*
X154244153Y-85188584D01*
X154267399Y-85254473D01*
X154251333Y-85322470D01*
X154231258Y-85348794D01*
X151016873Y-88563181D01*
X150955550Y-88596666D01*
X150929192Y-88599500D01*
X150911306Y-88599500D01*
X150737341Y-88634103D01*
X150737332Y-88634106D01*
X150573459Y-88701983D01*
X150573446Y-88701990D01*
X150425965Y-88800535D01*
X150425961Y-88800538D01*
X150300538Y-88925961D01*
X150300535Y-88925965D01*
X150201990Y-89073446D01*
X150201983Y-89073459D01*
X150134106Y-89237332D01*
X150134103Y-89237341D01*
X150099500Y-89411304D01*
X150099500Y-89429191D01*
X150079815Y-89496230D01*
X150063181Y-89516872D01*
X149612181Y-89967872D01*
X149550858Y-90001357D01*
X149481166Y-89996373D01*
X149425233Y-89954501D01*
X149400816Y-89889037D01*
X149400500Y-89880191D01*
X149400500Y-89227409D01*
X149400499Y-89227407D01*
X149393299Y-89191210D01*
X149392610Y-89187743D01*
X149375501Y-89101735D01*
X149326465Y-88983352D01*
X149326463Y-88983348D01*
X149324405Y-88980269D01*
X149324401Y-88980262D01*
X149255277Y-88876810D01*
X149255276Y-88876809D01*
X149202208Y-88823741D01*
X148964908Y-88586442D01*
X148964883Y-88586415D01*
X148013346Y-87634880D01*
X148013344Y-87634877D01*
X147622191Y-87243725D01*
X147622183Y-87243719D01*
X147515656Y-87172540D01*
X147515649Y-87172536D01*
X147515646Y-87172534D01*
X147515642Y-87172532D01*
X147515638Y-87172530D01*
X147426292Y-87135523D01*
X147397262Y-87123498D01*
X147397258Y-87123497D01*
X147271591Y-87098500D01*
X147271589Y-87098500D01*
X140528328Y-87098500D01*
X140461289Y-87078815D01*
X140440647Y-87062181D01*
X137409804Y-84031338D01*
X137376319Y-83970015D01*
X137381303Y-83900323D01*
X137423175Y-83844390D01*
X137488639Y-83819973D01*
X137544937Y-83829096D01*
X137633774Y-83865893D01*
X137707003Y-83896225D01*
X137707005Y-83896225D01*
X137707010Y-83896227D01*
X137880973Y-83930830D01*
X137880976Y-83930831D01*
X137880978Y-83930831D01*
X138058362Y-83930831D01*
X138058363Y-83930830D01*
X138116351Y-83919295D01*
X138232327Y-83896227D01*
X138232330Y-83896225D01*
X138232335Y-83896225D01*
X138392665Y-83829815D01*
X138396209Y-83828347D01*
X138396209Y-83828346D01*
X138396216Y-83828344D01*
X138543704Y-83729795D01*
X138669133Y-83604366D01*
X138767682Y-83456878D01*
X138835563Y-83292997D01*
X138841597Y-83262666D01*
X138870168Y-83119026D01*
X138870169Y-83119024D01*
X138870169Y-83101139D01*
X138889854Y-83034100D01*
X138906488Y-83013458D01*
X139233127Y-82686819D01*
X139294450Y-82653334D01*
X139320808Y-82650500D01*
X151214071Y-82650500D01*
X151298615Y-82633682D01*
X151339744Y-82625501D01*
X151458127Y-82576465D01*
X151462635Y-82573453D01*
X151564669Y-82505277D01*
X165118126Y-68951818D01*
X165179449Y-68918334D01*
X165205807Y-68915500D01*
X165350019Y-68915500D01*
X165350020Y-68915499D01*
X165546211Y-68876475D01*
X165731020Y-68799925D01*
X165897344Y-68688791D01*
X166038791Y-68547344D01*
X166149925Y-68381020D01*
X166226475Y-68196211D01*
X166265500Y-68000018D01*
X166265500Y-67099982D01*
X166226475Y-66903789D01*
X166176113Y-66782203D01*
X166149928Y-66718986D01*
X166149921Y-66718973D01*
X166038791Y-66552656D01*
X166038788Y-66552652D01*
X165897347Y-66411211D01*
X165897343Y-66411208D01*
X165731026Y-66300078D01*
X165731013Y-66300071D01*
X165546215Y-66223526D01*
X165546203Y-66223523D01*
X165350022Y-66184500D01*
X165350018Y-66184500D01*
X165149982Y-66184500D01*
X165149977Y-66184500D01*
X164953796Y-66223523D01*
X164953784Y-66223526D01*
X164768986Y-66300071D01*
X164768973Y-66300078D01*
X164602656Y-66411208D01*
X164602652Y-66411211D01*
X164587681Y-66426183D01*
X164526358Y-66459668D01*
X164456666Y-66454684D01*
X164412319Y-66426183D01*
X164397347Y-66411211D01*
X164397343Y-66411208D01*
X164231026Y-66300078D01*
X164231013Y-66300071D01*
X164046215Y-66223526D01*
X164046203Y-66223523D01*
X163850022Y-66184500D01*
X163850018Y-66184500D01*
X163649982Y-66184500D01*
X163649977Y-66184500D01*
X163453796Y-66223523D01*
X163453784Y-66223526D01*
X163268986Y-66300071D01*
X163268973Y-66300078D01*
X163102656Y-66411208D01*
X163102652Y-66411211D01*
X163087681Y-66426183D01*
X163026358Y-66459668D01*
X162956666Y-66454684D01*
X162912319Y-66426183D01*
X162897347Y-66411211D01*
X162897343Y-66411208D01*
X162731026Y-66300078D01*
X162731013Y-66300071D01*
X162546215Y-66223526D01*
X162546203Y-66223523D01*
X162350022Y-66184500D01*
X162350018Y-66184500D01*
X162149982Y-66184500D01*
X162149977Y-66184500D01*
X161953796Y-66223523D01*
X161953784Y-66223526D01*
X161768986Y-66300071D01*
X161768973Y-66300078D01*
X161602656Y-66411208D01*
X161602652Y-66411211D01*
X161587327Y-66426537D01*
X161526004Y-66460022D01*
X161456312Y-66455038D01*
X161411965Y-66426537D01*
X161397028Y-66411600D01*
X161397024Y-66411597D01*
X161230789Y-66300522D01*
X161230780Y-66300517D01*
X161046065Y-66224006D01*
X161046057Y-66224004D01*
X161000000Y-66214842D01*
X161000000Y-67283811D01*
X160974116Y-67257927D01*
X160890885Y-67209874D01*
X160798053Y-67185000D01*
X160701947Y-67185000D01*
X160609115Y-67209874D01*
X160525884Y-67257927D01*
X160500000Y-67283811D01*
X160500000Y-66214843D01*
X160499999Y-66214842D01*
X160453942Y-66224004D01*
X160453934Y-66224006D01*
X160269219Y-66300517D01*
X160269210Y-66300522D01*
X160102975Y-66411597D01*
X160088032Y-66426540D01*
X160026708Y-66460023D01*
X159957016Y-66455037D01*
X159912670Y-66426535D01*
X159897346Y-66411210D01*
X159897343Y-66411208D01*
X159731026Y-66300078D01*
X159731013Y-66300071D01*
X159546215Y-66223526D01*
X159546203Y-66223523D01*
X159427768Y-66199965D01*
X159365857Y-66167580D01*
X159331283Y-66106865D01*
X159335022Y-66037095D01*
X159364276Y-65990669D01*
X164972777Y-60382169D01*
X165005277Y-60349669D01*
X165168127Y-60186819D01*
X165229450Y-60153334D01*
X165255808Y-60150500D01*
X174179192Y-60150500D01*
X174208632Y-60159144D01*
G37*
G04 #@! TD.AperFunction*
G04 #@! TA.AperFunction,Conductor*
G36*
X134764211Y-64170185D02*
G01*
X134809966Y-64222989D01*
X134819910Y-64292147D01*
X134815103Y-64312818D01*
X134769075Y-64454476D01*
X134769075Y-64454479D01*
X134738000Y-64650678D01*
X134738000Y-64849321D01*
X134769075Y-65045520D01*
X134769075Y-65045523D01*
X134830457Y-65234437D01*
X134920641Y-65411432D01*
X134947730Y-65448715D01*
X135619000Y-64777445D01*
X135619000Y-64800160D01*
X135644964Y-64897061D01*
X135695124Y-64983940D01*
X135766060Y-65054876D01*
X135852939Y-65105036D01*
X135949840Y-65131000D01*
X135972553Y-65131000D01*
X135301283Y-65802268D01*
X135301283Y-65802269D01*
X135338567Y-65829358D01*
X135456079Y-65889234D01*
X135506875Y-65937209D01*
X135523670Y-66005030D01*
X135501133Y-66071165D01*
X135456079Y-66110204D01*
X135338305Y-66170213D01*
X135177533Y-66287021D01*
X135037021Y-66427533D01*
X134920213Y-66588305D01*
X134829994Y-66765367D01*
X134829993Y-66765370D01*
X134768587Y-66954362D01*
X134737500Y-67150639D01*
X134737500Y-67349360D01*
X134768587Y-67545637D01*
X134829993Y-67734629D01*
X134829994Y-67734632D01*
X134913998Y-67899496D01*
X134920213Y-67911694D01*
X135037019Y-68072464D01*
X135177536Y-68212981D01*
X135338306Y-68329787D01*
X135349193Y-68335334D01*
X135455528Y-68389515D01*
X135506324Y-68437490D01*
X135523119Y-68505311D01*
X135500581Y-68571446D01*
X135455528Y-68610485D01*
X135338305Y-68670213D01*
X135177533Y-68787021D01*
X135037021Y-68927533D01*
X134920213Y-69088305D01*
X134829994Y-69265367D01*
X134829993Y-69265370D01*
X134768587Y-69454362D01*
X134737500Y-69650639D01*
X134737500Y-69849360D01*
X134768587Y-70045637D01*
X134829993Y-70234629D01*
X134829994Y-70234632D01*
X134871578Y-70316243D01*
X134920213Y-70411694D01*
X135037019Y-70572464D01*
X135177536Y-70712981D01*
X135338306Y-70829787D01*
X135425149Y-70874035D01*
X135515367Y-70920005D01*
X135515370Y-70920006D01*
X135609866Y-70950709D01*
X135704364Y-70981413D01*
X135900639Y-71012500D01*
X135900640Y-71012500D01*
X136099360Y-71012500D01*
X136099361Y-71012500D01*
X136295636Y-70981413D01*
X136484632Y-70920005D01*
X136661694Y-70829787D01*
X136822464Y-70712981D01*
X136962981Y-70572464D01*
X137079787Y-70411694D01*
X137170005Y-70234632D01*
X137231413Y-70045636D01*
X137262500Y-69849361D01*
X137262500Y-69650639D01*
X137231413Y-69454364D01*
X137178718Y-69292184D01*
X137170006Y-69265370D01*
X137170005Y-69265367D01*
X137120109Y-69167442D01*
X137079787Y-69088306D01*
X136962981Y-68927536D01*
X136822464Y-68787019D01*
X136661694Y-68670213D01*
X136544470Y-68610484D01*
X136493675Y-68562510D01*
X136476880Y-68494689D01*
X136499417Y-68428555D01*
X136544469Y-68389515D01*
X136661694Y-68329787D01*
X136822464Y-68212981D01*
X136962981Y-68072464D01*
X137079787Y-67911694D01*
X137170005Y-67734632D01*
X137231413Y-67545636D01*
X137262500Y-67349361D01*
X137262500Y-67150639D01*
X137231413Y-66954364D01*
X137178718Y-66792184D01*
X137170006Y-66765370D01*
X137170005Y-66765367D01*
X137124035Y-66675149D01*
X137079787Y-66588306D01*
X136962981Y-66427536D01*
X136822464Y-66287019D01*
X136661694Y-66170213D01*
X136543919Y-66110203D01*
X136493124Y-66062229D01*
X136476329Y-65994408D01*
X136498866Y-65928273D01*
X136543921Y-65889234D01*
X136661422Y-65829364D01*
X136698715Y-65802268D01*
X136027448Y-65131000D01*
X136050160Y-65131000D01*
X136147061Y-65105036D01*
X136233940Y-65054876D01*
X136304876Y-64983940D01*
X136355036Y-64897061D01*
X136381000Y-64800160D01*
X136381000Y-64777447D01*
X137052268Y-65448715D01*
X137079362Y-65411425D01*
X137169542Y-65234437D01*
X137230924Y-65045523D01*
X137230924Y-65045520D01*
X137262000Y-64849321D01*
X137262000Y-64650678D01*
X137230924Y-64454479D01*
X137230924Y-64454476D01*
X137184897Y-64312818D01*
X137182902Y-64242977D01*
X137218983Y-64183144D01*
X137281684Y-64152316D01*
X137302828Y-64150500D01*
X143197172Y-64150500D01*
X143264211Y-64170185D01*
X143309966Y-64222989D01*
X143319910Y-64292147D01*
X143315103Y-64312818D01*
X143269075Y-64454476D01*
X143269075Y-64454479D01*
X143238000Y-64650678D01*
X143238000Y-64849321D01*
X143269075Y-65045520D01*
X143269075Y-65045523D01*
X143330457Y-65234437D01*
X143420641Y-65411432D01*
X143447730Y-65448715D01*
X144119000Y-64777445D01*
X144119000Y-64800160D01*
X144144964Y-64897061D01*
X144195124Y-64983940D01*
X144266060Y-65054876D01*
X144352939Y-65105036D01*
X144449840Y-65131000D01*
X144472553Y-65131000D01*
X143801283Y-65802268D01*
X143801283Y-65802269D01*
X143838567Y-65829358D01*
X143956079Y-65889234D01*
X144006875Y-65937209D01*
X144023670Y-66005030D01*
X144001133Y-66071165D01*
X143956079Y-66110204D01*
X143838305Y-66170213D01*
X143677533Y-66287021D01*
X143537021Y-66427533D01*
X143420213Y-66588305D01*
X143329994Y-66765367D01*
X143329993Y-66765370D01*
X143268587Y-66954362D01*
X143237500Y-67150639D01*
X143237500Y-67349360D01*
X143268587Y-67545637D01*
X143329993Y-67734629D01*
X143329994Y-67734632D01*
X143413998Y-67899496D01*
X143420213Y-67911694D01*
X143537019Y-68072464D01*
X143677536Y-68212981D01*
X143838306Y-68329787D01*
X143849193Y-68335334D01*
X143955528Y-68389515D01*
X144006324Y-68437490D01*
X144023119Y-68505311D01*
X144000581Y-68571446D01*
X143955528Y-68610485D01*
X143838305Y-68670213D01*
X143677533Y-68787021D01*
X143537021Y-68927533D01*
X143420213Y-69088305D01*
X143329994Y-69265367D01*
X143329993Y-69265370D01*
X143268587Y-69454362D01*
X143237500Y-69650639D01*
X143237500Y-69849360D01*
X143268587Y-70045637D01*
X143329993Y-70234629D01*
X143329994Y-70234632D01*
X143371578Y-70316243D01*
X143420213Y-70411694D01*
X143537019Y-70572464D01*
X143677536Y-70712981D01*
X143677539Y-70712983D01*
X143798385Y-70800783D01*
X143841051Y-70856113D01*
X143849500Y-70901101D01*
X143849500Y-72835222D01*
X143829815Y-72902261D01*
X143777011Y-72948016D01*
X143725500Y-72959222D01*
X143583189Y-72959222D01*
X143411153Y-72993442D01*
X143411147Y-72993444D01*
X143249088Y-73060571D01*
X143103237Y-73158027D01*
X143103232Y-73158031D01*
X143041219Y-73220044D01*
X143041217Y-73220047D01*
X142957718Y-73303545D01*
X142956465Y-73304798D01*
X142956465Y-73304799D01*
X142906999Y-73354263D01*
X142906679Y-73354615D01*
X142894450Y-73366839D01*
X142796961Y-73512686D01*
X142729804Y-73674754D01*
X142729803Y-73674756D01*
X142718211Y-73732994D01*
X142685818Y-73794900D01*
X142625097Y-73829466D01*
X142620790Y-73830403D01*
X142562622Y-73841973D01*
X142562620Y-73841974D01*
X142400559Y-73909102D01*
X142254708Y-74006558D01*
X142254703Y-74006562D01*
X142141871Y-74119395D01*
X142141853Y-74119404D01*
X142107846Y-74153409D01*
X142045823Y-74215428D01*
X142045822Y-74215430D01*
X141948363Y-74361281D01*
X141948360Y-74361287D01*
X141881230Y-74523351D01*
X141881229Y-74523353D01*
X141847007Y-74695407D01*
X141847009Y-74870824D01*
X141881239Y-75042880D01*
X141892420Y-75069869D01*
X141948377Y-75204945D01*
X142045844Y-75350798D01*
X142049859Y-75354813D01*
X142054200Y-75362759D01*
X142061453Y-75368189D01*
X142070686Y-75392944D01*
X142083350Y-75416129D01*
X142082704Y-75425164D01*
X142085871Y-75433653D01*
X142080255Y-75459468D01*
X142078374Y-75485822D01*
X142072552Y-75494881D01*
X142071020Y-75501927D01*
X142049892Y-75530145D01*
X142049870Y-75530181D01*
X142043815Y-75536235D01*
X142006838Y-75573201D01*
X142006813Y-75573238D01*
X142002337Y-75577715D01*
X142002327Y-75577727D01*
X141918044Y-75662010D01*
X141900604Y-75679451D01*
X141900603Y-75679451D01*
X139266873Y-78313181D01*
X139205550Y-78346666D01*
X139179192Y-78349500D01*
X139161306Y-78349500D01*
X138987341Y-78384103D01*
X138987332Y-78384106D01*
X138823459Y-78451983D01*
X138823446Y-78451990D01*
X138675965Y-78550535D01*
X138675961Y-78550538D01*
X138550538Y-78675961D01*
X138550535Y-78675965D01*
X138451990Y-78823446D01*
X138451983Y-78823459D01*
X138384106Y-78987332D01*
X138384103Y-78987341D01*
X138349500Y-79161304D01*
X138349500Y-79338695D01*
X138384103Y-79512658D01*
X138384106Y-79512667D01*
X138451983Y-79676540D01*
X138451990Y-79676553D01*
X138538557Y-79806109D01*
X138559435Y-79872787D01*
X138540950Y-79940167D01*
X138538557Y-79943891D01*
X138451990Y-80073446D01*
X138451983Y-80073459D01*
X138384106Y-80237332D01*
X138384103Y-80237341D01*
X138349500Y-80411304D01*
X138349500Y-80588695D01*
X138384103Y-80762658D01*
X138384106Y-80762667D01*
X138451983Y-80926540D01*
X138451990Y-80926553D01*
X138550535Y-81074034D01*
X138550538Y-81074038D01*
X138675961Y-81199461D01*
X138675965Y-81199464D01*
X138697327Y-81213738D01*
X138742132Y-81267350D01*
X138750839Y-81336675D01*
X138720685Y-81399703D01*
X138696145Y-81418965D01*
X138696938Y-81420151D01*
X138585326Y-81494726D01*
X138585325Y-81494727D01*
X137986542Y-82093512D01*
X137925219Y-82126997D01*
X137898861Y-82129831D01*
X137880975Y-82129831D01*
X137707010Y-82164434D01*
X137707001Y-82164437D01*
X137543128Y-82232314D01*
X137543115Y-82232321D01*
X137395634Y-82330866D01*
X137395630Y-82330869D01*
X137270207Y-82456292D01*
X137270204Y-82456296D01*
X137171659Y-82603777D01*
X137171652Y-82603790D01*
X137103775Y-82767663D01*
X137103772Y-82767672D01*
X137069169Y-82941635D01*
X137069169Y-83119026D01*
X137103772Y-83292989D01*
X137103775Y-83292998D01*
X137170903Y-83455062D01*
X137178372Y-83524532D01*
X137147096Y-83587011D01*
X137087007Y-83622662D01*
X137017182Y-83620168D01*
X136968661Y-83590195D01*
X133995733Y-80617267D01*
X133962248Y-80555944D01*
X133967232Y-80486252D01*
X133995738Y-80441900D01*
X133998053Y-80439586D01*
X134033159Y-80404483D01*
X134130633Y-80258613D01*
X134197770Y-80096527D01*
X134231990Y-79924457D01*
X134231978Y-79749017D01*
X134197733Y-79576952D01*
X134130573Y-79414876D01*
X134130571Y-79414872D01*
X134033082Y-79269024D01*
X134033081Y-79269022D01*
X134033079Y-79269020D01*
X133973737Y-79209700D01*
X133851007Y-79086970D01*
X133851003Y-79086963D01*
X133851002Y-79086965D01*
X133844240Y-79080202D01*
X133824298Y-79060257D01*
X133678444Y-78962787D01*
X133583515Y-78923461D01*
X133516376Y-78895648D01*
X133516370Y-78895646D01*
X133458164Y-78884066D01*
X133396255Y-78851678D01*
X133361683Y-78790961D01*
X133360740Y-78786621D01*
X133355977Y-78762658D01*
X133349209Y-78728602D01*
X133282118Y-78566548D01*
X133184705Y-78420695D01*
X133167950Y-78403933D01*
X133167910Y-78403873D01*
X133122708Y-78358671D01*
X133122705Y-78358668D01*
X133122704Y-78358666D01*
X133074039Y-78309981D01*
X133073996Y-78309903D01*
X132975718Y-78211641D01*
X132975714Y-78211637D01*
X132829859Y-78114198D01*
X132829856Y-78114196D01*
X132667791Y-78047081D01*
X132625439Y-78038660D01*
X132609685Y-78035527D01*
X132547773Y-78003147D01*
X132513195Y-77942434D01*
X132512251Y-77938096D01*
X132509838Y-77925965D01*
X132500692Y-77879975D01*
X132433573Y-77717919D01*
X132336130Y-77572071D01*
X132319409Y-77555348D01*
X132319397Y-77555330D01*
X132274119Y-77510052D01*
X132245980Y-77481910D01*
X132245779Y-77481684D01*
X132234423Y-77470334D01*
X132225497Y-77461412D01*
X132225407Y-77461247D01*
X132127143Y-77363028D01*
X132127139Y-77363025D01*
X131981283Y-77265612D01*
X131959873Y-77256748D01*
X131819227Y-77198520D01*
X131819225Y-77198519D01*
X131819224Y-77198519D01*
X131819220Y-77198518D01*
X131761184Y-77186983D01*
X131699268Y-77154607D01*
X131664685Y-77093896D01*
X131663741Y-77089562D01*
X131663568Y-77088695D01*
X131655638Y-77048841D01*
X131652163Y-77031377D01*
X131614132Y-76939586D01*
X131585017Y-76869313D01*
X131487542Y-76723464D01*
X131435056Y-76670989D01*
X131295409Y-76531342D01*
X131295257Y-76531241D01*
X131291663Y-76527648D01*
X131290802Y-76526787D01*
X131290799Y-76526781D01*
X131290773Y-76526757D01*
X131278750Y-76514729D01*
X131278746Y-76514727D01*
X131132908Y-76417247D01*
X131132909Y-76417247D01*
X130970851Y-76350095D01*
X130970847Y-76350093D01*
X130912562Y-76338492D01*
X130850655Y-76306099D01*
X130816089Y-76245379D01*
X130815163Y-76241125D01*
X130803590Y-76182944D01*
X130736465Y-76020889D01*
X130639016Y-75875042D01*
X130622300Y-75858326D01*
X130622296Y-75858319D01*
X130554695Y-75790718D01*
X130554682Y-75790705D01*
X130528497Y-75764517D01*
X130528406Y-75764351D01*
X130430159Y-75666102D01*
X130284281Y-75568634D01*
X130122193Y-75501505D01*
X129950116Y-75467291D01*
X129774514Y-75467312D01*
X129707473Y-75447635D01*
X129661712Y-75394836D01*
X129650500Y-75343312D01*
X129650500Y-68685928D01*
X129625502Y-68560261D01*
X129625501Y-68560260D01*
X129625501Y-68560256D01*
X129576465Y-68441873D01*
X129536620Y-68382240D01*
X129536620Y-68382239D01*
X129505279Y-68335334D01*
X129505273Y-68335326D01*
X128773924Y-67603978D01*
X128740439Y-67542655D01*
X128739132Y-67496899D01*
X128762500Y-67349360D01*
X128762500Y-67150639D01*
X128754477Y-67099982D01*
X128731413Y-66954364D01*
X128678718Y-66792184D01*
X128670006Y-66765370D01*
X128670005Y-66765367D01*
X128624035Y-66675149D01*
X128579787Y-66588306D01*
X128462981Y-66427536D01*
X128322464Y-66287019D01*
X128161694Y-66170213D01*
X128043919Y-66110203D01*
X127993124Y-66062229D01*
X127976329Y-65994408D01*
X127998866Y-65928273D01*
X128043921Y-65889234D01*
X128161422Y-65829364D01*
X128198716Y-65802268D01*
X127527448Y-65131000D01*
X127550160Y-65131000D01*
X127647061Y-65105036D01*
X127733940Y-65054876D01*
X127804876Y-64983940D01*
X127855036Y-64897061D01*
X127881000Y-64800160D01*
X127881000Y-64777447D01*
X128552268Y-65448715D01*
X128579362Y-65411425D01*
X128669542Y-65234437D01*
X128730924Y-65045523D01*
X128730924Y-65045520D01*
X128762000Y-64849321D01*
X128762000Y-64650678D01*
X128730924Y-64454479D01*
X128730924Y-64454476D01*
X128684897Y-64312818D01*
X128682902Y-64242977D01*
X128718983Y-64183144D01*
X128781684Y-64152316D01*
X128802828Y-64150500D01*
X134697172Y-64150500D01*
X134764211Y-64170185D01*
G37*
G04 #@! TD.AperFunction*
G04 #@! TA.AperFunction,Conductor*
G36*
X146246231Y-64170185D02*
G01*
X146266873Y-64186819D01*
X153585325Y-71505272D01*
X153585326Y-71505273D01*
X153585329Y-71505275D01*
X153585331Y-71505277D01*
X153691873Y-71576465D01*
X153810256Y-71625501D01*
X153810260Y-71625501D01*
X153810261Y-71625502D01*
X153935928Y-71650500D01*
X153935931Y-71650500D01*
X160280193Y-71650500D01*
X160347232Y-71670185D01*
X160392987Y-71722989D01*
X160402931Y-71792147D01*
X160373906Y-71855703D01*
X160367874Y-71862180D01*
X155637326Y-76592728D01*
X150916873Y-81313181D01*
X150855550Y-81346666D01*
X150829192Y-81349500D01*
X139973362Y-81349500D01*
X139906323Y-81329815D01*
X139860568Y-81277011D01*
X139850624Y-81207853D01*
X139879649Y-81144297D01*
X139885681Y-81137819D01*
X139949461Y-81074038D01*
X139949464Y-81074035D01*
X140048013Y-80926547D01*
X140115894Y-80762666D01*
X140124306Y-80720379D01*
X140150202Y-80590187D01*
X140150500Y-80588691D01*
X140150500Y-80570808D01*
X140170185Y-80503769D01*
X140186819Y-80483127D01*
X142908212Y-77761734D01*
X142908225Y-77761719D01*
X144509377Y-76160567D01*
X144570698Y-76127084D01*
X144640390Y-76132068D01*
X144665951Y-76145151D01*
X144753455Y-76203625D01*
X144753457Y-76203626D01*
X144753459Y-76203627D01*
X144915506Y-76270758D01*
X145087535Y-76304987D01*
X145262937Y-76305000D01*
X145434971Y-76270795D01*
X145597027Y-76203687D01*
X145742879Y-76106255D01*
X145759621Y-76089516D01*
X145759653Y-76089495D01*
X145804899Y-76044248D01*
X145804900Y-76044248D01*
X145832789Y-76016363D01*
X145832907Y-76016261D01*
X145838077Y-76011089D01*
X145853534Y-75995625D01*
X145853700Y-75995534D01*
X145889931Y-75959290D01*
X145889932Y-75959291D01*
X145951936Y-75897265D01*
X146049360Y-75751405D01*
X146116460Y-75589342D01*
X146150658Y-75417304D01*
X146150638Y-75241899D01*
X146116403Y-75069868D01*
X146105222Y-75042880D01*
X146049269Y-74907825D01*
X146049268Y-74907823D01*
X146049267Y-74907821D01*
X145990790Y-74820312D01*
X145969909Y-74753636D01*
X145988391Y-74686255D01*
X146006204Y-74663740D01*
X146505276Y-74164669D01*
X146576465Y-74058127D01*
X146625501Y-73939744D01*
X146629125Y-73921520D01*
X146632800Y-73903050D01*
X146632800Y-73903048D01*
X146650500Y-73814069D01*
X146650500Y-68685931D01*
X146650500Y-68685928D01*
X146625502Y-68560261D01*
X146625501Y-68560260D01*
X146625501Y-68560256D01*
X146576465Y-68441873D01*
X146536620Y-68382240D01*
X146536620Y-68382239D01*
X146505279Y-68335334D01*
X146505273Y-68335326D01*
X145773924Y-67603978D01*
X145740439Y-67542655D01*
X145739132Y-67496899D01*
X145762500Y-67349360D01*
X145762500Y-67150639D01*
X145754477Y-67099982D01*
X145731413Y-66954364D01*
X145678718Y-66792184D01*
X145670006Y-66765370D01*
X145670005Y-66765367D01*
X145624035Y-66675149D01*
X145579787Y-66588306D01*
X145462981Y-66427536D01*
X145322464Y-66287019D01*
X145161694Y-66170213D01*
X145043919Y-66110203D01*
X144993124Y-66062229D01*
X144976329Y-65994408D01*
X144998866Y-65928273D01*
X145043921Y-65889234D01*
X145161422Y-65829364D01*
X145198716Y-65802268D01*
X144527448Y-65131000D01*
X144550160Y-65131000D01*
X144647061Y-65105036D01*
X144733940Y-65054876D01*
X144804876Y-64983940D01*
X144855036Y-64897061D01*
X144881000Y-64800160D01*
X144881000Y-64777447D01*
X145552268Y-65448715D01*
X145579362Y-65411425D01*
X145669542Y-65234437D01*
X145730924Y-65045523D01*
X145730924Y-65045520D01*
X145762000Y-64849321D01*
X145762000Y-64650678D01*
X145730924Y-64454479D01*
X145730924Y-64454476D01*
X145684897Y-64312818D01*
X145682902Y-64242977D01*
X145718983Y-64183144D01*
X145781684Y-64152316D01*
X145802828Y-64150500D01*
X146179192Y-64150500D01*
X146246231Y-64170185D01*
G37*
G04 #@! TD.AperFunction*
G04 #@! TA.AperFunction,Conductor*
G36*
X126996231Y-85670185D02*
G01*
X127016873Y-85686819D01*
X127367873Y-86037819D01*
X127401358Y-86099142D01*
X127396374Y-86168834D01*
X127354502Y-86224767D01*
X127289038Y-86249184D01*
X127280192Y-86249500D01*
X121315783Y-86249500D01*
X121248744Y-86229815D01*
X121228106Y-86213185D01*
X121137782Y-86122861D01*
X121137778Y-86122858D01*
X121137777Y-86122857D01*
X121033381Y-86053102D01*
X120988575Y-85999490D01*
X120979868Y-85930165D01*
X121010022Y-85867138D01*
X121033381Y-85846898D01*
X121097553Y-85804019D01*
X121137782Y-85777139D01*
X121228103Y-85686817D01*
X121289424Y-85653334D01*
X121315783Y-85650500D01*
X126929192Y-85650500D01*
X126996231Y-85670185D01*
G37*
G04 #@! TD.AperFunction*
G04 #@! TA.AperFunction,Conductor*
G36*
X191502562Y-51700605D02*
G01*
X191932520Y-51718388D01*
X191942693Y-51719231D01*
X192367195Y-51772145D01*
X192377275Y-51773827D01*
X192795945Y-51861613D01*
X192805853Y-51864122D01*
X193215846Y-51986183D01*
X193225514Y-51989503D01*
X193624010Y-52144996D01*
X193633391Y-52149111D01*
X193797198Y-52229191D01*
X194017675Y-52336976D01*
X194026667Y-52341841D01*
X194394155Y-52560816D01*
X194402729Y-52566418D01*
X194750843Y-52814968D01*
X194758930Y-52821262D01*
X195085346Y-53097721D01*
X195092886Y-53104663D01*
X195395336Y-53407113D01*
X195402278Y-53414653D01*
X195678737Y-53741069D01*
X195685031Y-53749156D01*
X195933581Y-54097270D01*
X195939187Y-54105850D01*
X196072150Y-54328992D01*
X196158149Y-54473316D01*
X196163026Y-54482330D01*
X196350888Y-54866608D01*
X196355005Y-54875993D01*
X196510492Y-55274473D01*
X196513820Y-55284166D01*
X196635873Y-55694133D01*
X196638389Y-55704068D01*
X196726169Y-56122710D01*
X196727856Y-56132819D01*
X196780766Y-56557285D01*
X196781612Y-56567499D01*
X196799394Y-56997437D01*
X196799500Y-57002561D01*
X196799500Y-131997438D01*
X196799394Y-132002562D01*
X196781612Y-132432500D01*
X196780766Y-132442714D01*
X196727856Y-132867180D01*
X196726169Y-132877289D01*
X196638389Y-133295931D01*
X196635873Y-133305866D01*
X196513820Y-133715833D01*
X196510492Y-133725526D01*
X196355005Y-134124006D01*
X196350888Y-134133391D01*
X196163026Y-134517669D01*
X196158149Y-134526683D01*
X195939187Y-134894149D01*
X195933581Y-134902729D01*
X195685031Y-135250843D01*
X195678737Y-135258930D01*
X195402278Y-135585346D01*
X195395336Y-135592886D01*
X195092886Y-135895336D01*
X195085346Y-135902278D01*
X194758930Y-136178737D01*
X194750843Y-136185031D01*
X194402729Y-136433581D01*
X194394149Y-136439187D01*
X194026683Y-136658149D01*
X194017669Y-136663026D01*
X193633391Y-136850888D01*
X193624006Y-136855005D01*
X193225526Y-137010492D01*
X193215833Y-137013820D01*
X192805866Y-137135873D01*
X192795931Y-137138389D01*
X192377289Y-137226169D01*
X192367180Y-137227856D01*
X191942714Y-137280766D01*
X191932500Y-137281612D01*
X191502563Y-137299394D01*
X191497439Y-137299500D01*
X91502561Y-137299500D01*
X91497437Y-137299394D01*
X91067499Y-137281612D01*
X91057285Y-137280766D01*
X90632819Y-137227856D01*
X90622710Y-137226169D01*
X90204068Y-137138389D01*
X90194133Y-137135873D01*
X89784166Y-137013820D01*
X89774473Y-137010492D01*
X89375993Y-136855005D01*
X89366608Y-136850888D01*
X88982330Y-136663026D01*
X88973323Y-136658153D01*
X88605850Y-136439187D01*
X88597270Y-136433581D01*
X88249156Y-136185031D01*
X88241069Y-136178737D01*
X87914653Y-135902278D01*
X87907113Y-135895336D01*
X87604663Y-135592886D01*
X87597721Y-135585346D01*
X87581188Y-135565826D01*
X87321262Y-135258930D01*
X87314968Y-135250843D01*
X87066418Y-134902729D01*
X87060812Y-134894149D01*
X86841841Y-134526667D01*
X86836973Y-134517669D01*
X86789650Y-134420869D01*
X86655963Y-134147407D01*
X86649111Y-134133391D01*
X86644994Y-134124006D01*
X86489503Y-133725514D01*
X86486183Y-133715846D01*
X86364122Y-133305853D01*
X86361613Y-133295945D01*
X86273827Y-132877275D01*
X86272145Y-132867195D01*
X86219231Y-132442693D01*
X86218388Y-132432520D01*
X86200606Y-132002562D01*
X86200500Y-131997438D01*
X86200500Y-131823122D01*
X87899500Y-131823122D01*
X87899500Y-132176877D01*
X87934173Y-132528929D01*
X87934176Y-132528946D01*
X88003185Y-132875884D01*
X88003188Y-132875895D01*
X88105882Y-133214436D01*
X88241262Y-133541271D01*
X88241264Y-133541276D01*
X88408017Y-133853247D01*
X88408028Y-133853265D01*
X88604558Y-134147393D01*
X88604568Y-134147407D01*
X88828992Y-134420869D01*
X89079130Y-134671007D01*
X89079135Y-134671011D01*
X89079136Y-134671012D01*
X89352598Y-134895436D01*
X89646741Y-135091976D01*
X89646750Y-135091981D01*
X89646752Y-135091982D01*
X89958723Y-135258735D01*
X89958725Y-135258735D01*
X89958731Y-135258739D01*
X90285565Y-135394118D01*
X90624095Y-135496809D01*
X90624101Y-135496810D01*
X90624104Y-135496811D01*
X90624115Y-135496814D01*
X90841674Y-135540088D01*
X90971060Y-135565825D01*
X91323119Y-135600500D01*
X91323122Y-135600500D01*
X91676878Y-135600500D01*
X91676881Y-135600500D01*
X92028940Y-135565825D01*
X92200679Y-135531663D01*
X92375884Y-135496814D01*
X92375895Y-135496811D01*
X92375895Y-135496810D01*
X92375905Y-135496809D01*
X92714435Y-135394118D01*
X93041269Y-135258739D01*
X93353259Y-135091976D01*
X93647402Y-134895436D01*
X93920864Y-134671012D01*
X94171012Y-134420864D01*
X94395436Y-134147402D01*
X94591976Y-133853259D01*
X94758739Y-133541269D01*
X94894118Y-133214435D01*
X94996809Y-132875905D01*
X94996811Y-132875895D01*
X94996814Y-132875884D01*
X95037659Y-132670539D01*
X95065825Y-132528940D01*
X95100500Y-132176881D01*
X95100500Y-131823122D01*
X187899500Y-131823122D01*
X187899500Y-132176877D01*
X187934173Y-132528929D01*
X187934176Y-132528946D01*
X188003185Y-132875884D01*
X188003188Y-132875895D01*
X188105882Y-133214436D01*
X188241262Y-133541271D01*
X188241264Y-133541276D01*
X188408017Y-133853247D01*
X188408028Y-133853265D01*
X188604558Y-134147393D01*
X188604568Y-134147407D01*
X188828992Y-134420869D01*
X189079130Y-134671007D01*
X189079135Y-134671011D01*
X189079136Y-134671012D01*
X189352598Y-134895436D01*
X189646741Y-135091976D01*
X189646750Y-135091981D01*
X189646752Y-135091982D01*
X189958723Y-135258735D01*
X189958725Y-135258735D01*
X189958731Y-135258739D01*
X190285565Y-135394118D01*
X190624095Y-135496809D01*
X190624101Y-135496810D01*
X190624104Y-135496811D01*
X190624115Y-135496814D01*
X190841674Y-135540088D01*
X190971060Y-135565825D01*
X191323119Y-135600500D01*
X191323122Y-135600500D01*
X191676878Y-135600500D01*
X191676881Y-135600500D01*
X192028940Y-135565825D01*
X192200679Y-135531663D01*
X192375884Y-135496814D01*
X192375895Y-135496811D01*
X192375895Y-135496810D01*
X192375905Y-135496809D01*
X192714435Y-135394118D01*
X193041269Y-135258739D01*
X193353259Y-135091976D01*
X193647402Y-134895436D01*
X193920864Y-134671012D01*
X194171012Y-134420864D01*
X194395436Y-134147402D01*
X194591976Y-133853259D01*
X194758739Y-133541269D01*
X194894118Y-133214435D01*
X194996809Y-132875905D01*
X194996811Y-132875895D01*
X194996814Y-132875884D01*
X195037659Y-132670539D01*
X195065825Y-132528940D01*
X195100500Y-132176881D01*
X195100500Y-131823119D01*
X195065825Y-131471060D01*
X195040088Y-131341674D01*
X194996814Y-131124115D01*
X194996811Y-131124104D01*
X194996810Y-131124101D01*
X194996809Y-131124095D01*
X194894118Y-130785565D01*
X194758739Y-130458731D01*
X194591976Y-130146741D01*
X194395436Y-129852598D01*
X194171012Y-129579136D01*
X194171011Y-129579135D01*
X194171007Y-129579130D01*
X193920869Y-129328992D01*
X193647407Y-129104568D01*
X193647406Y-129104567D01*
X193647402Y-129104564D01*
X193353259Y-128908024D01*
X193353254Y-128908021D01*
X193353247Y-128908017D01*
X193041276Y-128741264D01*
X193041271Y-128741262D01*
X192714436Y-128605882D01*
X192375895Y-128503188D01*
X192375884Y-128503185D01*
X192028946Y-128434176D01*
X192028929Y-128434173D01*
X191762700Y-128407952D01*
X191676881Y-128399500D01*
X191323119Y-128399500D01*
X191243748Y-128407317D01*
X190971070Y-128434173D01*
X190971053Y-128434176D01*
X190624115Y-128503185D01*
X190624104Y-128503188D01*
X190285563Y-128605882D01*
X189958728Y-128741262D01*
X189958723Y-128741264D01*
X189646752Y-128908017D01*
X189646734Y-128908028D01*
X189352606Y-129104558D01*
X189352592Y-129104568D01*
X189079130Y-129328992D01*
X188828992Y-129579130D01*
X188604568Y-129852592D01*
X188604558Y-129852606D01*
X188408028Y-130146734D01*
X188408017Y-130146752D01*
X188241264Y-130458723D01*
X188241262Y-130458728D01*
X188105882Y-130785563D01*
X188003188Y-131124104D01*
X188003185Y-131124115D01*
X187934176Y-131471053D01*
X187934173Y-131471070D01*
X187899500Y-131823122D01*
X95100500Y-131823122D01*
X95100500Y-131823119D01*
X95065825Y-131471060D01*
X95040088Y-131341674D01*
X94996814Y-131124115D01*
X94996811Y-131124104D01*
X94996810Y-131124101D01*
X94996809Y-131124095D01*
X94894118Y-130785565D01*
X94758739Y-130458731D01*
X94591976Y-130146741D01*
X94395436Y-129852598D01*
X94171012Y-129579136D01*
X94171011Y-129579135D01*
X94171007Y-129579130D01*
X93920869Y-129328992D01*
X93647407Y-129104568D01*
X93647406Y-129104567D01*
X93647402Y-129104564D01*
X93353259Y-128908024D01*
X93179457Y-128815124D01*
X93179456Y-128815123D01*
X93041276Y-128741264D01*
X93041271Y-128741262D01*
X92967341Y-128710639D01*
X119197500Y-128710639D01*
X119197500Y-128909360D01*
X119228587Y-129105637D01*
X119289993Y-129294629D01*
X119289994Y-129294632D01*
X119368505Y-129448716D01*
X119380213Y-129471694D01*
X119497019Y-129632464D01*
X119637536Y-129772981D01*
X119798306Y-129889787D01*
X119885149Y-129934035D01*
X119975367Y-129980005D01*
X119975370Y-129980006D01*
X120069866Y-130010709D01*
X120164364Y-130041413D01*
X120360639Y-130072500D01*
X120360640Y-130072500D01*
X120559360Y-130072500D01*
X120559361Y-130072500D01*
X120755636Y-130041413D01*
X120944632Y-129980005D01*
X121121694Y-129889787D01*
X121282464Y-129772981D01*
X121422981Y-129632464D01*
X121539787Y-129471694D01*
X121630005Y-129294632D01*
X121691413Y-129105636D01*
X121722500Y-128909361D01*
X121722500Y-128710639D01*
X121722500Y-128710638D01*
X121715304Y-128665203D01*
X121713003Y-128650678D01*
X124238000Y-128650678D01*
X124238000Y-128849321D01*
X124269075Y-129045520D01*
X124269075Y-129045523D01*
X124330457Y-129234437D01*
X124420641Y-129411432D01*
X124447730Y-129448715D01*
X124447731Y-129448716D01*
X125017037Y-128879409D01*
X125034075Y-128942993D01*
X125099901Y-129057007D01*
X125192993Y-129150099D01*
X125307007Y-129215925D01*
X125370590Y-129232962D01*
X124801283Y-129802268D01*
X124801283Y-129802269D01*
X124838567Y-129829358D01*
X125015562Y-129919542D01*
X125204477Y-129980924D01*
X125400679Y-130012000D01*
X125599321Y-130012000D01*
X125795520Y-129980924D01*
X125795523Y-129980924D01*
X125984437Y-129919542D01*
X126161425Y-129829362D01*
X126198716Y-129802268D01*
X125629410Y-129232962D01*
X125692993Y-129215925D01*
X125807007Y-129150099D01*
X125900099Y-129057007D01*
X125965925Y-128942993D01*
X125982962Y-128879409D01*
X126552268Y-129448715D01*
X126579362Y-129411425D01*
X126669542Y-129234437D01*
X126730924Y-129045523D01*
X126730924Y-129045520D01*
X126762000Y-128849321D01*
X126762000Y-128650678D01*
X126730924Y-128454479D01*
X126730924Y-128454476D01*
X126669542Y-128265562D01*
X126579358Y-128088567D01*
X126552268Y-128051283D01*
X125982962Y-128620589D01*
X125965925Y-128557007D01*
X125900099Y-128442993D01*
X125807007Y-128349901D01*
X125692993Y-128284075D01*
X125629409Y-128267037D01*
X126198716Y-127697731D01*
X126198715Y-127697730D01*
X126161432Y-127670641D01*
X125984437Y-127580457D01*
X125795522Y-127519075D01*
X125599321Y-127488000D01*
X125400679Y-127488000D01*
X125204479Y-127519075D01*
X125204476Y-127519075D01*
X125015562Y-127580457D01*
X124838564Y-127670643D01*
X124801283Y-127697729D01*
X124801282Y-127697730D01*
X125370590Y-128267037D01*
X125307007Y-128284075D01*
X125192993Y-128349901D01*
X125099901Y-128442993D01*
X125034075Y-128557007D01*
X125017037Y-128620590D01*
X124447730Y-128051282D01*
X124447729Y-128051283D01*
X124420643Y-128088564D01*
X124330457Y-128265562D01*
X124269075Y-128454476D01*
X124269075Y-128454479D01*
X124238000Y-128650678D01*
X121713003Y-128650678D01*
X121698167Y-128557007D01*
X121691413Y-128514364D01*
X121654092Y-128399500D01*
X121630006Y-128325370D01*
X121630005Y-128325367D01*
X121539786Y-128148305D01*
X121496382Y-128088564D01*
X121422981Y-127987536D01*
X121282464Y-127847019D01*
X121254615Y-127826785D01*
X121201613Y-127788276D01*
X121158948Y-127732945D01*
X121150500Y-127687959D01*
X121150500Y-122401101D01*
X121170185Y-122334062D01*
X121201615Y-122300783D01*
X121244862Y-122269362D01*
X121322464Y-122212981D01*
X121462981Y-122072464D01*
X121579787Y-121911694D01*
X121670005Y-121734632D01*
X121731413Y-121545636D01*
X121762500Y-121349361D01*
X121762500Y-121150639D01*
X121762500Y-121150638D01*
X121755304Y-121105203D01*
X121753003Y-121090678D01*
X124278000Y-121090678D01*
X124278000Y-121289321D01*
X124309075Y-121485520D01*
X124309075Y-121485523D01*
X124370457Y-121674437D01*
X124460641Y-121851432D01*
X124487730Y-121888715D01*
X124487731Y-121888716D01*
X125057037Y-121319409D01*
X125074075Y-121382993D01*
X125139901Y-121497007D01*
X125232993Y-121590099D01*
X125347007Y-121655925D01*
X125410590Y-121672962D01*
X124841283Y-122242268D01*
X124841283Y-122242269D01*
X124878567Y-122269358D01*
X125055562Y-122359542D01*
X125244477Y-122420924D01*
X125440679Y-122452000D01*
X125639321Y-122452000D01*
X125835520Y-122420924D01*
X125835523Y-122420924D01*
X126024437Y-122359542D01*
X126201425Y-122269362D01*
X126238716Y-122242268D01*
X125669410Y-121672962D01*
X125732993Y-121655925D01*
X125847007Y-121590099D01*
X125940099Y-121497007D01*
X126005925Y-121382993D01*
X126022962Y-121319409D01*
X126592268Y-121888715D01*
X126619362Y-121851425D01*
X126709542Y-121674437D01*
X126770924Y-121485523D01*
X126770924Y-121485520D01*
X126802000Y-121289321D01*
X126802000Y-121090678D01*
X126770924Y-120894479D01*
X126770924Y-120894476D01*
X126709542Y-120705562D01*
X126619358Y-120528567D01*
X126592268Y-120491283D01*
X126022962Y-121060589D01*
X126005925Y-120997007D01*
X125940099Y-120882993D01*
X125847007Y-120789901D01*
X125732993Y-120724075D01*
X125669409Y-120707037D01*
X126238716Y-120137731D01*
X126238715Y-120137730D01*
X126201432Y-120110641D01*
X126024437Y-120020457D01*
X125835522Y-119959075D01*
X125639321Y-119928000D01*
X125440679Y-119928000D01*
X125244479Y-119959075D01*
X125244476Y-119959075D01*
X125055562Y-120020457D01*
X124878564Y-120110643D01*
X124841283Y-120137729D01*
X124841282Y-120137730D01*
X125410590Y-120707037D01*
X125347007Y-120724075D01*
X125232993Y-120789901D01*
X125139901Y-120882993D01*
X125074075Y-120997007D01*
X125057037Y-121060590D01*
X124487730Y-120491282D01*
X124487729Y-120491283D01*
X124460643Y-120528564D01*
X124370457Y-120705562D01*
X124309075Y-120894476D01*
X124309075Y-120894479D01*
X124278000Y-121090678D01*
X121753003Y-121090678D01*
X121733933Y-120970276D01*
X121731413Y-120954364D01*
X121696002Y-120845379D01*
X121670006Y-120765370D01*
X121670005Y-120765367D01*
X121624035Y-120675149D01*
X121579787Y-120588306D01*
X121462981Y-120427536D01*
X121322464Y-120287019D01*
X121201615Y-120199217D01*
X121158949Y-120143887D01*
X121150500Y-120098899D01*
X121150500Y-102435928D01*
X127349500Y-102435928D01*
X127349500Y-122214069D01*
X127356338Y-122248442D01*
X127356338Y-122248445D01*
X127374497Y-122339736D01*
X127374499Y-122339744D01*
X127378750Y-122350008D01*
X127423535Y-122458127D01*
X127490102Y-122557753D01*
X127494726Y-122564673D01*
X127494727Y-122564674D01*
X131338181Y-126408127D01*
X131371666Y-126469450D01*
X131374500Y-126495808D01*
X131374500Y-127650001D01*
X131374501Y-127650018D01*
X131385000Y-127752796D01*
X131385001Y-127752799D01*
X131415656Y-127845307D01*
X131440186Y-127919334D01*
X131532288Y-128068656D01*
X131656344Y-128192712D01*
X131805666Y-128284814D01*
X131972203Y-128339999D01*
X132074991Y-128350500D01*
X133625008Y-128350499D01*
X133727797Y-128339999D01*
X133894334Y-128284814D01*
X134043656Y-128192712D01*
X134167712Y-128068656D01*
X134259814Y-127919334D01*
X134314999Y-127752797D01*
X134325500Y-127650009D01*
X134325499Y-126349992D01*
X134314999Y-126247203D01*
X134259814Y-126080666D01*
X134167712Y-125931344D01*
X134043656Y-125807288D01*
X133894334Y-125715186D01*
X133894333Y-125715185D01*
X133888878Y-125711821D01*
X133842154Y-125659873D01*
X133830931Y-125590910D01*
X133858775Y-125526828D01*
X133866272Y-125518623D01*
X134005104Y-125379792D01*
X134007455Y-125376557D01*
X134130048Y-125207820D01*
X134130047Y-125207820D01*
X134130051Y-125207816D01*
X134226557Y-125018412D01*
X134292246Y-124816243D01*
X134325500Y-124606287D01*
X134325500Y-124393713D01*
X141024500Y-124393713D01*
X141024500Y-124606286D01*
X141056335Y-124807289D01*
X141057754Y-124816243D01*
X141119015Y-125004785D01*
X141123444Y-125018414D01*
X141219951Y-125207820D01*
X141344890Y-125379786D01*
X141483705Y-125518601D01*
X141517190Y-125579924D01*
X141512206Y-125649616D01*
X141470334Y-125705549D01*
X141461121Y-125711821D01*
X141306342Y-125807289D01*
X141182289Y-125931342D01*
X141090187Y-126080663D01*
X141090186Y-126080666D01*
X141035001Y-126247203D01*
X141035001Y-126247204D01*
X141035000Y-126247204D01*
X141024500Y-126349983D01*
X141024500Y-127650001D01*
X141024501Y-127650018D01*
X141035000Y-127752796D01*
X141035001Y-127752799D01*
X141065656Y-127845307D01*
X141090186Y-127919334D01*
X141182288Y-128068656D01*
X141306344Y-128192712D01*
X141455666Y-128284814D01*
X141622203Y-128339999D01*
X141724991Y-128350500D01*
X143275008Y-128350499D01*
X143377797Y-128339999D01*
X143544334Y-128284814D01*
X143693656Y-128192712D01*
X143817712Y-128068656D01*
X143909814Y-127919334D01*
X143964999Y-127752797D01*
X143975500Y-127650009D01*
X143975499Y-126495807D01*
X143995184Y-126428769D01*
X144011818Y-126408127D01*
X144505271Y-125914675D01*
X144505271Y-125914674D01*
X144505276Y-125914670D01*
X144576465Y-125808127D01*
X144625501Y-125689744D01*
X144633506Y-125649500D01*
X144650500Y-125564069D01*
X144650500Y-104674361D01*
X144670185Y-104607322D01*
X144686816Y-104586682D01*
X144699464Y-104574035D01*
X144798013Y-104426547D01*
X144865894Y-104262666D01*
X144900500Y-104088691D01*
X144900500Y-103911309D01*
X144900500Y-103911306D01*
X144900499Y-103911304D01*
X148099500Y-103911304D01*
X148099500Y-104088695D01*
X148134103Y-104262658D01*
X148134106Y-104262667D01*
X148201983Y-104426540D01*
X148201990Y-104426553D01*
X148300534Y-104574033D01*
X148300535Y-104574034D01*
X148300536Y-104574035D01*
X148313180Y-104586679D01*
X148346665Y-104647999D01*
X148349500Y-104674361D01*
X148349500Y-123714069D01*
X148349500Y-123714071D01*
X148349499Y-123714071D01*
X148369824Y-123816243D01*
X148369824Y-123816244D01*
X148374497Y-123839737D01*
X148374498Y-123839742D01*
X148423534Y-123958125D01*
X148494726Y-124064673D01*
X148494727Y-124064674D01*
X150838181Y-126408127D01*
X150871666Y-126469450D01*
X150874500Y-126495808D01*
X150874500Y-127650001D01*
X150874501Y-127650018D01*
X150885000Y-127752796D01*
X150885001Y-127752799D01*
X150915656Y-127845307D01*
X150940186Y-127919334D01*
X151032288Y-128068656D01*
X151156344Y-128192712D01*
X151305666Y-128284814D01*
X151472203Y-128339999D01*
X151574991Y-128350500D01*
X153125008Y-128350499D01*
X153227797Y-128339999D01*
X153394334Y-128284814D01*
X153543656Y-128192712D01*
X153667712Y-128068656D01*
X153759814Y-127919334D01*
X153814999Y-127752797D01*
X153825500Y-127650009D01*
X153825499Y-126349992D01*
X153814999Y-126247203D01*
X153759814Y-126080666D01*
X153667712Y-125931344D01*
X153543656Y-125807288D01*
X153394334Y-125715186D01*
X153394333Y-125715185D01*
X153388878Y-125711821D01*
X153342154Y-125659873D01*
X153330931Y-125590910D01*
X153358775Y-125526828D01*
X153366272Y-125518623D01*
X153505104Y-125379792D01*
X153507455Y-125376557D01*
X153630048Y-125207820D01*
X153630047Y-125207820D01*
X153630051Y-125207816D01*
X153726557Y-125018412D01*
X153792246Y-124816243D01*
X153825500Y-124606287D01*
X153825500Y-124393713D01*
X160374500Y-124393713D01*
X160374500Y-124606286D01*
X160406335Y-124807289D01*
X160407754Y-124816243D01*
X160469015Y-125004785D01*
X160473444Y-125018414D01*
X160569951Y-125207820D01*
X160694890Y-125379786D01*
X160833705Y-125518601D01*
X160867190Y-125579924D01*
X160862206Y-125649616D01*
X160820334Y-125705549D01*
X160811121Y-125711821D01*
X160656342Y-125807289D01*
X160532289Y-125931342D01*
X160440187Y-126080663D01*
X160440186Y-126080666D01*
X160385001Y-126247203D01*
X160385001Y-126247204D01*
X160385000Y-126247204D01*
X160374500Y-126349983D01*
X160374500Y-127650001D01*
X160374501Y-127650018D01*
X160385000Y-127752796D01*
X160385001Y-127752799D01*
X160415656Y-127845307D01*
X160440186Y-127919334D01*
X160532288Y-128068656D01*
X160656344Y-128192712D01*
X160805666Y-128284814D01*
X160972203Y-128339999D01*
X161074991Y-128350500D01*
X162625008Y-128350499D01*
X162727797Y-128339999D01*
X162894334Y-128284814D01*
X163043656Y-128192712D01*
X163167712Y-128068656D01*
X163259814Y-127919334D01*
X163314999Y-127752797D01*
X163325500Y-127650009D01*
X163325499Y-126349992D01*
X163314999Y-126247203D01*
X163259814Y-126080666D01*
X163167712Y-125931344D01*
X163043656Y-125807288D01*
X162894334Y-125715186D01*
X162894333Y-125715185D01*
X162888878Y-125711821D01*
X162842154Y-125659873D01*
X162830931Y-125590910D01*
X162858775Y-125526828D01*
X162866272Y-125518623D01*
X163005104Y-125379792D01*
X163007455Y-125376557D01*
X163130048Y-125207820D01*
X163130047Y-125207820D01*
X163130051Y-125207816D01*
X163226557Y-125018412D01*
X163292246Y-124816243D01*
X163325500Y-124606287D01*
X163325500Y-124393713D01*
X169874500Y-124393713D01*
X169874500Y-124606286D01*
X169906335Y-124807289D01*
X169907754Y-124816243D01*
X169969015Y-125004785D01*
X169973444Y-125018414D01*
X170069951Y-125207820D01*
X170194890Y-125379786D01*
X170333705Y-125518601D01*
X170367190Y-125579924D01*
X170362206Y-125649616D01*
X170320334Y-125705549D01*
X170311121Y-125711821D01*
X170156342Y-125807289D01*
X170032289Y-125931342D01*
X169940187Y-126080663D01*
X169940186Y-126080666D01*
X169885001Y-126247203D01*
X169885001Y-126247204D01*
X169885000Y-126247204D01*
X169874500Y-126349983D01*
X169874500Y-127650001D01*
X169874501Y-127650018D01*
X169885000Y-127752796D01*
X169885001Y-127752799D01*
X169915656Y-127845307D01*
X169940186Y-127919334D01*
X170032288Y-128068656D01*
X170156344Y-128192712D01*
X170305666Y-128284814D01*
X170472203Y-128339999D01*
X170574991Y-128350500D01*
X172125008Y-128350499D01*
X172227797Y-128339999D01*
X172394334Y-128284814D01*
X172543656Y-128192712D01*
X172667712Y-128068656D01*
X172759814Y-127919334D01*
X172814999Y-127752797D01*
X172825500Y-127650009D01*
X172825499Y-126349992D01*
X172814999Y-126247203D01*
X172759814Y-126080666D01*
X172667712Y-125931344D01*
X172543656Y-125807288D01*
X172394334Y-125715186D01*
X172394333Y-125715185D01*
X172388878Y-125711821D01*
X172342154Y-125659873D01*
X172330931Y-125590910D01*
X172358775Y-125526828D01*
X172366272Y-125518623D01*
X172505104Y-125379792D01*
X172507455Y-125376557D01*
X172630048Y-125207820D01*
X172630047Y-125207820D01*
X172630051Y-125207816D01*
X172726557Y-125018412D01*
X172792246Y-124816243D01*
X172825500Y-124606287D01*
X172825500Y-124393713D01*
X172792246Y-124183757D01*
X172726557Y-123981588D01*
X172630051Y-123792184D01*
X172630050Y-123792182D01*
X172599403Y-123750000D01*
X180152970Y-123750000D01*
X181095854Y-123750000D01*
X181057370Y-123816657D01*
X181025000Y-123937465D01*
X181025000Y-124062535D01*
X181057370Y-124183343D01*
X181095854Y-124250000D01*
X180152970Y-124250000D01*
X180183242Y-124441127D01*
X180183242Y-124441130D01*
X180248904Y-124643217D01*
X180345379Y-124832557D01*
X180470272Y-125004459D01*
X180470276Y-125004464D01*
X180620535Y-125154723D01*
X180620540Y-125154727D01*
X180792442Y-125279620D01*
X180981782Y-125376095D01*
X181183871Y-125441757D01*
X181250000Y-125452231D01*
X181250000Y-124404145D01*
X181316657Y-124442630D01*
X181437465Y-124475000D01*
X181562535Y-124475000D01*
X181683343Y-124442630D01*
X181750000Y-124404145D01*
X181750000Y-125452230D01*
X181816126Y-125441757D01*
X181816129Y-125441757D01*
X182018217Y-125376095D01*
X182207557Y-125279620D01*
X182379459Y-125154727D01*
X182379464Y-125154723D01*
X182529721Y-125004466D01*
X182649371Y-124839781D01*
X182704701Y-124797115D01*
X182774314Y-124791136D01*
X182836110Y-124823741D01*
X182850008Y-124839781D01*
X182969890Y-125004785D01*
X182969894Y-125004790D01*
X183120213Y-125155109D01*
X183292179Y-125280048D01*
X183292181Y-125280049D01*
X183292184Y-125280051D01*
X183481588Y-125376557D01*
X183683757Y-125442246D01*
X183893713Y-125475500D01*
X183893714Y-125475500D01*
X184106286Y-125475500D01*
X184106287Y-125475500D01*
X184316243Y-125442246D01*
X184518412Y-125376557D01*
X184707816Y-125280051D01*
X184879792Y-125155104D01*
X185018604Y-125016291D01*
X185079923Y-124982809D01*
X185149615Y-124987793D01*
X185205549Y-125029664D01*
X185211821Y-125038878D01*
X185215185Y-125044333D01*
X185215186Y-125044334D01*
X185307288Y-125193656D01*
X185431344Y-125317712D01*
X185580666Y-125409814D01*
X185747203Y-125464999D01*
X185849991Y-125475500D01*
X187150008Y-125475499D01*
X187252797Y-125464999D01*
X187419334Y-125409814D01*
X187568656Y-125317712D01*
X187692712Y-125193656D01*
X187784814Y-125044334D01*
X187839999Y-124877797D01*
X187850500Y-124775009D01*
X187850499Y-123224992D01*
X187848851Y-123208863D01*
X187839999Y-123122203D01*
X187839998Y-123122200D01*
X187802104Y-123007845D01*
X187784814Y-122955666D01*
X187692712Y-122806344D01*
X187568656Y-122682288D01*
X187419334Y-122590186D01*
X187252797Y-122535001D01*
X187252795Y-122535000D01*
X187150010Y-122524500D01*
X185849998Y-122524500D01*
X185849981Y-122524501D01*
X185747203Y-122535000D01*
X185747200Y-122535001D01*
X185580668Y-122590185D01*
X185580663Y-122590187D01*
X185431342Y-122682289D01*
X185307289Y-122806342D01*
X185211821Y-122961121D01*
X185159873Y-123007845D01*
X185090910Y-123019068D01*
X185026828Y-122991224D01*
X185018601Y-122983705D01*
X184879786Y-122844890D01*
X184707820Y-122719951D01*
X184518414Y-122623444D01*
X184518413Y-122623443D01*
X184518412Y-122623443D01*
X184316243Y-122557754D01*
X184316241Y-122557753D01*
X184316240Y-122557753D01*
X184154957Y-122532208D01*
X184106287Y-122524500D01*
X183893713Y-122524500D01*
X183845042Y-122532208D01*
X183683760Y-122557753D01*
X183481585Y-122623444D01*
X183292179Y-122719951D01*
X183120213Y-122844890D01*
X182969894Y-122995209D01*
X182969890Y-122995214D01*
X182850008Y-123160218D01*
X182794678Y-123202884D01*
X182725065Y-123208863D01*
X182663270Y-123176257D01*
X182649372Y-123160218D01*
X182529727Y-122995540D01*
X182529723Y-122995535D01*
X182379464Y-122845276D01*
X182379459Y-122845272D01*
X182207557Y-122720379D01*
X182018215Y-122623903D01*
X181816124Y-122558241D01*
X181750000Y-122547768D01*
X181750000Y-123595854D01*
X181683343Y-123557370D01*
X181562535Y-123525000D01*
X181437465Y-123525000D01*
X181316657Y-123557370D01*
X181250000Y-123595854D01*
X181250000Y-122547768D01*
X181249999Y-122547768D01*
X181183875Y-122558241D01*
X180981784Y-122623903D01*
X180792442Y-122720379D01*
X180620540Y-122845272D01*
X180620535Y-122845276D01*
X180470276Y-122995535D01*
X180470272Y-122995540D01*
X180345379Y-123167442D01*
X180248904Y-123356782D01*
X180183242Y-123558869D01*
X180183242Y-123558872D01*
X180152970Y-123750000D01*
X172599403Y-123750000D01*
X172505109Y-123620213D01*
X172354790Y-123469894D01*
X172354785Y-123469890D01*
X172189781Y-123350008D01*
X172147115Y-123294678D01*
X172141136Y-123225065D01*
X172173741Y-123163270D01*
X172189781Y-123149371D01*
X172354466Y-123029721D01*
X172504723Y-122879464D01*
X172504727Y-122879459D01*
X172629620Y-122707557D01*
X172726095Y-122518217D01*
X172791757Y-122316129D01*
X172791757Y-122316126D01*
X172802231Y-122250000D01*
X171754146Y-122250000D01*
X171792630Y-122183343D01*
X171825000Y-122062535D01*
X171825000Y-121937465D01*
X171792630Y-121816657D01*
X171754146Y-121750000D01*
X172802231Y-121750000D01*
X172791757Y-121683873D01*
X172791757Y-121683870D01*
X172726095Y-121481782D01*
X172629620Y-121292442D01*
X172504727Y-121120540D01*
X172504723Y-121120535D01*
X172354464Y-120970276D01*
X172354459Y-120970272D01*
X172182557Y-120845379D01*
X171993217Y-120748904D01*
X171791128Y-120683242D01*
X171600000Y-120652969D01*
X171600000Y-121595854D01*
X171533343Y-121557370D01*
X171412535Y-121525000D01*
X171287465Y-121525000D01*
X171166657Y-121557370D01*
X171100000Y-121595854D01*
X171100000Y-120652969D01*
X170908872Y-120683242D01*
X170908869Y-120683242D01*
X170706782Y-120748904D01*
X170517442Y-120845379D01*
X170345540Y-120970272D01*
X170345535Y-120970276D01*
X170195276Y-121120535D01*
X170195272Y-121120540D01*
X170070379Y-121292442D01*
X169973904Y-121481782D01*
X169908242Y-121683870D01*
X169908242Y-121683873D01*
X169897769Y-121750000D01*
X170945854Y-121750000D01*
X170907370Y-121816657D01*
X170875000Y-121937465D01*
X170875000Y-122062535D01*
X170907370Y-122183343D01*
X170945854Y-122250000D01*
X169897769Y-122250000D01*
X169908242Y-122316126D01*
X169908242Y-122316129D01*
X169973904Y-122518217D01*
X170070379Y-122707557D01*
X170195272Y-122879459D01*
X170195276Y-122879464D01*
X170345535Y-123029723D01*
X170345540Y-123029727D01*
X170510218Y-123149372D01*
X170552884Y-123204701D01*
X170558863Y-123274315D01*
X170526258Y-123336110D01*
X170510218Y-123350008D01*
X170345214Y-123469890D01*
X170345209Y-123469894D01*
X170194890Y-123620213D01*
X170069951Y-123792179D01*
X169973444Y-123981585D01*
X169907753Y-124183760D01*
X169874500Y-124393713D01*
X163325500Y-124393713D01*
X163292246Y-124183757D01*
X163226557Y-123981588D01*
X163130051Y-123792184D01*
X163130049Y-123792181D01*
X163130048Y-123792179D01*
X163005109Y-123620213D01*
X162854790Y-123469894D01*
X162854785Y-123469890D01*
X162689781Y-123350008D01*
X162647115Y-123294678D01*
X162641136Y-123225065D01*
X162673741Y-123163270D01*
X162689781Y-123149371D01*
X162854466Y-123029721D01*
X163004723Y-122879464D01*
X163004727Y-122879459D01*
X163129620Y-122707557D01*
X163226095Y-122518217D01*
X163291757Y-122316129D01*
X163291757Y-122316126D01*
X163302231Y-122250000D01*
X162254146Y-122250000D01*
X162292630Y-122183343D01*
X162325000Y-122062535D01*
X162325000Y-121937465D01*
X162292630Y-121816657D01*
X162254146Y-121750000D01*
X163302231Y-121750000D01*
X163291757Y-121683873D01*
X163291757Y-121683870D01*
X163226095Y-121481782D01*
X163129620Y-121292442D01*
X163004727Y-121120540D01*
X163004723Y-121120535D01*
X162854464Y-120970276D01*
X162854459Y-120970272D01*
X162682557Y-120845379D01*
X162493217Y-120748904D01*
X162291128Y-120683242D01*
X162100000Y-120652969D01*
X162100000Y-121595854D01*
X162033343Y-121557370D01*
X161912535Y-121525000D01*
X161787465Y-121525000D01*
X161666657Y-121557370D01*
X161600000Y-121595854D01*
X161600000Y-120652969D01*
X161408872Y-120683242D01*
X161408869Y-120683242D01*
X161206782Y-120748904D01*
X161017442Y-120845379D01*
X160845540Y-120970272D01*
X160845535Y-120970276D01*
X160695276Y-121120535D01*
X160695272Y-121120540D01*
X160570379Y-121292442D01*
X160473904Y-121481782D01*
X160408242Y-121683870D01*
X160408242Y-121683873D01*
X160397769Y-121750000D01*
X161445854Y-121750000D01*
X161407370Y-121816657D01*
X161375000Y-121937465D01*
X161375000Y-122062535D01*
X161407370Y-122183343D01*
X161445854Y-122250000D01*
X160397769Y-122250000D01*
X160408242Y-122316126D01*
X160408242Y-122316129D01*
X160473904Y-122518217D01*
X160570379Y-122707557D01*
X160695272Y-122879459D01*
X160695276Y-122879464D01*
X160845535Y-123029723D01*
X160845540Y-123029727D01*
X161010218Y-123149372D01*
X161052884Y-123204701D01*
X161058863Y-123274315D01*
X161026258Y-123336110D01*
X161010218Y-123350008D01*
X160845214Y-123469890D01*
X160845209Y-123469894D01*
X160694890Y-123620213D01*
X160569951Y-123792179D01*
X160473444Y-123981585D01*
X160407753Y-124183760D01*
X160374500Y-124393713D01*
X153825500Y-124393713D01*
X153792246Y-124183757D01*
X153726557Y-123981588D01*
X153630051Y-123792184D01*
X153630049Y-123792181D01*
X153630048Y-123792179D01*
X153505109Y-123620213D01*
X153354790Y-123469894D01*
X153354785Y-123469890D01*
X153189781Y-123350008D01*
X153147115Y-123294678D01*
X153141136Y-123225065D01*
X153173741Y-123163270D01*
X153189781Y-123149371D01*
X153354466Y-123029721D01*
X153504723Y-122879464D01*
X153504727Y-122879459D01*
X153629620Y-122707557D01*
X153726095Y-122518217D01*
X153791757Y-122316129D01*
X153791757Y-122316126D01*
X153802231Y-122250000D01*
X152754146Y-122250000D01*
X152792630Y-122183343D01*
X152825000Y-122062535D01*
X152825000Y-121937465D01*
X152792630Y-121816657D01*
X152754146Y-121750000D01*
X153802231Y-121750000D01*
X153791757Y-121683873D01*
X153791757Y-121683870D01*
X153726095Y-121481782D01*
X153629620Y-121292442D01*
X153504727Y-121120540D01*
X153504723Y-121120535D01*
X153354464Y-120970276D01*
X153354459Y-120970272D01*
X153182557Y-120845379D01*
X152993217Y-120748904D01*
X152791128Y-120683242D01*
X152600000Y-120652969D01*
X152600000Y-121595854D01*
X152533343Y-121557370D01*
X152412535Y-121525000D01*
X152287465Y-121525000D01*
X152166657Y-121557370D01*
X152100000Y-121595854D01*
X152100000Y-120652969D01*
X151908872Y-120683242D01*
X151908869Y-120683242D01*
X151706782Y-120748904D01*
X151517442Y-120845379D01*
X151345540Y-120970272D01*
X151345535Y-120970276D01*
X151195276Y-121120535D01*
X151195272Y-121120540D01*
X151070379Y-121292442D01*
X150973904Y-121481782D01*
X150908242Y-121683870D01*
X150908242Y-121683873D01*
X150897769Y-121750000D01*
X151945854Y-121750000D01*
X151907370Y-121816657D01*
X151875000Y-121937465D01*
X151875000Y-122062535D01*
X151907370Y-122183343D01*
X151945854Y-122250000D01*
X150897769Y-122250000D01*
X150908242Y-122316126D01*
X150908242Y-122316129D01*
X150973904Y-122518217D01*
X151070379Y-122707557D01*
X151195272Y-122879459D01*
X151195276Y-122879464D01*
X151345535Y-123029723D01*
X151345540Y-123029727D01*
X151510218Y-123149372D01*
X151552884Y-123204701D01*
X151558863Y-123274315D01*
X151526258Y-123336110D01*
X151510218Y-123350008D01*
X151345214Y-123469890D01*
X151345209Y-123469894D01*
X151194890Y-123620213D01*
X151069951Y-123792179D01*
X150973444Y-123981585D01*
X150907753Y-124183760D01*
X150883742Y-124335359D01*
X150853813Y-124398494D01*
X150794501Y-124435425D01*
X150724638Y-124434427D01*
X150673588Y-124403642D01*
X149686819Y-123416873D01*
X149653334Y-123355550D01*
X149650500Y-123329192D01*
X149650500Y-104674361D01*
X149670185Y-104607322D01*
X149686816Y-104586682D01*
X149699464Y-104574035D01*
X149798013Y-104426547D01*
X149865894Y-104262666D01*
X149900500Y-104088691D01*
X149900500Y-103911309D01*
X149900500Y-103911306D01*
X149900499Y-103911304D01*
X149865896Y-103737341D01*
X149865893Y-103737332D01*
X149798016Y-103573459D01*
X149798009Y-103573446D01*
X149699464Y-103425965D01*
X149699461Y-103425961D01*
X149574038Y-103300538D01*
X149574034Y-103300535D01*
X149426553Y-103201990D01*
X149426540Y-103201983D01*
X149262667Y-103134106D01*
X149262658Y-103134103D01*
X149088694Y-103099500D01*
X149088691Y-103099500D01*
X148911309Y-103099500D01*
X148911306Y-103099500D01*
X148737341Y-103134103D01*
X148737332Y-103134106D01*
X148573459Y-103201983D01*
X148573446Y-103201990D01*
X148425965Y-103300535D01*
X148425961Y-103300538D01*
X148300538Y-103425961D01*
X148300535Y-103425965D01*
X148201990Y-103573446D01*
X148201983Y-103573459D01*
X148134106Y-103737332D01*
X148134103Y-103737341D01*
X148099500Y-103911304D01*
X144900499Y-103911304D01*
X144865896Y-103737341D01*
X144865893Y-103737332D01*
X144798016Y-103573459D01*
X144798009Y-103573446D01*
X144699464Y-103425965D01*
X144699461Y-103425961D01*
X144574038Y-103300538D01*
X144574034Y-103300535D01*
X144426553Y-103201990D01*
X144426540Y-103201983D01*
X144262667Y-103134106D01*
X144262658Y-103134103D01*
X144088694Y-103099500D01*
X144088691Y-103099500D01*
X143911309Y-103099500D01*
X143911306Y-103099500D01*
X143737341Y-103134103D01*
X143737332Y-103134106D01*
X143573459Y-103201983D01*
X143573446Y-103201990D01*
X143425965Y-103300535D01*
X143425961Y-103300538D01*
X143300538Y-103425961D01*
X143300535Y-103425965D01*
X143201990Y-103573446D01*
X143201983Y-103573459D01*
X143134106Y-103737332D01*
X143134103Y-103737341D01*
X143099500Y-103911304D01*
X143099500Y-104088695D01*
X143134103Y-104262658D01*
X143134106Y-104262667D01*
X143201983Y-104426540D01*
X143201990Y-104426553D01*
X143300534Y-104574033D01*
X143300535Y-104574034D01*
X143300536Y-104574035D01*
X143313180Y-104586679D01*
X143346665Y-104647999D01*
X143349500Y-104674361D01*
X143349500Y-120651661D01*
X143329815Y-120718700D01*
X143277011Y-120764455D01*
X143207853Y-120774399D01*
X143169205Y-120762146D01*
X143143217Y-120748904D01*
X142941128Y-120683242D01*
X142750000Y-120652969D01*
X142750000Y-121595854D01*
X142683343Y-121557370D01*
X142562535Y-121525000D01*
X142437465Y-121525000D01*
X142316657Y-121557370D01*
X142250000Y-121595854D01*
X142250000Y-120652969D01*
X142058872Y-120683242D01*
X142058869Y-120683242D01*
X141856782Y-120748904D01*
X141667442Y-120845379D01*
X141495540Y-120970272D01*
X141495535Y-120970276D01*
X141345276Y-121120535D01*
X141345272Y-121120540D01*
X141220379Y-121292442D01*
X141123904Y-121481782D01*
X141058242Y-121683870D01*
X141058242Y-121683873D01*
X141047769Y-121750000D01*
X142095854Y-121750000D01*
X142057370Y-121816657D01*
X142025000Y-121937465D01*
X142025000Y-122062535D01*
X142057370Y-122183343D01*
X142095854Y-122250000D01*
X141047769Y-122250000D01*
X141058242Y-122316126D01*
X141058242Y-122316129D01*
X141123904Y-122518217D01*
X141220379Y-122707557D01*
X141345272Y-122879459D01*
X141345276Y-122879464D01*
X141495535Y-123029723D01*
X141495540Y-123029727D01*
X141660218Y-123149372D01*
X141702884Y-123204701D01*
X141708863Y-123274315D01*
X141676258Y-123336110D01*
X141660218Y-123350008D01*
X141495214Y-123469890D01*
X141495209Y-123469894D01*
X141344890Y-123620213D01*
X141219951Y-123792179D01*
X141123444Y-123981585D01*
X141057753Y-124183760D01*
X141024500Y-124393713D01*
X134325500Y-124393713D01*
X134292246Y-124183757D01*
X134226557Y-123981588D01*
X134130051Y-123792184D01*
X134130049Y-123792181D01*
X134130048Y-123792179D01*
X134005109Y-123620213D01*
X133854790Y-123469894D01*
X133854785Y-123469890D01*
X133689781Y-123350008D01*
X133647115Y-123294678D01*
X133641136Y-123225065D01*
X133673741Y-123163270D01*
X133689781Y-123149371D01*
X133854466Y-123029721D01*
X134004723Y-122879464D01*
X134004727Y-122879459D01*
X134129620Y-122707557D01*
X134226095Y-122518217D01*
X134291757Y-122316129D01*
X134291757Y-122316126D01*
X134302231Y-122250000D01*
X133254146Y-122250000D01*
X133292630Y-122183343D01*
X133325000Y-122062535D01*
X133325000Y-121937465D01*
X133292630Y-121816657D01*
X133254146Y-121750000D01*
X134302231Y-121750000D01*
X134291757Y-121683873D01*
X134291757Y-121683870D01*
X134226095Y-121481782D01*
X134129620Y-121292442D01*
X134004727Y-121120540D01*
X134004723Y-121120535D01*
X133854464Y-120970276D01*
X133854459Y-120970272D01*
X133682557Y-120845379D01*
X133493217Y-120748904D01*
X133291128Y-120683242D01*
X133100000Y-120652969D01*
X133100000Y-121595854D01*
X133033343Y-121557370D01*
X132912535Y-121525000D01*
X132787465Y-121525000D01*
X132666657Y-121557370D01*
X132600000Y-121595854D01*
X132600000Y-120652969D01*
X132408872Y-120683242D01*
X132408869Y-120683242D01*
X132206782Y-120748904D01*
X132017442Y-120845379D01*
X131845540Y-120970272D01*
X131845535Y-120970276D01*
X131695276Y-121120535D01*
X131695272Y-121120540D01*
X131570379Y-121292442D01*
X131473904Y-121481782D01*
X131408242Y-121683870D01*
X131408242Y-121683873D01*
X131397769Y-121750000D01*
X132445854Y-121750000D01*
X132407370Y-121816657D01*
X132375000Y-121937465D01*
X132375000Y-122062535D01*
X132407370Y-122183343D01*
X132445854Y-122250000D01*
X131397769Y-122250000D01*
X131408242Y-122316126D01*
X131408242Y-122316129D01*
X131473904Y-122518217D01*
X131570379Y-122707557D01*
X131695272Y-122879459D01*
X131695276Y-122879464D01*
X131845535Y-123029723D01*
X131845540Y-123029727D01*
X132010218Y-123149372D01*
X132052884Y-123204701D01*
X132058863Y-123274315D01*
X132026258Y-123336110D01*
X132010218Y-123350008D01*
X131845214Y-123469890D01*
X131845209Y-123469894D01*
X131694890Y-123620213D01*
X131569951Y-123792179D01*
X131473444Y-123981585D01*
X131407753Y-124183760D01*
X131383742Y-124335359D01*
X131353813Y-124398494D01*
X131294501Y-124435425D01*
X131224638Y-124434427D01*
X131173588Y-124403642D01*
X128686819Y-121916873D01*
X128672115Y-121889945D01*
X128655523Y-121864127D01*
X128654631Y-121857926D01*
X128653334Y-121855550D01*
X128650500Y-121829192D01*
X128650500Y-102820807D01*
X128670185Y-102753768D01*
X128686814Y-102733131D01*
X130509797Y-100910147D01*
X130571118Y-100876664D01*
X130573194Y-100876231D01*
X130625166Y-100865894D01*
X130789047Y-100798013D01*
X130936535Y-100699464D01*
X131061964Y-100574035D01*
X131127513Y-100475933D01*
X131160512Y-100426549D01*
X131160516Y-100426540D01*
X131198295Y-100335331D01*
X131228394Y-100262666D01*
X131263000Y-100088691D01*
X131263000Y-99911309D01*
X131263000Y-99911306D01*
X131262999Y-99911304D01*
X131228396Y-99737341D01*
X131228393Y-99737332D01*
X131160516Y-99573459D01*
X131160509Y-99573446D01*
X131061964Y-99425965D01*
X131061961Y-99425961D01*
X130936538Y-99300538D01*
X130936534Y-99300535D01*
X130789053Y-99201990D01*
X130789040Y-99201983D01*
X130625167Y-99134106D01*
X130625158Y-99134103D01*
X130451194Y-99099500D01*
X130451191Y-99099500D01*
X130273809Y-99099500D01*
X130273806Y-99099500D01*
X130099841Y-99134103D01*
X130099832Y-99134106D01*
X129935959Y-99201983D01*
X129935946Y-99201990D01*
X129788465Y-99300535D01*
X129788461Y-99300538D01*
X129663038Y-99425961D01*
X129663035Y-99425965D01*
X129564490Y-99573446D01*
X129564483Y-99573459D01*
X129496606Y-99737332D01*
X129496603Y-99737341D01*
X129462000Y-99911304D01*
X129462000Y-100066691D01*
X129442315Y-100133730D01*
X129425681Y-100154372D01*
X127494727Y-102085325D01*
X127494726Y-102085326D01*
X127423534Y-102191874D01*
X127374499Y-102310255D01*
X127374497Y-102310261D01*
X127349500Y-102435928D01*
X121150500Y-102435928D01*
X121150500Y-101070807D01*
X121170185Y-101003768D01*
X121186814Y-100983131D01*
X127602931Y-94567013D01*
X127664252Y-94533530D01*
X127666317Y-94533099D01*
X127733497Y-94519737D01*
X127879179Y-94459394D01*
X128010289Y-94371789D01*
X128121789Y-94260289D01*
X128209394Y-94129179D01*
X128211770Y-94123444D01*
X128267797Y-93988181D01*
X128269737Y-93983497D01*
X128300500Y-93828842D01*
X128300500Y-93671158D01*
X128300500Y-93671155D01*
X128300499Y-93671153D01*
X128283079Y-93583579D01*
X128269737Y-93516503D01*
X128233098Y-93428048D01*
X128209397Y-93370827D01*
X128209390Y-93370814D01*
X128121789Y-93239711D01*
X128121786Y-93239707D01*
X128010292Y-93128213D01*
X128010288Y-93128210D01*
X127879185Y-93040609D01*
X127879172Y-93040602D01*
X127733501Y-92980264D01*
X127733489Y-92980261D01*
X127578845Y-92949500D01*
X127578842Y-92949500D01*
X127421158Y-92949500D01*
X127421155Y-92949500D01*
X127266510Y-92980261D01*
X127266498Y-92980264D01*
X127120827Y-93040602D01*
X127120814Y-93040609D01*
X126989711Y-93128210D01*
X126989707Y-93128213D01*
X126878213Y-93239707D01*
X126878210Y-93239711D01*
X126790609Y-93370814D01*
X126790602Y-93370827D01*
X126730264Y-93516498D01*
X126730261Y-93516508D01*
X126716920Y-93583579D01*
X126684535Y-93645490D01*
X126682984Y-93647068D01*
X119994726Y-100335326D01*
X119994723Y-100335331D01*
X119933775Y-100426547D01*
X119933774Y-100426549D01*
X119923537Y-100441868D01*
X119923534Y-100441873D01*
X119874499Y-100560255D01*
X119874497Y-100560261D01*
X119849500Y-100685928D01*
X119849500Y-120098899D01*
X119829815Y-120165938D01*
X119798385Y-120199217D01*
X119677539Y-120287016D01*
X119677533Y-120287021D01*
X119537021Y-120427533D01*
X119420213Y-120588305D01*
X119329994Y-120765367D01*
X119329993Y-120765370D01*
X119268587Y-120954362D01*
X119237500Y-121150639D01*
X119237500Y-121349360D01*
X119268587Y-121545637D01*
X119329993Y-121734629D01*
X119329994Y-121734632D01*
X119408505Y-121888716D01*
X119420213Y-121911694D01*
X119537019Y-122072464D01*
X119677536Y-122212981D01*
X119677539Y-122212983D01*
X119798385Y-122300783D01*
X119841051Y-122356113D01*
X119849500Y-122401101D01*
X119849500Y-127629836D01*
X119829815Y-127696875D01*
X119798386Y-127730154D01*
X119718389Y-127788276D01*
X119637536Y-127847019D01*
X119637534Y-127847021D01*
X119637533Y-127847021D01*
X119497021Y-127987533D01*
X119380213Y-128148305D01*
X119289994Y-128325367D01*
X119289993Y-128325370D01*
X119228587Y-128514362D01*
X119197500Y-128710639D01*
X92967341Y-128710639D01*
X92714436Y-128605882D01*
X92375895Y-128503188D01*
X92375884Y-128503185D01*
X92028946Y-128434176D01*
X92028929Y-128434173D01*
X91762700Y-128407952D01*
X91676881Y-128399500D01*
X91323119Y-128399500D01*
X91243748Y-128407317D01*
X90971070Y-128434173D01*
X90971053Y-128434176D01*
X90624115Y-128503185D01*
X90624104Y-128503188D01*
X90285563Y-128605882D01*
X89958728Y-128741262D01*
X89958723Y-128741264D01*
X89646752Y-128908017D01*
X89646734Y-128908028D01*
X89352606Y-129104558D01*
X89352592Y-129104568D01*
X89079130Y-129328992D01*
X88828992Y-129579130D01*
X88604568Y-129852592D01*
X88604558Y-129852606D01*
X88408028Y-130146734D01*
X88408017Y-130146752D01*
X88241264Y-130458723D01*
X88241262Y-130458728D01*
X88105882Y-130785563D01*
X88003188Y-131124104D01*
X88003185Y-131124115D01*
X87934176Y-131471053D01*
X87934173Y-131471070D01*
X87899500Y-131823122D01*
X86200500Y-131823122D01*
X86200500Y-123393713D01*
X98024500Y-123393713D01*
X98024500Y-123606286D01*
X98053942Y-123792179D01*
X98057754Y-123816243D01*
X98103854Y-123958125D01*
X98123444Y-124018414D01*
X98219951Y-124207820D01*
X98344890Y-124379786D01*
X98483705Y-124518601D01*
X98517190Y-124579924D01*
X98512206Y-124649616D01*
X98470334Y-124705549D01*
X98461121Y-124711821D01*
X98306342Y-124807289D01*
X98182289Y-124931342D01*
X98090187Y-125080663D01*
X98090186Y-125080666D01*
X98035001Y-125247203D01*
X98035001Y-125247204D01*
X98035000Y-125247204D01*
X98024500Y-125349983D01*
X98024500Y-126650001D01*
X98024501Y-126650018D01*
X98035000Y-126752796D01*
X98035001Y-126752799D01*
X98090185Y-126919331D01*
X98090186Y-126919334D01*
X98182288Y-127068656D01*
X98306344Y-127192712D01*
X98455666Y-127284814D01*
X98622203Y-127339999D01*
X98724991Y-127350500D01*
X100275008Y-127350499D01*
X100377797Y-127339999D01*
X100544334Y-127284814D01*
X100693656Y-127192712D01*
X100817712Y-127068656D01*
X100909814Y-126919334D01*
X100964999Y-126752797D01*
X100975500Y-126650009D01*
X100975499Y-125349992D01*
X100964999Y-125247203D01*
X100909814Y-125080666D01*
X100817712Y-124931344D01*
X100693656Y-124807288D01*
X100544334Y-124715186D01*
X100544333Y-124715185D01*
X100538878Y-124711821D01*
X100492154Y-124659873D01*
X100480931Y-124590910D01*
X100508775Y-124526828D01*
X100516272Y-124518623D01*
X100655104Y-124379792D01*
X100780051Y-124207816D01*
X100876557Y-124018412D01*
X100942246Y-123816243D01*
X100975500Y-123606287D01*
X100975500Y-123393713D01*
X100942246Y-123183757D01*
X100876557Y-122981588D01*
X100780051Y-122792184D01*
X100780049Y-122792181D01*
X100780048Y-122792179D01*
X100655109Y-122620213D01*
X100504790Y-122469894D01*
X100504785Y-122469890D01*
X100339781Y-122350008D01*
X100297115Y-122294678D01*
X100291136Y-122225065D01*
X100323741Y-122163270D01*
X100339781Y-122149371D01*
X100504466Y-122029721D01*
X100654723Y-121879464D01*
X100654727Y-121879459D01*
X100779620Y-121707557D01*
X100876095Y-121518217D01*
X100941757Y-121316129D01*
X100941757Y-121316126D01*
X100952231Y-121250000D01*
X99904146Y-121250000D01*
X99942630Y-121183343D01*
X99975000Y-121062535D01*
X99975000Y-120937465D01*
X99942630Y-120816657D01*
X99904146Y-120750000D01*
X100952231Y-120750000D01*
X100941757Y-120683873D01*
X100941757Y-120683870D01*
X100876095Y-120481782D01*
X100779620Y-120292442D01*
X100654727Y-120120540D01*
X100654723Y-120120535D01*
X100504464Y-119970276D01*
X100504459Y-119970272D01*
X100332557Y-119845379D01*
X100143217Y-119748904D01*
X99941128Y-119683242D01*
X99750000Y-119652969D01*
X99750000Y-120595854D01*
X99683343Y-120557370D01*
X99562535Y-120525000D01*
X99437465Y-120525000D01*
X99316657Y-120557370D01*
X99250000Y-120595854D01*
X99250000Y-119652969D01*
X99058872Y-119683242D01*
X99058869Y-119683242D01*
X98856782Y-119748904D01*
X98667442Y-119845379D01*
X98495540Y-119970272D01*
X98495535Y-119970276D01*
X98345276Y-120120535D01*
X98345272Y-120120540D01*
X98220379Y-120292442D01*
X98123904Y-120481782D01*
X98058242Y-120683870D01*
X98058242Y-120683873D01*
X98047769Y-120750000D01*
X99095854Y-120750000D01*
X99057370Y-120816657D01*
X99025000Y-120937465D01*
X99025000Y-121062535D01*
X99057370Y-121183343D01*
X99095854Y-121250000D01*
X98047769Y-121250000D01*
X98058242Y-121316126D01*
X98058242Y-121316129D01*
X98123904Y-121518217D01*
X98220379Y-121707557D01*
X98345272Y-121879459D01*
X98345276Y-121879464D01*
X98495535Y-122029723D01*
X98495540Y-122029727D01*
X98660218Y-122149372D01*
X98702884Y-122204701D01*
X98708863Y-122274315D01*
X98676258Y-122336110D01*
X98660218Y-122350008D01*
X98495214Y-122469890D01*
X98495209Y-122469894D01*
X98344890Y-122620213D01*
X98219951Y-122792179D01*
X98123444Y-122981585D01*
X98057753Y-123183760D01*
X98024500Y-123393713D01*
X86200500Y-123393713D01*
X86200500Y-106224983D01*
X96149500Y-106224983D01*
X96149500Y-107775001D01*
X96149501Y-107775018D01*
X96160000Y-107877796D01*
X96160001Y-107877799D01*
X96205894Y-108016294D01*
X96215186Y-108044334D01*
X96307288Y-108193656D01*
X96431344Y-108317712D01*
X96580666Y-108409814D01*
X96747203Y-108464999D01*
X96849991Y-108475500D01*
X98150008Y-108475499D01*
X98252797Y-108464999D01*
X98419334Y-108409814D01*
X98568656Y-108317712D01*
X98692712Y-108193656D01*
X98784814Y-108044334D01*
X98784814Y-108044331D01*
X98788178Y-108038879D01*
X98840126Y-107992154D01*
X98909088Y-107980931D01*
X98973170Y-108008774D01*
X98981398Y-108016294D01*
X99120213Y-108155109D01*
X99292179Y-108280048D01*
X99292181Y-108280049D01*
X99292184Y-108280051D01*
X99481588Y-108376557D01*
X99683757Y-108442246D01*
X99893713Y-108475500D01*
X99893714Y-108475500D01*
X100106286Y-108475500D01*
X100106287Y-108475500D01*
X100316243Y-108442246D01*
X100518412Y-108376557D01*
X100707816Y-108280051D01*
X100729789Y-108264086D01*
X100879786Y-108155109D01*
X100879788Y-108155106D01*
X100879792Y-108155104D01*
X101030104Y-108004792D01*
X101149991Y-107839779D01*
X101205320Y-107797115D01*
X101274933Y-107791136D01*
X101336729Y-107823741D01*
X101350627Y-107839781D01*
X101470272Y-108004459D01*
X101470276Y-108004464D01*
X101620535Y-108154723D01*
X101620540Y-108154727D01*
X101792442Y-108279620D01*
X101981782Y-108376095D01*
X102183871Y-108441757D01*
X102250000Y-108452231D01*
X102250000Y-107404145D01*
X102316657Y-107442630D01*
X102437465Y-107475000D01*
X102562535Y-107475000D01*
X102683343Y-107442630D01*
X102750000Y-107404145D01*
X102750000Y-108452230D01*
X102816126Y-108441757D01*
X102816129Y-108441757D01*
X103018217Y-108376095D01*
X103207557Y-108279620D01*
X103379459Y-108154727D01*
X103379464Y-108154723D01*
X103529723Y-108004464D01*
X103529727Y-108004459D01*
X103654620Y-107832557D01*
X103751095Y-107643217D01*
X103816757Y-107441130D01*
X103816757Y-107441127D01*
X103847030Y-107250000D01*
X102904146Y-107250000D01*
X102942630Y-107183343D01*
X102975000Y-107062535D01*
X102975000Y-106937465D01*
X102942630Y-106816657D01*
X102904146Y-106750000D01*
X103847030Y-106750000D01*
X103816757Y-106558872D01*
X103816757Y-106558869D01*
X103751095Y-106356782D01*
X103654620Y-106167442D01*
X103529727Y-105995540D01*
X103529723Y-105995535D01*
X103379464Y-105845276D01*
X103379459Y-105845272D01*
X103207557Y-105720379D01*
X103018215Y-105623903D01*
X102816124Y-105558241D01*
X102750000Y-105547768D01*
X102750000Y-106595854D01*
X102683343Y-106557370D01*
X102562535Y-106525000D01*
X102437465Y-106525000D01*
X102316657Y-106557370D01*
X102250000Y-106595854D01*
X102250000Y-105547768D01*
X102249999Y-105547768D01*
X102183875Y-105558241D01*
X101981784Y-105623903D01*
X101792442Y-105720379D01*
X101620540Y-105845272D01*
X101620535Y-105845276D01*
X101470276Y-105995535D01*
X101470272Y-105995540D01*
X101350627Y-106160218D01*
X101295297Y-106202884D01*
X101225684Y-106208863D01*
X101163889Y-106176257D01*
X101149991Y-106160218D01*
X101030109Y-105995214D01*
X101030105Y-105995209D01*
X100879786Y-105844890D01*
X100707820Y-105719951D01*
X100518414Y-105623444D01*
X100518413Y-105623443D01*
X100518412Y-105623443D01*
X100316243Y-105557754D01*
X100316241Y-105557753D01*
X100316240Y-105557753D01*
X100154957Y-105532208D01*
X100106287Y-105524500D01*
X99893713Y-105524500D01*
X99845042Y-105532208D01*
X99683760Y-105557753D01*
X99481585Y-105623444D01*
X99292179Y-105719951D01*
X99120215Y-105844889D01*
X98981398Y-105983706D01*
X98920075Y-106017190D01*
X98850383Y-106012206D01*
X98794450Y-105970334D01*
X98788178Y-105961120D01*
X98692712Y-105806344D01*
X98568657Y-105682289D01*
X98568656Y-105682288D01*
X98419334Y-105590186D01*
X98252797Y-105535001D01*
X98252795Y-105535000D01*
X98150010Y-105524500D01*
X96849998Y-105524500D01*
X96849981Y-105524501D01*
X96747203Y-105535000D01*
X96747200Y-105535001D01*
X96580668Y-105590185D01*
X96580663Y-105590187D01*
X96431342Y-105682289D01*
X96307289Y-105806342D01*
X96215187Y-105955663D01*
X96215185Y-105955668D01*
X96198908Y-106004790D01*
X96160001Y-106122203D01*
X96160001Y-106122204D01*
X96160000Y-106122204D01*
X96149500Y-106224983D01*
X86200500Y-106224983D01*
X86200500Y-96724983D01*
X96149500Y-96724983D01*
X96149500Y-98275001D01*
X96149501Y-98275018D01*
X96160000Y-98377796D01*
X96160001Y-98377799D01*
X96205894Y-98516294D01*
X96215186Y-98544334D01*
X96307288Y-98693656D01*
X96431344Y-98817712D01*
X96580666Y-98909814D01*
X96747203Y-98964999D01*
X96849991Y-98975500D01*
X98150008Y-98975499D01*
X98252797Y-98964999D01*
X98419334Y-98909814D01*
X98568656Y-98817712D01*
X98692712Y-98693656D01*
X98784814Y-98544334D01*
X98784814Y-98544331D01*
X98788178Y-98538879D01*
X98840126Y-98492154D01*
X98909088Y-98480931D01*
X98973170Y-98508774D01*
X98981398Y-98516294D01*
X99120213Y-98655109D01*
X99292179Y-98780048D01*
X99292181Y-98780049D01*
X99292184Y-98780051D01*
X99481588Y-98876557D01*
X99683757Y-98942246D01*
X99893713Y-98975500D01*
X99893714Y-98975500D01*
X100106286Y-98975500D01*
X100106287Y-98975500D01*
X100316243Y-98942246D01*
X100518412Y-98876557D01*
X100707816Y-98780051D01*
X100729789Y-98764086D01*
X100879786Y-98655109D01*
X100879788Y-98655106D01*
X100879792Y-98655104D01*
X101030104Y-98504792D01*
X101149991Y-98339779D01*
X101205320Y-98297115D01*
X101274933Y-98291136D01*
X101336729Y-98323741D01*
X101350627Y-98339781D01*
X101470272Y-98504459D01*
X101470276Y-98504464D01*
X101620535Y-98654723D01*
X101620540Y-98654727D01*
X101792442Y-98779620D01*
X101981782Y-98876095D01*
X102183871Y-98941757D01*
X102250000Y-98952231D01*
X102250000Y-97904145D01*
X102316657Y-97942630D01*
X102437465Y-97975000D01*
X102562535Y-97975000D01*
X102683343Y-97942630D01*
X102750000Y-97904145D01*
X102750000Y-98952230D01*
X102816126Y-98941757D01*
X102816129Y-98941757D01*
X103018217Y-98876095D01*
X103207557Y-98779620D01*
X103379459Y-98654727D01*
X103379464Y-98654723D01*
X103529723Y-98504464D01*
X103529727Y-98504459D01*
X103654620Y-98332557D01*
X103751095Y-98143217D01*
X103816757Y-97941130D01*
X103816757Y-97941127D01*
X103847030Y-97750000D01*
X102904146Y-97750000D01*
X102942630Y-97683343D01*
X102975000Y-97562535D01*
X102975000Y-97437465D01*
X102942630Y-97316657D01*
X102904146Y-97250000D01*
X103847030Y-97250000D01*
X103816757Y-97058872D01*
X103816757Y-97058869D01*
X103751095Y-96856782D01*
X103654620Y-96667442D01*
X103529727Y-96495540D01*
X103529723Y-96495535D01*
X103379464Y-96345276D01*
X103379459Y-96345272D01*
X103207557Y-96220379D01*
X103018215Y-96123903D01*
X102816124Y-96058241D01*
X102750000Y-96047768D01*
X102750000Y-97095854D01*
X102683343Y-97057370D01*
X102562535Y-97025000D01*
X102437465Y-97025000D01*
X102316657Y-97057370D01*
X102250000Y-97095854D01*
X102250000Y-96047768D01*
X102249999Y-96047768D01*
X102183875Y-96058241D01*
X101981784Y-96123903D01*
X101792442Y-96220379D01*
X101620540Y-96345272D01*
X101620535Y-96345276D01*
X101470276Y-96495535D01*
X101470272Y-96495540D01*
X101350627Y-96660218D01*
X101295297Y-96702884D01*
X101225684Y-96708863D01*
X101163889Y-96676257D01*
X101149991Y-96660218D01*
X101030109Y-96495214D01*
X101030105Y-96495209D01*
X100879786Y-96344890D01*
X100707820Y-96219951D01*
X100518414Y-96123444D01*
X100518413Y-96123443D01*
X100518412Y-96123443D01*
X100316243Y-96057754D01*
X100316241Y-96057753D01*
X100316240Y-96057753D01*
X100154957Y-96032208D01*
X100106287Y-96024500D01*
X99893713Y-96024500D01*
X99845042Y-96032208D01*
X99683760Y-96057753D01*
X99481585Y-96123444D01*
X99292179Y-96219951D01*
X99120215Y-96344889D01*
X98981398Y-96483706D01*
X98920075Y-96517190D01*
X98850383Y-96512206D01*
X98794450Y-96470334D01*
X98788178Y-96461120D01*
X98692712Y-96306344D01*
X98568657Y-96182289D01*
X98568656Y-96182288D01*
X98454366Y-96111794D01*
X98419336Y-96090187D01*
X98419331Y-96090185D01*
X98417862Y-96089698D01*
X98252797Y-96035001D01*
X98252795Y-96035000D01*
X98150010Y-96024500D01*
X96849998Y-96024500D01*
X96849981Y-96024501D01*
X96747203Y-96035000D01*
X96747200Y-96035001D01*
X96580668Y-96090185D01*
X96580663Y-96090187D01*
X96431342Y-96182289D01*
X96307289Y-96306342D01*
X96215187Y-96455663D01*
X96215185Y-96455668D01*
X96198908Y-96504790D01*
X96160001Y-96622203D01*
X96160001Y-96622204D01*
X96160000Y-96622204D01*
X96149500Y-96724983D01*
X86200500Y-96724983D01*
X86200500Y-91971577D01*
X119249500Y-91971577D01*
X119249500Y-92168422D01*
X119280290Y-92362826D01*
X119341117Y-92550029D01*
X119427977Y-92720500D01*
X119430476Y-92725405D01*
X119546172Y-92884646D01*
X119685354Y-93023828D01*
X119844595Y-93139524D01*
X119927455Y-93181743D01*
X120019970Y-93228882D01*
X120019972Y-93228882D01*
X120019975Y-93228884D01*
X120120317Y-93261487D01*
X120207173Y-93289709D01*
X120401578Y-93320500D01*
X120401583Y-93320500D01*
X120598422Y-93320500D01*
X120792826Y-93289709D01*
X120980025Y-93228884D01*
X121155405Y-93139524D01*
X121314646Y-93023828D01*
X121453828Y-92884646D01*
X121535950Y-92771614D01*
X121591280Y-92728949D01*
X121636268Y-92720500D01*
X123810192Y-92720500D01*
X123877231Y-92740185D01*
X123922986Y-92792989D01*
X123932930Y-92862147D01*
X123903905Y-92925703D01*
X123897873Y-92932181D01*
X121078220Y-95751832D01*
X121016897Y-95785317D01*
X120952221Y-95782082D01*
X120903110Y-95766124D01*
X120792826Y-95730290D01*
X120598422Y-95699500D01*
X120598417Y-95699500D01*
X120401583Y-95699500D01*
X120401578Y-95699500D01*
X120207173Y-95730290D01*
X120019970Y-95791117D01*
X119844594Y-95880476D01*
X119761112Y-95941130D01*
X119685354Y-95996172D01*
X119685352Y-95996174D01*
X119685351Y-95996174D01*
X119546174Y-96135351D01*
X119546174Y-96135352D01*
X119546172Y-96135354D01*
X119512072Y-96182288D01*
X119430476Y-96294594D01*
X119341117Y-96469970D01*
X119280290Y-96657173D01*
X119249500Y-96851577D01*
X119249500Y-97048422D01*
X119280290Y-97242826D01*
X119341117Y-97430029D01*
X119408633Y-97562535D01*
X119430476Y-97605405D01*
X119546172Y-97764646D01*
X119685354Y-97903828D01*
X119844595Y-98019524D01*
X119927455Y-98061743D01*
X120019970Y-98108882D01*
X120019972Y-98108882D01*
X120019975Y-98108884D01*
X120120317Y-98141487D01*
X120207173Y-98169709D01*
X120401578Y-98200500D01*
X120401583Y-98200500D01*
X120598422Y-98200500D01*
X120792826Y-98169709D01*
X120980025Y-98108884D01*
X121155405Y-98019524D01*
X121314646Y-97903828D01*
X121453828Y-97764646D01*
X121569524Y-97605405D01*
X121658884Y-97430025D01*
X121719709Y-97242826D01*
X121744121Y-97088695D01*
X121750500Y-97048422D01*
X121750500Y-96970808D01*
X121770185Y-96903769D01*
X121786819Y-96883127D01*
X127233127Y-91436819D01*
X127294450Y-91403334D01*
X127320808Y-91400500D01*
X128245065Y-91400500D01*
X128312104Y-91420185D01*
X128313909Y-91421366D01*
X128370821Y-91459394D01*
X128370823Y-91459395D01*
X128370827Y-91459397D01*
X128516498Y-91519735D01*
X128516503Y-91519737D01*
X128655528Y-91547391D01*
X128671153Y-91550499D01*
X128671156Y-91550500D01*
X128671158Y-91550500D01*
X128828844Y-91550500D01*
X128828845Y-91550499D01*
X128983497Y-91519737D01*
X129129179Y-91459394D01*
X129260289Y-91371789D01*
X129371789Y-91260289D01*
X129459394Y-91129179D01*
X129519737Y-90983497D01*
X129550500Y-90828842D01*
X129550500Y-90671158D01*
X129550500Y-90671155D01*
X129537426Y-90605431D01*
X129543653Y-90535840D01*
X129586515Y-90480662D01*
X129611589Y-90466679D01*
X129629179Y-90459394D01*
X129760289Y-90371789D01*
X129871789Y-90260289D01*
X129959394Y-90129179D01*
X130019737Y-89983497D01*
X130050500Y-89828842D01*
X130050500Y-89671158D01*
X130050500Y-89671155D01*
X130050499Y-89671153D01*
X130034097Y-89588695D01*
X130019737Y-89516503D01*
X130019735Y-89516498D01*
X129959397Y-89370827D01*
X129959395Y-89370823D01*
X129959394Y-89370821D01*
X129928956Y-89325267D01*
X129908078Y-89258590D01*
X129926562Y-89191210D01*
X129963167Y-89153274D01*
X130010289Y-89121789D01*
X130121789Y-89010289D01*
X130209394Y-88879179D01*
X130209967Y-88877797D01*
X130245862Y-88791136D01*
X130269737Y-88733497D01*
X130300500Y-88578842D01*
X130300500Y-88574837D01*
X130301093Y-88572814D01*
X130301097Y-88572782D01*
X130301103Y-88572782D01*
X130320185Y-88507798D01*
X130372989Y-88462043D01*
X130376986Y-88460302D01*
X130379179Y-88459394D01*
X130510289Y-88371789D01*
X130621789Y-88260289D01*
X130709394Y-88129179D01*
X130769737Y-87983497D01*
X130800500Y-87828842D01*
X130800500Y-87671158D01*
X130800500Y-87671155D01*
X130800499Y-87671153D01*
X130780415Y-87570185D01*
X130769737Y-87516503D01*
X130710678Y-87373920D01*
X130709397Y-87370827D01*
X130709390Y-87370814D01*
X130621789Y-87239711D01*
X130621786Y-87239707D01*
X130510292Y-87128213D01*
X130510288Y-87128210D01*
X130379185Y-87040609D01*
X130379172Y-87040602D01*
X130233501Y-86980264D01*
X130233489Y-86980261D01*
X130166420Y-86966920D01*
X130104509Y-86934535D01*
X130102930Y-86932984D01*
X127664674Y-84494727D01*
X127664673Y-84494726D01*
X127664669Y-84494723D01*
X127558127Y-84423535D01*
X127439744Y-84374499D01*
X127439738Y-84374497D01*
X127314071Y-84349500D01*
X127314069Y-84349500D01*
X121315783Y-84349500D01*
X121248744Y-84329815D01*
X121228106Y-84313185D01*
X121137782Y-84222861D01*
X121137781Y-84222860D01*
X121137780Y-84222859D01*
X120973920Y-84113371D01*
X120973907Y-84113364D01*
X120791839Y-84037950D01*
X120791829Y-84037947D01*
X120598543Y-83999500D01*
X120598541Y-83999500D01*
X120401459Y-83999500D01*
X120401457Y-83999500D01*
X120208170Y-84037947D01*
X120208160Y-84037950D01*
X120026092Y-84113364D01*
X120026079Y-84113371D01*
X119862218Y-84222860D01*
X119862214Y-84222863D01*
X119722863Y-84362214D01*
X119722860Y-84362218D01*
X119613371Y-84526079D01*
X119613364Y-84526092D01*
X119537950Y-84708160D01*
X119537947Y-84708170D01*
X119499500Y-84901456D01*
X119499500Y-84901459D01*
X119499500Y-85098541D01*
X119499500Y-85098543D01*
X119499499Y-85098543D01*
X119537947Y-85291829D01*
X119537950Y-85291839D01*
X119613364Y-85473907D01*
X119613371Y-85473920D01*
X119722860Y-85637781D01*
X119722863Y-85637785D01*
X119862214Y-85777136D01*
X119862218Y-85777139D01*
X119966618Y-85846898D01*
X120011423Y-85900511D01*
X120020130Y-85969836D01*
X119989975Y-86032863D01*
X119966618Y-86053102D01*
X119862218Y-86122860D01*
X119862214Y-86122863D01*
X119722863Y-86262214D01*
X119722860Y-86262218D01*
X119613371Y-86426079D01*
X119613364Y-86426092D01*
X119537950Y-86608160D01*
X119537947Y-86608170D01*
X119499500Y-86801456D01*
X119499500Y-86801459D01*
X119499500Y-86998541D01*
X119499500Y-86998543D01*
X119499499Y-86998543D01*
X119537947Y-87191829D01*
X119537950Y-87191839D01*
X119613364Y-87373907D01*
X119613371Y-87373920D01*
X119722860Y-87537781D01*
X119722863Y-87537785D01*
X119862214Y-87677136D01*
X119862218Y-87677139D01*
X120026079Y-87786628D01*
X120026092Y-87786635D01*
X120128000Y-87828846D01*
X120208165Y-87862051D01*
X120208169Y-87862051D01*
X120208170Y-87862052D01*
X120401456Y-87900500D01*
X120401459Y-87900500D01*
X120598543Y-87900500D01*
X120728582Y-87874632D01*
X120791835Y-87862051D01*
X120973914Y-87786632D01*
X121137782Y-87677139D01*
X121228103Y-87586817D01*
X121289424Y-87553334D01*
X121315783Y-87550500D01*
X127579192Y-87550500D01*
X127646231Y-87570185D01*
X127666873Y-87586819D01*
X128682984Y-88602930D01*
X128716469Y-88664253D01*
X128716920Y-88666420D01*
X128730261Y-88733489D01*
X128730264Y-88733501D01*
X128790602Y-88879172D01*
X128790610Y-88879187D01*
X128808933Y-88906608D01*
X128829812Y-88973285D01*
X128811328Y-89040666D01*
X128759350Y-89087356D01*
X128705832Y-89099500D01*
X126435929Y-89099500D01*
X126323895Y-89121786D01*
X126323880Y-89121789D01*
X126313637Y-89123826D01*
X126310255Y-89124499D01*
X126191870Y-89173535D01*
X126085331Y-89244722D01*
X126085324Y-89244728D01*
X123946873Y-91383181D01*
X123885550Y-91416666D01*
X123859192Y-91419500D01*
X121636268Y-91419500D01*
X121569229Y-91399815D01*
X121535950Y-91368385D01*
X121457413Y-91260289D01*
X121453828Y-91255354D01*
X121314646Y-91116172D01*
X121155405Y-91000476D01*
X120980029Y-90911117D01*
X120792826Y-90850290D01*
X120598422Y-90819500D01*
X120598417Y-90819500D01*
X120401583Y-90819500D01*
X120401578Y-90819500D01*
X120207173Y-90850290D01*
X120019970Y-90911117D01*
X119844594Y-91000476D01*
X119753741Y-91066485D01*
X119685354Y-91116172D01*
X119685352Y-91116174D01*
X119685351Y-91116174D01*
X119546174Y-91255351D01*
X119546174Y-91255352D01*
X119546172Y-91255354D01*
X119537804Y-91266872D01*
X119430476Y-91414594D01*
X119341117Y-91589970D01*
X119280290Y-91777173D01*
X119249500Y-91971577D01*
X86200500Y-91971577D01*
X86200500Y-87224983D01*
X96149500Y-87224983D01*
X96149500Y-88775001D01*
X96149501Y-88775018D01*
X96160000Y-88877796D01*
X96160001Y-88877799D01*
X96205894Y-89016294D01*
X96215186Y-89044334D01*
X96307288Y-89193656D01*
X96431344Y-89317712D01*
X96580666Y-89409814D01*
X96747203Y-89464999D01*
X96849991Y-89475500D01*
X98150008Y-89475499D01*
X98252797Y-89464999D01*
X98419334Y-89409814D01*
X98568656Y-89317712D01*
X98692712Y-89193656D01*
X98784814Y-89044334D01*
X98784814Y-89044331D01*
X98788178Y-89038879D01*
X98840126Y-88992154D01*
X98909088Y-88980931D01*
X98973170Y-89008774D01*
X98981398Y-89016294D01*
X99120213Y-89155109D01*
X99292179Y-89280048D01*
X99292181Y-89280049D01*
X99292184Y-89280051D01*
X99481588Y-89376557D01*
X99683757Y-89442246D01*
X99893713Y-89475500D01*
X99893714Y-89475500D01*
X100106286Y-89475500D01*
X100106287Y-89475500D01*
X100316243Y-89442246D01*
X100518412Y-89376557D01*
X100707816Y-89280051D01*
X100766602Y-89237341D01*
X100879786Y-89155109D01*
X100879788Y-89155106D01*
X100879792Y-89155104D01*
X101030104Y-89004792D01*
X101149991Y-88839779D01*
X101205320Y-88797115D01*
X101274933Y-88791136D01*
X101336729Y-88823741D01*
X101350627Y-88839781D01*
X101470272Y-89004459D01*
X101470276Y-89004464D01*
X101620535Y-89154723D01*
X101620540Y-89154727D01*
X101792442Y-89279620D01*
X101981782Y-89376095D01*
X102183871Y-89441757D01*
X102250000Y-89452231D01*
X102250000Y-88404145D01*
X102316657Y-88442630D01*
X102437465Y-88475000D01*
X102562535Y-88475000D01*
X102683343Y-88442630D01*
X102750000Y-88404145D01*
X102750000Y-89452230D01*
X102816126Y-89441757D01*
X102816129Y-89441757D01*
X103018217Y-89376095D01*
X103207557Y-89279620D01*
X103379459Y-89154727D01*
X103379464Y-89154723D01*
X103529723Y-89004464D01*
X103529727Y-89004459D01*
X103654620Y-88832557D01*
X103751095Y-88643217D01*
X103816757Y-88441130D01*
X103816757Y-88441127D01*
X103847030Y-88250000D01*
X102904146Y-88250000D01*
X102942630Y-88183343D01*
X102975000Y-88062535D01*
X102975000Y-87937465D01*
X102942630Y-87816657D01*
X102904146Y-87750000D01*
X103847030Y-87750000D01*
X103816757Y-87558872D01*
X103816757Y-87558869D01*
X103751095Y-87356782D01*
X103654620Y-87167442D01*
X103529727Y-86995540D01*
X103529723Y-86995535D01*
X103379464Y-86845276D01*
X103379459Y-86845272D01*
X103207557Y-86720379D01*
X103018215Y-86623903D01*
X102816124Y-86558241D01*
X102750000Y-86547768D01*
X102750000Y-87595854D01*
X102683343Y-87557370D01*
X102562535Y-87525000D01*
X102437465Y-87525000D01*
X102316657Y-87557370D01*
X102250000Y-87595854D01*
X102250000Y-86547768D01*
X102249999Y-86547768D01*
X102183875Y-86558241D01*
X101981784Y-86623903D01*
X101792442Y-86720379D01*
X101620540Y-86845272D01*
X101620535Y-86845276D01*
X101470276Y-86995535D01*
X101470272Y-86995540D01*
X101350627Y-87160218D01*
X101295297Y-87202884D01*
X101225684Y-87208863D01*
X101163889Y-87176257D01*
X101149991Y-87160218D01*
X101030109Y-86995214D01*
X101030105Y-86995209D01*
X100879786Y-86844890D01*
X100707820Y-86719951D01*
X100518414Y-86623444D01*
X100518413Y-86623443D01*
X100518412Y-86623443D01*
X100316243Y-86557754D01*
X100316241Y-86557753D01*
X100316240Y-86557753D01*
X100154957Y-86532208D01*
X100106287Y-86524500D01*
X99893713Y-86524500D01*
X99845042Y-86532208D01*
X99683760Y-86557753D01*
X99481585Y-86623444D01*
X99292179Y-86719951D01*
X99120215Y-86844889D01*
X98981398Y-86983706D01*
X98920075Y-87017190D01*
X98850383Y-87012206D01*
X98794450Y-86970334D01*
X98788178Y-86961120D01*
X98692712Y-86806344D01*
X98568657Y-86682289D01*
X98568656Y-86682288D01*
X98419334Y-86590186D01*
X98252797Y-86535001D01*
X98252795Y-86535000D01*
X98150010Y-86524500D01*
X96849998Y-86524500D01*
X96849981Y-86524501D01*
X96747203Y-86535000D01*
X96747200Y-86535001D01*
X96580668Y-86590185D01*
X96580663Y-86590187D01*
X96431342Y-86682289D01*
X96307289Y-86806342D01*
X96215187Y-86955663D01*
X96215185Y-86955668D01*
X96200978Y-86998543D01*
X96160001Y-87122203D01*
X96160001Y-87122204D01*
X96160000Y-87122204D01*
X96149500Y-87224983D01*
X86200500Y-87224983D01*
X86200500Y-77724983D01*
X96149500Y-77724983D01*
X96149500Y-79275001D01*
X96149501Y-79275018D01*
X96160000Y-79377796D01*
X96160001Y-79377799D01*
X96215185Y-79544331D01*
X96215187Y-79544336D01*
X96235305Y-79576952D01*
X96307288Y-79693656D01*
X96431344Y-79817712D01*
X96580666Y-79909814D01*
X96747203Y-79964999D01*
X96849991Y-79975500D01*
X98004191Y-79975499D01*
X98071230Y-79995184D01*
X98091872Y-80011818D01*
X101585325Y-83505272D01*
X101585332Y-83505278D01*
X101643451Y-83544111D01*
X101643453Y-83544112D01*
X101643456Y-83544114D01*
X101691873Y-83576465D01*
X101810256Y-83625501D01*
X101810260Y-83625501D01*
X101810261Y-83625502D01*
X101935928Y-83650500D01*
X101935931Y-83650500D01*
X124325638Y-83650500D01*
X124392677Y-83670185D01*
X124413319Y-83686819D01*
X124425961Y-83699461D01*
X124425965Y-83699464D01*
X124573446Y-83798009D01*
X124573459Y-83798016D01*
X124685418Y-83844390D01*
X124737334Y-83865894D01*
X124737336Y-83865894D01*
X124737341Y-83865896D01*
X124911304Y-83900499D01*
X124911307Y-83900500D01*
X124911309Y-83900500D01*
X125088693Y-83900500D01*
X125088694Y-83900499D01*
X125146682Y-83888964D01*
X125262658Y-83865896D01*
X125262661Y-83865894D01*
X125262666Y-83865894D01*
X125426547Y-83798013D01*
X125574035Y-83699464D01*
X125699464Y-83574035D01*
X125798013Y-83426547D01*
X125865894Y-83262666D01*
X125900500Y-83088691D01*
X125900500Y-82911309D01*
X125900500Y-82911306D01*
X125900499Y-82911304D01*
X125865896Y-82737341D01*
X125865893Y-82737332D01*
X125798016Y-82573459D01*
X125798009Y-82573446D01*
X125699464Y-82425965D01*
X125699461Y-82425961D01*
X125574038Y-82300538D01*
X125574034Y-82300535D01*
X125426553Y-82201990D01*
X125426540Y-82201983D01*
X125262667Y-82134106D01*
X125262658Y-82134103D01*
X125088694Y-82099500D01*
X125088691Y-82099500D01*
X124911309Y-82099500D01*
X124911306Y-82099500D01*
X124737341Y-82134103D01*
X124737332Y-82134106D01*
X124573459Y-82201983D01*
X124573446Y-82201990D01*
X124425965Y-82300535D01*
X124425961Y-82300538D01*
X124413319Y-82313181D01*
X124351996Y-82346666D01*
X124325638Y-82349500D01*
X102320808Y-82349500D01*
X102253769Y-82329815D01*
X102233127Y-82313181D01*
X100096357Y-80176411D01*
X100062872Y-80115088D01*
X100067856Y-80045396D01*
X100109728Y-79989463D01*
X100164638Y-79966257D01*
X100275627Y-79948678D01*
X100316238Y-79942247D01*
X100316238Y-79942246D01*
X100316243Y-79942246D01*
X100518412Y-79876557D01*
X100707816Y-79780051D01*
X100766602Y-79737341D01*
X100879786Y-79655109D01*
X100879788Y-79655106D01*
X100879792Y-79655104D01*
X101030104Y-79504792D01*
X101149991Y-79339779D01*
X101205320Y-79297115D01*
X101274933Y-79291136D01*
X101336729Y-79323741D01*
X101350627Y-79339781D01*
X101470272Y-79504459D01*
X101470276Y-79504464D01*
X101620535Y-79654723D01*
X101620540Y-79654727D01*
X101792442Y-79779620D01*
X101981782Y-79876095D01*
X102183871Y-79941757D01*
X102250000Y-79952231D01*
X102250000Y-78904145D01*
X102316657Y-78942630D01*
X102437465Y-78975000D01*
X102562535Y-78975000D01*
X102683343Y-78942630D01*
X102750000Y-78904145D01*
X102750000Y-79952230D01*
X102816126Y-79941757D01*
X102816129Y-79941757D01*
X103018217Y-79876095D01*
X103207557Y-79779620D01*
X103379459Y-79654727D01*
X103379464Y-79654723D01*
X103529723Y-79504464D01*
X103529727Y-79504459D01*
X103654620Y-79332557D01*
X103751095Y-79143217D01*
X103816757Y-78941130D01*
X103816757Y-78941127D01*
X103847030Y-78750000D01*
X102904146Y-78750000D01*
X102942630Y-78683343D01*
X102975000Y-78562535D01*
X102975000Y-78437465D01*
X102942630Y-78316657D01*
X102904146Y-78250000D01*
X103847030Y-78250000D01*
X103816757Y-78058872D01*
X103816757Y-78058869D01*
X103751095Y-77856782D01*
X103654620Y-77667442D01*
X103529727Y-77495540D01*
X103529723Y-77495535D01*
X103379464Y-77345276D01*
X103379459Y-77345272D01*
X103207557Y-77220379D01*
X103018215Y-77123903D01*
X102816124Y-77058241D01*
X102750000Y-77047768D01*
X102750000Y-78095854D01*
X102683343Y-78057370D01*
X102562535Y-78025000D01*
X102437465Y-78025000D01*
X102316657Y-78057370D01*
X102250000Y-78095854D01*
X102250000Y-77047768D01*
X102249999Y-77047768D01*
X102183875Y-77058241D01*
X101981784Y-77123903D01*
X101792442Y-77220379D01*
X101620540Y-77345272D01*
X101620535Y-77345276D01*
X101470276Y-77495535D01*
X101470272Y-77495540D01*
X101350627Y-77660218D01*
X101295297Y-77702884D01*
X101225684Y-77708863D01*
X101163889Y-77676257D01*
X101149991Y-77660218D01*
X101030109Y-77495214D01*
X101030105Y-77495209D01*
X100879786Y-77344890D01*
X100707820Y-77219951D01*
X100518414Y-77123444D01*
X100518413Y-77123443D01*
X100518412Y-77123443D01*
X100316243Y-77057754D01*
X100316241Y-77057753D01*
X100316240Y-77057753D01*
X100149706Y-77031377D01*
X100106287Y-77024500D01*
X99893713Y-77024500D01*
X99850294Y-77031377D01*
X99683760Y-77057753D01*
X99683757Y-77057754D01*
X99520281Y-77110871D01*
X99481585Y-77123444D01*
X99292179Y-77219951D01*
X99120215Y-77344889D01*
X98981398Y-77483706D01*
X98920075Y-77517190D01*
X98850383Y-77512206D01*
X98794450Y-77470334D01*
X98788178Y-77461120D01*
X98692712Y-77306344D01*
X98568657Y-77182289D01*
X98568656Y-77182288D01*
X98452870Y-77110871D01*
X98419336Y-77090187D01*
X98419331Y-77090185D01*
X98252795Y-77035000D01*
X98248533Y-77034088D01*
X98187102Y-77000801D01*
X98153419Y-76939586D01*
X98150500Y-76912837D01*
X98150500Y-62820808D01*
X98170185Y-62753769D01*
X98186819Y-62733127D01*
X99069963Y-61849983D01*
X102024500Y-61849983D01*
X102024500Y-63150001D01*
X102024501Y-63150018D01*
X102035000Y-63252796D01*
X102035001Y-63252799D01*
X102090185Y-63419331D01*
X102090187Y-63419336D01*
X102182289Y-63568657D01*
X102306344Y-63692712D01*
X102461558Y-63788448D01*
X102508283Y-63840396D01*
X102519506Y-63909358D01*
X102491663Y-63973441D01*
X102484144Y-63981668D01*
X102345271Y-64120541D01*
X102220379Y-64292442D01*
X102123904Y-64481782D01*
X102058242Y-64683870D01*
X102058242Y-64683873D01*
X102047769Y-64750000D01*
X103095854Y-64750000D01*
X103057370Y-64816657D01*
X103025000Y-64937465D01*
X103025000Y-65062535D01*
X103057370Y-65183343D01*
X103095854Y-65250000D01*
X102047769Y-65250000D01*
X102058242Y-65316126D01*
X102058242Y-65316129D01*
X102123904Y-65518217D01*
X102220379Y-65707557D01*
X102345272Y-65879459D01*
X102345276Y-65879464D01*
X102495535Y-66029723D01*
X102495540Y-66029727D01*
X102660218Y-66149372D01*
X102702884Y-66204701D01*
X102708863Y-66274315D01*
X102676258Y-66336110D01*
X102660218Y-66350008D01*
X102495214Y-66469890D01*
X102495209Y-66469894D01*
X102344890Y-66620213D01*
X102219951Y-66792179D01*
X102123444Y-66981585D01*
X102057753Y-67183760D01*
X102024500Y-67393713D01*
X102024500Y-67606286D01*
X102057753Y-67816239D01*
X102057753Y-67816241D01*
X102057754Y-67816243D01*
X102117466Y-68000018D01*
X102123444Y-68018414D01*
X102219951Y-68207820D01*
X102344890Y-68379786D01*
X102495209Y-68530105D01*
X102495214Y-68530109D01*
X102659793Y-68649682D01*
X102702459Y-68705011D01*
X102708438Y-68774625D01*
X102675833Y-68836420D01*
X102659793Y-68850318D01*
X102495214Y-68969890D01*
X102495209Y-68969894D01*
X102344890Y-69120213D01*
X102219951Y-69292179D01*
X102123444Y-69481585D01*
X102057753Y-69683760D01*
X102024500Y-69893713D01*
X102024500Y-70106286D01*
X102044827Y-70234629D01*
X102057754Y-70316243D01*
X102098332Y-70441130D01*
X102123444Y-70518414D01*
X102219951Y-70707820D01*
X102344890Y-70879786D01*
X102495213Y-71030109D01*
X102667179Y-71155048D01*
X102667181Y-71155049D01*
X102667184Y-71155051D01*
X102856588Y-71251557D01*
X103058757Y-71317246D01*
X103268713Y-71350500D01*
X103268714Y-71350500D01*
X103731285Y-71350500D01*
X103731287Y-71350500D01*
X103840907Y-71333137D01*
X103910196Y-71342091D01*
X103947983Y-71367929D01*
X110352080Y-77772026D01*
X110406398Y-77826345D01*
X110418980Y-77849388D01*
X110439882Y-77887667D01*
X110434898Y-77957359D01*
X110421819Y-77982914D01*
X110349742Y-78090788D01*
X110282617Y-78252838D01*
X110248394Y-78424871D01*
X110248389Y-78600270D01*
X110282599Y-78772300D01*
X110282599Y-78772301D01*
X110349707Y-78934346D01*
X110349712Y-78934355D01*
X110447146Y-79080203D01*
X110447148Y-79080204D01*
X110463876Y-79096935D01*
X110463895Y-79096963D01*
X110509151Y-79142219D01*
X110509153Y-79142222D01*
X110537697Y-79170773D01*
X110537852Y-79170945D01*
X110557794Y-79190879D01*
X110557866Y-79191011D01*
X110594126Y-79227256D01*
X110656150Y-79289255D01*
X110802004Y-79386671D01*
X110802005Y-79386671D01*
X110802006Y-79386672D01*
X110896901Y-79425961D01*
X110964059Y-79453766D01*
X111136088Y-79487962D01*
X111136089Y-79487961D01*
X111136090Y-79487962D01*
X111136123Y-79487961D01*
X111311483Y-79487945D01*
X111483505Y-79453716D01*
X111645547Y-79386590D01*
X111791382Y-79289146D01*
X111808099Y-79272429D01*
X111808103Y-79272427D01*
X111841267Y-79239263D01*
X111853395Y-79227136D01*
X111891197Y-79189335D01*
X111952519Y-79155854D01*
X111992759Y-79153801D01*
X111999990Y-79154616D01*
X112027008Y-79151572D01*
X112029612Y-79151279D01*
X112043492Y-79150500D01*
X119825638Y-79150500D01*
X119892677Y-79170185D01*
X119913319Y-79186819D01*
X119925961Y-79199461D01*
X119925965Y-79199464D01*
X120073446Y-79298009D01*
X120073459Y-79298016D01*
X120171659Y-79338691D01*
X120237334Y-79365894D01*
X120237336Y-79365894D01*
X120237341Y-79365896D01*
X120411304Y-79400499D01*
X120411307Y-79400500D01*
X120411309Y-79400500D01*
X120588693Y-79400500D01*
X120588694Y-79400499D01*
X120658626Y-79386589D01*
X120762658Y-79365896D01*
X120762661Y-79365894D01*
X120762666Y-79365894D01*
X120926547Y-79298013D01*
X121074035Y-79199464D01*
X121199464Y-79074035D01*
X121298013Y-78926547D01*
X121365894Y-78762666D01*
X121368414Y-78750000D01*
X121400499Y-78588695D01*
X121400500Y-78588693D01*
X121400500Y-78411306D01*
X121400499Y-78411304D01*
X121365896Y-78237341D01*
X121365893Y-78237332D01*
X121298016Y-78073459D01*
X121298009Y-78073446D01*
X121199464Y-77925965D01*
X121199461Y-77925961D01*
X121111181Y-77837681D01*
X121077696Y-77776358D01*
X121082680Y-77706666D01*
X121111181Y-77662319D01*
X121199461Y-77574038D01*
X121199464Y-77574035D01*
X121298013Y-77426547D01*
X121365894Y-77262666D01*
X121367072Y-77256748D01*
X121397137Y-77105598D01*
X121400500Y-77088691D01*
X121400500Y-76911309D01*
X121400500Y-76911306D01*
X121400499Y-76911304D01*
X121365896Y-76737341D01*
X121365893Y-76737332D01*
X121298016Y-76573459D01*
X121298009Y-76573446D01*
X121199464Y-76425965D01*
X121199461Y-76425961D01*
X121074038Y-76300538D01*
X121074034Y-76300535D01*
X120926553Y-76201990D01*
X120926540Y-76201983D01*
X120762667Y-76134106D01*
X120762658Y-76134103D01*
X120588694Y-76099500D01*
X120588691Y-76099500D01*
X120411309Y-76099500D01*
X120411306Y-76099500D01*
X120237341Y-76134103D01*
X120237332Y-76134106D01*
X120073459Y-76201983D01*
X120073446Y-76201990D01*
X119925965Y-76300535D01*
X119925961Y-76300538D01*
X119913319Y-76313181D01*
X119851996Y-76346666D01*
X119825638Y-76349500D01*
X113196219Y-76349500D01*
X113194838Y-76349289D01*
X113194137Y-76349483D01*
X113188712Y-76348356D01*
X113159291Y-76343874D01*
X113153943Y-76342205D01*
X113101538Y-76320496D01*
X113054078Y-76311052D01*
X113047795Y-76309092D01*
X113023975Y-76293212D01*
X112998613Y-76279943D01*
X112995274Y-76274078D01*
X112989660Y-76270336D01*
X112978207Y-76244100D01*
X112964044Y-76219224D01*
X112963108Y-76214922D01*
X112954925Y-76173806D01*
X112938476Y-76134106D01*
X112889864Y-76016782D01*
X112886059Y-76011089D01*
X112795423Y-75875469D01*
X112795422Y-75875467D01*
X112740254Y-75820308D01*
X112566140Y-75646194D01*
X111647919Y-74727973D01*
X104945443Y-68025497D01*
X104911958Y-67964174D01*
X104915193Y-67899498D01*
X104942246Y-67816243D01*
X104975500Y-67606287D01*
X104975500Y-67393713D01*
X104942246Y-67183757D01*
X104876557Y-66981588D01*
X104780051Y-66792184D01*
X104780049Y-66792181D01*
X104780048Y-66792179D01*
X104655109Y-66620213D01*
X104504790Y-66469894D01*
X104504785Y-66469890D01*
X104339781Y-66350008D01*
X104297115Y-66294678D01*
X104291136Y-66225065D01*
X104323741Y-66163270D01*
X104339781Y-66149371D01*
X104504466Y-66029721D01*
X104654723Y-65879464D01*
X104654727Y-65879459D01*
X104779620Y-65707557D01*
X104876095Y-65518217D01*
X104941757Y-65316129D01*
X104941757Y-65316126D01*
X104952231Y-65250000D01*
X103904146Y-65250000D01*
X103942630Y-65183343D01*
X103975000Y-65062535D01*
X103975000Y-64937465D01*
X103942630Y-64816657D01*
X103904146Y-64750000D01*
X104952231Y-64750000D01*
X104941757Y-64683873D01*
X104941755Y-64683865D01*
X104876095Y-64481782D01*
X104779620Y-64292442D01*
X104654727Y-64120540D01*
X104654723Y-64120535D01*
X104515856Y-63981668D01*
X104482371Y-63920345D01*
X104487355Y-63850653D01*
X104529227Y-63794720D01*
X104538441Y-63788448D01*
X104544331Y-63784814D01*
X104544334Y-63784814D01*
X104693656Y-63692712D01*
X104817712Y-63568656D01*
X104909814Y-63419334D01*
X104964999Y-63252797D01*
X104975500Y-63150009D01*
X104975499Y-61849992D01*
X104964999Y-61747203D01*
X104945375Y-61687983D01*
X117737500Y-61687983D01*
X117737500Y-62812001D01*
X117737501Y-62812018D01*
X117748000Y-62914796D01*
X117748001Y-62914799D01*
X117803185Y-63081331D01*
X117803186Y-63081334D01*
X117895288Y-63230656D01*
X118019344Y-63354712D01*
X118168666Y-63446814D01*
X118267567Y-63479586D01*
X118325010Y-63519357D01*
X118351834Y-63583873D01*
X118339519Y-63652649D01*
X118301448Y-63697608D01*
X118301283Y-63697727D01*
X118301282Y-63697730D01*
X118972554Y-64369000D01*
X118949840Y-64369000D01*
X118852939Y-64394964D01*
X118766060Y-64445124D01*
X118695124Y-64516060D01*
X118644964Y-64602939D01*
X118619000Y-64699840D01*
X118619000Y-64722552D01*
X117947730Y-64051282D01*
X117947729Y-64051283D01*
X117920643Y-64088564D01*
X117830457Y-64265562D01*
X117769075Y-64454476D01*
X117769075Y-64454479D01*
X117738000Y-64650678D01*
X117738000Y-64849321D01*
X117769075Y-65045520D01*
X117769075Y-65045523D01*
X117830457Y-65234437D01*
X117920641Y-65411432D01*
X117947730Y-65448715D01*
X117947731Y-65448716D01*
X118619000Y-64777447D01*
X118619000Y-64800160D01*
X118644964Y-64897061D01*
X118695124Y-64983940D01*
X118766060Y-65054876D01*
X118852939Y-65105036D01*
X118949840Y-65131000D01*
X118972553Y-65131000D01*
X118301283Y-65802268D01*
X118301283Y-65802269D01*
X118338567Y-65829358D01*
X118456079Y-65889234D01*
X118506875Y-65937209D01*
X118523670Y-66005030D01*
X118501133Y-66071165D01*
X118456079Y-66110204D01*
X118338305Y-66170213D01*
X118177533Y-66287021D01*
X118037021Y-66427533D01*
X117920213Y-66588305D01*
X117829994Y-66765367D01*
X117829993Y-66765370D01*
X117768587Y-66954362D01*
X117737500Y-67150639D01*
X117737500Y-67349360D01*
X117768587Y-67545637D01*
X117829993Y-67734629D01*
X117829994Y-67734632D01*
X117913998Y-67899496D01*
X117920213Y-67911694D01*
X118037019Y-68072464D01*
X118177536Y-68212981D01*
X118338306Y-68329787D01*
X118349193Y-68335334D01*
X118455528Y-68389515D01*
X118506324Y-68437490D01*
X118523119Y-68505311D01*
X118500581Y-68571446D01*
X118455528Y-68610485D01*
X118338305Y-68670213D01*
X118177533Y-68787021D01*
X118037021Y-68927533D01*
X117920213Y-69088305D01*
X117829994Y-69265367D01*
X117829993Y-69265370D01*
X117768587Y-69454362D01*
X117737500Y-69650639D01*
X117737500Y-69849360D01*
X117768587Y-70045637D01*
X117829993Y-70234629D01*
X117829994Y-70234632D01*
X117871578Y-70316243D01*
X117920213Y-70411694D01*
X118037019Y-70572464D01*
X118177536Y-70712981D01*
X118338306Y-70829787D01*
X118425149Y-70874035D01*
X118515367Y-70920005D01*
X118515370Y-70920006D01*
X118609866Y-70950709D01*
X118704364Y-70981413D01*
X118900639Y-71012500D01*
X118900640Y-71012500D01*
X119099360Y-71012500D01*
X119099361Y-71012500D01*
X119295636Y-70981413D01*
X119484632Y-70920005D01*
X119661694Y-70829787D01*
X119822464Y-70712981D01*
X119962981Y-70572464D01*
X120079787Y-70411694D01*
X120170005Y-70234632D01*
X120231413Y-70045636D01*
X120262500Y-69849361D01*
X120262500Y-69650639D01*
X120231413Y-69454364D01*
X120178718Y-69292184D01*
X120170006Y-69265370D01*
X120170005Y-69265367D01*
X120120109Y-69167442D01*
X120079787Y-69088306D01*
X119962981Y-68927536D01*
X119822464Y-68787019D01*
X119661694Y-68670213D01*
X119544470Y-68610484D01*
X119493675Y-68562510D01*
X119476880Y-68494689D01*
X119499417Y-68428555D01*
X119544469Y-68389515D01*
X119661694Y-68329787D01*
X119822464Y-68212981D01*
X119962981Y-68072464D01*
X120079787Y-67911694D01*
X120170005Y-67734632D01*
X120231413Y-67545636D01*
X120262500Y-67349361D01*
X120262500Y-67150639D01*
X120231413Y-66954364D01*
X120178718Y-66792184D01*
X120170006Y-66765370D01*
X120170005Y-66765367D01*
X120124035Y-66675149D01*
X120079787Y-66588306D01*
X119962981Y-66427536D01*
X119822464Y-66287019D01*
X119661694Y-66170213D01*
X119543919Y-66110203D01*
X119493124Y-66062229D01*
X119476329Y-65994408D01*
X119498866Y-65928273D01*
X119543921Y-65889234D01*
X119661422Y-65829364D01*
X119698715Y-65802268D01*
X119027448Y-65131000D01*
X119050160Y-65131000D01*
X119147061Y-65105036D01*
X119233940Y-65054876D01*
X119304876Y-64983940D01*
X119355036Y-64897061D01*
X119381000Y-64800160D01*
X119381000Y-64777447D01*
X120052268Y-65448715D01*
X120079362Y-65411425D01*
X120169542Y-65234437D01*
X120230924Y-65045523D01*
X120230924Y-65045520D01*
X120262000Y-64849321D01*
X120262000Y-64650678D01*
X120230924Y-64454479D01*
X120230924Y-64454476D01*
X120169542Y-64265562D01*
X120079358Y-64088567D01*
X120052268Y-64051283D01*
X119381000Y-64722551D01*
X119381000Y-64699840D01*
X119355036Y-64602939D01*
X119304876Y-64516060D01*
X119233940Y-64445124D01*
X119147061Y-64394964D01*
X119050160Y-64369000D01*
X119027447Y-64369000D01*
X119698716Y-63697731D01*
X119698715Y-63697730D01*
X119698549Y-63697609D01*
X119655884Y-63642279D01*
X119649906Y-63572665D01*
X119682513Y-63510871D01*
X119732430Y-63479587D01*
X119831334Y-63446814D01*
X119980656Y-63354712D01*
X120104712Y-63230656D01*
X120196814Y-63081334D01*
X120251999Y-62914797D01*
X120262500Y-62812009D01*
X120262499Y-61687992D01*
X120251999Y-61585203D01*
X120196814Y-61418666D01*
X120104712Y-61269344D01*
X119980656Y-61145288D01*
X119831334Y-61053186D01*
X119664797Y-60998001D01*
X119664795Y-60998000D01*
X119562010Y-60987500D01*
X118437998Y-60987500D01*
X118437981Y-60987501D01*
X118335203Y-60998000D01*
X118335200Y-60998001D01*
X118168668Y-61053185D01*
X118168663Y-61053187D01*
X118019342Y-61145289D01*
X117895289Y-61269342D01*
X117803187Y-61418663D01*
X117803185Y-61418668D01*
X117798985Y-61431344D01*
X117748001Y-61585203D01*
X117748001Y-61585204D01*
X117748000Y-61585204D01*
X117737500Y-61687983D01*
X104945375Y-61687983D01*
X104909814Y-61580666D01*
X104817712Y-61431344D01*
X104693656Y-61307288D01*
X104544334Y-61215186D01*
X104377797Y-61160001D01*
X104377795Y-61160000D01*
X104275010Y-61149500D01*
X102724998Y-61149500D01*
X102724981Y-61149501D01*
X102622203Y-61160000D01*
X102622200Y-61160001D01*
X102455668Y-61215185D01*
X102455663Y-61215187D01*
X102306342Y-61307289D01*
X102182289Y-61431342D01*
X102090187Y-61580663D01*
X102090185Y-61580668D01*
X102088682Y-61585204D01*
X102035001Y-61747203D01*
X102035001Y-61747204D01*
X102035000Y-61747204D01*
X102024500Y-61849983D01*
X99069963Y-61849983D01*
X100733127Y-60186819D01*
X100794450Y-60153334D01*
X100820808Y-60150500D01*
X163065192Y-60150500D01*
X163132231Y-60170185D01*
X163177986Y-60222989D01*
X163187930Y-60292147D01*
X163158905Y-60355703D01*
X163152873Y-60362181D01*
X157334812Y-66180240D01*
X157286136Y-66210265D01*
X157165666Y-66250186D01*
X157016342Y-66342289D01*
X156892289Y-66466342D01*
X156800187Y-66615663D01*
X156800186Y-66615666D01*
X156745001Y-66782203D01*
X156745001Y-66782204D01*
X156745000Y-66782204D01*
X156734500Y-66884983D01*
X156734500Y-68215001D01*
X156734501Y-68215018D01*
X156745000Y-68317796D01*
X156745001Y-68317799D01*
X156800185Y-68484331D01*
X156800187Y-68484336D01*
X156821313Y-68518587D01*
X156892288Y-68633656D01*
X157016344Y-68757712D01*
X157165666Y-68849814D01*
X157332203Y-68904999D01*
X157434991Y-68915500D01*
X158065008Y-68915499D01*
X158065016Y-68915498D01*
X158065019Y-68915498D01*
X158145291Y-68907298D01*
X158167797Y-68904999D01*
X158334334Y-68849814D01*
X158483656Y-68757712D01*
X158500674Y-68740693D01*
X158561994Y-68707206D01*
X158631686Y-68712187D01*
X158657249Y-68725269D01*
X158768973Y-68799921D01*
X158768986Y-68799928D01*
X158952625Y-68875993D01*
X158953789Y-68876475D01*
X159089483Y-68903466D01*
X159149977Y-68915499D01*
X159149981Y-68915500D01*
X159149982Y-68915500D01*
X159350019Y-68915500D01*
X159350020Y-68915499D01*
X159546211Y-68876475D01*
X159731020Y-68799925D01*
X159897344Y-68688791D01*
X159912671Y-68673463D01*
X159973989Y-68639978D01*
X160043681Y-68644959D01*
X160088034Y-68673462D01*
X160102971Y-68688399D01*
X160102975Y-68688402D01*
X160269210Y-68799477D01*
X160269223Y-68799484D01*
X160453929Y-68875991D01*
X160453936Y-68875993D01*
X160500000Y-68885155D01*
X160500000Y-67816189D01*
X160525884Y-67842073D01*
X160609115Y-67890126D01*
X160701947Y-67915000D01*
X160798053Y-67915000D01*
X160890885Y-67890126D01*
X160974116Y-67842073D01*
X161000000Y-67816189D01*
X161000000Y-68885154D01*
X161046063Y-68875993D01*
X161046070Y-68875991D01*
X161230776Y-68799484D01*
X161230789Y-68799477D01*
X161397023Y-68688403D01*
X161411962Y-68673464D01*
X161473285Y-68639977D01*
X161542977Y-68644960D01*
X161571739Y-68660254D01*
X161580077Y-68666212D01*
X161602656Y-68688791D01*
X161741557Y-68781601D01*
X161743153Y-68782742D01*
X161763547Y-68808763D01*
X161784756Y-68834141D01*
X161785007Y-68836145D01*
X161786253Y-68837734D01*
X161789341Y-68870650D01*
X161793463Y-68903466D01*
X161792591Y-68905287D01*
X161792780Y-68907298D01*
X161777587Y-68936648D01*
X161763309Y-68966494D01*
X161760732Y-68969211D01*
X161760662Y-68969348D01*
X161760532Y-68969422D01*
X161758741Y-68971312D01*
X160416873Y-70313181D01*
X160355550Y-70346666D01*
X160329192Y-70349500D01*
X154320808Y-70349500D01*
X154253769Y-70329815D01*
X154233127Y-70313181D01*
X146914674Y-62994727D01*
X146914673Y-62994726D01*
X146914669Y-62994723D01*
X146808127Y-62923535D01*
X146787036Y-62914799D01*
X146689744Y-62874499D01*
X146689738Y-62874497D01*
X146564071Y-62849500D01*
X146564069Y-62849500D01*
X145886500Y-62849500D01*
X145819461Y-62829815D01*
X145773706Y-62777011D01*
X145762500Y-62725500D01*
X145762499Y-61687998D01*
X145762498Y-61687981D01*
X145751999Y-61585203D01*
X145751998Y-61585200D01*
X145750495Y-61580663D01*
X145696814Y-61418666D01*
X145604712Y-61269344D01*
X145480656Y-61145288D01*
X145331334Y-61053186D01*
X145164797Y-60998001D01*
X145164795Y-60998000D01*
X145062010Y-60987500D01*
X143937998Y-60987500D01*
X143937981Y-60987501D01*
X143835203Y-60998000D01*
X143835200Y-60998001D01*
X143668668Y-61053185D01*
X143668663Y-61053187D01*
X143519342Y-61145289D01*
X143395289Y-61269342D01*
X143303187Y-61418663D01*
X143303185Y-61418668D01*
X143298985Y-61431344D01*
X143248001Y-61585203D01*
X143248001Y-61585204D01*
X143248000Y-61585204D01*
X143237500Y-61687983D01*
X143237500Y-61687996D01*
X143237501Y-62725500D01*
X143217817Y-62792539D01*
X143165013Y-62838294D01*
X143113501Y-62849500D01*
X137386500Y-62849500D01*
X137319461Y-62829815D01*
X137273706Y-62777011D01*
X137262500Y-62725500D01*
X137262499Y-61687998D01*
X137262498Y-61687981D01*
X137251999Y-61585203D01*
X137251998Y-61585200D01*
X137250495Y-61580663D01*
X137196814Y-61418666D01*
X137104712Y-61269344D01*
X136980656Y-61145288D01*
X136831334Y-61053186D01*
X136664797Y-60998001D01*
X136664795Y-60998000D01*
X136562010Y-60987500D01*
X135437998Y-60987500D01*
X135437981Y-60987501D01*
X135335203Y-60998000D01*
X135335200Y-60998001D01*
X135168668Y-61053185D01*
X135168663Y-61053187D01*
X135019342Y-61145289D01*
X134895289Y-61269342D01*
X134803187Y-61418663D01*
X134803185Y-61418668D01*
X134798985Y-61431344D01*
X134748001Y-61585203D01*
X134748001Y-61585204D01*
X134748000Y-61585204D01*
X134737500Y-61687983D01*
X134737500Y-61687996D01*
X134737501Y-62725500D01*
X134717817Y-62792539D01*
X134665013Y-62838294D01*
X134613501Y-62849500D01*
X128886500Y-62849500D01*
X128819461Y-62829815D01*
X128773706Y-62777011D01*
X128762500Y-62725500D01*
X128762499Y-61687998D01*
X128762498Y-61687981D01*
X128751999Y-61585203D01*
X128751998Y-61585200D01*
X128750495Y-61580663D01*
X128696814Y-61418666D01*
X128604712Y-61269344D01*
X128480656Y-61145288D01*
X128331334Y-61053186D01*
X128164797Y-60998001D01*
X128164795Y-60998000D01*
X128062010Y-60987500D01*
X126937998Y-60987500D01*
X126937981Y-60987501D01*
X126835203Y-60998000D01*
X126835200Y-60998001D01*
X126668668Y-61053185D01*
X126668663Y-61053187D01*
X126519342Y-61145289D01*
X126395289Y-61269342D01*
X126303187Y-61418663D01*
X126303185Y-61418668D01*
X126298985Y-61431344D01*
X126248001Y-61585203D01*
X126248001Y-61585204D01*
X126248000Y-61585204D01*
X126237500Y-61687983D01*
X126237500Y-61687996D01*
X126237501Y-62725500D01*
X126217817Y-62792539D01*
X126165013Y-62838294D01*
X126113501Y-62849500D01*
X125996783Y-62849500D01*
X125871115Y-62874497D01*
X125871109Y-62874499D01*
X125752724Y-62923535D01*
X125646185Y-62994722D01*
X125646178Y-62994728D01*
X122994724Y-65646183D01*
X122994720Y-65646187D01*
X122982372Y-65664670D01*
X122982371Y-65664671D01*
X122923535Y-65752724D01*
X122874499Y-65871109D01*
X122874497Y-65871115D01*
X122849500Y-65996782D01*
X122849500Y-79325638D01*
X122829815Y-79392677D01*
X122813181Y-79413319D01*
X122800538Y-79425961D01*
X122800535Y-79425965D01*
X122701990Y-79573446D01*
X122701983Y-79573459D01*
X122634106Y-79737332D01*
X122634103Y-79737341D01*
X122599500Y-79911304D01*
X122599500Y-80088695D01*
X122634103Y-80262658D01*
X122634106Y-80262667D01*
X122701983Y-80426540D01*
X122701990Y-80426553D01*
X122800535Y-80574034D01*
X122800538Y-80574038D01*
X122925961Y-80699461D01*
X122925965Y-80699464D01*
X123073446Y-80798009D01*
X123073459Y-80798016D01*
X123187557Y-80845276D01*
X123237334Y-80865894D01*
X123237336Y-80865894D01*
X123237341Y-80865896D01*
X123411304Y-80900499D01*
X123411307Y-80900500D01*
X123411309Y-80900500D01*
X123588693Y-80900500D01*
X123588694Y-80900499D01*
X123646682Y-80888964D01*
X123762658Y-80865896D01*
X123762661Y-80865894D01*
X123762666Y-80865894D01*
X123926547Y-80798013D01*
X124074035Y-80699464D01*
X124199464Y-80574035D01*
X124298013Y-80426547D01*
X124365894Y-80262666D01*
X124366701Y-80258613D01*
X124398941Y-80096527D01*
X124400500Y-80088691D01*
X124400500Y-79911309D01*
X124400500Y-79911306D01*
X124400499Y-79911304D01*
X124365896Y-79737341D01*
X124365893Y-79737332D01*
X124298016Y-79573459D01*
X124298009Y-79573446D01*
X124199464Y-79425965D01*
X124199461Y-79425961D01*
X124186819Y-79413319D01*
X124153334Y-79351996D01*
X124150500Y-79325638D01*
X124150500Y-66381662D01*
X124170185Y-66314623D01*
X124186819Y-66293981D01*
X125100705Y-65380095D01*
X126044906Y-64435893D01*
X126106227Y-64402410D01*
X126175919Y-64407394D01*
X126231852Y-64449266D01*
X126256269Y-64514730D01*
X126255058Y-64542973D01*
X126238000Y-64650677D01*
X126238000Y-64849321D01*
X126269075Y-65045520D01*
X126269075Y-65045523D01*
X126330457Y-65234437D01*
X126420641Y-65411432D01*
X126447730Y-65448715D01*
X127119000Y-64777445D01*
X127119000Y-64800160D01*
X127144964Y-64897061D01*
X127195124Y-64983940D01*
X127266060Y-65054876D01*
X127352939Y-65105036D01*
X127449840Y-65131000D01*
X127472553Y-65131000D01*
X126801283Y-65802268D01*
X126801283Y-65802269D01*
X126838567Y-65829358D01*
X126956079Y-65889234D01*
X127006875Y-65937209D01*
X127023670Y-66005030D01*
X127001133Y-66071165D01*
X126956079Y-66110204D01*
X126838305Y-66170213D01*
X126677533Y-66287021D01*
X126537021Y-66427533D01*
X126420213Y-66588305D01*
X126329994Y-66765367D01*
X126329993Y-66765370D01*
X126268587Y-66954362D01*
X126237500Y-67150639D01*
X126237500Y-67349360D01*
X126268587Y-67545637D01*
X126329993Y-67734629D01*
X126329994Y-67734632D01*
X126413998Y-67899496D01*
X126420213Y-67911694D01*
X126537019Y-68072464D01*
X126677536Y-68212981D01*
X126838306Y-68329787D01*
X126849193Y-68335334D01*
X126955528Y-68389515D01*
X127006324Y-68437490D01*
X127023119Y-68505311D01*
X127000581Y-68571446D01*
X126955528Y-68610485D01*
X126838305Y-68670213D01*
X126677533Y-68787021D01*
X126537021Y-68927533D01*
X126420213Y-69088305D01*
X126329994Y-69265367D01*
X126329993Y-69265370D01*
X126268587Y-69454362D01*
X126237500Y-69650639D01*
X126237500Y-69849360D01*
X126268587Y-70045637D01*
X126329993Y-70234629D01*
X126329994Y-70234632D01*
X126371578Y-70316243D01*
X126420213Y-70411694D01*
X126537019Y-70572464D01*
X126677536Y-70712981D01*
X126677539Y-70712983D01*
X126798385Y-70800783D01*
X126841051Y-70856113D01*
X126849500Y-70901101D01*
X126849500Y-75814069D01*
X126849500Y-75814071D01*
X126849499Y-75814071D01*
X126866049Y-75897265D01*
X126871342Y-75923874D01*
X126874499Y-75939744D01*
X126906245Y-76016385D01*
X126920538Y-76050893D01*
X126923535Y-76058127D01*
X126969610Y-76127084D01*
X126994726Y-76164673D01*
X126994727Y-76164674D01*
X127774421Y-76944367D01*
X127807906Y-77005690D01*
X127802922Y-77075381D01*
X127785540Y-77105598D01*
X127785849Y-77105805D01*
X127782772Y-77110410D01*
X127782612Y-77110689D01*
X127782472Y-77110859D01*
X127685007Y-77256748D01*
X127685005Y-77256751D01*
X127617884Y-77418840D01*
X127583678Y-77590911D01*
X127583705Y-77766351D01*
X127617959Y-77938405D01*
X127617960Y-77938409D01*
X127617961Y-77938410D01*
X127673928Y-78073453D01*
X127685131Y-78100483D01*
X127782632Y-78246333D01*
X127842603Y-78306274D01*
X127929405Y-78393076D01*
X127929406Y-78393078D01*
X127961196Y-78424868D01*
X127991424Y-78455096D01*
X128137276Y-78552552D01*
X128299337Y-78619680D01*
X128299341Y-78619680D01*
X128299342Y-78619681D01*
X128471378Y-78653902D01*
X128471381Y-78653902D01*
X128646797Y-78653902D01*
X128762540Y-78630878D01*
X128818839Y-78619680D01*
X128980900Y-78552552D01*
X129126752Y-78455096D01*
X129126764Y-78455083D01*
X129126859Y-78455006D01*
X129126932Y-78454974D01*
X129131817Y-78451711D01*
X129132435Y-78452636D01*
X129191164Y-78427683D01*
X129260034Y-78439463D01*
X129293220Y-78463166D01*
X131296057Y-80466003D01*
X139585325Y-88755272D01*
X139585332Y-88755278D01*
X139691863Y-88826459D01*
X139691867Y-88826461D01*
X139691874Y-88826466D01*
X139745070Y-88848500D01*
X139810256Y-88875501D01*
X139810260Y-88875501D01*
X139810261Y-88875502D01*
X139935928Y-88900500D01*
X139935931Y-88900500D01*
X140064069Y-88900500D01*
X146679192Y-88900500D01*
X146746231Y-88920185D01*
X146766873Y-88936819D01*
X147471009Y-89640955D01*
X147504494Y-89702278D01*
X147499510Y-89771970D01*
X147457638Y-89827903D01*
X147407520Y-89850253D01*
X147237340Y-89884104D01*
X147237332Y-89884106D01*
X147073459Y-89951983D01*
X147073446Y-89951990D01*
X146925965Y-90050535D01*
X146925961Y-90050538D01*
X146800538Y-90175961D01*
X146800535Y-90175965D01*
X146701990Y-90323446D01*
X146701983Y-90323459D01*
X146634106Y-90487332D01*
X146634103Y-90487341D01*
X146599500Y-90661304D01*
X146599500Y-90838695D01*
X146634103Y-91012658D01*
X146634106Y-91012667D01*
X146701983Y-91176540D01*
X146701990Y-91176553D01*
X146800535Y-91324034D01*
X146800538Y-91324038D01*
X146925961Y-91449461D01*
X146925965Y-91449464D01*
X147073446Y-91548009D01*
X147073459Y-91548016D01*
X147174747Y-91589970D01*
X147237334Y-91615894D01*
X147237336Y-91615894D01*
X147237341Y-91615896D01*
X147411304Y-91650499D01*
X147411307Y-91650500D01*
X147411309Y-91650500D01*
X147588693Y-91650500D01*
X147588694Y-91650499D01*
X147685286Y-91631286D01*
X147762658Y-91615896D01*
X147762661Y-91615894D01*
X147762666Y-91615894D01*
X147926547Y-91548013D01*
X148056109Y-91461442D01*
X148122786Y-91440564D01*
X148190166Y-91459048D01*
X148193891Y-91461442D01*
X148323453Y-91548013D01*
X148323455Y-91548014D01*
X148323459Y-91548016D01*
X148424747Y-91589970D01*
X148487334Y-91615894D01*
X148487336Y-91615894D01*
X148487341Y-91615896D01*
X148661304Y-91650499D01*
X148661307Y-91650500D01*
X148661309Y-91650500D01*
X148838693Y-91650500D01*
X148838694Y-91650499D01*
X148935286Y-91631286D01*
X149012658Y-91615896D01*
X149012661Y-91615894D01*
X149012666Y-91615894D01*
X149176547Y-91548013D01*
X149176548Y-91548012D01*
X149178048Y-91547391D01*
X149247517Y-91539922D01*
X149309996Y-91571197D01*
X149345648Y-91631286D01*
X149349500Y-91661952D01*
X149349500Y-96564069D01*
X149349500Y-96564071D01*
X149349499Y-96564071D01*
X149370210Y-96668187D01*
X149370211Y-96668187D01*
X149370211Y-96668189D01*
X149374499Y-96689744D01*
X149394214Y-96737341D01*
X149411905Y-96780051D01*
X149423535Y-96808127D01*
X149494723Y-96914669D01*
X149563182Y-96983128D01*
X149596666Y-97044449D01*
X149599500Y-97070808D01*
X149599500Y-97088695D01*
X149634103Y-97262658D01*
X149634106Y-97262667D01*
X149701983Y-97426540D01*
X149701990Y-97426553D01*
X149800535Y-97574034D01*
X149800538Y-97574038D01*
X149925961Y-97699461D01*
X149925965Y-97699464D01*
X150073446Y-97798009D01*
X150073459Y-97798016D01*
X150196363Y-97848923D01*
X150237334Y-97865894D01*
X150237336Y-97865894D01*
X150237341Y-97865896D01*
X150411304Y-97900499D01*
X150411307Y-97900500D01*
X150411309Y-97900500D01*
X150588693Y-97900500D01*
X150588694Y-97900499D01*
X150646682Y-97888964D01*
X150762658Y-97865896D01*
X150762661Y-97865894D01*
X150762666Y-97865894D01*
X150926547Y-97798013D01*
X151074035Y-97699464D01*
X151199464Y-97574035D01*
X151298013Y-97426547D01*
X151365894Y-97262666D01*
X151368414Y-97250000D01*
X151400499Y-97088695D01*
X151400500Y-97088693D01*
X151400500Y-96911306D01*
X151400499Y-96911304D01*
X151365896Y-96737341D01*
X151365893Y-96737332D01*
X151298016Y-96573459D01*
X151298009Y-96573446D01*
X151199464Y-96425965D01*
X151199461Y-96425961D01*
X151074038Y-96300538D01*
X151074034Y-96300535D01*
X150926553Y-96201990D01*
X150926540Y-96201983D01*
X150762670Y-96134107D01*
X150762664Y-96134105D01*
X150750305Y-96131647D01*
X150688395Y-96099260D01*
X150653823Y-96038543D01*
X150650500Y-96010030D01*
X150650500Y-90820808D01*
X150670185Y-90753769D01*
X150686819Y-90733127D01*
X150983127Y-90436819D01*
X151044450Y-90403334D01*
X151070808Y-90400500D01*
X151088693Y-90400500D01*
X151088694Y-90400499D01*
X151146682Y-90388964D01*
X151262658Y-90365896D01*
X151262661Y-90365894D01*
X151262666Y-90365894D01*
X151426547Y-90298013D01*
X151574035Y-90199464D01*
X151699464Y-90074035D01*
X151798013Y-89926547D01*
X151865894Y-89762666D01*
X151868414Y-89750000D01*
X151900499Y-89588695D01*
X151900500Y-89588693D01*
X151900500Y-89570808D01*
X151920185Y-89503769D01*
X151936819Y-89483127D01*
X158733127Y-82686819D01*
X158794450Y-82653334D01*
X158820808Y-82650500D01*
X177525501Y-82650500D01*
X177592540Y-82670185D01*
X177638295Y-82722989D01*
X177648931Y-82771879D01*
X177649341Y-82771859D01*
X177649467Y-82774346D01*
X177649501Y-82774500D01*
X177649501Y-82775018D01*
X177660000Y-82877796D01*
X177660001Y-82877799D01*
X177704955Y-83013458D01*
X177715186Y-83044334D01*
X177807288Y-83193656D01*
X177931344Y-83317712D01*
X178080666Y-83409814D01*
X178247203Y-83464999D01*
X178349991Y-83475500D01*
X179650008Y-83475499D01*
X179752797Y-83464999D01*
X179919334Y-83409814D01*
X180068656Y-83317712D01*
X180192712Y-83193656D01*
X180284814Y-83044334D01*
X180284814Y-83044331D01*
X180288178Y-83038879D01*
X180340126Y-82992154D01*
X180409088Y-82980931D01*
X180473170Y-83008774D01*
X180481398Y-83016294D01*
X180620213Y-83155109D01*
X180792179Y-83280048D01*
X180792181Y-83280049D01*
X180792184Y-83280051D01*
X180981588Y-83376557D01*
X181183757Y-83442246D01*
X181393713Y-83475500D01*
X181393714Y-83475500D01*
X181606286Y-83475500D01*
X181606287Y-83475500D01*
X181816243Y-83442246D01*
X182018412Y-83376557D01*
X182207816Y-83280051D01*
X182231756Y-83262658D01*
X182379786Y-83155109D01*
X182379788Y-83155106D01*
X182379792Y-83155104D01*
X182530104Y-83004792D01*
X182649683Y-82840204D01*
X182705011Y-82797540D01*
X182774624Y-82791561D01*
X182836420Y-82824166D01*
X182850313Y-82840199D01*
X182924010Y-82941635D01*
X182969896Y-83004792D01*
X183120213Y-83155109D01*
X183292179Y-83280048D01*
X183292181Y-83280049D01*
X183292184Y-83280051D01*
X183481588Y-83376557D01*
X183683757Y-83442246D01*
X183893713Y-83475500D01*
X183893714Y-83475500D01*
X184106286Y-83475500D01*
X184106287Y-83475500D01*
X184316243Y-83442246D01*
X184518412Y-83376557D01*
X184707816Y-83280051D01*
X184731756Y-83262658D01*
X184879786Y-83155109D01*
X184879788Y-83155106D01*
X184879792Y-83155104D01*
X185030104Y-83004792D01*
X185149991Y-82839779D01*
X185205320Y-82797115D01*
X185274933Y-82791136D01*
X185336729Y-82823741D01*
X185350627Y-82839781D01*
X185470272Y-83004459D01*
X185470276Y-83004464D01*
X185620535Y-83154723D01*
X185620540Y-83154727D01*
X185792442Y-83279620D01*
X185981782Y-83376095D01*
X186183871Y-83441757D01*
X186250000Y-83452231D01*
X186250000Y-82404145D01*
X186316657Y-82442630D01*
X186437465Y-82475000D01*
X186562535Y-82475000D01*
X186683343Y-82442630D01*
X186750000Y-82404145D01*
X186750000Y-83452230D01*
X186816126Y-83441757D01*
X186816129Y-83441757D01*
X187018217Y-83376095D01*
X187207557Y-83279620D01*
X187379459Y-83154727D01*
X187379464Y-83154723D01*
X187529723Y-83004464D01*
X187529727Y-83004459D01*
X187654620Y-82832557D01*
X187751095Y-82643217D01*
X187816757Y-82441130D01*
X187816757Y-82441127D01*
X187847030Y-82250000D01*
X186904146Y-82250000D01*
X186942630Y-82183343D01*
X186975000Y-82062535D01*
X186975000Y-81937465D01*
X186942630Y-81816657D01*
X186904146Y-81750000D01*
X187847030Y-81750000D01*
X187816757Y-81558872D01*
X187816757Y-81558869D01*
X187751095Y-81356782D01*
X187654620Y-81167442D01*
X187529727Y-80995540D01*
X187529723Y-80995535D01*
X187379464Y-80845276D01*
X187379459Y-80845272D01*
X187207557Y-80720379D01*
X187018215Y-80623903D01*
X186816124Y-80558241D01*
X186750000Y-80547768D01*
X186750000Y-81595854D01*
X186683343Y-81557370D01*
X186562535Y-81525000D01*
X186437465Y-81525000D01*
X186316657Y-81557370D01*
X186250000Y-81595854D01*
X186250000Y-80547768D01*
X186249999Y-80547768D01*
X186183875Y-80558241D01*
X185981784Y-80623903D01*
X185792442Y-80720379D01*
X185620540Y-80845272D01*
X185620535Y-80845276D01*
X185470276Y-80995535D01*
X185470272Y-80995540D01*
X185350627Y-81160218D01*
X185295297Y-81202884D01*
X185225684Y-81208863D01*
X185163889Y-81176257D01*
X185149991Y-81160218D01*
X185030109Y-80995214D01*
X185030105Y-80995209D01*
X184879786Y-80844890D01*
X184707820Y-80719951D01*
X184518414Y-80623444D01*
X184518413Y-80623443D01*
X184518412Y-80623443D01*
X184316243Y-80557754D01*
X184316241Y-80557753D01*
X184316240Y-80557753D01*
X184154957Y-80532208D01*
X184106287Y-80524500D01*
X183893713Y-80524500D01*
X183845042Y-80532208D01*
X183683760Y-80557753D01*
X183481585Y-80623444D01*
X183292179Y-80719951D01*
X183120213Y-80844890D01*
X182969894Y-80995209D01*
X182969890Y-80995214D01*
X182850318Y-81159793D01*
X182794989Y-81202459D01*
X182725375Y-81208438D01*
X182663580Y-81175833D01*
X182649682Y-81159793D01*
X182530109Y-80995214D01*
X182530105Y-80995209D01*
X182379786Y-80844890D01*
X182207820Y-80719951D01*
X182018414Y-80623444D01*
X182018413Y-80623443D01*
X182018412Y-80623443D01*
X181816243Y-80557754D01*
X181816241Y-80557753D01*
X181816240Y-80557753D01*
X181654957Y-80532208D01*
X181606287Y-80524500D01*
X181393713Y-80524500D01*
X181345042Y-80532208D01*
X181183760Y-80557753D01*
X180981585Y-80623444D01*
X180792179Y-80719951D01*
X180620215Y-80844889D01*
X180481398Y-80983706D01*
X180420075Y-81017190D01*
X180350383Y-81012206D01*
X180294450Y-80970334D01*
X180288178Y-80961120D01*
X180192712Y-80806344D01*
X180068657Y-80682289D01*
X180068656Y-80682288D01*
X179919334Y-80590186D01*
X179919331Y-80590185D01*
X179752795Y-80535000D01*
X179748533Y-80534088D01*
X179687102Y-80500801D01*
X179653419Y-80439586D01*
X179650500Y-80412837D01*
X179650500Y-71587162D01*
X179670185Y-71520123D01*
X179722989Y-71474368D01*
X179748552Y-71465907D01*
X179752788Y-71464999D01*
X179752797Y-71464999D01*
X179919334Y-71409814D01*
X180068656Y-71317712D01*
X180192712Y-71193656D01*
X180284814Y-71044334D01*
X180284814Y-71044331D01*
X180288178Y-71038879D01*
X180340126Y-70992154D01*
X180409088Y-70980931D01*
X180473170Y-71008774D01*
X180481398Y-71016294D01*
X180620213Y-71155109D01*
X180792179Y-71280048D01*
X180792181Y-71280049D01*
X180792184Y-71280051D01*
X180981588Y-71376557D01*
X181183757Y-71442246D01*
X181393713Y-71475500D01*
X181393714Y-71475500D01*
X181606286Y-71475500D01*
X181606287Y-71475500D01*
X181816243Y-71442246D01*
X182018412Y-71376557D01*
X182207816Y-71280051D01*
X182247038Y-71251555D01*
X182379786Y-71155109D01*
X182379788Y-71155106D01*
X182379792Y-71155104D01*
X182530104Y-71004792D01*
X182649683Y-70840204D01*
X182705011Y-70797540D01*
X182774624Y-70791561D01*
X182836420Y-70824166D01*
X182850313Y-70840199D01*
X182908296Y-70920006D01*
X182969896Y-71004792D01*
X183120213Y-71155109D01*
X183292179Y-71280048D01*
X183292181Y-71280049D01*
X183292184Y-71280051D01*
X183481588Y-71376557D01*
X183683757Y-71442246D01*
X183893713Y-71475500D01*
X183893714Y-71475500D01*
X184106286Y-71475500D01*
X184106287Y-71475500D01*
X184316243Y-71442246D01*
X184518412Y-71376557D01*
X184707816Y-71280051D01*
X184747038Y-71251555D01*
X184879786Y-71155109D01*
X184879788Y-71155106D01*
X184879792Y-71155104D01*
X185030104Y-71004792D01*
X185149991Y-70839779D01*
X185205320Y-70797115D01*
X185274933Y-70791136D01*
X185336729Y-70823741D01*
X185350627Y-70839781D01*
X185470272Y-71004459D01*
X185470276Y-71004464D01*
X185620535Y-71154723D01*
X185620540Y-71154727D01*
X185792442Y-71279620D01*
X185981782Y-71376095D01*
X186183871Y-71441757D01*
X186250000Y-71452231D01*
X186250000Y-70404145D01*
X186316657Y-70442630D01*
X186437465Y-70475000D01*
X186562535Y-70475000D01*
X186683343Y-70442630D01*
X186750000Y-70404145D01*
X186750000Y-71452230D01*
X186816126Y-71441757D01*
X186816129Y-71441757D01*
X187018217Y-71376095D01*
X187207557Y-71279620D01*
X187379459Y-71154727D01*
X187379464Y-71154723D01*
X187529723Y-71004464D01*
X187529727Y-71004459D01*
X187654620Y-70832557D01*
X187751095Y-70643217D01*
X187816757Y-70441130D01*
X187816757Y-70441127D01*
X187847030Y-70250000D01*
X186904146Y-70250000D01*
X186942630Y-70183343D01*
X186975000Y-70062535D01*
X186975000Y-69937465D01*
X186942630Y-69816657D01*
X186904146Y-69750000D01*
X187847030Y-69750000D01*
X187816757Y-69558872D01*
X187816757Y-69558869D01*
X187751095Y-69356782D01*
X187654620Y-69167442D01*
X187529727Y-68995540D01*
X187529723Y-68995535D01*
X187379464Y-68845276D01*
X187379459Y-68845272D01*
X187207557Y-68720379D01*
X187018215Y-68623903D01*
X186816124Y-68558241D01*
X186750000Y-68547768D01*
X186750000Y-69595854D01*
X186683343Y-69557370D01*
X186562535Y-69525000D01*
X186437465Y-69525000D01*
X186316657Y-69557370D01*
X186250000Y-69595854D01*
X186250000Y-68547768D01*
X186249999Y-68547768D01*
X186183875Y-68558241D01*
X185981784Y-68623903D01*
X185792442Y-68720379D01*
X185620540Y-68845272D01*
X185620535Y-68845276D01*
X185470276Y-68995535D01*
X185470272Y-68995540D01*
X185350627Y-69160218D01*
X185295297Y-69202884D01*
X185225684Y-69208863D01*
X185163889Y-69176257D01*
X185149991Y-69160218D01*
X185030109Y-68995214D01*
X185030105Y-68995209D01*
X184879786Y-68844890D01*
X184707820Y-68719951D01*
X184518414Y-68623444D01*
X184518413Y-68623443D01*
X184518412Y-68623443D01*
X184316243Y-68557754D01*
X184316241Y-68557753D01*
X184316240Y-68557753D01*
X184154957Y-68532208D01*
X184106287Y-68524500D01*
X183893713Y-68524500D01*
X183845042Y-68532208D01*
X183683760Y-68557753D01*
X183481585Y-68623444D01*
X183292179Y-68719951D01*
X183120213Y-68844890D01*
X182969894Y-68995209D01*
X182969890Y-68995214D01*
X182850318Y-69159793D01*
X182794989Y-69202459D01*
X182725375Y-69208438D01*
X182663580Y-69175833D01*
X182649682Y-69159793D01*
X182530109Y-68995214D01*
X182530105Y-68995209D01*
X182379786Y-68844890D01*
X182207820Y-68719951D01*
X182018414Y-68623444D01*
X182018413Y-68623443D01*
X182018412Y-68623443D01*
X181816243Y-68557754D01*
X181816241Y-68557753D01*
X181816240Y-68557753D01*
X181654957Y-68532208D01*
X181606287Y-68524500D01*
X181393713Y-68524500D01*
X181345042Y-68532208D01*
X181183760Y-68557753D01*
X180981585Y-68623444D01*
X180792179Y-68719951D01*
X180620215Y-68844889D01*
X180481398Y-68983706D01*
X180420075Y-69017190D01*
X180350383Y-69012206D01*
X180294450Y-68970334D01*
X180288178Y-68961120D01*
X180235969Y-68876476D01*
X180192712Y-68806344D01*
X180068656Y-68682288D01*
X179919334Y-68590186D01*
X179752797Y-68535001D01*
X179752795Y-68535000D01*
X179650010Y-68524500D01*
X178349998Y-68524500D01*
X178349981Y-68524501D01*
X178247203Y-68535000D01*
X178247200Y-68535001D01*
X178080668Y-68590185D01*
X178080663Y-68590187D01*
X177931342Y-68682289D01*
X177807289Y-68806342D01*
X177715187Y-68955663D01*
X177715185Y-68955668D01*
X177710325Y-68970334D01*
X177660001Y-69122203D01*
X177660001Y-69122204D01*
X177660000Y-69122204D01*
X177649500Y-69224983D01*
X177649500Y-70775001D01*
X177649501Y-70775018D01*
X177660000Y-70877796D01*
X177660001Y-70877799D01*
X177704637Y-71012500D01*
X177715186Y-71044334D01*
X177807288Y-71193656D01*
X177931344Y-71317712D01*
X178080666Y-71409814D01*
X178247203Y-71464999D01*
X178247209Y-71464999D01*
X178251448Y-71465907D01*
X178312884Y-71499185D01*
X178346576Y-71560394D01*
X178349500Y-71587162D01*
X178349500Y-80412837D01*
X178329815Y-80479876D01*
X178277011Y-80525631D01*
X178251459Y-80534089D01*
X178247207Y-80534999D01*
X178080668Y-80590185D01*
X178080663Y-80590187D01*
X177931342Y-80682289D01*
X177807289Y-80806342D01*
X177715187Y-80955663D01*
X177715185Y-80955668D01*
X177710325Y-80970334D01*
X177660001Y-81122203D01*
X177660001Y-81122204D01*
X177660000Y-81122204D01*
X177649500Y-81224983D01*
X177649500Y-81225500D01*
X177649468Y-81225605D01*
X177649340Y-81228139D01*
X177649179Y-81228130D01*
X177649179Y-81228132D01*
X177649155Y-81228129D01*
X177648734Y-81228108D01*
X177629815Y-81292539D01*
X177577011Y-81338294D01*
X177525500Y-81349500D01*
X158435931Y-81349500D01*
X158380613Y-81360503D01*
X158311022Y-81354274D01*
X158255845Y-81311411D01*
X158232601Y-81245521D01*
X158248669Y-81177524D01*
X158268742Y-81151204D01*
X175505273Y-63914673D01*
X175505277Y-63914669D01*
X175576465Y-63808127D01*
X175584617Y-63788448D01*
X175586124Y-63784811D01*
X175613221Y-63719389D01*
X175625501Y-63689744D01*
X175648790Y-63572665D01*
X175650500Y-63564071D01*
X175650500Y-60320808D01*
X175659144Y-60291367D01*
X175665668Y-60261381D01*
X175669422Y-60256365D01*
X175670185Y-60253769D01*
X175686819Y-60233127D01*
X175733127Y-60186819D01*
X175794450Y-60153334D01*
X175820808Y-60150500D01*
X184429192Y-60150500D01*
X184496231Y-60170185D01*
X184516873Y-60186819D01*
X189813181Y-65483127D01*
X189846666Y-65544450D01*
X189849500Y-65570808D01*
X189849500Y-91179191D01*
X189829815Y-91246230D01*
X189813181Y-91266872D01*
X187091872Y-93988181D01*
X187030549Y-94021666D01*
X187004191Y-94024500D01*
X185995808Y-94024500D01*
X185928769Y-94004815D01*
X185908127Y-93988181D01*
X184414674Y-92494727D01*
X184414673Y-92494726D01*
X184414669Y-92494723D01*
X184308127Y-92423535D01*
X184189744Y-92374499D01*
X184189738Y-92374497D01*
X184064071Y-92349500D01*
X184064069Y-92349500D01*
X170674362Y-92349500D01*
X170607323Y-92329815D01*
X170586681Y-92313181D01*
X170574038Y-92300538D01*
X170574034Y-92300535D01*
X170426553Y-92201990D01*
X170426540Y-92201983D01*
X170262667Y-92134106D01*
X170262658Y-92134103D01*
X170088694Y-92099500D01*
X170088691Y-92099500D01*
X169911309Y-92099500D01*
X169911306Y-92099500D01*
X169737341Y-92134103D01*
X169737332Y-92134106D01*
X169573459Y-92201983D01*
X169573446Y-92201990D01*
X169425965Y-92300535D01*
X169425961Y-92300538D01*
X169300538Y-92425961D01*
X169300535Y-92425965D01*
X169201990Y-92573446D01*
X169201983Y-92573459D01*
X169134106Y-92737332D01*
X169134103Y-92737341D01*
X169099500Y-92911304D01*
X169099500Y-93088695D01*
X169134103Y-93262658D01*
X169134106Y-93262667D01*
X169202608Y-93428048D01*
X169210077Y-93497518D01*
X169178801Y-93559997D01*
X169118712Y-93595648D01*
X169088047Y-93599500D01*
X152674362Y-93599500D01*
X152607323Y-93579815D01*
X152586681Y-93563181D01*
X152574038Y-93550538D01*
X152574034Y-93550535D01*
X152426553Y-93451990D01*
X152426540Y-93451983D01*
X152262667Y-93384106D01*
X152262658Y-93384103D01*
X152088694Y-93349500D01*
X152088691Y-93349500D01*
X151911309Y-93349500D01*
X151911306Y-93349500D01*
X151737341Y-93384103D01*
X151737332Y-93384106D01*
X151573459Y-93451983D01*
X151573446Y-93451990D01*
X151425965Y-93550535D01*
X151425961Y-93550538D01*
X151300538Y-93675961D01*
X151300535Y-93675965D01*
X151201990Y-93823446D01*
X151201983Y-93823459D01*
X151134106Y-93987332D01*
X151134103Y-93987341D01*
X151099500Y-94161304D01*
X151099500Y-94338695D01*
X151134103Y-94512658D01*
X151134106Y-94512667D01*
X151201983Y-94676540D01*
X151201990Y-94676553D01*
X151300535Y-94824034D01*
X151300538Y-94824038D01*
X151425961Y-94949461D01*
X151425965Y-94949464D01*
X151573446Y-95048009D01*
X151573459Y-95048016D01*
X151625197Y-95069446D01*
X151737334Y-95115894D01*
X151737336Y-95115894D01*
X151737341Y-95115896D01*
X151911304Y-95150499D01*
X151911307Y-95150500D01*
X151911309Y-95150500D01*
X152088693Y-95150500D01*
X152094756Y-95149903D01*
X152094903Y-95151398D01*
X152157093Y-95156958D01*
X152212274Y-95199817D01*
X152233319Y-95248159D01*
X152236203Y-95262661D01*
X152236205Y-95262667D01*
X152304082Y-95426540D01*
X152304089Y-95426553D01*
X152402633Y-95574033D01*
X152402634Y-95574034D01*
X152402635Y-95574035D01*
X152415279Y-95586679D01*
X152448764Y-95647999D01*
X152451599Y-95674361D01*
X152451599Y-96604093D01*
X152461747Y-96655110D01*
X152462158Y-96657173D01*
X152462158Y-96657175D01*
X152475647Y-96724991D01*
X152476598Y-96729768D01*
X152525634Y-96848151D01*
X152595177Y-96952231D01*
X152596825Y-96954697D01*
X162272401Y-106630273D01*
X162272404Y-106630275D01*
X162272406Y-106630277D01*
X162378948Y-106701465D01*
X162497331Y-106750501D01*
X162497335Y-106750501D01*
X162497336Y-106750502D01*
X162623003Y-106775500D01*
X162623006Y-106775500D01*
X175304192Y-106775500D01*
X175371231Y-106795185D01*
X175391873Y-106811819D01*
X181404079Y-112824025D01*
X181437564Y-112885348D01*
X181432580Y-112955040D01*
X181390708Y-113010973D01*
X181335796Y-113034179D01*
X181183872Y-113058242D01*
X181183869Y-113058242D01*
X180981782Y-113123904D01*
X180792442Y-113220379D01*
X180620540Y-113345272D01*
X180620535Y-113345276D01*
X180470276Y-113495535D01*
X180470272Y-113495540D01*
X180345379Y-113667442D01*
X180248904Y-113856782D01*
X180183242Y-114058869D01*
X180183242Y-114058872D01*
X180152970Y-114250000D01*
X181095854Y-114250000D01*
X181057370Y-114316657D01*
X181025000Y-114437465D01*
X181025000Y-114562535D01*
X181057370Y-114683343D01*
X181095854Y-114750000D01*
X180152970Y-114750000D01*
X180183242Y-114941127D01*
X180183242Y-114941130D01*
X180248904Y-115143217D01*
X180345379Y-115332557D01*
X180470272Y-115504459D01*
X180470276Y-115504464D01*
X180620535Y-115654723D01*
X180620540Y-115654727D01*
X180792442Y-115779620D01*
X180981782Y-115876095D01*
X181183871Y-115941757D01*
X181250000Y-115952231D01*
X181250000Y-114904145D01*
X181316657Y-114942630D01*
X181437465Y-114975000D01*
X181562535Y-114975000D01*
X181683343Y-114942630D01*
X181750000Y-114904145D01*
X181750000Y-115952230D01*
X181816126Y-115941757D01*
X181816129Y-115941757D01*
X182018217Y-115876095D01*
X182207557Y-115779620D01*
X182379459Y-115654727D01*
X182379464Y-115654723D01*
X182529721Y-115504466D01*
X182649371Y-115339781D01*
X182704701Y-115297115D01*
X182774314Y-115291136D01*
X182836110Y-115323741D01*
X182850008Y-115339781D01*
X182969890Y-115504785D01*
X182969894Y-115504790D01*
X183120213Y-115655109D01*
X183292179Y-115780048D01*
X183292181Y-115780049D01*
X183292184Y-115780051D01*
X183481588Y-115876557D01*
X183683757Y-115942246D01*
X183893713Y-115975500D01*
X183893714Y-115975500D01*
X184106286Y-115975500D01*
X184106287Y-115975500D01*
X184316243Y-115942246D01*
X184518412Y-115876557D01*
X184707816Y-115780051D01*
X184879792Y-115655104D01*
X185018604Y-115516291D01*
X185079923Y-115482809D01*
X185149615Y-115487793D01*
X185205549Y-115529664D01*
X185211821Y-115538878D01*
X185215185Y-115544333D01*
X185215186Y-115544334D01*
X185307288Y-115693656D01*
X185431344Y-115817712D01*
X185580666Y-115909814D01*
X185747203Y-115964999D01*
X185849991Y-115975500D01*
X187150008Y-115975499D01*
X187252797Y-115964999D01*
X187419334Y-115909814D01*
X187568656Y-115817712D01*
X187692712Y-115693656D01*
X187784814Y-115544334D01*
X187839999Y-115377797D01*
X187850500Y-115275009D01*
X187850499Y-113724992D01*
X187839999Y-113622203D01*
X187784814Y-113455666D01*
X187692712Y-113306344D01*
X187568656Y-113182288D01*
X187419334Y-113090186D01*
X187252797Y-113035001D01*
X187252795Y-113035000D01*
X187150010Y-113024500D01*
X185849998Y-113024500D01*
X185849981Y-113024501D01*
X185747203Y-113035000D01*
X185747200Y-113035001D01*
X185580668Y-113090185D01*
X185580663Y-113090187D01*
X185431342Y-113182289D01*
X185307289Y-113306342D01*
X185211821Y-113461121D01*
X185159873Y-113507845D01*
X185090910Y-113519068D01*
X185026828Y-113491224D01*
X185018601Y-113483705D01*
X184879786Y-113344890D01*
X184707820Y-113219951D01*
X184518414Y-113123444D01*
X184518413Y-113123443D01*
X184518412Y-113123443D01*
X184316243Y-113057754D01*
X184316241Y-113057753D01*
X184316240Y-113057753D01*
X184154957Y-113032208D01*
X184106287Y-113024500D01*
X183893713Y-113024500D01*
X183854202Y-113030757D01*
X183683759Y-113057753D01*
X183683755Y-113057754D01*
X183600499Y-113084805D01*
X183530657Y-113086800D01*
X183474501Y-113054555D01*
X176039674Y-105619727D01*
X176039673Y-105619726D01*
X176039669Y-105619723D01*
X175933127Y-105548535D01*
X175931275Y-105547768D01*
X175814744Y-105499499D01*
X175814738Y-105499497D01*
X175689071Y-105474500D01*
X175689069Y-105474500D01*
X163007883Y-105474500D01*
X162978442Y-105465855D01*
X162948456Y-105459332D01*
X162943440Y-105455577D01*
X162940844Y-105454815D01*
X162920202Y-105438181D01*
X153788918Y-96306897D01*
X153755433Y-96245574D01*
X153752599Y-96219216D01*
X153752599Y-95674361D01*
X153772284Y-95607322D01*
X153788915Y-95586682D01*
X153801563Y-95574035D01*
X153900112Y-95426547D01*
X153967993Y-95262666D01*
X153970513Y-95250000D01*
X153996390Y-95119905D01*
X154002599Y-95088691D01*
X154002599Y-95024500D01*
X154022284Y-94957461D01*
X154075088Y-94911706D01*
X154126599Y-94900500D01*
X172929192Y-94900500D01*
X172996231Y-94920185D01*
X173016873Y-94936819D01*
X181404079Y-103324025D01*
X181437564Y-103385348D01*
X181432580Y-103455040D01*
X181390708Y-103510973D01*
X181335796Y-103534179D01*
X181183872Y-103558242D01*
X181183869Y-103558242D01*
X180981782Y-103623904D01*
X180792442Y-103720379D01*
X180620540Y-103845272D01*
X180620535Y-103845276D01*
X180470276Y-103995535D01*
X180470272Y-103995540D01*
X180345379Y-104167442D01*
X180248904Y-104356782D01*
X180183242Y-104558869D01*
X180183242Y-104558872D01*
X180152970Y-104750000D01*
X181095854Y-104750000D01*
X181057370Y-104816657D01*
X181025000Y-104937465D01*
X181025000Y-105062535D01*
X181057370Y-105183343D01*
X181095854Y-105250000D01*
X180152970Y-105250000D01*
X180183242Y-105441127D01*
X180183242Y-105441130D01*
X180248904Y-105643217D01*
X180345379Y-105832557D01*
X180470272Y-106004459D01*
X180470276Y-106004464D01*
X180620535Y-106154723D01*
X180620540Y-106154727D01*
X180792442Y-106279620D01*
X180981782Y-106376095D01*
X181183871Y-106441757D01*
X181250000Y-106452231D01*
X181250000Y-105404145D01*
X181316657Y-105442630D01*
X181437465Y-105475000D01*
X181562535Y-105475000D01*
X181683343Y-105442630D01*
X181750000Y-105404145D01*
X181750000Y-106452230D01*
X181816126Y-106441757D01*
X181816129Y-106441757D01*
X182018217Y-106376095D01*
X182207557Y-106279620D01*
X182379459Y-106154727D01*
X182379464Y-106154723D01*
X182529721Y-106004466D01*
X182649371Y-105839781D01*
X182704701Y-105797115D01*
X182774314Y-105791136D01*
X182836110Y-105823741D01*
X182850008Y-105839781D01*
X182969890Y-106004785D01*
X182969894Y-106004790D01*
X183120213Y-106155109D01*
X183292179Y-106280048D01*
X183292181Y-106280049D01*
X183292184Y-106280051D01*
X183481588Y-106376557D01*
X183683757Y-106442246D01*
X183893713Y-106475500D01*
X183893714Y-106475500D01*
X184106286Y-106475500D01*
X184106287Y-106475500D01*
X184316243Y-106442246D01*
X184518412Y-106376557D01*
X184707816Y-106280051D01*
X184879792Y-106155104D01*
X185018604Y-106016291D01*
X185079923Y-105982809D01*
X185149615Y-105987793D01*
X185205549Y-106029664D01*
X185211821Y-106038878D01*
X185215185Y-106044333D01*
X185215186Y-106044334D01*
X185307288Y-106193656D01*
X185431344Y-106317712D01*
X185580666Y-106409814D01*
X185747203Y-106464999D01*
X185849991Y-106475500D01*
X187150008Y-106475499D01*
X187252797Y-106464999D01*
X187419334Y-106409814D01*
X187568656Y-106317712D01*
X187692712Y-106193656D01*
X187784814Y-106044334D01*
X187839999Y-105877797D01*
X187850500Y-105775009D01*
X187850499Y-104224992D01*
X187839999Y-104122203D01*
X187784814Y-103955666D01*
X187692712Y-103806344D01*
X187568656Y-103682288D01*
X187419334Y-103590186D01*
X187252797Y-103535001D01*
X187252795Y-103535000D01*
X187150010Y-103524500D01*
X185849998Y-103524500D01*
X185849981Y-103524501D01*
X185747203Y-103535000D01*
X185747200Y-103535001D01*
X185580668Y-103590185D01*
X185580663Y-103590187D01*
X185431342Y-103682289D01*
X185307289Y-103806342D01*
X185211821Y-103961121D01*
X185159873Y-104007845D01*
X185090910Y-104019068D01*
X185026828Y-103991224D01*
X185018601Y-103983705D01*
X184879786Y-103844890D01*
X184707820Y-103719951D01*
X184518414Y-103623444D01*
X184518413Y-103623443D01*
X184518412Y-103623443D01*
X184316243Y-103557754D01*
X184316241Y-103557753D01*
X184316240Y-103557753D01*
X184154957Y-103532208D01*
X184106287Y-103524500D01*
X183893713Y-103524500D01*
X183854202Y-103530757D01*
X183683759Y-103557753D01*
X183683755Y-103557754D01*
X183600499Y-103584805D01*
X183530657Y-103586800D01*
X183474501Y-103554555D01*
X175720565Y-95800618D01*
X173782128Y-93862181D01*
X173748643Y-93800858D01*
X173753627Y-93731166D01*
X173795499Y-93675233D01*
X173860963Y-93650816D01*
X173869809Y-93650500D01*
X183679192Y-93650500D01*
X183708632Y-93659144D01*
X183738619Y-93665668D01*
X183743634Y-93669422D01*
X183746231Y-93670185D01*
X183766873Y-93686819D01*
X183903642Y-93823588D01*
X183937127Y-93884911D01*
X183932143Y-93954603D01*
X183890271Y-94010536D01*
X183835359Y-94033742D01*
X183683760Y-94057753D01*
X183481585Y-94123444D01*
X183292179Y-94219951D01*
X183120213Y-94344890D01*
X182969894Y-94495209D01*
X182969890Y-94495214D01*
X182850008Y-94660218D01*
X182794678Y-94702884D01*
X182725065Y-94708863D01*
X182663270Y-94676257D01*
X182649372Y-94660218D01*
X182529727Y-94495540D01*
X182529723Y-94495535D01*
X182379464Y-94345276D01*
X182379459Y-94345272D01*
X182207557Y-94220379D01*
X182018215Y-94123903D01*
X181816124Y-94058241D01*
X181750000Y-94047768D01*
X181750000Y-95095854D01*
X181683343Y-95057370D01*
X181562535Y-95025000D01*
X181437465Y-95025000D01*
X181316657Y-95057370D01*
X181250000Y-95095854D01*
X181250000Y-94047768D01*
X181249999Y-94047768D01*
X181183875Y-94058241D01*
X180981784Y-94123903D01*
X180792442Y-94220379D01*
X180620540Y-94345272D01*
X180620535Y-94345276D01*
X180470276Y-94495535D01*
X180470272Y-94495540D01*
X180345379Y-94667442D01*
X180248904Y-94856782D01*
X180183242Y-95058869D01*
X180183242Y-95058872D01*
X180152970Y-95250000D01*
X181095854Y-95250000D01*
X181057370Y-95316657D01*
X181025000Y-95437465D01*
X181025000Y-95562535D01*
X181057370Y-95683343D01*
X181095854Y-95750000D01*
X180152970Y-95750000D01*
X180183242Y-95941127D01*
X180183242Y-95941130D01*
X180248904Y-96143217D01*
X180345379Y-96332557D01*
X180470272Y-96504459D01*
X180470276Y-96504464D01*
X180620535Y-96654723D01*
X180620540Y-96654727D01*
X180792442Y-96779620D01*
X180981782Y-96876095D01*
X181183871Y-96941757D01*
X181250000Y-96952231D01*
X181250000Y-95904145D01*
X181316657Y-95942630D01*
X181437465Y-95975000D01*
X181562535Y-95975000D01*
X181683343Y-95942630D01*
X181750000Y-95904145D01*
X181750000Y-96952230D01*
X181816126Y-96941757D01*
X181816129Y-96941757D01*
X182018217Y-96876095D01*
X182207557Y-96779620D01*
X182379459Y-96654727D01*
X182379464Y-96654723D01*
X182529721Y-96504466D01*
X182649371Y-96339781D01*
X182704701Y-96297115D01*
X182774314Y-96291136D01*
X182836110Y-96323741D01*
X182850008Y-96339781D01*
X182969890Y-96504785D01*
X182969894Y-96504790D01*
X183120213Y-96655109D01*
X183292179Y-96780048D01*
X183292181Y-96780049D01*
X183292184Y-96780051D01*
X183481588Y-96876557D01*
X183683757Y-96942246D01*
X183893713Y-96975500D01*
X183893714Y-96975500D01*
X184106286Y-96975500D01*
X184106287Y-96975500D01*
X184316243Y-96942246D01*
X184518412Y-96876557D01*
X184707816Y-96780051D01*
X184872753Y-96660218D01*
X184879784Y-96655110D01*
X184879784Y-96655109D01*
X184879792Y-96655104D01*
X185018604Y-96516291D01*
X185079923Y-96482809D01*
X185149615Y-96487793D01*
X185205549Y-96529664D01*
X185211821Y-96538878D01*
X185215185Y-96544333D01*
X185215186Y-96544334D01*
X185307288Y-96693656D01*
X185431344Y-96817712D01*
X185580666Y-96909814D01*
X185747203Y-96964999D01*
X185849991Y-96975500D01*
X187150008Y-96975499D01*
X187252797Y-96964999D01*
X187419334Y-96909814D01*
X187568656Y-96817712D01*
X187692712Y-96693656D01*
X187784814Y-96544334D01*
X187839999Y-96377797D01*
X187850500Y-96275009D01*
X187850499Y-95120806D01*
X187870184Y-95053768D01*
X187886813Y-95033131D01*
X191005276Y-91914670D01*
X191076465Y-91808127D01*
X191125501Y-91689744D01*
X191133307Y-91650500D01*
X191134709Y-91643454D01*
X191134709Y-91643452D01*
X191150500Y-91564070D01*
X191150500Y-65185928D01*
X191125502Y-65060261D01*
X191125501Y-65060260D01*
X191125501Y-65060256D01*
X191076465Y-64941873D01*
X191005277Y-64835331D01*
X191005275Y-64835329D01*
X191005273Y-64835326D01*
X185164673Y-58994726D01*
X185164669Y-58994723D01*
X185058127Y-58923535D01*
X184939744Y-58874499D01*
X184939738Y-58874497D01*
X184814071Y-58849500D01*
X184814069Y-58849500D01*
X175564069Y-58849500D01*
X175064069Y-58849500D01*
X174564069Y-58849500D01*
X164999069Y-58849500D01*
X164564069Y-58849500D01*
X100435931Y-58849500D01*
X100435929Y-58849500D01*
X100310261Y-58874497D01*
X100310255Y-58874499D01*
X100191874Y-58923534D01*
X100085326Y-58994726D01*
X96994726Y-62085326D01*
X96942708Y-62163179D01*
X96942706Y-62163181D01*
X96923539Y-62191864D01*
X96923533Y-62191875D01*
X96874499Y-62310255D01*
X96874497Y-62310261D01*
X96849500Y-62435928D01*
X96849500Y-76912837D01*
X96829815Y-76979876D01*
X96777011Y-77025631D01*
X96751459Y-77034089D01*
X96747207Y-77034999D01*
X96580668Y-77090185D01*
X96580663Y-77090187D01*
X96431342Y-77182289D01*
X96307289Y-77306342D01*
X96215187Y-77455663D01*
X96215185Y-77455668D01*
X96197164Y-77510052D01*
X96160001Y-77622203D01*
X96160001Y-77622204D01*
X96160000Y-77622204D01*
X96149500Y-77724983D01*
X86200500Y-77724983D01*
X86200500Y-57002561D01*
X86200606Y-56997437D01*
X86202149Y-56960118D01*
X86207815Y-56823122D01*
X87899500Y-56823122D01*
X87899500Y-57176877D01*
X87934173Y-57528929D01*
X87934176Y-57528946D01*
X88003185Y-57875884D01*
X88003188Y-57875895D01*
X88105882Y-58214436D01*
X88241262Y-58541271D01*
X88241264Y-58541276D01*
X88408017Y-58853247D01*
X88408028Y-58853265D01*
X88604558Y-59147393D01*
X88604568Y-59147407D01*
X88828992Y-59420869D01*
X89079130Y-59671007D01*
X89079135Y-59671011D01*
X89079136Y-59671012D01*
X89352598Y-59895436D01*
X89646741Y-60091976D01*
X89646750Y-60091981D01*
X89646752Y-60091982D01*
X89958723Y-60258735D01*
X89958725Y-60258735D01*
X89958731Y-60258739D01*
X90285565Y-60394118D01*
X90624095Y-60496809D01*
X90624101Y-60496810D01*
X90624104Y-60496811D01*
X90624115Y-60496814D01*
X90841674Y-60540088D01*
X90971060Y-60565825D01*
X91323119Y-60600500D01*
X91323122Y-60600500D01*
X91676878Y-60600500D01*
X91676881Y-60600500D01*
X92028940Y-60565825D01*
X92200679Y-60531663D01*
X92375884Y-60496814D01*
X92375895Y-60496811D01*
X92375895Y-60496810D01*
X92375905Y-60496809D01*
X92714435Y-60394118D01*
X93041269Y-60258739D01*
X93353259Y-60091976D01*
X93647402Y-59895436D01*
X93920864Y-59671012D01*
X94171012Y-59420864D01*
X94395436Y-59147402D01*
X94591976Y-58853259D01*
X94758739Y-58541269D01*
X94894118Y-58214435D01*
X94996809Y-57875905D01*
X94996811Y-57875895D01*
X94996814Y-57875884D01*
X95031663Y-57700679D01*
X95065825Y-57528940D01*
X95100500Y-57176881D01*
X95100500Y-56823122D01*
X187899500Y-56823122D01*
X187899500Y-57176877D01*
X187934173Y-57528929D01*
X187934176Y-57528946D01*
X188003185Y-57875884D01*
X188003188Y-57875895D01*
X188105882Y-58214436D01*
X188241262Y-58541271D01*
X188241264Y-58541276D01*
X188408017Y-58853247D01*
X188408028Y-58853265D01*
X188604558Y-59147393D01*
X188604568Y-59147407D01*
X188828992Y-59420869D01*
X189079130Y-59671007D01*
X189079135Y-59671011D01*
X189079136Y-59671012D01*
X189352598Y-59895436D01*
X189646741Y-60091976D01*
X189646750Y-60091981D01*
X189646752Y-60091982D01*
X189958723Y-60258735D01*
X189958725Y-60258735D01*
X189958731Y-60258739D01*
X190285565Y-60394118D01*
X190624095Y-60496809D01*
X190624101Y-60496810D01*
X190624104Y-60496811D01*
X190624115Y-60496814D01*
X190841674Y-60540088D01*
X190971060Y-60565825D01*
X191323119Y-60600500D01*
X191323122Y-60600500D01*
X191676878Y-60600500D01*
X191676881Y-60600500D01*
X192028940Y-60565825D01*
X192200679Y-60531663D01*
X192375884Y-60496814D01*
X192375895Y-60496811D01*
X192375895Y-60496810D01*
X192375905Y-60496809D01*
X192714435Y-60394118D01*
X193041269Y-60258739D01*
X193353259Y-60091976D01*
X193647402Y-59895436D01*
X193920864Y-59671012D01*
X194171012Y-59420864D01*
X194395436Y-59147402D01*
X194591976Y-58853259D01*
X194758739Y-58541269D01*
X194894118Y-58214435D01*
X194996809Y-57875905D01*
X194996811Y-57875895D01*
X194996814Y-57875884D01*
X195031663Y-57700679D01*
X195065825Y-57528940D01*
X195100500Y-57176881D01*
X195100500Y-56823119D01*
X195065825Y-56471060D01*
X195037659Y-56329461D01*
X194996814Y-56124115D01*
X194996811Y-56124104D01*
X194996810Y-56124101D01*
X194996809Y-56124095D01*
X194894118Y-55785565D01*
X194758739Y-55458731D01*
X194591976Y-55146741D01*
X194395436Y-54852598D01*
X194171012Y-54579136D01*
X194171011Y-54579135D01*
X194171007Y-54579130D01*
X193920869Y-54328992D01*
X193647407Y-54104568D01*
X193647406Y-54104567D01*
X193647402Y-54104564D01*
X193353259Y-53908024D01*
X193353254Y-53908021D01*
X193353247Y-53908017D01*
X193041276Y-53741264D01*
X193041271Y-53741262D01*
X192714436Y-53605882D01*
X192375895Y-53503188D01*
X192375884Y-53503185D01*
X192028946Y-53434176D01*
X192028929Y-53434173D01*
X191762700Y-53407952D01*
X191676881Y-53399500D01*
X191323119Y-53399500D01*
X191245823Y-53407113D01*
X190971070Y-53434173D01*
X190971053Y-53434176D01*
X190624115Y-53503185D01*
X190624104Y-53503188D01*
X190285563Y-53605882D01*
X189958728Y-53741262D01*
X189958723Y-53741264D01*
X189646752Y-53908017D01*
X189646734Y-53908028D01*
X189352606Y-54104558D01*
X189352592Y-54104568D01*
X189079130Y-54328992D01*
X188828992Y-54579130D01*
X188604568Y-54852592D01*
X188604558Y-54852606D01*
X188408028Y-55146734D01*
X188408017Y-55146752D01*
X188241264Y-55458723D01*
X188241262Y-55458728D01*
X188105882Y-55785563D01*
X188003188Y-56124104D01*
X188003185Y-56124115D01*
X187934176Y-56471053D01*
X187934173Y-56471070D01*
X187907317Y-56743748D01*
X187900305Y-56814951D01*
X187899500Y-56823122D01*
X95100500Y-56823122D01*
X95100500Y-56823119D01*
X95065825Y-56471060D01*
X95037659Y-56329461D01*
X94996814Y-56124115D01*
X94996811Y-56124104D01*
X94996810Y-56124101D01*
X94996809Y-56124095D01*
X94894118Y-55785565D01*
X94758739Y-55458731D01*
X94591976Y-55146741D01*
X94395436Y-54852598D01*
X94171012Y-54579136D01*
X94171011Y-54579135D01*
X94171007Y-54579130D01*
X93920869Y-54328992D01*
X93647407Y-54104568D01*
X93647406Y-54104567D01*
X93647402Y-54104564D01*
X93353259Y-53908024D01*
X93353254Y-53908021D01*
X93353247Y-53908017D01*
X93041276Y-53741264D01*
X93041271Y-53741262D01*
X92714436Y-53605882D01*
X92375895Y-53503188D01*
X92375884Y-53503185D01*
X92028946Y-53434176D01*
X92028929Y-53434173D01*
X91762700Y-53407952D01*
X91676881Y-53399500D01*
X91323119Y-53399500D01*
X91245823Y-53407113D01*
X90971070Y-53434173D01*
X90971053Y-53434176D01*
X90624115Y-53503185D01*
X90624104Y-53503188D01*
X90285563Y-53605882D01*
X89958728Y-53741262D01*
X89958723Y-53741264D01*
X89646752Y-53908017D01*
X89646734Y-53908028D01*
X89352606Y-54104558D01*
X89352592Y-54104568D01*
X89079130Y-54328992D01*
X88828992Y-54579130D01*
X88604568Y-54852592D01*
X88604558Y-54852606D01*
X88408028Y-55146734D01*
X88408017Y-55146752D01*
X88241264Y-55458723D01*
X88241262Y-55458728D01*
X88105882Y-55785563D01*
X88003188Y-56124104D01*
X88003185Y-56124115D01*
X87934176Y-56471053D01*
X87934173Y-56471070D01*
X87907317Y-56743748D01*
X87900305Y-56814951D01*
X87899500Y-56823122D01*
X86207815Y-56823122D01*
X86218388Y-56567477D01*
X86219231Y-56557308D01*
X86272146Y-56132800D01*
X86273826Y-56122728D01*
X86361614Y-55704048D01*
X86364121Y-55694152D01*
X86486185Y-55284145D01*
X86489500Y-55274492D01*
X86644999Y-54875980D01*
X86649111Y-54866608D01*
X86655963Y-54852592D01*
X86836981Y-54482313D01*
X86841835Y-54473341D01*
X87060823Y-54105832D01*
X87066406Y-54097287D01*
X87314972Y-53749150D01*
X87321262Y-53741069D01*
X87597732Y-53414640D01*
X87604651Y-53407125D01*
X87907125Y-53104651D01*
X87914640Y-53097732D01*
X88241075Y-52821257D01*
X88249150Y-52814972D01*
X88597287Y-52566406D01*
X88605832Y-52560823D01*
X88973341Y-52341835D01*
X88982313Y-52336981D01*
X89366612Y-52149108D01*
X89375980Y-52144999D01*
X89774492Y-51989500D01*
X89784145Y-51986185D01*
X90194152Y-51864121D01*
X90204048Y-51861614D01*
X90622728Y-51773826D01*
X90632800Y-51772146D01*
X91057308Y-51719231D01*
X91067477Y-51718388D01*
X91497437Y-51700605D01*
X91502561Y-51700500D01*
X91539882Y-51700500D01*
X191460118Y-51700500D01*
X191497439Y-51700500D01*
X191502562Y-51700605D01*
G37*
G04 #@! TD.AperFunction*
M02*
