M48
; DRILL file {KiCad 9.0.0} date 2025-03-31T20:13:17+0900
; FORMAT={-:-/ absolute / metric / decimal}
; #@! TF.CreationDate,2025-03-31T20:13:17+09:00
; #@! TF.GenerationSoftware,Kicad,Pcbnew,9.0.0
; #@! TF.FileFunction,Plated,1,2,PTH
FMAT,2
METRIC
; #@! TA.AperFunction,Plated,PTH,ViaDrill
T1C0.300
; #@! TA.AperFunction,Plated,PTH,ViaDrill
T2C0.400
; #@! TA.AperFunction,Plated,PTH,ComponentDrill
T3C0.500
; #@! TA.AperFunction,Plated,PTH,ComponentDrill
T4C0.730
; #@! TA.AperFunction,Plated,PTH,ComponentDrill
T5C0.762
; #@! TA.AperFunction,Plated,PTH,ComponentDrill
T6C0.800
; #@! TA.AperFunction,Plated,PTH,ComponentDrill
T7C0.950
; #@! TA.AperFunction,Plated,PTH,ComponentDrill
T8C1.000
%
G90
G05
T1
X127.5Y-93.75
X128.75Y-90.75
X129.25Y-89.75
X129.5Y-88.5
X130.0Y-87.75
T2
X95.0Y-126.0
X95.5Y-64.5
X102.5Y-102.5
X104.0Y-85.5
X107.0Y-98.5
X108.0Y-79.0
X111.0Y-57.5
X112.0Y-68.5
X112.5Y-93.0
X112.5Y-108.0
X120.5Y-77.0
X120.5Y-78.5
X123.5Y-80.0
X124.0Y-106.5
X125.0Y-83.0
X125.5Y-74.5
X126.0Y-86.0
X126.0Y-88.5
X126.0Y-118.0
X126.25Y-97.0
X130.362Y-100.0
X131.25Y-87.25
X131.25Y-96.5
X133.5Y-115.5
X134.72Y-84.78
X135.5Y-75.5
X137.0Y-90.5
X137.0Y-91.5
X137.0Y-92.5
X137.0Y-93.5
X137.5Y-124.0
X137.97Y-83.03
X138.0Y-90.5
X138.0Y-91.5
X138.0Y-92.5
X138.0Y-93.5
X139.0Y-90.5
X139.0Y-91.5
X139.0Y-92.5
X139.0Y-93.5
X139.25Y-79.25
X139.25Y-80.5
X140.0Y-90.5
X140.0Y-91.5
X140.0Y-92.5
X140.0Y-93.5
X140.0Y-101.5
X141.0Y-68.5
X141.5Y-109.5
X142.25Y-99.25
X144.0Y-104.0
X146.5Y-111.0
X147.0Y-102.5
X147.0Y-124.5
X147.5Y-90.75
X148.0Y-84.5
X148.25Y-87.0
X148.5Y-96.75
X148.75Y-90.75
X148.75Y-92.25
X149.0Y-104.0
X150.0Y-73.0
X150.0Y-88.75
X150.5Y-97.0
X151.0Y-89.5
X151.5Y-90.5
X151.75Y-100.0
X152.0Y-94.25
X152.5Y-118.0
X153.0Y-65.5
X153.102Y-95.0
X154.5Y-89.0
X155.0Y-80.5
X155.0Y-97.0
X157.0Y-107.5
X157.5Y-73.0
X159.7Y-97.9
X159.8Y-89.9
X160.0Y-93.0
X160.0Y-117.0
X161.0Y-101.5
X163.0Y-84.5
X166.0Y-79.5
X166.75Y-95.5
X167.5Y-116.5
X169.5Y-65.5
X170.0Y-93.0
X171.0Y-86.5
X172.5Y-73.5
X173.5Y-104.5
X174.5Y-100.0
X175.0Y-80.5
X181.5Y-63.0
X182.0Y-100.5
X184.5Y-89.5
X190.5Y-101.0
T3
X120.5Y-85.0
X120.5Y-86.9
T4
X157.75Y-67.55
X159.25Y-67.55
X160.75Y-67.55
X162.25Y-67.55
X163.75Y-67.55
X165.25Y-67.55
T5
X119.0Y-62.25
X119.0Y-64.75
X119.0Y-67.25
X119.0Y-69.75
X127.5Y-62.25
X127.5Y-64.75
X127.5Y-67.25
X127.5Y-69.75
X136.0Y-62.25
X136.0Y-64.75
X136.0Y-67.25
X136.0Y-69.75
X144.5Y-62.25
X144.5Y-64.75
X144.5Y-67.25
X144.5Y-69.75
T6
X120.5Y-92.07
X120.5Y-96.95
T7
X97.5Y-78.5
X97.5Y-88.0
X97.5Y-97.5
X97.5Y-107.0
X99.5Y-121.0
X99.5Y-123.5
X99.5Y-126.0
X100.0Y-78.5
X100.0Y-88.0
X100.0Y-97.5
X100.0Y-107.0
X102.5Y-78.5
X102.5Y-88.0
X102.5Y-97.5
X102.5Y-107.0
X103.5Y-62.5
X103.5Y-65.0
X103.5Y-67.5
X103.5Y-70.0
X132.85Y-122.0
X132.85Y-124.5
X132.85Y-127.0
X142.5Y-122.0
X142.5Y-124.5
X142.5Y-127.0
X152.35Y-122.0
X152.35Y-124.5
X152.35Y-127.0
X161.85Y-122.0
X161.85Y-124.5
X161.85Y-127.0
X171.35Y-122.0
X171.35Y-124.5
X171.35Y-127.0
X179.0Y-70.0
X179.0Y-82.0
X181.5Y-70.0
X181.5Y-82.0
X181.5Y-95.5
X181.5Y-105.0
X181.5Y-114.5
X181.5Y-124.0
X184.0Y-70.0
X184.0Y-82.0
X184.0Y-95.5
X184.0Y-105.0
X184.0Y-114.5
X184.0Y-124.0
X186.5Y-70.0
X186.5Y-82.0
X186.5Y-95.5
X186.5Y-105.0
X186.5Y-114.5
X186.5Y-124.0
T8
X120.46Y-128.81
X120.5Y-121.25
X125.5Y-128.75
X125.54Y-121.19
M30
