%TF.GenerationSoftware,KiCad,Pcbnew,9.0.0*%
%TF.CreationDate,2025-03-31T20:13:17+09:00*%
%TF.ProjectId,circuit-sugoi-tsuyoi-machine,63697263-7569-4742-9d73-75676f692d74,rev?*%
%TF.SameCoordinates,Original*%
%TF.FileFunction,Drillmap*%
%TF.FilePolarity,Positive*%
%FSLAX45Y45*%
G04 Gerber Fmt 4.5, Leading zero omitted, Abs format (unit mm)*
G04 Created by KiCad (PCBNEW 9.0.0) date 2025-03-31 20:13:17*
%MOMM*%
%LPD*%
G01*
G04 APERTURE LIST*
%ADD10C,0.050000*%
%ADD11C,0.200000*%
%ADD12C,0.100000*%
G04 APERTURE END LIST*
D10*
X19700000Y-5700000D02*
X19700000Y-13200000D01*
X9150000Y-13750000D02*
G75*
G02*
X8600000Y-13200000I0J550000D01*
G01*
X19150000Y-13750000D02*
X9150000Y-13750000D01*
X19150000Y-5150000D02*
G75*
G02*
X19700000Y-5700000I0J-550000D01*
G01*
X8600000Y-13200000D02*
X8600000Y-5700000D01*
X8600000Y-5700000D02*
G75*
G02*
X9150000Y-5150000I550000J0D01*
G01*
X19700000Y-13200000D02*
G75*
G02*
X19150000Y-13750000I-550000J0D01*
G01*
X9150000Y-5150000D02*
X19150000Y-5150000D01*
D11*
D12*
X12735000Y-9360000D02*
X12765000Y-9390000D01*
X12765000Y-9360000D02*
X12735000Y-9390000D01*
X12860000Y-9060000D02*
X12890000Y-9090000D01*
X12890000Y-9060000D02*
X12860000Y-9090000D01*
X12910000Y-8960000D02*
X12940000Y-8990000D01*
X12940000Y-8960000D02*
X12910000Y-8990000D01*
X12935000Y-8835000D02*
X12965000Y-8865000D01*
X12965000Y-8835000D02*
X12935000Y-8865000D01*
X12985000Y-8760000D02*
X13015000Y-8790000D01*
X13015000Y-8760000D02*
X12985000Y-8790000D01*
X9520000Y-12600000D02*
G75*
G02*
X9480000Y-12600000I-20000J0D01*
G01*
X9480000Y-12600000D02*
G75*
G02*
X9520000Y-12600000I20000J0D01*
G01*
X9570000Y-6450000D02*
G75*
G02*
X9530000Y-6450000I-20000J0D01*
G01*
X9530000Y-6450000D02*
G75*
G02*
X9570000Y-6450000I20000J0D01*
G01*
X10270000Y-10250000D02*
G75*
G02*
X10230000Y-10250000I-20000J0D01*
G01*
X10230000Y-10250000D02*
G75*
G02*
X10270000Y-10250000I20000J0D01*
G01*
X10420000Y-8550000D02*
G75*
G02*
X10380000Y-8550000I-20000J0D01*
G01*
X10380000Y-8550000D02*
G75*
G02*
X10420000Y-8550000I20000J0D01*
G01*
X10720000Y-9850000D02*
G75*
G02*
X10680000Y-9850000I-20000J0D01*
G01*
X10680000Y-9850000D02*
G75*
G02*
X10720000Y-9850000I20000J0D01*
G01*
X10820000Y-7900000D02*
G75*
G02*
X10780000Y-7900000I-20000J0D01*
G01*
X10780000Y-7900000D02*
G75*
G02*
X10820000Y-7900000I20000J0D01*
G01*
X11120000Y-5750000D02*
G75*
G02*
X11080000Y-5750000I-20000J0D01*
G01*
X11080000Y-5750000D02*
G75*
G02*
X11120000Y-5750000I20000J0D01*
G01*
X11220000Y-6850000D02*
G75*
G02*
X11180000Y-6850000I-20000J0D01*
G01*
X11180000Y-6850000D02*
G75*
G02*
X11220000Y-6850000I20000J0D01*
G01*
X11270000Y-9300000D02*
G75*
G02*
X11230000Y-9300000I-20000J0D01*
G01*
X11230000Y-9300000D02*
G75*
G02*
X11270000Y-9300000I20000J0D01*
G01*
X11270000Y-10800000D02*
G75*
G02*
X11230000Y-10800000I-20000J0D01*
G01*
X11230000Y-10800000D02*
G75*
G02*
X11270000Y-10800000I20000J0D01*
G01*
X12070000Y-7700000D02*
G75*
G02*
X12030000Y-7700000I-20000J0D01*
G01*
X12030000Y-7700000D02*
G75*
G02*
X12070000Y-7700000I20000J0D01*
G01*
X12070000Y-7850000D02*
G75*
G02*
X12030000Y-7850000I-20000J0D01*
G01*
X12030000Y-7850000D02*
G75*
G02*
X12070000Y-7850000I20000J0D01*
G01*
X12370000Y-8000000D02*
G75*
G02*
X12330000Y-8000000I-20000J0D01*
G01*
X12330000Y-8000000D02*
G75*
G02*
X12370000Y-8000000I20000J0D01*
G01*
X12420000Y-10650000D02*
G75*
G02*
X12380000Y-10650000I-20000J0D01*
G01*
X12380000Y-10650000D02*
G75*
G02*
X12420000Y-10650000I20000J0D01*
G01*
X12520000Y-8300000D02*
G75*
G02*
X12480000Y-8300000I-20000J0D01*
G01*
X12480000Y-8300000D02*
G75*
G02*
X12520000Y-8300000I20000J0D01*
G01*
X12570000Y-7450000D02*
G75*
G02*
X12530000Y-7450000I-20000J0D01*
G01*
X12530000Y-7450000D02*
G75*
G02*
X12570000Y-7450000I20000J0D01*
G01*
X12620000Y-8600000D02*
G75*
G02*
X12580000Y-8600000I-20000J0D01*
G01*
X12580000Y-8600000D02*
G75*
G02*
X12620000Y-8600000I20000J0D01*
G01*
X12620000Y-8850000D02*
G75*
G02*
X12580000Y-8850000I-20000J0D01*
G01*
X12580000Y-8850000D02*
G75*
G02*
X12620000Y-8850000I20000J0D01*
G01*
X12620000Y-11800000D02*
G75*
G02*
X12580000Y-11800000I-20000J0D01*
G01*
X12580000Y-11800000D02*
G75*
G02*
X12620000Y-11800000I20000J0D01*
G01*
X12645000Y-9700000D02*
G75*
G02*
X12605000Y-9700000I-20000J0D01*
G01*
X12605000Y-9700000D02*
G75*
G02*
X12645000Y-9700000I20000J0D01*
G01*
X13056250Y-10000000D02*
G75*
G02*
X13016250Y-10000000I-20000J0D01*
G01*
X13016250Y-10000000D02*
G75*
G02*
X13056250Y-10000000I20000J0D01*
G01*
X13145000Y-8725000D02*
G75*
G02*
X13105000Y-8725000I-20000J0D01*
G01*
X13105000Y-8725000D02*
G75*
G02*
X13145000Y-8725000I20000J0D01*
G01*
X13145000Y-9650000D02*
G75*
G02*
X13105000Y-9650000I-20000J0D01*
G01*
X13105000Y-9650000D02*
G75*
G02*
X13145000Y-9650000I20000J0D01*
G01*
X13370000Y-11550000D02*
G75*
G02*
X13330000Y-11550000I-20000J0D01*
G01*
X13330000Y-11550000D02*
G75*
G02*
X13370000Y-11550000I20000J0D01*
G01*
X13491967Y-8478033D02*
G75*
G02*
X13451967Y-8478033I-20000J0D01*
G01*
X13451967Y-8478033D02*
G75*
G02*
X13491967Y-8478033I20000J0D01*
G01*
X13570000Y-7550000D02*
G75*
G02*
X13530000Y-7550000I-20000J0D01*
G01*
X13530000Y-7550000D02*
G75*
G02*
X13570000Y-7550000I20000J0D01*
G01*
X13720000Y-9050000D02*
G75*
G02*
X13680000Y-9050000I-20000J0D01*
G01*
X13680000Y-9050000D02*
G75*
G02*
X13720000Y-9050000I20000J0D01*
G01*
X13720000Y-9150000D02*
G75*
G02*
X13680000Y-9150000I-20000J0D01*
G01*
X13680000Y-9150000D02*
G75*
G02*
X13720000Y-9150000I20000J0D01*
G01*
X13720000Y-9250000D02*
G75*
G02*
X13680000Y-9250000I-20000J0D01*
G01*
X13680000Y-9250000D02*
G75*
G02*
X13720000Y-9250000I20000J0D01*
G01*
X13720000Y-9350000D02*
G75*
G02*
X13680000Y-9350000I-20000J0D01*
G01*
X13680000Y-9350000D02*
G75*
G02*
X13720000Y-9350000I20000J0D01*
G01*
X13770000Y-12400000D02*
G75*
G02*
X13730000Y-12400000I-20000J0D01*
G01*
X13730000Y-12400000D02*
G75*
G02*
X13770000Y-12400000I20000J0D01*
G01*
X13816967Y-8303033D02*
G75*
G02*
X13776967Y-8303033I-20000J0D01*
G01*
X13776967Y-8303033D02*
G75*
G02*
X13816967Y-8303033I20000J0D01*
G01*
X13820000Y-9050000D02*
G75*
G02*
X13780000Y-9050000I-20000J0D01*
G01*
X13780000Y-9050000D02*
G75*
G02*
X13820000Y-9050000I20000J0D01*
G01*
X13820000Y-9150000D02*
G75*
G02*
X13780000Y-9150000I-20000J0D01*
G01*
X13780000Y-9150000D02*
G75*
G02*
X13820000Y-9150000I20000J0D01*
G01*
X13820000Y-9250000D02*
G75*
G02*
X13780000Y-9250000I-20000J0D01*
G01*
X13780000Y-9250000D02*
G75*
G02*
X13820000Y-9250000I20000J0D01*
G01*
X13820000Y-9350000D02*
G75*
G02*
X13780000Y-9350000I-20000J0D01*
G01*
X13780000Y-9350000D02*
G75*
G02*
X13820000Y-9350000I20000J0D01*
G01*
X13920000Y-9050000D02*
G75*
G02*
X13880000Y-9050000I-20000J0D01*
G01*
X13880000Y-9050000D02*
G75*
G02*
X13920000Y-9050000I20000J0D01*
G01*
X13920000Y-9150000D02*
G75*
G02*
X13880000Y-9150000I-20000J0D01*
G01*
X13880000Y-9150000D02*
G75*
G02*
X13920000Y-9150000I20000J0D01*
G01*
X13920000Y-9250000D02*
G75*
G02*
X13880000Y-9250000I-20000J0D01*
G01*
X13880000Y-9250000D02*
G75*
G02*
X13920000Y-9250000I20000J0D01*
G01*
X13920000Y-9350000D02*
G75*
G02*
X13880000Y-9350000I-20000J0D01*
G01*
X13880000Y-9350000D02*
G75*
G02*
X13920000Y-9350000I20000J0D01*
G01*
X13945000Y-7925000D02*
G75*
G02*
X13905000Y-7925000I-20000J0D01*
G01*
X13905000Y-7925000D02*
G75*
G02*
X13945000Y-7925000I20000J0D01*
G01*
X13945000Y-8050000D02*
G75*
G02*
X13905000Y-8050000I-20000J0D01*
G01*
X13905000Y-8050000D02*
G75*
G02*
X13945000Y-8050000I20000J0D01*
G01*
X14020000Y-9050000D02*
G75*
G02*
X13980000Y-9050000I-20000J0D01*
G01*
X13980000Y-9050000D02*
G75*
G02*
X14020000Y-9050000I20000J0D01*
G01*
X14020000Y-9150000D02*
G75*
G02*
X13980000Y-9150000I-20000J0D01*
G01*
X13980000Y-9150000D02*
G75*
G02*
X14020000Y-9150000I20000J0D01*
G01*
X14020000Y-9250000D02*
G75*
G02*
X13980000Y-9250000I-20000J0D01*
G01*
X13980000Y-9250000D02*
G75*
G02*
X14020000Y-9250000I20000J0D01*
G01*
X14020000Y-9350000D02*
G75*
G02*
X13980000Y-9350000I-20000J0D01*
G01*
X13980000Y-9350000D02*
G75*
G02*
X14020000Y-9350000I20000J0D01*
G01*
X14020000Y-10150000D02*
G75*
G02*
X13980000Y-10150000I-20000J0D01*
G01*
X13980000Y-10150000D02*
G75*
G02*
X14020000Y-10150000I20000J0D01*
G01*
X14120000Y-6850000D02*
G75*
G02*
X14080000Y-6850000I-20000J0D01*
G01*
X14080000Y-6850000D02*
G75*
G02*
X14120000Y-6850000I20000J0D01*
G01*
X14170000Y-10950000D02*
G75*
G02*
X14130000Y-10950000I-20000J0D01*
G01*
X14130000Y-10950000D02*
G75*
G02*
X14170000Y-10950000I20000J0D01*
G01*
X14245000Y-9925000D02*
G75*
G02*
X14205000Y-9925000I-20000J0D01*
G01*
X14205000Y-9925000D02*
G75*
G02*
X14245000Y-9925000I20000J0D01*
G01*
X14420000Y-10400000D02*
G75*
G02*
X14380000Y-10400000I-20000J0D01*
G01*
X14380000Y-10400000D02*
G75*
G02*
X14420000Y-10400000I20000J0D01*
G01*
X14670000Y-11100000D02*
G75*
G02*
X14630000Y-11100000I-20000J0D01*
G01*
X14630000Y-11100000D02*
G75*
G02*
X14670000Y-11100000I20000J0D01*
G01*
X14720000Y-10250000D02*
G75*
G02*
X14680000Y-10250000I-20000J0D01*
G01*
X14680000Y-10250000D02*
G75*
G02*
X14720000Y-10250000I20000J0D01*
G01*
X14720000Y-12450000D02*
G75*
G02*
X14680000Y-12450000I-20000J0D01*
G01*
X14680000Y-12450000D02*
G75*
G02*
X14720000Y-12450000I20000J0D01*
G01*
X14770000Y-9075000D02*
G75*
G02*
X14730000Y-9075000I-20000J0D01*
G01*
X14730000Y-9075000D02*
G75*
G02*
X14770000Y-9075000I20000J0D01*
G01*
X14820000Y-8450000D02*
G75*
G02*
X14780000Y-8450000I-20000J0D01*
G01*
X14780000Y-8450000D02*
G75*
G02*
X14820000Y-8450000I20000J0D01*
G01*
X14845000Y-8700000D02*
G75*
G02*
X14805000Y-8700000I-20000J0D01*
G01*
X14805000Y-8700000D02*
G75*
G02*
X14845000Y-8700000I20000J0D01*
G01*
X14870000Y-9675000D02*
G75*
G02*
X14830000Y-9675000I-20000J0D01*
G01*
X14830000Y-9675000D02*
G75*
G02*
X14870000Y-9675000I20000J0D01*
G01*
X14895000Y-9075000D02*
G75*
G02*
X14855000Y-9075000I-20000J0D01*
G01*
X14855000Y-9075000D02*
G75*
G02*
X14895000Y-9075000I20000J0D01*
G01*
X14895000Y-9225000D02*
G75*
G02*
X14855000Y-9225000I-20000J0D01*
G01*
X14855000Y-9225000D02*
G75*
G02*
X14895000Y-9225000I20000J0D01*
G01*
X14920000Y-10400000D02*
G75*
G02*
X14880000Y-10400000I-20000J0D01*
G01*
X14880000Y-10400000D02*
G75*
G02*
X14920000Y-10400000I20000J0D01*
G01*
X15020000Y-7300000D02*
G75*
G02*
X14980000Y-7300000I-20000J0D01*
G01*
X14980000Y-7300000D02*
G75*
G02*
X15020000Y-7300000I20000J0D01*
G01*
X15020000Y-8875000D02*
G75*
G02*
X14980000Y-8875000I-20000J0D01*
G01*
X14980000Y-8875000D02*
G75*
G02*
X15020000Y-8875000I20000J0D01*
G01*
X15070000Y-9700000D02*
G75*
G02*
X15030000Y-9700000I-20000J0D01*
G01*
X15030000Y-9700000D02*
G75*
G02*
X15070000Y-9700000I20000J0D01*
G01*
X15120000Y-8950000D02*
G75*
G02*
X15080000Y-8950000I-20000J0D01*
G01*
X15080000Y-8950000D02*
G75*
G02*
X15120000Y-8950000I20000J0D01*
G01*
X15170000Y-9050000D02*
G75*
G02*
X15130000Y-9050000I-20000J0D01*
G01*
X15130000Y-9050000D02*
G75*
G02*
X15170000Y-9050000I20000J0D01*
G01*
X15195000Y-10000000D02*
G75*
G02*
X15155000Y-10000000I-20000J0D01*
G01*
X15155000Y-10000000D02*
G75*
G02*
X15195000Y-10000000I20000J0D01*
G01*
X15220000Y-9425000D02*
G75*
G02*
X15180000Y-9425000I-20000J0D01*
G01*
X15180000Y-9425000D02*
G75*
G02*
X15220000Y-9425000I20000J0D01*
G01*
X15270000Y-11800000D02*
G75*
G02*
X15230000Y-11800000I-20000J0D01*
G01*
X15230000Y-11800000D02*
G75*
G02*
X15270000Y-11800000I20000J0D01*
G01*
X15320000Y-6550000D02*
G75*
G02*
X15280000Y-6550000I-20000J0D01*
G01*
X15280000Y-6550000D02*
G75*
G02*
X15320000Y-6550000I20000J0D01*
G01*
X15330210Y-9500000D02*
G75*
G02*
X15290210Y-9500000I-20000J0D01*
G01*
X15290210Y-9500000D02*
G75*
G02*
X15330210Y-9500000I20000J0D01*
G01*
X15470000Y-8900000D02*
G75*
G02*
X15430000Y-8900000I-20000J0D01*
G01*
X15430000Y-8900000D02*
G75*
G02*
X15470000Y-8900000I20000J0D01*
G01*
X15520000Y-8050000D02*
G75*
G02*
X15480000Y-8050000I-20000J0D01*
G01*
X15480000Y-8050000D02*
G75*
G02*
X15520000Y-8050000I20000J0D01*
G01*
X15520000Y-9700000D02*
G75*
G02*
X15480000Y-9700000I-20000J0D01*
G01*
X15480000Y-9700000D02*
G75*
G02*
X15520000Y-9700000I20000J0D01*
G01*
X15720000Y-10750000D02*
G75*
G02*
X15680000Y-10750000I-20000J0D01*
G01*
X15680000Y-10750000D02*
G75*
G02*
X15720000Y-10750000I20000J0D01*
G01*
X15770000Y-7300000D02*
G75*
G02*
X15730000Y-7300000I-20000J0D01*
G01*
X15730000Y-7300000D02*
G75*
G02*
X15770000Y-7300000I20000J0D01*
G01*
X15990000Y-9790000D02*
G75*
G02*
X15950000Y-9790000I-20000J0D01*
G01*
X15950000Y-9790000D02*
G75*
G02*
X15990000Y-9790000I20000J0D01*
G01*
X16000000Y-8990000D02*
G75*
G02*
X15960000Y-8990000I-20000J0D01*
G01*
X15960000Y-8990000D02*
G75*
G02*
X16000000Y-8990000I20000J0D01*
G01*
X16020000Y-9300000D02*
G75*
G02*
X15980000Y-9300000I-20000J0D01*
G01*
X15980000Y-9300000D02*
G75*
G02*
X16020000Y-9300000I20000J0D01*
G01*
X16020000Y-11700000D02*
G75*
G02*
X15980000Y-11700000I-20000J0D01*
G01*
X15980000Y-11700000D02*
G75*
G02*
X16020000Y-11700000I20000J0D01*
G01*
X16120000Y-10150000D02*
G75*
G02*
X16080000Y-10150000I-20000J0D01*
G01*
X16080000Y-10150000D02*
G75*
G02*
X16120000Y-10150000I20000J0D01*
G01*
X16320000Y-8450000D02*
G75*
G02*
X16280000Y-8450000I-20000J0D01*
G01*
X16280000Y-8450000D02*
G75*
G02*
X16320000Y-8450000I20000J0D01*
G01*
X16620000Y-7950000D02*
G75*
G02*
X16580000Y-7950000I-20000J0D01*
G01*
X16580000Y-7950000D02*
G75*
G02*
X16620000Y-7950000I20000J0D01*
G01*
X16695000Y-9550000D02*
G75*
G02*
X16655000Y-9550000I-20000J0D01*
G01*
X16655000Y-9550000D02*
G75*
G02*
X16695000Y-9550000I20000J0D01*
G01*
X16770000Y-11650000D02*
G75*
G02*
X16730000Y-11650000I-20000J0D01*
G01*
X16730000Y-11650000D02*
G75*
G02*
X16770000Y-11650000I20000J0D01*
G01*
X16970000Y-6550000D02*
G75*
G02*
X16930000Y-6550000I-20000J0D01*
G01*
X16930000Y-6550000D02*
G75*
G02*
X16970000Y-6550000I20000J0D01*
G01*
X17020000Y-9300000D02*
G75*
G02*
X16980000Y-9300000I-20000J0D01*
G01*
X16980000Y-9300000D02*
G75*
G02*
X17020000Y-9300000I20000J0D01*
G01*
X17120000Y-8650000D02*
G75*
G02*
X17080000Y-8650000I-20000J0D01*
G01*
X17080000Y-8650000D02*
G75*
G02*
X17120000Y-8650000I20000J0D01*
G01*
X17270000Y-7350000D02*
G75*
G02*
X17230000Y-7350000I-20000J0D01*
G01*
X17230000Y-7350000D02*
G75*
G02*
X17270000Y-7350000I20000J0D01*
G01*
X17370000Y-10450000D02*
G75*
G02*
X17330000Y-10450000I-20000J0D01*
G01*
X17330000Y-10450000D02*
G75*
G02*
X17370000Y-10450000I20000J0D01*
G01*
X17470000Y-10000000D02*
G75*
G02*
X17430000Y-10000000I-20000J0D01*
G01*
X17430000Y-10000000D02*
G75*
G02*
X17470000Y-10000000I20000J0D01*
G01*
X17520000Y-8050000D02*
G75*
G02*
X17480000Y-8050000I-20000J0D01*
G01*
X17480000Y-8050000D02*
G75*
G02*
X17520000Y-8050000I20000J0D01*
G01*
X18170000Y-6300000D02*
G75*
G02*
X18130000Y-6300000I-20000J0D01*
G01*
X18130000Y-6300000D02*
G75*
G02*
X18170000Y-6300000I20000J0D01*
G01*
X18220000Y-10050000D02*
G75*
G02*
X18180000Y-10050000I-20000J0D01*
G01*
X18180000Y-10050000D02*
G75*
G02*
X18220000Y-10050000I20000J0D01*
G01*
X18470000Y-8950000D02*
G75*
G02*
X18430000Y-8950000I-20000J0D01*
G01*
X18430000Y-8950000D02*
G75*
G02*
X18470000Y-8950000I20000J0D01*
G01*
X19070000Y-10100000D02*
G75*
G02*
X19030000Y-10100000I-20000J0D01*
G01*
X19030000Y-10100000D02*
G75*
G02*
X19070000Y-10100000I20000J0D01*
G01*
X12050000Y-8475000D02*
X12050000Y-8525000D01*
X12025000Y-8500000D02*
X12075000Y-8500000D01*
X12050000Y-8665000D02*
X12050000Y-8715000D01*
X12025000Y-8690000D02*
X12075000Y-8690000D01*
X15800810Y-6780810D02*
X15800810Y-6729190D01*
X15749190Y-6729190D01*
X15749190Y-6780810D01*
X15800810Y-6780810D01*
X15950810Y-6780810D02*
X15950810Y-6729190D01*
X15899190Y-6729190D01*
X15899190Y-6780810D01*
X15950810Y-6780810D01*
X16100810Y-6780810D02*
X16100810Y-6729190D01*
X16049190Y-6729190D01*
X16049190Y-6780810D01*
X16100810Y-6780810D01*
X16250810Y-6780810D02*
X16250810Y-6729190D01*
X16199190Y-6729190D01*
X16199190Y-6780810D01*
X16250810Y-6780810D01*
X16400810Y-6780810D02*
X16400810Y-6729190D01*
X16349190Y-6729190D01*
X16349190Y-6780810D01*
X16400810Y-6780810D01*
X16550810Y-6780810D02*
X16550810Y-6729190D01*
X16499190Y-6729190D01*
X16499190Y-6780810D01*
X16550810Y-6780810D01*
X11900000Y-6263100D02*
X11938100Y-6225000D01*
X11900000Y-6186900D01*
X11861900Y-6225000D01*
X11900000Y-6263100D01*
X11900000Y-6513100D02*
X11938100Y-6475000D01*
X11900000Y-6436900D01*
X11861900Y-6475000D01*
X11900000Y-6513100D01*
X11900000Y-6763100D02*
X11938100Y-6725000D01*
X11900000Y-6686900D01*
X11861900Y-6725000D01*
X11900000Y-6763100D01*
X11900000Y-7013100D02*
X11938100Y-6975000D01*
X11900000Y-6936900D01*
X11861900Y-6975000D01*
X11900000Y-7013100D01*
X12750000Y-6263100D02*
X12788100Y-6225000D01*
X12750000Y-6186900D01*
X12711900Y-6225000D01*
X12750000Y-6263100D01*
X12750000Y-6513100D02*
X12788100Y-6475000D01*
X12750000Y-6436900D01*
X12711900Y-6475000D01*
X12750000Y-6513100D01*
X12750000Y-6763100D02*
X12788100Y-6725000D01*
X12750000Y-6686900D01*
X12711900Y-6725000D01*
X12750000Y-6763100D01*
X12750000Y-7013100D02*
X12788100Y-6975000D01*
X12750000Y-6936900D01*
X12711900Y-6975000D01*
X12750000Y-7013100D01*
X13600000Y-6263100D02*
X13638100Y-6225000D01*
X13600000Y-6186900D01*
X13561900Y-6225000D01*
X13600000Y-6263100D01*
X13600000Y-6513100D02*
X13638100Y-6475000D01*
X13600000Y-6436900D01*
X13561900Y-6475000D01*
X13600000Y-6513100D01*
X13600000Y-6763100D02*
X13638100Y-6725000D01*
X13600000Y-6686900D01*
X13561900Y-6725000D01*
X13600000Y-6763100D01*
X13600000Y-7013100D02*
X13638100Y-6975000D01*
X13600000Y-6936900D01*
X13561900Y-6975000D01*
X13600000Y-7013100D01*
X14450000Y-6263100D02*
X14488100Y-6225000D01*
X14450000Y-6186900D01*
X14411900Y-6225000D01*
X14450000Y-6263100D01*
X14450000Y-6513100D02*
X14488100Y-6475000D01*
X14450000Y-6436900D01*
X14411900Y-6475000D01*
X14450000Y-6513100D01*
X14450000Y-6763100D02*
X14488100Y-6725000D01*
X14450000Y-6686900D01*
X14411900Y-6725000D01*
X14450000Y-6763100D01*
X14450000Y-7013100D02*
X14488100Y-6975000D01*
X14450000Y-6936900D01*
X14411900Y-6975000D01*
X14450000Y-7013100D01*
X12010000Y-9167000D02*
X12090000Y-9247000D01*
X12090000Y-9167000D02*
X12010000Y-9247000D01*
X12090000Y-9207000D02*
G75*
G02*
X12010000Y-9207000I-40000J0D01*
G01*
X12010000Y-9207000D02*
G75*
G02*
X12090000Y-9207000I40000J0D01*
G01*
X12010000Y-9655000D02*
X12090000Y-9735000D01*
X12090000Y-9655000D02*
X12010000Y-9735000D01*
X12090000Y-9695000D02*
G75*
G02*
X12010000Y-9695000I-40000J0D01*
G01*
X12010000Y-9695000D02*
G75*
G02*
X12090000Y-9695000I40000J0D01*
G01*
X9702500Y-7802500D02*
X9797500Y-7897500D01*
X9797500Y-7802500D02*
X9702500Y-7897500D01*
X9750000Y-7802500D02*
X9750000Y-7897500D01*
X9702500Y-7850000D02*
X9797500Y-7850000D01*
X9702500Y-8752500D02*
X9797500Y-8847500D01*
X9797500Y-8752500D02*
X9702500Y-8847500D01*
X9750000Y-8752500D02*
X9750000Y-8847500D01*
X9702500Y-8800000D02*
X9797500Y-8800000D01*
X9702500Y-9702500D02*
X9797500Y-9797500D01*
X9797500Y-9702500D02*
X9702500Y-9797500D01*
X9750000Y-9702500D02*
X9750000Y-9797500D01*
X9702500Y-9750000D02*
X9797500Y-9750000D01*
X9702500Y-10652500D02*
X9797500Y-10747500D01*
X9797500Y-10652500D02*
X9702500Y-10747500D01*
X9750000Y-10652500D02*
X9750000Y-10747500D01*
X9702500Y-10700000D02*
X9797500Y-10700000D01*
X9902500Y-12052500D02*
X9997500Y-12147500D01*
X9997500Y-12052500D02*
X9902500Y-12147500D01*
X9950000Y-12052500D02*
X9950000Y-12147500D01*
X9902500Y-12100000D02*
X9997500Y-12100000D01*
X9902500Y-12302500D02*
X9997500Y-12397500D01*
X9997500Y-12302500D02*
X9902500Y-12397500D01*
X9950000Y-12302500D02*
X9950000Y-12397500D01*
X9902500Y-12350000D02*
X9997500Y-12350000D01*
X9902500Y-12552500D02*
X9997500Y-12647500D01*
X9997500Y-12552500D02*
X9902500Y-12647500D01*
X9950000Y-12552500D02*
X9950000Y-12647500D01*
X9902500Y-12600000D02*
X9997500Y-12600000D01*
X9952500Y-7802500D02*
X10047500Y-7897500D01*
X10047500Y-7802500D02*
X9952500Y-7897500D01*
X10000000Y-7802500D02*
X10000000Y-7897500D01*
X9952500Y-7850000D02*
X10047500Y-7850000D01*
X9952500Y-8752500D02*
X10047500Y-8847500D01*
X10047500Y-8752500D02*
X9952500Y-8847500D01*
X10000000Y-8752500D02*
X10000000Y-8847500D01*
X9952500Y-8800000D02*
X10047500Y-8800000D01*
X9952500Y-9702500D02*
X10047500Y-9797500D01*
X10047500Y-9702500D02*
X9952500Y-9797500D01*
X10000000Y-9702500D02*
X10000000Y-9797500D01*
X9952500Y-9750000D02*
X10047500Y-9750000D01*
X9952500Y-10652500D02*
X10047500Y-10747500D01*
X10047500Y-10652500D02*
X9952500Y-10747500D01*
X10000000Y-10652500D02*
X10000000Y-10747500D01*
X9952500Y-10700000D02*
X10047500Y-10700000D01*
X10202500Y-7802500D02*
X10297500Y-7897500D01*
X10297500Y-7802500D02*
X10202500Y-7897500D01*
X10250000Y-7802500D02*
X10250000Y-7897500D01*
X10202500Y-7850000D02*
X10297500Y-7850000D01*
X10202500Y-8752500D02*
X10297500Y-8847500D01*
X10297500Y-8752500D02*
X10202500Y-8847500D01*
X10250000Y-8752500D02*
X10250000Y-8847500D01*
X10202500Y-8800000D02*
X10297500Y-8800000D01*
X10202500Y-9702500D02*
X10297500Y-9797500D01*
X10297500Y-9702500D02*
X10202500Y-9797500D01*
X10250000Y-9702500D02*
X10250000Y-9797500D01*
X10202500Y-9750000D02*
X10297500Y-9750000D01*
X10202500Y-10652500D02*
X10297500Y-10747500D01*
X10297500Y-10652500D02*
X10202500Y-10747500D01*
X10250000Y-10652500D02*
X10250000Y-10747500D01*
X10202500Y-10700000D02*
X10297500Y-10700000D01*
X10302500Y-6202500D02*
X10397500Y-6297500D01*
X10397500Y-6202500D02*
X10302500Y-6297500D01*
X10350000Y-6202500D02*
X10350000Y-6297500D01*
X10302500Y-6250000D02*
X10397500Y-6250000D01*
X10302500Y-6452500D02*
X10397500Y-6547500D01*
X10397500Y-6452500D02*
X10302500Y-6547500D01*
X10350000Y-6452500D02*
X10350000Y-6547500D01*
X10302500Y-6500000D02*
X10397500Y-6500000D01*
X10302500Y-6702500D02*
X10397500Y-6797500D01*
X10397500Y-6702500D02*
X10302500Y-6797500D01*
X10350000Y-6702500D02*
X10350000Y-6797500D01*
X10302500Y-6750000D02*
X10397500Y-6750000D01*
X10302500Y-6952500D02*
X10397500Y-7047500D01*
X10397500Y-6952500D02*
X10302500Y-7047500D01*
X10350000Y-6952500D02*
X10350000Y-7047500D01*
X10302500Y-7000000D02*
X10397500Y-7000000D01*
X13237500Y-12152500D02*
X13332500Y-12247500D01*
X13332500Y-12152500D02*
X13237500Y-12247500D01*
X13285000Y-12152500D02*
X13285000Y-12247500D01*
X13237500Y-12200000D02*
X13332500Y-12200000D01*
X13237500Y-12402500D02*
X13332500Y-12497500D01*
X13332500Y-12402500D02*
X13237500Y-12497500D01*
X13285000Y-12402500D02*
X13285000Y-12497500D01*
X13237500Y-12450000D02*
X13332500Y-12450000D01*
X13237500Y-12652500D02*
X13332500Y-12747500D01*
X13332500Y-12652500D02*
X13237500Y-12747500D01*
X13285000Y-12652500D02*
X13285000Y-12747500D01*
X13237500Y-12700000D02*
X13332500Y-12700000D01*
X14202500Y-12152500D02*
X14297500Y-12247500D01*
X14297500Y-12152500D02*
X14202500Y-12247500D01*
X14250000Y-12152500D02*
X14250000Y-12247500D01*
X14202500Y-12200000D02*
X14297500Y-12200000D01*
X14202500Y-12402500D02*
X14297500Y-12497500D01*
X14297500Y-12402500D02*
X14202500Y-12497500D01*
X14250000Y-12402500D02*
X14250000Y-12497500D01*
X14202500Y-12450000D02*
X14297500Y-12450000D01*
X14202500Y-12652500D02*
X14297500Y-12747500D01*
X14297500Y-12652500D02*
X14202500Y-12747500D01*
X14250000Y-12652500D02*
X14250000Y-12747500D01*
X14202500Y-12700000D02*
X14297500Y-12700000D01*
X15187500Y-12152500D02*
X15282500Y-12247500D01*
X15282500Y-12152500D02*
X15187500Y-12247500D01*
X15235000Y-12152500D02*
X15235000Y-12247500D01*
X15187500Y-12200000D02*
X15282500Y-12200000D01*
X15187500Y-12402500D02*
X15282500Y-12497500D01*
X15282500Y-12402500D02*
X15187500Y-12497500D01*
X15235000Y-12402500D02*
X15235000Y-12497500D01*
X15187500Y-12450000D02*
X15282500Y-12450000D01*
X15187500Y-12652500D02*
X15282500Y-12747500D01*
X15282500Y-12652500D02*
X15187500Y-12747500D01*
X15235000Y-12652500D02*
X15235000Y-12747500D01*
X15187500Y-12700000D02*
X15282500Y-12700000D01*
X16137500Y-12152500D02*
X16232500Y-12247500D01*
X16232500Y-12152500D02*
X16137500Y-12247500D01*
X16185000Y-12152500D02*
X16185000Y-12247500D01*
X16137500Y-12200000D02*
X16232500Y-12200000D01*
X16137500Y-12402500D02*
X16232500Y-12497500D01*
X16232500Y-12402500D02*
X16137500Y-12497500D01*
X16185000Y-12402500D02*
X16185000Y-12497500D01*
X16137500Y-12450000D02*
X16232500Y-12450000D01*
X16137500Y-12652500D02*
X16232500Y-12747500D01*
X16232500Y-12652500D02*
X16137500Y-12747500D01*
X16185000Y-12652500D02*
X16185000Y-12747500D01*
X16137500Y-12700000D02*
X16232500Y-12700000D01*
X17087500Y-12152500D02*
X17182500Y-12247500D01*
X17182500Y-12152500D02*
X17087500Y-12247500D01*
X17135000Y-12152500D02*
X17135000Y-12247500D01*
X17087500Y-12200000D02*
X17182500Y-12200000D01*
X17087500Y-12402500D02*
X17182500Y-12497500D01*
X17182500Y-12402500D02*
X17087500Y-12497500D01*
X17135000Y-12402500D02*
X17135000Y-12497500D01*
X17087500Y-12450000D02*
X17182500Y-12450000D01*
X17087500Y-12652500D02*
X17182500Y-12747500D01*
X17182500Y-12652500D02*
X17087500Y-12747500D01*
X17135000Y-12652500D02*
X17135000Y-12747500D01*
X17087500Y-12700000D02*
X17182500Y-12700000D01*
X17852500Y-6952500D02*
X17947500Y-7047500D01*
X17947500Y-6952500D02*
X17852500Y-7047500D01*
X17900000Y-6952500D02*
X17900000Y-7047500D01*
X17852500Y-7000000D02*
X17947500Y-7000000D01*
X17852500Y-8152500D02*
X17947500Y-8247500D01*
X17947500Y-8152500D02*
X17852500Y-8247500D01*
X17900000Y-8152500D02*
X17900000Y-8247500D01*
X17852500Y-8200000D02*
X17947500Y-8200000D01*
X18102500Y-6952500D02*
X18197500Y-7047500D01*
X18197500Y-6952500D02*
X18102500Y-7047500D01*
X18150000Y-6952500D02*
X18150000Y-7047500D01*
X18102500Y-7000000D02*
X18197500Y-7000000D01*
X18102500Y-8152500D02*
X18197500Y-8247500D01*
X18197500Y-8152500D02*
X18102500Y-8247500D01*
X18150000Y-8152500D02*
X18150000Y-8247500D01*
X18102500Y-8200000D02*
X18197500Y-8200000D01*
X18102500Y-9502500D02*
X18197500Y-9597500D01*
X18197500Y-9502500D02*
X18102500Y-9597500D01*
X18150000Y-9502500D02*
X18150000Y-9597500D01*
X18102500Y-9550000D02*
X18197500Y-9550000D01*
X18102500Y-10452500D02*
X18197500Y-10547500D01*
X18197500Y-10452500D02*
X18102500Y-10547500D01*
X18150000Y-10452500D02*
X18150000Y-10547500D01*
X18102500Y-10500000D02*
X18197500Y-10500000D01*
X18102500Y-11402500D02*
X18197500Y-11497500D01*
X18197500Y-11402500D02*
X18102500Y-11497500D01*
X18150000Y-11402500D02*
X18150000Y-11497500D01*
X18102500Y-11450000D02*
X18197500Y-11450000D01*
X18102500Y-12352500D02*
X18197500Y-12447500D01*
X18197500Y-12352500D02*
X18102500Y-12447500D01*
X18150000Y-12352500D02*
X18150000Y-12447500D01*
X18102500Y-12400000D02*
X18197500Y-12400000D01*
X18352500Y-6952500D02*
X18447500Y-7047500D01*
X18447500Y-6952500D02*
X18352500Y-7047500D01*
X18400000Y-6952500D02*
X18400000Y-7047500D01*
X18352500Y-7000000D02*
X18447500Y-7000000D01*
X18352500Y-8152500D02*
X18447500Y-8247500D01*
X18447500Y-8152500D02*
X18352500Y-8247500D01*
X18400000Y-8152500D02*
X18400000Y-8247500D01*
X18352500Y-8200000D02*
X18447500Y-8200000D01*
X18352500Y-9502500D02*
X18447500Y-9597500D01*
X18447500Y-9502500D02*
X18352500Y-9597500D01*
X18400000Y-9502500D02*
X18400000Y-9597500D01*
X18352500Y-9550000D02*
X18447500Y-9550000D01*
X18352500Y-10452500D02*
X18447500Y-10547500D01*
X18447500Y-10452500D02*
X18352500Y-10547500D01*
X18400000Y-10452500D02*
X18400000Y-10547500D01*
X18352500Y-10500000D02*
X18447500Y-10500000D01*
X18352500Y-11402500D02*
X18447500Y-11497500D01*
X18447500Y-11402500D02*
X18352500Y-11497500D01*
X18400000Y-11402500D02*
X18400000Y-11497500D01*
X18352500Y-11450000D02*
X18447500Y-11450000D01*
X18352500Y-12352500D02*
X18447500Y-12447500D01*
X18447500Y-12352500D02*
X18352500Y-12447500D01*
X18400000Y-12352500D02*
X18400000Y-12447500D01*
X18352500Y-12400000D02*
X18447500Y-12400000D01*
X18602500Y-6952500D02*
X18697500Y-7047500D01*
X18697500Y-6952500D02*
X18602500Y-7047500D01*
X18650000Y-6952500D02*
X18650000Y-7047500D01*
X18602500Y-7000000D02*
X18697500Y-7000000D01*
X18602500Y-8152500D02*
X18697500Y-8247500D01*
X18697500Y-8152500D02*
X18602500Y-8247500D01*
X18650000Y-8152500D02*
X18650000Y-8247500D01*
X18602500Y-8200000D02*
X18697500Y-8200000D01*
X18602500Y-9502500D02*
X18697500Y-9597500D01*
X18697500Y-9502500D02*
X18602500Y-9597500D01*
X18650000Y-9502500D02*
X18650000Y-9597500D01*
X18602500Y-9550000D02*
X18697500Y-9550000D01*
X18602500Y-10452500D02*
X18697500Y-10547500D01*
X18697500Y-10452500D02*
X18602500Y-10547500D01*
X18650000Y-10452500D02*
X18650000Y-10547500D01*
X18602500Y-10500000D02*
X18697500Y-10500000D01*
X18602500Y-11402500D02*
X18697500Y-11497500D01*
X18697500Y-11402500D02*
X18602500Y-11497500D01*
X18650000Y-11402500D02*
X18650000Y-11497500D01*
X18602500Y-11450000D02*
X18697500Y-11450000D01*
X18602500Y-12352500D02*
X18697500Y-12447500D01*
X18697500Y-12352500D02*
X18602500Y-12447500D01*
X18650000Y-12352500D02*
X18650000Y-12447500D01*
X18602500Y-12400000D02*
X18697500Y-12400000D01*
X11996000Y-12831000D02*
X12096000Y-12931000D01*
X12096000Y-12831000D02*
X11996000Y-12931000D01*
X12081356Y-12916356D02*
X12081356Y-12845644D01*
X12010644Y-12845644D01*
X12010644Y-12916356D01*
X12081356Y-12916356D01*
X12000000Y-12075000D02*
X12100000Y-12175000D01*
X12100000Y-12075000D02*
X12000000Y-12175000D01*
X12085356Y-12160356D02*
X12085356Y-12089644D01*
X12014644Y-12089644D01*
X12014644Y-12160356D01*
X12085356Y-12160356D01*
X12500000Y-12825000D02*
X12600000Y-12925000D01*
X12600000Y-12825000D02*
X12500000Y-12925000D01*
X12585356Y-12910356D02*
X12585356Y-12839644D01*
X12514644Y-12839644D01*
X12514644Y-12910356D01*
X12585356Y-12910356D01*
X12504000Y-12069000D02*
X12604000Y-12169000D01*
X12604000Y-12069000D02*
X12504000Y-12169000D01*
X12589356Y-12154356D02*
X12589356Y-12083644D01*
X12518644Y-12083644D01*
X12518644Y-12154356D01*
X12589356Y-12154356D01*
D11*
X8858277Y-14063984D02*
X8858277Y-13863984D01*
X8858277Y-13863984D02*
X8905896Y-13863984D01*
X8905896Y-13863984D02*
X8934467Y-13873508D01*
X8934467Y-13873508D02*
X8953515Y-13892555D01*
X8953515Y-13892555D02*
X8963039Y-13911603D01*
X8963039Y-13911603D02*
X8972563Y-13949698D01*
X8972563Y-13949698D02*
X8972563Y-13978269D01*
X8972563Y-13978269D02*
X8963039Y-14016365D01*
X8963039Y-14016365D02*
X8953515Y-14035412D01*
X8953515Y-14035412D02*
X8934467Y-14054460D01*
X8934467Y-14054460D02*
X8905896Y-14063984D01*
X8905896Y-14063984D02*
X8858277Y-14063984D01*
X9058277Y-14063984D02*
X9058277Y-13930650D01*
X9058277Y-13968746D02*
X9067801Y-13949698D01*
X9067801Y-13949698D02*
X9077324Y-13940174D01*
X9077324Y-13940174D02*
X9096372Y-13930650D01*
X9096372Y-13930650D02*
X9115420Y-13930650D01*
X9182086Y-14063984D02*
X9182086Y-13930650D01*
X9182086Y-13863984D02*
X9172563Y-13873508D01*
X9172563Y-13873508D02*
X9182086Y-13883031D01*
X9182086Y-13883031D02*
X9191610Y-13873508D01*
X9191610Y-13873508D02*
X9182086Y-13863984D01*
X9182086Y-13863984D02*
X9182086Y-13883031D01*
X9305896Y-14063984D02*
X9286848Y-14054460D01*
X9286848Y-14054460D02*
X9277324Y-14035412D01*
X9277324Y-14035412D02*
X9277324Y-13863984D01*
X9410658Y-14063984D02*
X9391610Y-14054460D01*
X9391610Y-14054460D02*
X9382086Y-14035412D01*
X9382086Y-14035412D02*
X9382086Y-13863984D01*
X9639229Y-14063984D02*
X9639229Y-13863984D01*
X9639229Y-13863984D02*
X9705896Y-14006841D01*
X9705896Y-14006841D02*
X9772563Y-13863984D01*
X9772563Y-13863984D02*
X9772563Y-14063984D01*
X9953515Y-14063984D02*
X9953515Y-13959222D01*
X9953515Y-13959222D02*
X9943991Y-13940174D01*
X9943991Y-13940174D02*
X9924944Y-13930650D01*
X9924944Y-13930650D02*
X9886848Y-13930650D01*
X9886848Y-13930650D02*
X9867801Y-13940174D01*
X9953515Y-14054460D02*
X9934467Y-14063984D01*
X9934467Y-14063984D02*
X9886848Y-14063984D01*
X9886848Y-14063984D02*
X9867801Y-14054460D01*
X9867801Y-14054460D02*
X9858277Y-14035412D01*
X9858277Y-14035412D02*
X9858277Y-14016365D01*
X9858277Y-14016365D02*
X9867801Y-13997317D01*
X9867801Y-13997317D02*
X9886848Y-13987793D01*
X9886848Y-13987793D02*
X9934467Y-13987793D01*
X9934467Y-13987793D02*
X9953515Y-13978269D01*
X10048753Y-13930650D02*
X10048753Y-14130650D01*
X10048753Y-13940174D02*
X10067801Y-13930650D01*
X10067801Y-13930650D02*
X10105896Y-13930650D01*
X10105896Y-13930650D02*
X10124944Y-13940174D01*
X10124944Y-13940174D02*
X10134467Y-13949698D01*
X10134467Y-13949698D02*
X10143991Y-13968746D01*
X10143991Y-13968746D02*
X10143991Y-14025888D01*
X10143991Y-14025888D02*
X10134467Y-14044936D01*
X10134467Y-14044936D02*
X10124944Y-14054460D01*
X10124944Y-14054460D02*
X10105896Y-14063984D01*
X10105896Y-14063984D02*
X10067801Y-14063984D01*
X10067801Y-14063984D02*
X10048753Y-14054460D01*
X10229705Y-14044936D02*
X10239229Y-14054460D01*
X10239229Y-14054460D02*
X10229705Y-14063984D01*
X10229705Y-14063984D02*
X10220182Y-14054460D01*
X10220182Y-14054460D02*
X10229705Y-14044936D01*
X10229705Y-14044936D02*
X10229705Y-14063984D01*
X10229705Y-13940174D02*
X10239229Y-13949698D01*
X10239229Y-13949698D02*
X10229705Y-13959222D01*
X10229705Y-13959222D02*
X10220182Y-13949698D01*
X10220182Y-13949698D02*
X10229705Y-13940174D01*
X10229705Y-13940174D02*
X10229705Y-13959222D01*
D12*
X8567500Y-14377500D02*
X8597500Y-14407500D01*
X8597500Y-14377500D02*
X8567500Y-14407500D01*
D11*
X8896372Y-14283984D02*
X8915420Y-14283984D01*
X8915420Y-14283984D02*
X8934467Y-14293508D01*
X8934467Y-14293508D02*
X8943991Y-14303031D01*
X8943991Y-14303031D02*
X8953515Y-14322079D01*
X8953515Y-14322079D02*
X8963039Y-14360174D01*
X8963039Y-14360174D02*
X8963039Y-14407793D01*
X8963039Y-14407793D02*
X8953515Y-14445888D01*
X8953515Y-14445888D02*
X8943991Y-14464936D01*
X8943991Y-14464936D02*
X8934467Y-14474460D01*
X8934467Y-14474460D02*
X8915420Y-14483984D01*
X8915420Y-14483984D02*
X8896372Y-14483984D01*
X8896372Y-14483984D02*
X8877324Y-14474460D01*
X8877324Y-14474460D02*
X8867801Y-14464936D01*
X8867801Y-14464936D02*
X8858277Y-14445888D01*
X8858277Y-14445888D02*
X8848753Y-14407793D01*
X8848753Y-14407793D02*
X8848753Y-14360174D01*
X8848753Y-14360174D02*
X8858277Y-14322079D01*
X8858277Y-14322079D02*
X8867801Y-14303031D01*
X8867801Y-14303031D02*
X8877324Y-14293508D01*
X8877324Y-14293508D02*
X8896372Y-14283984D01*
X9048753Y-14464936D02*
X9058277Y-14474460D01*
X9058277Y-14474460D02*
X9048753Y-14483984D01*
X9048753Y-14483984D02*
X9039229Y-14474460D01*
X9039229Y-14474460D02*
X9048753Y-14464936D01*
X9048753Y-14464936D02*
X9048753Y-14483984D01*
X9124944Y-14283984D02*
X9248753Y-14283984D01*
X9248753Y-14283984D02*
X9182086Y-14360174D01*
X9182086Y-14360174D02*
X9210658Y-14360174D01*
X9210658Y-14360174D02*
X9229705Y-14369698D01*
X9229705Y-14369698D02*
X9239229Y-14379222D01*
X9239229Y-14379222D02*
X9248753Y-14398269D01*
X9248753Y-14398269D02*
X9248753Y-14445888D01*
X9248753Y-14445888D02*
X9239229Y-14464936D01*
X9239229Y-14464936D02*
X9229705Y-14474460D01*
X9229705Y-14474460D02*
X9210658Y-14483984D01*
X9210658Y-14483984D02*
X9153515Y-14483984D01*
X9153515Y-14483984D02*
X9134467Y-14474460D01*
X9134467Y-14474460D02*
X9124944Y-14464936D01*
X9372563Y-14283984D02*
X9391610Y-14283984D01*
X9391610Y-14283984D02*
X9410658Y-14293508D01*
X9410658Y-14293508D02*
X9420182Y-14303031D01*
X9420182Y-14303031D02*
X9429705Y-14322079D01*
X9429705Y-14322079D02*
X9439229Y-14360174D01*
X9439229Y-14360174D02*
X9439229Y-14407793D01*
X9439229Y-14407793D02*
X9429705Y-14445888D01*
X9429705Y-14445888D02*
X9420182Y-14464936D01*
X9420182Y-14464936D02*
X9410658Y-14474460D01*
X9410658Y-14474460D02*
X9391610Y-14483984D01*
X9391610Y-14483984D02*
X9372563Y-14483984D01*
X9372563Y-14483984D02*
X9353515Y-14474460D01*
X9353515Y-14474460D02*
X9343991Y-14464936D01*
X9343991Y-14464936D02*
X9334467Y-14445888D01*
X9334467Y-14445888D02*
X9324944Y-14407793D01*
X9324944Y-14407793D02*
X9324944Y-14360174D01*
X9324944Y-14360174D02*
X9334467Y-14322079D01*
X9334467Y-14322079D02*
X9343991Y-14303031D01*
X9343991Y-14303031D02*
X9353515Y-14293508D01*
X9353515Y-14293508D02*
X9372563Y-14283984D01*
X9563039Y-14283984D02*
X9582086Y-14283984D01*
X9582086Y-14283984D02*
X9601134Y-14293508D01*
X9601134Y-14293508D02*
X9610658Y-14303031D01*
X9610658Y-14303031D02*
X9620182Y-14322079D01*
X9620182Y-14322079D02*
X9629705Y-14360174D01*
X9629705Y-14360174D02*
X9629705Y-14407793D01*
X9629705Y-14407793D02*
X9620182Y-14445888D01*
X9620182Y-14445888D02*
X9610658Y-14464936D01*
X9610658Y-14464936D02*
X9601134Y-14474460D01*
X9601134Y-14474460D02*
X9582086Y-14483984D01*
X9582086Y-14483984D02*
X9563039Y-14483984D01*
X9563039Y-14483984D02*
X9543991Y-14474460D01*
X9543991Y-14474460D02*
X9534467Y-14464936D01*
X9534467Y-14464936D02*
X9524944Y-14445888D01*
X9524944Y-14445888D02*
X9515420Y-14407793D01*
X9515420Y-14407793D02*
X9515420Y-14360174D01*
X9515420Y-14360174D02*
X9524944Y-14322079D01*
X9524944Y-14322079D02*
X9534467Y-14303031D01*
X9534467Y-14303031D02*
X9543991Y-14293508D01*
X9543991Y-14293508D02*
X9563039Y-14283984D01*
X9715420Y-14483984D02*
X9715420Y-14350650D01*
X9715420Y-14369698D02*
X9724944Y-14360174D01*
X9724944Y-14360174D02*
X9743991Y-14350650D01*
X9743991Y-14350650D02*
X9772563Y-14350650D01*
X9772563Y-14350650D02*
X9791610Y-14360174D01*
X9791610Y-14360174D02*
X9801134Y-14379222D01*
X9801134Y-14379222D02*
X9801134Y-14483984D01*
X9801134Y-14379222D02*
X9810658Y-14360174D01*
X9810658Y-14360174D02*
X9829705Y-14350650D01*
X9829705Y-14350650D02*
X9858277Y-14350650D01*
X9858277Y-14350650D02*
X9877325Y-14360174D01*
X9877325Y-14360174D02*
X9886848Y-14379222D01*
X9886848Y-14379222D02*
X9886848Y-14483984D01*
X9982086Y-14483984D02*
X9982086Y-14350650D01*
X9982086Y-14369698D02*
X9991610Y-14360174D01*
X9991610Y-14360174D02*
X10010658Y-14350650D01*
X10010658Y-14350650D02*
X10039229Y-14350650D01*
X10039229Y-14350650D02*
X10058277Y-14360174D01*
X10058277Y-14360174D02*
X10067801Y-14379222D01*
X10067801Y-14379222D02*
X10067801Y-14483984D01*
X10067801Y-14379222D02*
X10077325Y-14360174D01*
X10077325Y-14360174D02*
X10096372Y-14350650D01*
X10096372Y-14350650D02*
X10124944Y-14350650D01*
X10124944Y-14350650D02*
X10143991Y-14360174D01*
X10143991Y-14360174D02*
X10153515Y-14379222D01*
X10153515Y-14379222D02*
X10153515Y-14483984D01*
X10543991Y-14274460D02*
X10372563Y-14531603D01*
X10801134Y-14283984D02*
X10820182Y-14283984D01*
X10820182Y-14283984D02*
X10839229Y-14293508D01*
X10839229Y-14293508D02*
X10848753Y-14303031D01*
X10848753Y-14303031D02*
X10858277Y-14322079D01*
X10858277Y-14322079D02*
X10867801Y-14360174D01*
X10867801Y-14360174D02*
X10867801Y-14407793D01*
X10867801Y-14407793D02*
X10858277Y-14445888D01*
X10858277Y-14445888D02*
X10848753Y-14464936D01*
X10848753Y-14464936D02*
X10839229Y-14474460D01*
X10839229Y-14474460D02*
X10820182Y-14483984D01*
X10820182Y-14483984D02*
X10801134Y-14483984D01*
X10801134Y-14483984D02*
X10782087Y-14474460D01*
X10782087Y-14474460D02*
X10772563Y-14464936D01*
X10772563Y-14464936D02*
X10763039Y-14445888D01*
X10763039Y-14445888D02*
X10753515Y-14407793D01*
X10753515Y-14407793D02*
X10753515Y-14360174D01*
X10753515Y-14360174D02*
X10763039Y-14322079D01*
X10763039Y-14322079D02*
X10772563Y-14303031D01*
X10772563Y-14303031D02*
X10782087Y-14293508D01*
X10782087Y-14293508D02*
X10801134Y-14283984D01*
X10953515Y-14464936D02*
X10963039Y-14474460D01*
X10963039Y-14474460D02*
X10953515Y-14483984D01*
X10953515Y-14483984D02*
X10943991Y-14474460D01*
X10943991Y-14474460D02*
X10953515Y-14464936D01*
X10953515Y-14464936D02*
X10953515Y-14483984D01*
X11086848Y-14283984D02*
X11105896Y-14283984D01*
X11105896Y-14283984D02*
X11124944Y-14293508D01*
X11124944Y-14293508D02*
X11134468Y-14303031D01*
X11134468Y-14303031D02*
X11143991Y-14322079D01*
X11143991Y-14322079D02*
X11153515Y-14360174D01*
X11153515Y-14360174D02*
X11153515Y-14407793D01*
X11153515Y-14407793D02*
X11143991Y-14445888D01*
X11143991Y-14445888D02*
X11134468Y-14464936D01*
X11134468Y-14464936D02*
X11124944Y-14474460D01*
X11124944Y-14474460D02*
X11105896Y-14483984D01*
X11105896Y-14483984D02*
X11086848Y-14483984D01*
X11086848Y-14483984D02*
X11067801Y-14474460D01*
X11067801Y-14474460D02*
X11058277Y-14464936D01*
X11058277Y-14464936D02*
X11048753Y-14445888D01*
X11048753Y-14445888D02*
X11039229Y-14407793D01*
X11039229Y-14407793D02*
X11039229Y-14360174D01*
X11039229Y-14360174D02*
X11048753Y-14322079D01*
X11048753Y-14322079D02*
X11058277Y-14303031D01*
X11058277Y-14303031D02*
X11067801Y-14293508D01*
X11067801Y-14293508D02*
X11086848Y-14283984D01*
X11343991Y-14483984D02*
X11229706Y-14483984D01*
X11286848Y-14483984D02*
X11286848Y-14283984D01*
X11286848Y-14283984D02*
X11267801Y-14312555D01*
X11267801Y-14312555D02*
X11248753Y-14331603D01*
X11248753Y-14331603D02*
X11229706Y-14341127D01*
X11534467Y-14483984D02*
X11420182Y-14483984D01*
X11477325Y-14483984D02*
X11477325Y-14283984D01*
X11477325Y-14283984D02*
X11458277Y-14312555D01*
X11458277Y-14312555D02*
X11439229Y-14331603D01*
X11439229Y-14331603D02*
X11420182Y-14341127D01*
X11648753Y-14369698D02*
X11629706Y-14360174D01*
X11629706Y-14360174D02*
X11620182Y-14350650D01*
X11620182Y-14350650D02*
X11610658Y-14331603D01*
X11610658Y-14331603D02*
X11610658Y-14322079D01*
X11610658Y-14322079D02*
X11620182Y-14303031D01*
X11620182Y-14303031D02*
X11629706Y-14293508D01*
X11629706Y-14293508D02*
X11648753Y-14283984D01*
X11648753Y-14283984D02*
X11686848Y-14283984D01*
X11686848Y-14283984D02*
X11705896Y-14293508D01*
X11705896Y-14293508D02*
X11715420Y-14303031D01*
X11715420Y-14303031D02*
X11724944Y-14322079D01*
X11724944Y-14322079D02*
X11724944Y-14331603D01*
X11724944Y-14331603D02*
X11715420Y-14350650D01*
X11715420Y-14350650D02*
X11705896Y-14360174D01*
X11705896Y-14360174D02*
X11686848Y-14369698D01*
X11686848Y-14369698D02*
X11648753Y-14369698D01*
X11648753Y-14369698D02*
X11629706Y-14379222D01*
X11629706Y-14379222D02*
X11620182Y-14388746D01*
X11620182Y-14388746D02*
X11610658Y-14407793D01*
X11610658Y-14407793D02*
X11610658Y-14445888D01*
X11610658Y-14445888D02*
X11620182Y-14464936D01*
X11620182Y-14464936D02*
X11629706Y-14474460D01*
X11629706Y-14474460D02*
X11648753Y-14483984D01*
X11648753Y-14483984D02*
X11686848Y-14483984D01*
X11686848Y-14483984D02*
X11705896Y-14474460D01*
X11705896Y-14474460D02*
X11715420Y-14464936D01*
X11715420Y-14464936D02*
X11724944Y-14445888D01*
X11724944Y-14445888D02*
X11724944Y-14407793D01*
X11724944Y-14407793D02*
X11715420Y-14388746D01*
X11715420Y-14388746D02*
X11705896Y-14379222D01*
X11705896Y-14379222D02*
X11686848Y-14369698D01*
X11801134Y-14283984D02*
X11801134Y-14322079D01*
X11877325Y-14283984D02*
X11877325Y-14322079D01*
X12172563Y-14560174D02*
X12163039Y-14550650D01*
X12163039Y-14550650D02*
X12143991Y-14522079D01*
X12143991Y-14522079D02*
X12134468Y-14503031D01*
X12134468Y-14503031D02*
X12124944Y-14474460D01*
X12124944Y-14474460D02*
X12115420Y-14426841D01*
X12115420Y-14426841D02*
X12115420Y-14388746D01*
X12115420Y-14388746D02*
X12124944Y-14341127D01*
X12124944Y-14341127D02*
X12134468Y-14312555D01*
X12134468Y-14312555D02*
X12143991Y-14293508D01*
X12143991Y-14293508D02*
X12163039Y-14264936D01*
X12163039Y-14264936D02*
X12172563Y-14255412D01*
X12343991Y-14283984D02*
X12248753Y-14283984D01*
X12248753Y-14283984D02*
X12239229Y-14379222D01*
X12239229Y-14379222D02*
X12248753Y-14369698D01*
X12248753Y-14369698D02*
X12267801Y-14360174D01*
X12267801Y-14360174D02*
X12315420Y-14360174D01*
X12315420Y-14360174D02*
X12334468Y-14369698D01*
X12334468Y-14369698D02*
X12343991Y-14379222D01*
X12343991Y-14379222D02*
X12353515Y-14398269D01*
X12353515Y-14398269D02*
X12353515Y-14445888D01*
X12353515Y-14445888D02*
X12343991Y-14464936D01*
X12343991Y-14464936D02*
X12334468Y-14474460D01*
X12334468Y-14474460D02*
X12315420Y-14483984D01*
X12315420Y-14483984D02*
X12267801Y-14483984D01*
X12267801Y-14483984D02*
X12248753Y-14474460D01*
X12248753Y-14474460D02*
X12239229Y-14464936D01*
X12591610Y-14483984D02*
X12591610Y-14283984D01*
X12677325Y-14483984D02*
X12677325Y-14379222D01*
X12677325Y-14379222D02*
X12667801Y-14360174D01*
X12667801Y-14360174D02*
X12648753Y-14350650D01*
X12648753Y-14350650D02*
X12620182Y-14350650D01*
X12620182Y-14350650D02*
X12601134Y-14360174D01*
X12601134Y-14360174D02*
X12591610Y-14369698D01*
X12801134Y-14483984D02*
X12782087Y-14474460D01*
X12782087Y-14474460D02*
X12772563Y-14464936D01*
X12772563Y-14464936D02*
X12763039Y-14445888D01*
X12763039Y-14445888D02*
X12763039Y-14388746D01*
X12763039Y-14388746D02*
X12772563Y-14369698D01*
X12772563Y-14369698D02*
X12782087Y-14360174D01*
X12782087Y-14360174D02*
X12801134Y-14350650D01*
X12801134Y-14350650D02*
X12829706Y-14350650D01*
X12829706Y-14350650D02*
X12848753Y-14360174D01*
X12848753Y-14360174D02*
X12858277Y-14369698D01*
X12858277Y-14369698D02*
X12867801Y-14388746D01*
X12867801Y-14388746D02*
X12867801Y-14445888D01*
X12867801Y-14445888D02*
X12858277Y-14464936D01*
X12858277Y-14464936D02*
X12848753Y-14474460D01*
X12848753Y-14474460D02*
X12829706Y-14483984D01*
X12829706Y-14483984D02*
X12801134Y-14483984D01*
X12982087Y-14483984D02*
X12963039Y-14474460D01*
X12963039Y-14474460D02*
X12953515Y-14455412D01*
X12953515Y-14455412D02*
X12953515Y-14283984D01*
X13134468Y-14474460D02*
X13115420Y-14483984D01*
X13115420Y-14483984D02*
X13077325Y-14483984D01*
X13077325Y-14483984D02*
X13058277Y-14474460D01*
X13058277Y-14474460D02*
X13048753Y-14455412D01*
X13048753Y-14455412D02*
X13048753Y-14379222D01*
X13048753Y-14379222D02*
X13058277Y-14360174D01*
X13058277Y-14360174D02*
X13077325Y-14350650D01*
X13077325Y-14350650D02*
X13115420Y-14350650D01*
X13115420Y-14350650D02*
X13134468Y-14360174D01*
X13134468Y-14360174D02*
X13143991Y-14379222D01*
X13143991Y-14379222D02*
X13143991Y-14398269D01*
X13143991Y-14398269D02*
X13048753Y-14417317D01*
X13220182Y-14474460D02*
X13239230Y-14483984D01*
X13239230Y-14483984D02*
X13277325Y-14483984D01*
X13277325Y-14483984D02*
X13296372Y-14474460D01*
X13296372Y-14474460D02*
X13305896Y-14455412D01*
X13305896Y-14455412D02*
X13305896Y-14445888D01*
X13305896Y-14445888D02*
X13296372Y-14426841D01*
X13296372Y-14426841D02*
X13277325Y-14417317D01*
X13277325Y-14417317D02*
X13248753Y-14417317D01*
X13248753Y-14417317D02*
X13229706Y-14407793D01*
X13229706Y-14407793D02*
X13220182Y-14388746D01*
X13220182Y-14388746D02*
X13220182Y-14379222D01*
X13220182Y-14379222D02*
X13229706Y-14360174D01*
X13229706Y-14360174D02*
X13248753Y-14350650D01*
X13248753Y-14350650D02*
X13277325Y-14350650D01*
X13277325Y-14350650D02*
X13296372Y-14360174D01*
X13372563Y-14560174D02*
X13382087Y-14550650D01*
X13382087Y-14550650D02*
X13401134Y-14522079D01*
X13401134Y-14522079D02*
X13410658Y-14503031D01*
X13410658Y-14503031D02*
X13420182Y-14474460D01*
X13420182Y-14474460D02*
X13429706Y-14426841D01*
X13429706Y-14426841D02*
X13429706Y-14388746D01*
X13429706Y-14388746D02*
X13420182Y-14341127D01*
X13420182Y-14341127D02*
X13410658Y-14312555D01*
X13410658Y-14312555D02*
X13401134Y-14293508D01*
X13401134Y-14293508D02*
X13382087Y-14264936D01*
X13382087Y-14264936D02*
X13372563Y-14255412D01*
D12*
X8597500Y-14656500D02*
G75*
G02*
X8557500Y-14656500I-20000J0D01*
G01*
X8557500Y-14656500D02*
G75*
G02*
X8597500Y-14656500I20000J0D01*
G01*
D11*
X8896372Y-14547984D02*
X8915420Y-14547984D01*
X8915420Y-14547984D02*
X8934467Y-14557508D01*
X8934467Y-14557508D02*
X8943991Y-14567031D01*
X8943991Y-14567031D02*
X8953515Y-14586079D01*
X8953515Y-14586079D02*
X8963039Y-14624174D01*
X8963039Y-14624174D02*
X8963039Y-14671793D01*
X8963039Y-14671793D02*
X8953515Y-14709888D01*
X8953515Y-14709888D02*
X8943991Y-14728936D01*
X8943991Y-14728936D02*
X8934467Y-14738460D01*
X8934467Y-14738460D02*
X8915420Y-14747984D01*
X8915420Y-14747984D02*
X8896372Y-14747984D01*
X8896372Y-14747984D02*
X8877324Y-14738460D01*
X8877324Y-14738460D02*
X8867801Y-14728936D01*
X8867801Y-14728936D02*
X8858277Y-14709888D01*
X8858277Y-14709888D02*
X8848753Y-14671793D01*
X8848753Y-14671793D02*
X8848753Y-14624174D01*
X8848753Y-14624174D02*
X8858277Y-14586079D01*
X8858277Y-14586079D02*
X8867801Y-14567031D01*
X8867801Y-14567031D02*
X8877324Y-14557508D01*
X8877324Y-14557508D02*
X8896372Y-14547984D01*
X9048753Y-14728936D02*
X9058277Y-14738460D01*
X9058277Y-14738460D02*
X9048753Y-14747984D01*
X9048753Y-14747984D02*
X9039229Y-14738460D01*
X9039229Y-14738460D02*
X9048753Y-14728936D01*
X9048753Y-14728936D02*
X9048753Y-14747984D01*
X9229705Y-14614650D02*
X9229705Y-14747984D01*
X9182086Y-14538460D02*
X9134467Y-14681317D01*
X9134467Y-14681317D02*
X9258277Y-14681317D01*
X9372563Y-14547984D02*
X9391610Y-14547984D01*
X9391610Y-14547984D02*
X9410658Y-14557508D01*
X9410658Y-14557508D02*
X9420182Y-14567031D01*
X9420182Y-14567031D02*
X9429705Y-14586079D01*
X9429705Y-14586079D02*
X9439229Y-14624174D01*
X9439229Y-14624174D02*
X9439229Y-14671793D01*
X9439229Y-14671793D02*
X9429705Y-14709888D01*
X9429705Y-14709888D02*
X9420182Y-14728936D01*
X9420182Y-14728936D02*
X9410658Y-14738460D01*
X9410658Y-14738460D02*
X9391610Y-14747984D01*
X9391610Y-14747984D02*
X9372563Y-14747984D01*
X9372563Y-14747984D02*
X9353515Y-14738460D01*
X9353515Y-14738460D02*
X9343991Y-14728936D01*
X9343991Y-14728936D02*
X9334467Y-14709888D01*
X9334467Y-14709888D02*
X9324944Y-14671793D01*
X9324944Y-14671793D02*
X9324944Y-14624174D01*
X9324944Y-14624174D02*
X9334467Y-14586079D01*
X9334467Y-14586079D02*
X9343991Y-14567031D01*
X9343991Y-14567031D02*
X9353515Y-14557508D01*
X9353515Y-14557508D02*
X9372563Y-14547984D01*
X9563039Y-14547984D02*
X9582086Y-14547984D01*
X9582086Y-14547984D02*
X9601134Y-14557508D01*
X9601134Y-14557508D02*
X9610658Y-14567031D01*
X9610658Y-14567031D02*
X9620182Y-14586079D01*
X9620182Y-14586079D02*
X9629705Y-14624174D01*
X9629705Y-14624174D02*
X9629705Y-14671793D01*
X9629705Y-14671793D02*
X9620182Y-14709888D01*
X9620182Y-14709888D02*
X9610658Y-14728936D01*
X9610658Y-14728936D02*
X9601134Y-14738460D01*
X9601134Y-14738460D02*
X9582086Y-14747984D01*
X9582086Y-14747984D02*
X9563039Y-14747984D01*
X9563039Y-14747984D02*
X9543991Y-14738460D01*
X9543991Y-14738460D02*
X9534467Y-14728936D01*
X9534467Y-14728936D02*
X9524944Y-14709888D01*
X9524944Y-14709888D02*
X9515420Y-14671793D01*
X9515420Y-14671793D02*
X9515420Y-14624174D01*
X9515420Y-14624174D02*
X9524944Y-14586079D01*
X9524944Y-14586079D02*
X9534467Y-14567031D01*
X9534467Y-14567031D02*
X9543991Y-14557508D01*
X9543991Y-14557508D02*
X9563039Y-14547984D01*
X9715420Y-14747984D02*
X9715420Y-14614650D01*
X9715420Y-14633698D02*
X9724944Y-14624174D01*
X9724944Y-14624174D02*
X9743991Y-14614650D01*
X9743991Y-14614650D02*
X9772563Y-14614650D01*
X9772563Y-14614650D02*
X9791610Y-14624174D01*
X9791610Y-14624174D02*
X9801134Y-14643222D01*
X9801134Y-14643222D02*
X9801134Y-14747984D01*
X9801134Y-14643222D02*
X9810658Y-14624174D01*
X9810658Y-14624174D02*
X9829705Y-14614650D01*
X9829705Y-14614650D02*
X9858277Y-14614650D01*
X9858277Y-14614650D02*
X9877325Y-14624174D01*
X9877325Y-14624174D02*
X9886848Y-14643222D01*
X9886848Y-14643222D02*
X9886848Y-14747984D01*
X9982086Y-14747984D02*
X9982086Y-14614650D01*
X9982086Y-14633698D02*
X9991610Y-14624174D01*
X9991610Y-14624174D02*
X10010658Y-14614650D01*
X10010658Y-14614650D02*
X10039229Y-14614650D01*
X10039229Y-14614650D02*
X10058277Y-14624174D01*
X10058277Y-14624174D02*
X10067801Y-14643222D01*
X10067801Y-14643222D02*
X10067801Y-14747984D01*
X10067801Y-14643222D02*
X10077325Y-14624174D01*
X10077325Y-14624174D02*
X10096372Y-14614650D01*
X10096372Y-14614650D02*
X10124944Y-14614650D01*
X10124944Y-14614650D02*
X10143991Y-14624174D01*
X10143991Y-14624174D02*
X10153515Y-14643222D01*
X10153515Y-14643222D02*
X10153515Y-14747984D01*
X10543991Y-14538460D02*
X10372563Y-14795603D01*
X10801134Y-14547984D02*
X10820182Y-14547984D01*
X10820182Y-14547984D02*
X10839229Y-14557508D01*
X10839229Y-14557508D02*
X10848753Y-14567031D01*
X10848753Y-14567031D02*
X10858277Y-14586079D01*
X10858277Y-14586079D02*
X10867801Y-14624174D01*
X10867801Y-14624174D02*
X10867801Y-14671793D01*
X10867801Y-14671793D02*
X10858277Y-14709888D01*
X10858277Y-14709888D02*
X10848753Y-14728936D01*
X10848753Y-14728936D02*
X10839229Y-14738460D01*
X10839229Y-14738460D02*
X10820182Y-14747984D01*
X10820182Y-14747984D02*
X10801134Y-14747984D01*
X10801134Y-14747984D02*
X10782087Y-14738460D01*
X10782087Y-14738460D02*
X10772563Y-14728936D01*
X10772563Y-14728936D02*
X10763039Y-14709888D01*
X10763039Y-14709888D02*
X10753515Y-14671793D01*
X10753515Y-14671793D02*
X10753515Y-14624174D01*
X10753515Y-14624174D02*
X10763039Y-14586079D01*
X10763039Y-14586079D02*
X10772563Y-14567031D01*
X10772563Y-14567031D02*
X10782087Y-14557508D01*
X10782087Y-14557508D02*
X10801134Y-14547984D01*
X10953515Y-14728936D02*
X10963039Y-14738460D01*
X10963039Y-14738460D02*
X10953515Y-14747984D01*
X10953515Y-14747984D02*
X10943991Y-14738460D01*
X10943991Y-14738460D02*
X10953515Y-14728936D01*
X10953515Y-14728936D02*
X10953515Y-14747984D01*
X11086848Y-14547984D02*
X11105896Y-14547984D01*
X11105896Y-14547984D02*
X11124944Y-14557508D01*
X11124944Y-14557508D02*
X11134468Y-14567031D01*
X11134468Y-14567031D02*
X11143991Y-14586079D01*
X11143991Y-14586079D02*
X11153515Y-14624174D01*
X11153515Y-14624174D02*
X11153515Y-14671793D01*
X11153515Y-14671793D02*
X11143991Y-14709888D01*
X11143991Y-14709888D02*
X11134468Y-14728936D01*
X11134468Y-14728936D02*
X11124944Y-14738460D01*
X11124944Y-14738460D02*
X11105896Y-14747984D01*
X11105896Y-14747984D02*
X11086848Y-14747984D01*
X11086848Y-14747984D02*
X11067801Y-14738460D01*
X11067801Y-14738460D02*
X11058277Y-14728936D01*
X11058277Y-14728936D02*
X11048753Y-14709888D01*
X11048753Y-14709888D02*
X11039229Y-14671793D01*
X11039229Y-14671793D02*
X11039229Y-14624174D01*
X11039229Y-14624174D02*
X11048753Y-14586079D01*
X11048753Y-14586079D02*
X11058277Y-14567031D01*
X11058277Y-14567031D02*
X11067801Y-14557508D01*
X11067801Y-14557508D02*
X11086848Y-14547984D01*
X11343991Y-14747984D02*
X11229706Y-14747984D01*
X11286848Y-14747984D02*
X11286848Y-14547984D01*
X11286848Y-14547984D02*
X11267801Y-14576555D01*
X11267801Y-14576555D02*
X11248753Y-14595603D01*
X11248753Y-14595603D02*
X11229706Y-14605127D01*
X11524944Y-14547984D02*
X11429706Y-14547984D01*
X11429706Y-14547984D02*
X11420182Y-14643222D01*
X11420182Y-14643222D02*
X11429706Y-14633698D01*
X11429706Y-14633698D02*
X11448753Y-14624174D01*
X11448753Y-14624174D02*
X11496372Y-14624174D01*
X11496372Y-14624174D02*
X11515420Y-14633698D01*
X11515420Y-14633698D02*
X11524944Y-14643222D01*
X11524944Y-14643222D02*
X11534467Y-14662269D01*
X11534467Y-14662269D02*
X11534467Y-14709888D01*
X11534467Y-14709888D02*
X11524944Y-14728936D01*
X11524944Y-14728936D02*
X11515420Y-14738460D01*
X11515420Y-14738460D02*
X11496372Y-14747984D01*
X11496372Y-14747984D02*
X11448753Y-14747984D01*
X11448753Y-14747984D02*
X11429706Y-14738460D01*
X11429706Y-14738460D02*
X11420182Y-14728936D01*
X11601134Y-14547984D02*
X11734467Y-14547984D01*
X11734467Y-14547984D02*
X11648753Y-14747984D01*
X11801134Y-14547984D02*
X11801134Y-14586079D01*
X11877325Y-14547984D02*
X11877325Y-14586079D01*
X12172563Y-14824174D02*
X12163039Y-14814650D01*
X12163039Y-14814650D02*
X12143991Y-14786079D01*
X12143991Y-14786079D02*
X12134468Y-14767031D01*
X12134468Y-14767031D02*
X12124944Y-14738460D01*
X12124944Y-14738460D02*
X12115420Y-14690841D01*
X12115420Y-14690841D02*
X12115420Y-14652746D01*
X12115420Y-14652746D02*
X12124944Y-14605127D01*
X12124944Y-14605127D02*
X12134468Y-14576555D01*
X12134468Y-14576555D02*
X12143991Y-14557508D01*
X12143991Y-14557508D02*
X12163039Y-14528936D01*
X12163039Y-14528936D02*
X12172563Y-14519412D01*
X12258277Y-14747984D02*
X12296372Y-14747984D01*
X12296372Y-14747984D02*
X12315420Y-14738460D01*
X12315420Y-14738460D02*
X12324944Y-14728936D01*
X12324944Y-14728936D02*
X12343991Y-14700365D01*
X12343991Y-14700365D02*
X12353515Y-14662269D01*
X12353515Y-14662269D02*
X12353515Y-14586079D01*
X12353515Y-14586079D02*
X12343991Y-14567031D01*
X12343991Y-14567031D02*
X12334468Y-14557508D01*
X12334468Y-14557508D02*
X12315420Y-14547984D01*
X12315420Y-14547984D02*
X12277325Y-14547984D01*
X12277325Y-14547984D02*
X12258277Y-14557508D01*
X12258277Y-14557508D02*
X12248753Y-14567031D01*
X12248753Y-14567031D02*
X12239229Y-14586079D01*
X12239229Y-14586079D02*
X12239229Y-14633698D01*
X12239229Y-14633698D02*
X12248753Y-14652746D01*
X12248753Y-14652746D02*
X12258277Y-14662269D01*
X12258277Y-14662269D02*
X12277325Y-14671793D01*
X12277325Y-14671793D02*
X12315420Y-14671793D01*
X12315420Y-14671793D02*
X12334468Y-14662269D01*
X12334468Y-14662269D02*
X12343991Y-14652746D01*
X12343991Y-14652746D02*
X12353515Y-14633698D01*
X12524944Y-14547984D02*
X12486848Y-14547984D01*
X12486848Y-14547984D02*
X12467801Y-14557508D01*
X12467801Y-14557508D02*
X12458277Y-14567031D01*
X12458277Y-14567031D02*
X12439229Y-14595603D01*
X12439229Y-14595603D02*
X12429706Y-14633698D01*
X12429706Y-14633698D02*
X12429706Y-14709888D01*
X12429706Y-14709888D02*
X12439229Y-14728936D01*
X12439229Y-14728936D02*
X12448753Y-14738460D01*
X12448753Y-14738460D02*
X12467801Y-14747984D01*
X12467801Y-14747984D02*
X12505896Y-14747984D01*
X12505896Y-14747984D02*
X12524944Y-14738460D01*
X12524944Y-14738460D02*
X12534468Y-14728936D01*
X12534468Y-14728936D02*
X12543991Y-14709888D01*
X12543991Y-14709888D02*
X12543991Y-14662269D01*
X12543991Y-14662269D02*
X12534468Y-14643222D01*
X12534468Y-14643222D02*
X12524944Y-14633698D01*
X12524944Y-14633698D02*
X12505896Y-14624174D01*
X12505896Y-14624174D02*
X12467801Y-14624174D01*
X12467801Y-14624174D02*
X12448753Y-14633698D01*
X12448753Y-14633698D02*
X12439229Y-14643222D01*
X12439229Y-14643222D02*
X12429706Y-14662269D01*
X12782087Y-14747984D02*
X12782087Y-14547984D01*
X12867801Y-14747984D02*
X12867801Y-14643222D01*
X12867801Y-14643222D02*
X12858277Y-14624174D01*
X12858277Y-14624174D02*
X12839230Y-14614650D01*
X12839230Y-14614650D02*
X12810658Y-14614650D01*
X12810658Y-14614650D02*
X12791610Y-14624174D01*
X12791610Y-14624174D02*
X12782087Y-14633698D01*
X12991610Y-14747984D02*
X12972563Y-14738460D01*
X12972563Y-14738460D02*
X12963039Y-14728936D01*
X12963039Y-14728936D02*
X12953515Y-14709888D01*
X12953515Y-14709888D02*
X12953515Y-14652746D01*
X12953515Y-14652746D02*
X12963039Y-14633698D01*
X12963039Y-14633698D02*
X12972563Y-14624174D01*
X12972563Y-14624174D02*
X12991610Y-14614650D01*
X12991610Y-14614650D02*
X13020182Y-14614650D01*
X13020182Y-14614650D02*
X13039230Y-14624174D01*
X13039230Y-14624174D02*
X13048753Y-14633698D01*
X13048753Y-14633698D02*
X13058277Y-14652746D01*
X13058277Y-14652746D02*
X13058277Y-14709888D01*
X13058277Y-14709888D02*
X13048753Y-14728936D01*
X13048753Y-14728936D02*
X13039230Y-14738460D01*
X13039230Y-14738460D02*
X13020182Y-14747984D01*
X13020182Y-14747984D02*
X12991610Y-14747984D01*
X13172563Y-14747984D02*
X13153515Y-14738460D01*
X13153515Y-14738460D02*
X13143991Y-14719412D01*
X13143991Y-14719412D02*
X13143991Y-14547984D01*
X13324944Y-14738460D02*
X13305896Y-14747984D01*
X13305896Y-14747984D02*
X13267801Y-14747984D01*
X13267801Y-14747984D02*
X13248753Y-14738460D01*
X13248753Y-14738460D02*
X13239230Y-14719412D01*
X13239230Y-14719412D02*
X13239230Y-14643222D01*
X13239230Y-14643222D02*
X13248753Y-14624174D01*
X13248753Y-14624174D02*
X13267801Y-14614650D01*
X13267801Y-14614650D02*
X13305896Y-14614650D01*
X13305896Y-14614650D02*
X13324944Y-14624174D01*
X13324944Y-14624174D02*
X13334468Y-14643222D01*
X13334468Y-14643222D02*
X13334468Y-14662269D01*
X13334468Y-14662269D02*
X13239230Y-14681317D01*
X13410658Y-14738460D02*
X13429706Y-14747984D01*
X13429706Y-14747984D02*
X13467801Y-14747984D01*
X13467801Y-14747984D02*
X13486849Y-14738460D01*
X13486849Y-14738460D02*
X13496372Y-14719412D01*
X13496372Y-14719412D02*
X13496372Y-14709888D01*
X13496372Y-14709888D02*
X13486849Y-14690841D01*
X13486849Y-14690841D02*
X13467801Y-14681317D01*
X13467801Y-14681317D02*
X13439230Y-14681317D01*
X13439230Y-14681317D02*
X13420182Y-14671793D01*
X13420182Y-14671793D02*
X13410658Y-14652746D01*
X13410658Y-14652746D02*
X13410658Y-14643222D01*
X13410658Y-14643222D02*
X13420182Y-14624174D01*
X13420182Y-14624174D02*
X13439230Y-14614650D01*
X13439230Y-14614650D02*
X13467801Y-14614650D01*
X13467801Y-14614650D02*
X13486849Y-14624174D01*
X13563039Y-14824174D02*
X13572563Y-14814650D01*
X13572563Y-14814650D02*
X13591611Y-14786079D01*
X13591611Y-14786079D02*
X13601134Y-14767031D01*
X13601134Y-14767031D02*
X13610658Y-14738460D01*
X13610658Y-14738460D02*
X13620182Y-14690841D01*
X13620182Y-14690841D02*
X13620182Y-14652746D01*
X13620182Y-14652746D02*
X13610658Y-14605127D01*
X13610658Y-14605127D02*
X13601134Y-14576555D01*
X13601134Y-14576555D02*
X13591611Y-14557508D01*
X13591611Y-14557508D02*
X13572563Y-14528936D01*
X13572563Y-14528936D02*
X13563039Y-14519412D01*
D12*
X8572500Y-14895500D02*
X8572500Y-14945500D01*
X8547500Y-14920500D02*
X8597500Y-14920500D01*
D11*
X8896372Y-14811984D02*
X8915420Y-14811984D01*
X8915420Y-14811984D02*
X8934467Y-14821508D01*
X8934467Y-14821508D02*
X8943991Y-14831031D01*
X8943991Y-14831031D02*
X8953515Y-14850079D01*
X8953515Y-14850079D02*
X8963039Y-14888174D01*
X8963039Y-14888174D02*
X8963039Y-14935793D01*
X8963039Y-14935793D02*
X8953515Y-14973888D01*
X8953515Y-14973888D02*
X8943991Y-14992936D01*
X8943991Y-14992936D02*
X8934467Y-15002460D01*
X8934467Y-15002460D02*
X8915420Y-15011984D01*
X8915420Y-15011984D02*
X8896372Y-15011984D01*
X8896372Y-15011984D02*
X8877324Y-15002460D01*
X8877324Y-15002460D02*
X8867801Y-14992936D01*
X8867801Y-14992936D02*
X8858277Y-14973888D01*
X8858277Y-14973888D02*
X8848753Y-14935793D01*
X8848753Y-14935793D02*
X8848753Y-14888174D01*
X8848753Y-14888174D02*
X8858277Y-14850079D01*
X8858277Y-14850079D02*
X8867801Y-14831031D01*
X8867801Y-14831031D02*
X8877324Y-14821508D01*
X8877324Y-14821508D02*
X8896372Y-14811984D01*
X9048753Y-14992936D02*
X9058277Y-15002460D01*
X9058277Y-15002460D02*
X9048753Y-15011984D01*
X9048753Y-15011984D02*
X9039229Y-15002460D01*
X9039229Y-15002460D02*
X9048753Y-14992936D01*
X9048753Y-14992936D02*
X9048753Y-15011984D01*
X9239229Y-14811984D02*
X9143991Y-14811984D01*
X9143991Y-14811984D02*
X9134467Y-14907222D01*
X9134467Y-14907222D02*
X9143991Y-14897698D01*
X9143991Y-14897698D02*
X9163039Y-14888174D01*
X9163039Y-14888174D02*
X9210658Y-14888174D01*
X9210658Y-14888174D02*
X9229705Y-14897698D01*
X9229705Y-14897698D02*
X9239229Y-14907222D01*
X9239229Y-14907222D02*
X9248753Y-14926269D01*
X9248753Y-14926269D02*
X9248753Y-14973888D01*
X9248753Y-14973888D02*
X9239229Y-14992936D01*
X9239229Y-14992936D02*
X9229705Y-15002460D01*
X9229705Y-15002460D02*
X9210658Y-15011984D01*
X9210658Y-15011984D02*
X9163039Y-15011984D01*
X9163039Y-15011984D02*
X9143991Y-15002460D01*
X9143991Y-15002460D02*
X9134467Y-14992936D01*
X9372563Y-14811984D02*
X9391610Y-14811984D01*
X9391610Y-14811984D02*
X9410658Y-14821508D01*
X9410658Y-14821508D02*
X9420182Y-14831031D01*
X9420182Y-14831031D02*
X9429705Y-14850079D01*
X9429705Y-14850079D02*
X9439229Y-14888174D01*
X9439229Y-14888174D02*
X9439229Y-14935793D01*
X9439229Y-14935793D02*
X9429705Y-14973888D01*
X9429705Y-14973888D02*
X9420182Y-14992936D01*
X9420182Y-14992936D02*
X9410658Y-15002460D01*
X9410658Y-15002460D02*
X9391610Y-15011984D01*
X9391610Y-15011984D02*
X9372563Y-15011984D01*
X9372563Y-15011984D02*
X9353515Y-15002460D01*
X9353515Y-15002460D02*
X9343991Y-14992936D01*
X9343991Y-14992936D02*
X9334467Y-14973888D01*
X9334467Y-14973888D02*
X9324944Y-14935793D01*
X9324944Y-14935793D02*
X9324944Y-14888174D01*
X9324944Y-14888174D02*
X9334467Y-14850079D01*
X9334467Y-14850079D02*
X9343991Y-14831031D01*
X9343991Y-14831031D02*
X9353515Y-14821508D01*
X9353515Y-14821508D02*
X9372563Y-14811984D01*
X9563039Y-14811984D02*
X9582086Y-14811984D01*
X9582086Y-14811984D02*
X9601134Y-14821508D01*
X9601134Y-14821508D02*
X9610658Y-14831031D01*
X9610658Y-14831031D02*
X9620182Y-14850079D01*
X9620182Y-14850079D02*
X9629705Y-14888174D01*
X9629705Y-14888174D02*
X9629705Y-14935793D01*
X9629705Y-14935793D02*
X9620182Y-14973888D01*
X9620182Y-14973888D02*
X9610658Y-14992936D01*
X9610658Y-14992936D02*
X9601134Y-15002460D01*
X9601134Y-15002460D02*
X9582086Y-15011984D01*
X9582086Y-15011984D02*
X9563039Y-15011984D01*
X9563039Y-15011984D02*
X9543991Y-15002460D01*
X9543991Y-15002460D02*
X9534467Y-14992936D01*
X9534467Y-14992936D02*
X9524944Y-14973888D01*
X9524944Y-14973888D02*
X9515420Y-14935793D01*
X9515420Y-14935793D02*
X9515420Y-14888174D01*
X9515420Y-14888174D02*
X9524944Y-14850079D01*
X9524944Y-14850079D02*
X9534467Y-14831031D01*
X9534467Y-14831031D02*
X9543991Y-14821508D01*
X9543991Y-14821508D02*
X9563039Y-14811984D01*
X9715420Y-15011984D02*
X9715420Y-14878650D01*
X9715420Y-14897698D02*
X9724944Y-14888174D01*
X9724944Y-14888174D02*
X9743991Y-14878650D01*
X9743991Y-14878650D02*
X9772563Y-14878650D01*
X9772563Y-14878650D02*
X9791610Y-14888174D01*
X9791610Y-14888174D02*
X9801134Y-14907222D01*
X9801134Y-14907222D02*
X9801134Y-15011984D01*
X9801134Y-14907222D02*
X9810658Y-14888174D01*
X9810658Y-14888174D02*
X9829705Y-14878650D01*
X9829705Y-14878650D02*
X9858277Y-14878650D01*
X9858277Y-14878650D02*
X9877325Y-14888174D01*
X9877325Y-14888174D02*
X9886848Y-14907222D01*
X9886848Y-14907222D02*
X9886848Y-15011984D01*
X9982086Y-15011984D02*
X9982086Y-14878650D01*
X9982086Y-14897698D02*
X9991610Y-14888174D01*
X9991610Y-14888174D02*
X10010658Y-14878650D01*
X10010658Y-14878650D02*
X10039229Y-14878650D01*
X10039229Y-14878650D02*
X10058277Y-14888174D01*
X10058277Y-14888174D02*
X10067801Y-14907222D01*
X10067801Y-14907222D02*
X10067801Y-15011984D01*
X10067801Y-14907222D02*
X10077325Y-14888174D01*
X10077325Y-14888174D02*
X10096372Y-14878650D01*
X10096372Y-14878650D02*
X10124944Y-14878650D01*
X10124944Y-14878650D02*
X10143991Y-14888174D01*
X10143991Y-14888174D02*
X10153515Y-14907222D01*
X10153515Y-14907222D02*
X10153515Y-15011984D01*
X10543991Y-14802460D02*
X10372563Y-15059603D01*
X10801134Y-14811984D02*
X10820182Y-14811984D01*
X10820182Y-14811984D02*
X10839229Y-14821508D01*
X10839229Y-14821508D02*
X10848753Y-14831031D01*
X10848753Y-14831031D02*
X10858277Y-14850079D01*
X10858277Y-14850079D02*
X10867801Y-14888174D01*
X10867801Y-14888174D02*
X10867801Y-14935793D01*
X10867801Y-14935793D02*
X10858277Y-14973888D01*
X10858277Y-14973888D02*
X10848753Y-14992936D01*
X10848753Y-14992936D02*
X10839229Y-15002460D01*
X10839229Y-15002460D02*
X10820182Y-15011984D01*
X10820182Y-15011984D02*
X10801134Y-15011984D01*
X10801134Y-15011984D02*
X10782087Y-15002460D01*
X10782087Y-15002460D02*
X10772563Y-14992936D01*
X10772563Y-14992936D02*
X10763039Y-14973888D01*
X10763039Y-14973888D02*
X10753515Y-14935793D01*
X10753515Y-14935793D02*
X10753515Y-14888174D01*
X10753515Y-14888174D02*
X10763039Y-14850079D01*
X10763039Y-14850079D02*
X10772563Y-14831031D01*
X10772563Y-14831031D02*
X10782087Y-14821508D01*
X10782087Y-14821508D02*
X10801134Y-14811984D01*
X10953515Y-14992936D02*
X10963039Y-15002460D01*
X10963039Y-15002460D02*
X10953515Y-15011984D01*
X10953515Y-15011984D02*
X10943991Y-15002460D01*
X10943991Y-15002460D02*
X10953515Y-14992936D01*
X10953515Y-14992936D02*
X10953515Y-15011984D01*
X11086848Y-14811984D02*
X11105896Y-14811984D01*
X11105896Y-14811984D02*
X11124944Y-14821508D01*
X11124944Y-14821508D02*
X11134468Y-14831031D01*
X11134468Y-14831031D02*
X11143991Y-14850079D01*
X11143991Y-14850079D02*
X11153515Y-14888174D01*
X11153515Y-14888174D02*
X11153515Y-14935793D01*
X11153515Y-14935793D02*
X11143991Y-14973888D01*
X11143991Y-14973888D02*
X11134468Y-14992936D01*
X11134468Y-14992936D02*
X11124944Y-15002460D01*
X11124944Y-15002460D02*
X11105896Y-15011984D01*
X11105896Y-15011984D02*
X11086848Y-15011984D01*
X11086848Y-15011984D02*
X11067801Y-15002460D01*
X11067801Y-15002460D02*
X11058277Y-14992936D01*
X11058277Y-14992936D02*
X11048753Y-14973888D01*
X11048753Y-14973888D02*
X11039229Y-14935793D01*
X11039229Y-14935793D02*
X11039229Y-14888174D01*
X11039229Y-14888174D02*
X11048753Y-14850079D01*
X11048753Y-14850079D02*
X11058277Y-14831031D01*
X11058277Y-14831031D02*
X11067801Y-14821508D01*
X11067801Y-14821508D02*
X11086848Y-14811984D01*
X11343991Y-15011984D02*
X11229706Y-15011984D01*
X11286848Y-15011984D02*
X11286848Y-14811984D01*
X11286848Y-14811984D02*
X11267801Y-14840555D01*
X11267801Y-14840555D02*
X11248753Y-14859603D01*
X11248753Y-14859603D02*
X11229706Y-14869127D01*
X11439229Y-15011984D02*
X11477325Y-15011984D01*
X11477325Y-15011984D02*
X11496372Y-15002460D01*
X11496372Y-15002460D02*
X11505896Y-14992936D01*
X11505896Y-14992936D02*
X11524944Y-14964365D01*
X11524944Y-14964365D02*
X11534467Y-14926269D01*
X11534467Y-14926269D02*
X11534467Y-14850079D01*
X11534467Y-14850079D02*
X11524944Y-14831031D01*
X11524944Y-14831031D02*
X11515420Y-14821508D01*
X11515420Y-14821508D02*
X11496372Y-14811984D01*
X11496372Y-14811984D02*
X11458277Y-14811984D01*
X11458277Y-14811984D02*
X11439229Y-14821508D01*
X11439229Y-14821508D02*
X11429706Y-14831031D01*
X11429706Y-14831031D02*
X11420182Y-14850079D01*
X11420182Y-14850079D02*
X11420182Y-14897698D01*
X11420182Y-14897698D02*
X11429706Y-14916746D01*
X11429706Y-14916746D02*
X11439229Y-14926269D01*
X11439229Y-14926269D02*
X11458277Y-14935793D01*
X11458277Y-14935793D02*
X11496372Y-14935793D01*
X11496372Y-14935793D02*
X11515420Y-14926269D01*
X11515420Y-14926269D02*
X11524944Y-14916746D01*
X11524944Y-14916746D02*
X11534467Y-14897698D01*
X11601134Y-14811984D02*
X11734467Y-14811984D01*
X11734467Y-14811984D02*
X11648753Y-15011984D01*
X11801134Y-14811984D02*
X11801134Y-14850079D01*
X11877325Y-14811984D02*
X11877325Y-14850079D01*
X12172563Y-15088174D02*
X12163039Y-15078650D01*
X12163039Y-15078650D02*
X12143991Y-15050079D01*
X12143991Y-15050079D02*
X12134468Y-15031031D01*
X12134468Y-15031031D02*
X12124944Y-15002460D01*
X12124944Y-15002460D02*
X12115420Y-14954841D01*
X12115420Y-14954841D02*
X12115420Y-14916746D01*
X12115420Y-14916746D02*
X12124944Y-14869127D01*
X12124944Y-14869127D02*
X12134468Y-14840555D01*
X12134468Y-14840555D02*
X12143991Y-14821508D01*
X12143991Y-14821508D02*
X12163039Y-14792936D01*
X12163039Y-14792936D02*
X12172563Y-14783412D01*
X12239229Y-14831031D02*
X12248753Y-14821508D01*
X12248753Y-14821508D02*
X12267801Y-14811984D01*
X12267801Y-14811984D02*
X12315420Y-14811984D01*
X12315420Y-14811984D02*
X12334468Y-14821508D01*
X12334468Y-14821508D02*
X12343991Y-14831031D01*
X12343991Y-14831031D02*
X12353515Y-14850079D01*
X12353515Y-14850079D02*
X12353515Y-14869127D01*
X12353515Y-14869127D02*
X12343991Y-14897698D01*
X12343991Y-14897698D02*
X12229706Y-15011984D01*
X12229706Y-15011984D02*
X12353515Y-15011984D01*
X12591610Y-15011984D02*
X12591610Y-14811984D01*
X12677325Y-15011984D02*
X12677325Y-14907222D01*
X12677325Y-14907222D02*
X12667801Y-14888174D01*
X12667801Y-14888174D02*
X12648753Y-14878650D01*
X12648753Y-14878650D02*
X12620182Y-14878650D01*
X12620182Y-14878650D02*
X12601134Y-14888174D01*
X12601134Y-14888174D02*
X12591610Y-14897698D01*
X12801134Y-15011984D02*
X12782087Y-15002460D01*
X12782087Y-15002460D02*
X12772563Y-14992936D01*
X12772563Y-14992936D02*
X12763039Y-14973888D01*
X12763039Y-14973888D02*
X12763039Y-14916746D01*
X12763039Y-14916746D02*
X12772563Y-14897698D01*
X12772563Y-14897698D02*
X12782087Y-14888174D01*
X12782087Y-14888174D02*
X12801134Y-14878650D01*
X12801134Y-14878650D02*
X12829706Y-14878650D01*
X12829706Y-14878650D02*
X12848753Y-14888174D01*
X12848753Y-14888174D02*
X12858277Y-14897698D01*
X12858277Y-14897698D02*
X12867801Y-14916746D01*
X12867801Y-14916746D02*
X12867801Y-14973888D01*
X12867801Y-14973888D02*
X12858277Y-14992936D01*
X12858277Y-14992936D02*
X12848753Y-15002460D01*
X12848753Y-15002460D02*
X12829706Y-15011984D01*
X12829706Y-15011984D02*
X12801134Y-15011984D01*
X12982087Y-15011984D02*
X12963039Y-15002460D01*
X12963039Y-15002460D02*
X12953515Y-14983412D01*
X12953515Y-14983412D02*
X12953515Y-14811984D01*
X13134468Y-15002460D02*
X13115420Y-15011984D01*
X13115420Y-15011984D02*
X13077325Y-15011984D01*
X13077325Y-15011984D02*
X13058277Y-15002460D01*
X13058277Y-15002460D02*
X13048753Y-14983412D01*
X13048753Y-14983412D02*
X13048753Y-14907222D01*
X13048753Y-14907222D02*
X13058277Y-14888174D01*
X13058277Y-14888174D02*
X13077325Y-14878650D01*
X13077325Y-14878650D02*
X13115420Y-14878650D01*
X13115420Y-14878650D02*
X13134468Y-14888174D01*
X13134468Y-14888174D02*
X13143991Y-14907222D01*
X13143991Y-14907222D02*
X13143991Y-14926269D01*
X13143991Y-14926269D02*
X13048753Y-14945317D01*
X13220182Y-15002460D02*
X13239230Y-15011984D01*
X13239230Y-15011984D02*
X13277325Y-15011984D01*
X13277325Y-15011984D02*
X13296372Y-15002460D01*
X13296372Y-15002460D02*
X13305896Y-14983412D01*
X13305896Y-14983412D02*
X13305896Y-14973888D01*
X13305896Y-14973888D02*
X13296372Y-14954841D01*
X13296372Y-14954841D02*
X13277325Y-14945317D01*
X13277325Y-14945317D02*
X13248753Y-14945317D01*
X13248753Y-14945317D02*
X13229706Y-14935793D01*
X13229706Y-14935793D02*
X13220182Y-14916746D01*
X13220182Y-14916746D02*
X13220182Y-14907222D01*
X13220182Y-14907222D02*
X13229706Y-14888174D01*
X13229706Y-14888174D02*
X13248753Y-14878650D01*
X13248753Y-14878650D02*
X13277325Y-14878650D01*
X13277325Y-14878650D02*
X13296372Y-14888174D01*
X13372563Y-15088174D02*
X13382087Y-15078650D01*
X13382087Y-15078650D02*
X13401134Y-15050079D01*
X13401134Y-15050079D02*
X13410658Y-15031031D01*
X13410658Y-15031031D02*
X13420182Y-15002460D01*
X13420182Y-15002460D02*
X13429706Y-14954841D01*
X13429706Y-14954841D02*
X13429706Y-14916746D01*
X13429706Y-14916746D02*
X13420182Y-14869127D01*
X13420182Y-14869127D02*
X13410658Y-14840555D01*
X13410658Y-14840555D02*
X13401134Y-14821508D01*
X13401134Y-14821508D02*
X13382087Y-14792936D01*
X13382087Y-14792936D02*
X13372563Y-14783412D01*
D12*
X8586810Y-15210310D02*
X8586810Y-15158690D01*
X8535190Y-15158690D01*
X8535190Y-15210310D01*
X8586810Y-15210310D01*
D11*
X8896372Y-15075984D02*
X8915420Y-15075984D01*
X8915420Y-15075984D02*
X8934467Y-15085508D01*
X8934467Y-15085508D02*
X8943991Y-15095031D01*
X8943991Y-15095031D02*
X8953515Y-15114079D01*
X8953515Y-15114079D02*
X8963039Y-15152174D01*
X8963039Y-15152174D02*
X8963039Y-15199793D01*
X8963039Y-15199793D02*
X8953515Y-15237888D01*
X8953515Y-15237888D02*
X8943991Y-15256936D01*
X8943991Y-15256936D02*
X8934467Y-15266460D01*
X8934467Y-15266460D02*
X8915420Y-15275984D01*
X8915420Y-15275984D02*
X8896372Y-15275984D01*
X8896372Y-15275984D02*
X8877324Y-15266460D01*
X8877324Y-15266460D02*
X8867801Y-15256936D01*
X8867801Y-15256936D02*
X8858277Y-15237888D01*
X8858277Y-15237888D02*
X8848753Y-15199793D01*
X8848753Y-15199793D02*
X8848753Y-15152174D01*
X8848753Y-15152174D02*
X8858277Y-15114079D01*
X8858277Y-15114079D02*
X8867801Y-15095031D01*
X8867801Y-15095031D02*
X8877324Y-15085508D01*
X8877324Y-15085508D02*
X8896372Y-15075984D01*
X9048753Y-15256936D02*
X9058277Y-15266460D01*
X9058277Y-15266460D02*
X9048753Y-15275984D01*
X9048753Y-15275984D02*
X9039229Y-15266460D01*
X9039229Y-15266460D02*
X9048753Y-15256936D01*
X9048753Y-15256936D02*
X9048753Y-15275984D01*
X9124944Y-15075984D02*
X9258277Y-15075984D01*
X9258277Y-15075984D02*
X9172563Y-15275984D01*
X9315420Y-15075984D02*
X9439229Y-15075984D01*
X9439229Y-15075984D02*
X9372563Y-15152174D01*
X9372563Y-15152174D02*
X9401134Y-15152174D01*
X9401134Y-15152174D02*
X9420182Y-15161698D01*
X9420182Y-15161698D02*
X9429705Y-15171222D01*
X9429705Y-15171222D02*
X9439229Y-15190269D01*
X9439229Y-15190269D02*
X9439229Y-15237888D01*
X9439229Y-15237888D02*
X9429705Y-15256936D01*
X9429705Y-15256936D02*
X9420182Y-15266460D01*
X9420182Y-15266460D02*
X9401134Y-15275984D01*
X9401134Y-15275984D02*
X9343991Y-15275984D01*
X9343991Y-15275984D02*
X9324944Y-15266460D01*
X9324944Y-15266460D02*
X9315420Y-15256936D01*
X9563039Y-15075984D02*
X9582086Y-15075984D01*
X9582086Y-15075984D02*
X9601134Y-15085508D01*
X9601134Y-15085508D02*
X9610658Y-15095031D01*
X9610658Y-15095031D02*
X9620182Y-15114079D01*
X9620182Y-15114079D02*
X9629705Y-15152174D01*
X9629705Y-15152174D02*
X9629705Y-15199793D01*
X9629705Y-15199793D02*
X9620182Y-15237888D01*
X9620182Y-15237888D02*
X9610658Y-15256936D01*
X9610658Y-15256936D02*
X9601134Y-15266460D01*
X9601134Y-15266460D02*
X9582086Y-15275984D01*
X9582086Y-15275984D02*
X9563039Y-15275984D01*
X9563039Y-15275984D02*
X9543991Y-15266460D01*
X9543991Y-15266460D02*
X9534467Y-15256936D01*
X9534467Y-15256936D02*
X9524944Y-15237888D01*
X9524944Y-15237888D02*
X9515420Y-15199793D01*
X9515420Y-15199793D02*
X9515420Y-15152174D01*
X9515420Y-15152174D02*
X9524944Y-15114079D01*
X9524944Y-15114079D02*
X9534467Y-15095031D01*
X9534467Y-15095031D02*
X9543991Y-15085508D01*
X9543991Y-15085508D02*
X9563039Y-15075984D01*
X9715420Y-15275984D02*
X9715420Y-15142650D01*
X9715420Y-15161698D02*
X9724944Y-15152174D01*
X9724944Y-15152174D02*
X9743991Y-15142650D01*
X9743991Y-15142650D02*
X9772563Y-15142650D01*
X9772563Y-15142650D02*
X9791610Y-15152174D01*
X9791610Y-15152174D02*
X9801134Y-15171222D01*
X9801134Y-15171222D02*
X9801134Y-15275984D01*
X9801134Y-15171222D02*
X9810658Y-15152174D01*
X9810658Y-15152174D02*
X9829705Y-15142650D01*
X9829705Y-15142650D02*
X9858277Y-15142650D01*
X9858277Y-15142650D02*
X9877325Y-15152174D01*
X9877325Y-15152174D02*
X9886848Y-15171222D01*
X9886848Y-15171222D02*
X9886848Y-15275984D01*
X9982086Y-15275984D02*
X9982086Y-15142650D01*
X9982086Y-15161698D02*
X9991610Y-15152174D01*
X9991610Y-15152174D02*
X10010658Y-15142650D01*
X10010658Y-15142650D02*
X10039229Y-15142650D01*
X10039229Y-15142650D02*
X10058277Y-15152174D01*
X10058277Y-15152174D02*
X10067801Y-15171222D01*
X10067801Y-15171222D02*
X10067801Y-15275984D01*
X10067801Y-15171222D02*
X10077325Y-15152174D01*
X10077325Y-15152174D02*
X10096372Y-15142650D01*
X10096372Y-15142650D02*
X10124944Y-15142650D01*
X10124944Y-15142650D02*
X10143991Y-15152174D01*
X10143991Y-15152174D02*
X10153515Y-15171222D01*
X10153515Y-15171222D02*
X10153515Y-15275984D01*
X10543991Y-15066460D02*
X10372563Y-15323603D01*
X10801134Y-15075984D02*
X10820182Y-15075984D01*
X10820182Y-15075984D02*
X10839229Y-15085508D01*
X10839229Y-15085508D02*
X10848753Y-15095031D01*
X10848753Y-15095031D02*
X10858277Y-15114079D01*
X10858277Y-15114079D02*
X10867801Y-15152174D01*
X10867801Y-15152174D02*
X10867801Y-15199793D01*
X10867801Y-15199793D02*
X10858277Y-15237888D01*
X10858277Y-15237888D02*
X10848753Y-15256936D01*
X10848753Y-15256936D02*
X10839229Y-15266460D01*
X10839229Y-15266460D02*
X10820182Y-15275984D01*
X10820182Y-15275984D02*
X10801134Y-15275984D01*
X10801134Y-15275984D02*
X10782087Y-15266460D01*
X10782087Y-15266460D02*
X10772563Y-15256936D01*
X10772563Y-15256936D02*
X10763039Y-15237888D01*
X10763039Y-15237888D02*
X10753515Y-15199793D01*
X10753515Y-15199793D02*
X10753515Y-15152174D01*
X10753515Y-15152174D02*
X10763039Y-15114079D01*
X10763039Y-15114079D02*
X10772563Y-15095031D01*
X10772563Y-15095031D02*
X10782087Y-15085508D01*
X10782087Y-15085508D02*
X10801134Y-15075984D01*
X10953515Y-15256936D02*
X10963039Y-15266460D01*
X10963039Y-15266460D02*
X10953515Y-15275984D01*
X10953515Y-15275984D02*
X10943991Y-15266460D01*
X10943991Y-15266460D02*
X10953515Y-15256936D01*
X10953515Y-15256936D02*
X10953515Y-15275984D01*
X11086848Y-15075984D02*
X11105896Y-15075984D01*
X11105896Y-15075984D02*
X11124944Y-15085508D01*
X11124944Y-15085508D02*
X11134468Y-15095031D01*
X11134468Y-15095031D02*
X11143991Y-15114079D01*
X11143991Y-15114079D02*
X11153515Y-15152174D01*
X11153515Y-15152174D02*
X11153515Y-15199793D01*
X11153515Y-15199793D02*
X11143991Y-15237888D01*
X11143991Y-15237888D02*
X11134468Y-15256936D01*
X11134468Y-15256936D02*
X11124944Y-15266460D01*
X11124944Y-15266460D02*
X11105896Y-15275984D01*
X11105896Y-15275984D02*
X11086848Y-15275984D01*
X11086848Y-15275984D02*
X11067801Y-15266460D01*
X11067801Y-15266460D02*
X11058277Y-15256936D01*
X11058277Y-15256936D02*
X11048753Y-15237888D01*
X11048753Y-15237888D02*
X11039229Y-15199793D01*
X11039229Y-15199793D02*
X11039229Y-15152174D01*
X11039229Y-15152174D02*
X11048753Y-15114079D01*
X11048753Y-15114079D02*
X11058277Y-15095031D01*
X11058277Y-15095031D02*
X11067801Y-15085508D01*
X11067801Y-15085508D02*
X11086848Y-15075984D01*
X11229706Y-15095031D02*
X11239229Y-15085508D01*
X11239229Y-15085508D02*
X11258277Y-15075984D01*
X11258277Y-15075984D02*
X11305896Y-15075984D01*
X11305896Y-15075984D02*
X11324944Y-15085508D01*
X11324944Y-15085508D02*
X11334467Y-15095031D01*
X11334467Y-15095031D02*
X11343991Y-15114079D01*
X11343991Y-15114079D02*
X11343991Y-15133127D01*
X11343991Y-15133127D02*
X11334467Y-15161698D01*
X11334467Y-15161698D02*
X11220182Y-15275984D01*
X11220182Y-15275984D02*
X11343991Y-15275984D01*
X11458277Y-15161698D02*
X11439229Y-15152174D01*
X11439229Y-15152174D02*
X11429706Y-15142650D01*
X11429706Y-15142650D02*
X11420182Y-15123603D01*
X11420182Y-15123603D02*
X11420182Y-15114079D01*
X11420182Y-15114079D02*
X11429706Y-15095031D01*
X11429706Y-15095031D02*
X11439229Y-15085508D01*
X11439229Y-15085508D02*
X11458277Y-15075984D01*
X11458277Y-15075984D02*
X11496372Y-15075984D01*
X11496372Y-15075984D02*
X11515420Y-15085508D01*
X11515420Y-15085508D02*
X11524944Y-15095031D01*
X11524944Y-15095031D02*
X11534467Y-15114079D01*
X11534467Y-15114079D02*
X11534467Y-15123603D01*
X11534467Y-15123603D02*
X11524944Y-15142650D01*
X11524944Y-15142650D02*
X11515420Y-15152174D01*
X11515420Y-15152174D02*
X11496372Y-15161698D01*
X11496372Y-15161698D02*
X11458277Y-15161698D01*
X11458277Y-15161698D02*
X11439229Y-15171222D01*
X11439229Y-15171222D02*
X11429706Y-15180746D01*
X11429706Y-15180746D02*
X11420182Y-15199793D01*
X11420182Y-15199793D02*
X11420182Y-15237888D01*
X11420182Y-15237888D02*
X11429706Y-15256936D01*
X11429706Y-15256936D02*
X11439229Y-15266460D01*
X11439229Y-15266460D02*
X11458277Y-15275984D01*
X11458277Y-15275984D02*
X11496372Y-15275984D01*
X11496372Y-15275984D02*
X11515420Y-15266460D01*
X11515420Y-15266460D02*
X11524944Y-15256936D01*
X11524944Y-15256936D02*
X11534467Y-15237888D01*
X11534467Y-15237888D02*
X11534467Y-15199793D01*
X11534467Y-15199793D02*
X11524944Y-15180746D01*
X11524944Y-15180746D02*
X11515420Y-15171222D01*
X11515420Y-15171222D02*
X11496372Y-15161698D01*
X11601134Y-15075984D02*
X11734467Y-15075984D01*
X11734467Y-15075984D02*
X11648753Y-15275984D01*
X11801134Y-15075984D02*
X11801134Y-15114079D01*
X11877325Y-15075984D02*
X11877325Y-15114079D01*
X12172563Y-15352174D02*
X12163039Y-15342650D01*
X12163039Y-15342650D02*
X12143991Y-15314079D01*
X12143991Y-15314079D02*
X12134468Y-15295031D01*
X12134468Y-15295031D02*
X12124944Y-15266460D01*
X12124944Y-15266460D02*
X12115420Y-15218841D01*
X12115420Y-15218841D02*
X12115420Y-15180746D01*
X12115420Y-15180746D02*
X12124944Y-15133127D01*
X12124944Y-15133127D02*
X12134468Y-15104555D01*
X12134468Y-15104555D02*
X12143991Y-15085508D01*
X12143991Y-15085508D02*
X12163039Y-15056936D01*
X12163039Y-15056936D02*
X12172563Y-15047412D01*
X12334468Y-15075984D02*
X12296372Y-15075984D01*
X12296372Y-15075984D02*
X12277325Y-15085508D01*
X12277325Y-15085508D02*
X12267801Y-15095031D01*
X12267801Y-15095031D02*
X12248753Y-15123603D01*
X12248753Y-15123603D02*
X12239229Y-15161698D01*
X12239229Y-15161698D02*
X12239229Y-15237888D01*
X12239229Y-15237888D02*
X12248753Y-15256936D01*
X12248753Y-15256936D02*
X12258277Y-15266460D01*
X12258277Y-15266460D02*
X12277325Y-15275984D01*
X12277325Y-15275984D02*
X12315420Y-15275984D01*
X12315420Y-15275984D02*
X12334468Y-15266460D01*
X12334468Y-15266460D02*
X12343991Y-15256936D01*
X12343991Y-15256936D02*
X12353515Y-15237888D01*
X12353515Y-15237888D02*
X12353515Y-15190269D01*
X12353515Y-15190269D02*
X12343991Y-15171222D01*
X12343991Y-15171222D02*
X12334468Y-15161698D01*
X12334468Y-15161698D02*
X12315420Y-15152174D01*
X12315420Y-15152174D02*
X12277325Y-15152174D01*
X12277325Y-15152174D02*
X12258277Y-15161698D01*
X12258277Y-15161698D02*
X12248753Y-15171222D01*
X12248753Y-15171222D02*
X12239229Y-15190269D01*
X12591610Y-15275984D02*
X12591610Y-15075984D01*
X12677325Y-15275984D02*
X12677325Y-15171222D01*
X12677325Y-15171222D02*
X12667801Y-15152174D01*
X12667801Y-15152174D02*
X12648753Y-15142650D01*
X12648753Y-15142650D02*
X12620182Y-15142650D01*
X12620182Y-15142650D02*
X12601134Y-15152174D01*
X12601134Y-15152174D02*
X12591610Y-15161698D01*
X12801134Y-15275984D02*
X12782087Y-15266460D01*
X12782087Y-15266460D02*
X12772563Y-15256936D01*
X12772563Y-15256936D02*
X12763039Y-15237888D01*
X12763039Y-15237888D02*
X12763039Y-15180746D01*
X12763039Y-15180746D02*
X12772563Y-15161698D01*
X12772563Y-15161698D02*
X12782087Y-15152174D01*
X12782087Y-15152174D02*
X12801134Y-15142650D01*
X12801134Y-15142650D02*
X12829706Y-15142650D01*
X12829706Y-15142650D02*
X12848753Y-15152174D01*
X12848753Y-15152174D02*
X12858277Y-15161698D01*
X12858277Y-15161698D02*
X12867801Y-15180746D01*
X12867801Y-15180746D02*
X12867801Y-15237888D01*
X12867801Y-15237888D02*
X12858277Y-15256936D01*
X12858277Y-15256936D02*
X12848753Y-15266460D01*
X12848753Y-15266460D02*
X12829706Y-15275984D01*
X12829706Y-15275984D02*
X12801134Y-15275984D01*
X12982087Y-15275984D02*
X12963039Y-15266460D01*
X12963039Y-15266460D02*
X12953515Y-15247412D01*
X12953515Y-15247412D02*
X12953515Y-15075984D01*
X13134468Y-15266460D02*
X13115420Y-15275984D01*
X13115420Y-15275984D02*
X13077325Y-15275984D01*
X13077325Y-15275984D02*
X13058277Y-15266460D01*
X13058277Y-15266460D02*
X13048753Y-15247412D01*
X13048753Y-15247412D02*
X13048753Y-15171222D01*
X13048753Y-15171222D02*
X13058277Y-15152174D01*
X13058277Y-15152174D02*
X13077325Y-15142650D01*
X13077325Y-15142650D02*
X13115420Y-15142650D01*
X13115420Y-15142650D02*
X13134468Y-15152174D01*
X13134468Y-15152174D02*
X13143991Y-15171222D01*
X13143991Y-15171222D02*
X13143991Y-15190269D01*
X13143991Y-15190269D02*
X13048753Y-15209317D01*
X13220182Y-15266460D02*
X13239230Y-15275984D01*
X13239230Y-15275984D02*
X13277325Y-15275984D01*
X13277325Y-15275984D02*
X13296372Y-15266460D01*
X13296372Y-15266460D02*
X13305896Y-15247412D01*
X13305896Y-15247412D02*
X13305896Y-15237888D01*
X13305896Y-15237888D02*
X13296372Y-15218841D01*
X13296372Y-15218841D02*
X13277325Y-15209317D01*
X13277325Y-15209317D02*
X13248753Y-15209317D01*
X13248753Y-15209317D02*
X13229706Y-15199793D01*
X13229706Y-15199793D02*
X13220182Y-15180746D01*
X13220182Y-15180746D02*
X13220182Y-15171222D01*
X13220182Y-15171222D02*
X13229706Y-15152174D01*
X13229706Y-15152174D02*
X13248753Y-15142650D01*
X13248753Y-15142650D02*
X13277325Y-15142650D01*
X13277325Y-15142650D02*
X13296372Y-15152174D01*
X13372563Y-15352174D02*
X13382087Y-15342650D01*
X13382087Y-15342650D02*
X13401134Y-15314079D01*
X13401134Y-15314079D02*
X13410658Y-15295031D01*
X13410658Y-15295031D02*
X13420182Y-15266460D01*
X13420182Y-15266460D02*
X13429706Y-15218841D01*
X13429706Y-15218841D02*
X13429706Y-15180746D01*
X13429706Y-15180746D02*
X13420182Y-15133127D01*
X13420182Y-15133127D02*
X13410658Y-15104555D01*
X13410658Y-15104555D02*
X13401134Y-15085508D01*
X13401134Y-15085508D02*
X13382087Y-15056936D01*
X13382087Y-15056936D02*
X13372563Y-15047412D01*
D12*
X8559400Y-15486600D02*
X8597500Y-15448500D01*
X8559400Y-15410400D01*
X8521300Y-15448500D01*
X8559400Y-15486600D01*
D11*
X8896372Y-15339984D02*
X8915420Y-15339984D01*
X8915420Y-15339984D02*
X8934467Y-15349508D01*
X8934467Y-15349508D02*
X8943991Y-15359031D01*
X8943991Y-15359031D02*
X8953515Y-15378079D01*
X8953515Y-15378079D02*
X8963039Y-15416174D01*
X8963039Y-15416174D02*
X8963039Y-15463793D01*
X8963039Y-15463793D02*
X8953515Y-15501888D01*
X8953515Y-15501888D02*
X8943991Y-15520936D01*
X8943991Y-15520936D02*
X8934467Y-15530460D01*
X8934467Y-15530460D02*
X8915420Y-15539984D01*
X8915420Y-15539984D02*
X8896372Y-15539984D01*
X8896372Y-15539984D02*
X8877324Y-15530460D01*
X8877324Y-15530460D02*
X8867801Y-15520936D01*
X8867801Y-15520936D02*
X8858277Y-15501888D01*
X8858277Y-15501888D02*
X8848753Y-15463793D01*
X8848753Y-15463793D02*
X8848753Y-15416174D01*
X8848753Y-15416174D02*
X8858277Y-15378079D01*
X8858277Y-15378079D02*
X8867801Y-15359031D01*
X8867801Y-15359031D02*
X8877324Y-15349508D01*
X8877324Y-15349508D02*
X8896372Y-15339984D01*
X9048753Y-15520936D02*
X9058277Y-15530460D01*
X9058277Y-15530460D02*
X9048753Y-15539984D01*
X9048753Y-15539984D02*
X9039229Y-15530460D01*
X9039229Y-15530460D02*
X9048753Y-15520936D01*
X9048753Y-15520936D02*
X9048753Y-15539984D01*
X9124944Y-15339984D02*
X9258277Y-15339984D01*
X9258277Y-15339984D02*
X9172563Y-15539984D01*
X9420182Y-15339984D02*
X9382086Y-15339984D01*
X9382086Y-15339984D02*
X9363039Y-15349508D01*
X9363039Y-15349508D02*
X9353515Y-15359031D01*
X9353515Y-15359031D02*
X9334467Y-15387603D01*
X9334467Y-15387603D02*
X9324944Y-15425698D01*
X9324944Y-15425698D02*
X9324944Y-15501888D01*
X9324944Y-15501888D02*
X9334467Y-15520936D01*
X9334467Y-15520936D02*
X9343991Y-15530460D01*
X9343991Y-15530460D02*
X9363039Y-15539984D01*
X9363039Y-15539984D02*
X9401134Y-15539984D01*
X9401134Y-15539984D02*
X9420182Y-15530460D01*
X9420182Y-15530460D02*
X9429705Y-15520936D01*
X9429705Y-15520936D02*
X9439229Y-15501888D01*
X9439229Y-15501888D02*
X9439229Y-15454269D01*
X9439229Y-15454269D02*
X9429705Y-15435222D01*
X9429705Y-15435222D02*
X9420182Y-15425698D01*
X9420182Y-15425698D02*
X9401134Y-15416174D01*
X9401134Y-15416174D02*
X9363039Y-15416174D01*
X9363039Y-15416174D02*
X9343991Y-15425698D01*
X9343991Y-15425698D02*
X9334467Y-15435222D01*
X9334467Y-15435222D02*
X9324944Y-15454269D01*
X9515420Y-15359031D02*
X9524944Y-15349508D01*
X9524944Y-15349508D02*
X9543991Y-15339984D01*
X9543991Y-15339984D02*
X9591610Y-15339984D01*
X9591610Y-15339984D02*
X9610658Y-15349508D01*
X9610658Y-15349508D02*
X9620182Y-15359031D01*
X9620182Y-15359031D02*
X9629705Y-15378079D01*
X9629705Y-15378079D02*
X9629705Y-15397127D01*
X9629705Y-15397127D02*
X9620182Y-15425698D01*
X9620182Y-15425698D02*
X9505896Y-15539984D01*
X9505896Y-15539984D02*
X9629705Y-15539984D01*
X9715420Y-15539984D02*
X9715420Y-15406650D01*
X9715420Y-15425698D02*
X9724944Y-15416174D01*
X9724944Y-15416174D02*
X9743991Y-15406650D01*
X9743991Y-15406650D02*
X9772563Y-15406650D01*
X9772563Y-15406650D02*
X9791610Y-15416174D01*
X9791610Y-15416174D02*
X9801134Y-15435222D01*
X9801134Y-15435222D02*
X9801134Y-15539984D01*
X9801134Y-15435222D02*
X9810658Y-15416174D01*
X9810658Y-15416174D02*
X9829705Y-15406650D01*
X9829705Y-15406650D02*
X9858277Y-15406650D01*
X9858277Y-15406650D02*
X9877325Y-15416174D01*
X9877325Y-15416174D02*
X9886848Y-15435222D01*
X9886848Y-15435222D02*
X9886848Y-15539984D01*
X9982086Y-15539984D02*
X9982086Y-15406650D01*
X9982086Y-15425698D02*
X9991610Y-15416174D01*
X9991610Y-15416174D02*
X10010658Y-15406650D01*
X10010658Y-15406650D02*
X10039229Y-15406650D01*
X10039229Y-15406650D02*
X10058277Y-15416174D01*
X10058277Y-15416174D02*
X10067801Y-15435222D01*
X10067801Y-15435222D02*
X10067801Y-15539984D01*
X10067801Y-15435222D02*
X10077325Y-15416174D01*
X10077325Y-15416174D02*
X10096372Y-15406650D01*
X10096372Y-15406650D02*
X10124944Y-15406650D01*
X10124944Y-15406650D02*
X10143991Y-15416174D01*
X10143991Y-15416174D02*
X10153515Y-15435222D01*
X10153515Y-15435222D02*
X10153515Y-15539984D01*
X10543991Y-15330460D02*
X10372563Y-15587603D01*
X10801134Y-15339984D02*
X10820182Y-15339984D01*
X10820182Y-15339984D02*
X10839229Y-15349508D01*
X10839229Y-15349508D02*
X10848753Y-15359031D01*
X10848753Y-15359031D02*
X10858277Y-15378079D01*
X10858277Y-15378079D02*
X10867801Y-15416174D01*
X10867801Y-15416174D02*
X10867801Y-15463793D01*
X10867801Y-15463793D02*
X10858277Y-15501888D01*
X10858277Y-15501888D02*
X10848753Y-15520936D01*
X10848753Y-15520936D02*
X10839229Y-15530460D01*
X10839229Y-15530460D02*
X10820182Y-15539984D01*
X10820182Y-15539984D02*
X10801134Y-15539984D01*
X10801134Y-15539984D02*
X10782087Y-15530460D01*
X10782087Y-15530460D02*
X10772563Y-15520936D01*
X10772563Y-15520936D02*
X10763039Y-15501888D01*
X10763039Y-15501888D02*
X10753515Y-15463793D01*
X10753515Y-15463793D02*
X10753515Y-15416174D01*
X10753515Y-15416174D02*
X10763039Y-15378079D01*
X10763039Y-15378079D02*
X10772563Y-15359031D01*
X10772563Y-15359031D02*
X10782087Y-15349508D01*
X10782087Y-15349508D02*
X10801134Y-15339984D01*
X10953515Y-15520936D02*
X10963039Y-15530460D01*
X10963039Y-15530460D02*
X10953515Y-15539984D01*
X10953515Y-15539984D02*
X10943991Y-15530460D01*
X10943991Y-15530460D02*
X10953515Y-15520936D01*
X10953515Y-15520936D02*
X10953515Y-15539984D01*
X11086848Y-15339984D02*
X11105896Y-15339984D01*
X11105896Y-15339984D02*
X11124944Y-15349508D01*
X11124944Y-15349508D02*
X11134468Y-15359031D01*
X11134468Y-15359031D02*
X11143991Y-15378079D01*
X11143991Y-15378079D02*
X11153515Y-15416174D01*
X11153515Y-15416174D02*
X11153515Y-15463793D01*
X11153515Y-15463793D02*
X11143991Y-15501888D01*
X11143991Y-15501888D02*
X11134468Y-15520936D01*
X11134468Y-15520936D02*
X11124944Y-15530460D01*
X11124944Y-15530460D02*
X11105896Y-15539984D01*
X11105896Y-15539984D02*
X11086848Y-15539984D01*
X11086848Y-15539984D02*
X11067801Y-15530460D01*
X11067801Y-15530460D02*
X11058277Y-15520936D01*
X11058277Y-15520936D02*
X11048753Y-15501888D01*
X11048753Y-15501888D02*
X11039229Y-15463793D01*
X11039229Y-15463793D02*
X11039229Y-15416174D01*
X11039229Y-15416174D02*
X11048753Y-15378079D01*
X11048753Y-15378079D02*
X11058277Y-15359031D01*
X11058277Y-15359031D02*
X11067801Y-15349508D01*
X11067801Y-15349508D02*
X11086848Y-15339984D01*
X11220182Y-15339984D02*
X11343991Y-15339984D01*
X11343991Y-15339984D02*
X11277325Y-15416174D01*
X11277325Y-15416174D02*
X11305896Y-15416174D01*
X11305896Y-15416174D02*
X11324944Y-15425698D01*
X11324944Y-15425698D02*
X11334467Y-15435222D01*
X11334467Y-15435222D02*
X11343991Y-15454269D01*
X11343991Y-15454269D02*
X11343991Y-15501888D01*
X11343991Y-15501888D02*
X11334467Y-15520936D01*
X11334467Y-15520936D02*
X11324944Y-15530460D01*
X11324944Y-15530460D02*
X11305896Y-15539984D01*
X11305896Y-15539984D02*
X11248753Y-15539984D01*
X11248753Y-15539984D02*
X11229706Y-15530460D01*
X11229706Y-15530460D02*
X11220182Y-15520936D01*
X11467801Y-15339984D02*
X11486848Y-15339984D01*
X11486848Y-15339984D02*
X11505896Y-15349508D01*
X11505896Y-15349508D02*
X11515420Y-15359031D01*
X11515420Y-15359031D02*
X11524944Y-15378079D01*
X11524944Y-15378079D02*
X11534467Y-15416174D01*
X11534467Y-15416174D02*
X11534467Y-15463793D01*
X11534467Y-15463793D02*
X11524944Y-15501888D01*
X11524944Y-15501888D02*
X11515420Y-15520936D01*
X11515420Y-15520936D02*
X11505896Y-15530460D01*
X11505896Y-15530460D02*
X11486848Y-15539984D01*
X11486848Y-15539984D02*
X11467801Y-15539984D01*
X11467801Y-15539984D02*
X11448753Y-15530460D01*
X11448753Y-15530460D02*
X11439229Y-15520936D01*
X11439229Y-15520936D02*
X11429706Y-15501888D01*
X11429706Y-15501888D02*
X11420182Y-15463793D01*
X11420182Y-15463793D02*
X11420182Y-15416174D01*
X11420182Y-15416174D02*
X11429706Y-15378079D01*
X11429706Y-15378079D02*
X11439229Y-15359031D01*
X11439229Y-15359031D02*
X11448753Y-15349508D01*
X11448753Y-15349508D02*
X11467801Y-15339984D01*
X11658277Y-15339984D02*
X11677325Y-15339984D01*
X11677325Y-15339984D02*
X11696372Y-15349508D01*
X11696372Y-15349508D02*
X11705896Y-15359031D01*
X11705896Y-15359031D02*
X11715420Y-15378079D01*
X11715420Y-15378079D02*
X11724944Y-15416174D01*
X11724944Y-15416174D02*
X11724944Y-15463793D01*
X11724944Y-15463793D02*
X11715420Y-15501888D01*
X11715420Y-15501888D02*
X11705896Y-15520936D01*
X11705896Y-15520936D02*
X11696372Y-15530460D01*
X11696372Y-15530460D02*
X11677325Y-15539984D01*
X11677325Y-15539984D02*
X11658277Y-15539984D01*
X11658277Y-15539984D02*
X11639229Y-15530460D01*
X11639229Y-15530460D02*
X11629706Y-15520936D01*
X11629706Y-15520936D02*
X11620182Y-15501888D01*
X11620182Y-15501888D02*
X11610658Y-15463793D01*
X11610658Y-15463793D02*
X11610658Y-15416174D01*
X11610658Y-15416174D02*
X11620182Y-15378079D01*
X11620182Y-15378079D02*
X11629706Y-15359031D01*
X11629706Y-15359031D02*
X11639229Y-15349508D01*
X11639229Y-15349508D02*
X11658277Y-15339984D01*
X11801134Y-15339984D02*
X11801134Y-15378079D01*
X11877325Y-15339984D02*
X11877325Y-15378079D01*
X12172563Y-15616174D02*
X12163039Y-15606650D01*
X12163039Y-15606650D02*
X12143991Y-15578079D01*
X12143991Y-15578079D02*
X12134468Y-15559031D01*
X12134468Y-15559031D02*
X12124944Y-15530460D01*
X12124944Y-15530460D02*
X12115420Y-15482841D01*
X12115420Y-15482841D02*
X12115420Y-15444746D01*
X12115420Y-15444746D02*
X12124944Y-15397127D01*
X12124944Y-15397127D02*
X12134468Y-15368555D01*
X12134468Y-15368555D02*
X12143991Y-15349508D01*
X12143991Y-15349508D02*
X12163039Y-15320936D01*
X12163039Y-15320936D02*
X12172563Y-15311412D01*
X12353515Y-15539984D02*
X12239229Y-15539984D01*
X12296372Y-15539984D02*
X12296372Y-15339984D01*
X12296372Y-15339984D02*
X12277325Y-15368555D01*
X12277325Y-15368555D02*
X12258277Y-15387603D01*
X12258277Y-15387603D02*
X12239229Y-15397127D01*
X12524944Y-15339984D02*
X12486848Y-15339984D01*
X12486848Y-15339984D02*
X12467801Y-15349508D01*
X12467801Y-15349508D02*
X12458277Y-15359031D01*
X12458277Y-15359031D02*
X12439229Y-15387603D01*
X12439229Y-15387603D02*
X12429706Y-15425698D01*
X12429706Y-15425698D02*
X12429706Y-15501888D01*
X12429706Y-15501888D02*
X12439229Y-15520936D01*
X12439229Y-15520936D02*
X12448753Y-15530460D01*
X12448753Y-15530460D02*
X12467801Y-15539984D01*
X12467801Y-15539984D02*
X12505896Y-15539984D01*
X12505896Y-15539984D02*
X12524944Y-15530460D01*
X12524944Y-15530460D02*
X12534468Y-15520936D01*
X12534468Y-15520936D02*
X12543991Y-15501888D01*
X12543991Y-15501888D02*
X12543991Y-15454269D01*
X12543991Y-15454269D02*
X12534468Y-15435222D01*
X12534468Y-15435222D02*
X12524944Y-15425698D01*
X12524944Y-15425698D02*
X12505896Y-15416174D01*
X12505896Y-15416174D02*
X12467801Y-15416174D01*
X12467801Y-15416174D02*
X12448753Y-15425698D01*
X12448753Y-15425698D02*
X12439229Y-15435222D01*
X12439229Y-15435222D02*
X12429706Y-15454269D01*
X12782087Y-15539984D02*
X12782087Y-15339984D01*
X12867801Y-15539984D02*
X12867801Y-15435222D01*
X12867801Y-15435222D02*
X12858277Y-15416174D01*
X12858277Y-15416174D02*
X12839230Y-15406650D01*
X12839230Y-15406650D02*
X12810658Y-15406650D01*
X12810658Y-15406650D02*
X12791610Y-15416174D01*
X12791610Y-15416174D02*
X12782087Y-15425698D01*
X12991610Y-15539984D02*
X12972563Y-15530460D01*
X12972563Y-15530460D02*
X12963039Y-15520936D01*
X12963039Y-15520936D02*
X12953515Y-15501888D01*
X12953515Y-15501888D02*
X12953515Y-15444746D01*
X12953515Y-15444746D02*
X12963039Y-15425698D01*
X12963039Y-15425698D02*
X12972563Y-15416174D01*
X12972563Y-15416174D02*
X12991610Y-15406650D01*
X12991610Y-15406650D02*
X13020182Y-15406650D01*
X13020182Y-15406650D02*
X13039230Y-15416174D01*
X13039230Y-15416174D02*
X13048753Y-15425698D01*
X13048753Y-15425698D02*
X13058277Y-15444746D01*
X13058277Y-15444746D02*
X13058277Y-15501888D01*
X13058277Y-15501888D02*
X13048753Y-15520936D01*
X13048753Y-15520936D02*
X13039230Y-15530460D01*
X13039230Y-15530460D02*
X13020182Y-15539984D01*
X13020182Y-15539984D02*
X12991610Y-15539984D01*
X13172563Y-15539984D02*
X13153515Y-15530460D01*
X13153515Y-15530460D02*
X13143991Y-15511412D01*
X13143991Y-15511412D02*
X13143991Y-15339984D01*
X13324944Y-15530460D02*
X13305896Y-15539984D01*
X13305896Y-15539984D02*
X13267801Y-15539984D01*
X13267801Y-15539984D02*
X13248753Y-15530460D01*
X13248753Y-15530460D02*
X13239230Y-15511412D01*
X13239230Y-15511412D02*
X13239230Y-15435222D01*
X13239230Y-15435222D02*
X13248753Y-15416174D01*
X13248753Y-15416174D02*
X13267801Y-15406650D01*
X13267801Y-15406650D02*
X13305896Y-15406650D01*
X13305896Y-15406650D02*
X13324944Y-15416174D01*
X13324944Y-15416174D02*
X13334468Y-15435222D01*
X13334468Y-15435222D02*
X13334468Y-15454269D01*
X13334468Y-15454269D02*
X13239230Y-15473317D01*
X13410658Y-15530460D02*
X13429706Y-15539984D01*
X13429706Y-15539984D02*
X13467801Y-15539984D01*
X13467801Y-15539984D02*
X13486849Y-15530460D01*
X13486849Y-15530460D02*
X13496372Y-15511412D01*
X13496372Y-15511412D02*
X13496372Y-15501888D01*
X13496372Y-15501888D02*
X13486849Y-15482841D01*
X13486849Y-15482841D02*
X13467801Y-15473317D01*
X13467801Y-15473317D02*
X13439230Y-15473317D01*
X13439230Y-15473317D02*
X13420182Y-15463793D01*
X13420182Y-15463793D02*
X13410658Y-15444746D01*
X13410658Y-15444746D02*
X13410658Y-15435222D01*
X13410658Y-15435222D02*
X13420182Y-15416174D01*
X13420182Y-15416174D02*
X13439230Y-15406650D01*
X13439230Y-15406650D02*
X13467801Y-15406650D01*
X13467801Y-15406650D02*
X13486849Y-15416174D01*
X13563039Y-15616174D02*
X13572563Y-15606650D01*
X13572563Y-15606650D02*
X13591611Y-15578079D01*
X13591611Y-15578079D02*
X13601134Y-15559031D01*
X13601134Y-15559031D02*
X13610658Y-15530460D01*
X13610658Y-15530460D02*
X13620182Y-15482841D01*
X13620182Y-15482841D02*
X13620182Y-15444746D01*
X13620182Y-15444746D02*
X13610658Y-15397127D01*
X13610658Y-15397127D02*
X13601134Y-15368555D01*
X13601134Y-15368555D02*
X13591611Y-15349508D01*
X13591611Y-15349508D02*
X13572563Y-15320936D01*
X13572563Y-15320936D02*
X13563039Y-15311412D01*
D12*
X8517500Y-15672500D02*
X8597500Y-15752500D01*
X8597500Y-15672500D02*
X8517500Y-15752500D01*
X8597500Y-15712500D02*
G75*
G02*
X8517500Y-15712500I-40000J0D01*
G01*
X8517500Y-15712500D02*
G75*
G02*
X8597500Y-15712500I40000J0D01*
G01*
D11*
X8896372Y-15603984D02*
X8915420Y-15603984D01*
X8915420Y-15603984D02*
X8934467Y-15613508D01*
X8934467Y-15613508D02*
X8943991Y-15623031D01*
X8943991Y-15623031D02*
X8953515Y-15642079D01*
X8953515Y-15642079D02*
X8963039Y-15680174D01*
X8963039Y-15680174D02*
X8963039Y-15727793D01*
X8963039Y-15727793D02*
X8953515Y-15765888D01*
X8953515Y-15765888D02*
X8943991Y-15784936D01*
X8943991Y-15784936D02*
X8934467Y-15794460D01*
X8934467Y-15794460D02*
X8915420Y-15803984D01*
X8915420Y-15803984D02*
X8896372Y-15803984D01*
X8896372Y-15803984D02*
X8877324Y-15794460D01*
X8877324Y-15794460D02*
X8867801Y-15784936D01*
X8867801Y-15784936D02*
X8858277Y-15765888D01*
X8858277Y-15765888D02*
X8848753Y-15727793D01*
X8848753Y-15727793D02*
X8848753Y-15680174D01*
X8848753Y-15680174D02*
X8858277Y-15642079D01*
X8858277Y-15642079D02*
X8867801Y-15623031D01*
X8867801Y-15623031D02*
X8877324Y-15613508D01*
X8877324Y-15613508D02*
X8896372Y-15603984D01*
X9048753Y-15784936D02*
X9058277Y-15794460D01*
X9058277Y-15794460D02*
X9048753Y-15803984D01*
X9048753Y-15803984D02*
X9039229Y-15794460D01*
X9039229Y-15794460D02*
X9048753Y-15784936D01*
X9048753Y-15784936D02*
X9048753Y-15803984D01*
X9172563Y-15689698D02*
X9153515Y-15680174D01*
X9153515Y-15680174D02*
X9143991Y-15670650D01*
X9143991Y-15670650D02*
X9134467Y-15651603D01*
X9134467Y-15651603D02*
X9134467Y-15642079D01*
X9134467Y-15642079D02*
X9143991Y-15623031D01*
X9143991Y-15623031D02*
X9153515Y-15613508D01*
X9153515Y-15613508D02*
X9172563Y-15603984D01*
X9172563Y-15603984D02*
X9210658Y-15603984D01*
X9210658Y-15603984D02*
X9229705Y-15613508D01*
X9229705Y-15613508D02*
X9239229Y-15623031D01*
X9239229Y-15623031D02*
X9248753Y-15642079D01*
X9248753Y-15642079D02*
X9248753Y-15651603D01*
X9248753Y-15651603D02*
X9239229Y-15670650D01*
X9239229Y-15670650D02*
X9229705Y-15680174D01*
X9229705Y-15680174D02*
X9210658Y-15689698D01*
X9210658Y-15689698D02*
X9172563Y-15689698D01*
X9172563Y-15689698D02*
X9153515Y-15699222D01*
X9153515Y-15699222D02*
X9143991Y-15708746D01*
X9143991Y-15708746D02*
X9134467Y-15727793D01*
X9134467Y-15727793D02*
X9134467Y-15765888D01*
X9134467Y-15765888D02*
X9143991Y-15784936D01*
X9143991Y-15784936D02*
X9153515Y-15794460D01*
X9153515Y-15794460D02*
X9172563Y-15803984D01*
X9172563Y-15803984D02*
X9210658Y-15803984D01*
X9210658Y-15803984D02*
X9229705Y-15794460D01*
X9229705Y-15794460D02*
X9239229Y-15784936D01*
X9239229Y-15784936D02*
X9248753Y-15765888D01*
X9248753Y-15765888D02*
X9248753Y-15727793D01*
X9248753Y-15727793D02*
X9239229Y-15708746D01*
X9239229Y-15708746D02*
X9229705Y-15699222D01*
X9229705Y-15699222D02*
X9210658Y-15689698D01*
X9372563Y-15603984D02*
X9391610Y-15603984D01*
X9391610Y-15603984D02*
X9410658Y-15613508D01*
X9410658Y-15613508D02*
X9420182Y-15623031D01*
X9420182Y-15623031D02*
X9429705Y-15642079D01*
X9429705Y-15642079D02*
X9439229Y-15680174D01*
X9439229Y-15680174D02*
X9439229Y-15727793D01*
X9439229Y-15727793D02*
X9429705Y-15765888D01*
X9429705Y-15765888D02*
X9420182Y-15784936D01*
X9420182Y-15784936D02*
X9410658Y-15794460D01*
X9410658Y-15794460D02*
X9391610Y-15803984D01*
X9391610Y-15803984D02*
X9372563Y-15803984D01*
X9372563Y-15803984D02*
X9353515Y-15794460D01*
X9353515Y-15794460D02*
X9343991Y-15784936D01*
X9343991Y-15784936D02*
X9334467Y-15765888D01*
X9334467Y-15765888D02*
X9324944Y-15727793D01*
X9324944Y-15727793D02*
X9324944Y-15680174D01*
X9324944Y-15680174D02*
X9334467Y-15642079D01*
X9334467Y-15642079D02*
X9343991Y-15623031D01*
X9343991Y-15623031D02*
X9353515Y-15613508D01*
X9353515Y-15613508D02*
X9372563Y-15603984D01*
X9563039Y-15603984D02*
X9582086Y-15603984D01*
X9582086Y-15603984D02*
X9601134Y-15613508D01*
X9601134Y-15613508D02*
X9610658Y-15623031D01*
X9610658Y-15623031D02*
X9620182Y-15642079D01*
X9620182Y-15642079D02*
X9629705Y-15680174D01*
X9629705Y-15680174D02*
X9629705Y-15727793D01*
X9629705Y-15727793D02*
X9620182Y-15765888D01*
X9620182Y-15765888D02*
X9610658Y-15784936D01*
X9610658Y-15784936D02*
X9601134Y-15794460D01*
X9601134Y-15794460D02*
X9582086Y-15803984D01*
X9582086Y-15803984D02*
X9563039Y-15803984D01*
X9563039Y-15803984D02*
X9543991Y-15794460D01*
X9543991Y-15794460D02*
X9534467Y-15784936D01*
X9534467Y-15784936D02*
X9524944Y-15765888D01*
X9524944Y-15765888D02*
X9515420Y-15727793D01*
X9515420Y-15727793D02*
X9515420Y-15680174D01*
X9515420Y-15680174D02*
X9524944Y-15642079D01*
X9524944Y-15642079D02*
X9534467Y-15623031D01*
X9534467Y-15623031D02*
X9543991Y-15613508D01*
X9543991Y-15613508D02*
X9563039Y-15603984D01*
X9715420Y-15803984D02*
X9715420Y-15670650D01*
X9715420Y-15689698D02*
X9724944Y-15680174D01*
X9724944Y-15680174D02*
X9743991Y-15670650D01*
X9743991Y-15670650D02*
X9772563Y-15670650D01*
X9772563Y-15670650D02*
X9791610Y-15680174D01*
X9791610Y-15680174D02*
X9801134Y-15699222D01*
X9801134Y-15699222D02*
X9801134Y-15803984D01*
X9801134Y-15699222D02*
X9810658Y-15680174D01*
X9810658Y-15680174D02*
X9829705Y-15670650D01*
X9829705Y-15670650D02*
X9858277Y-15670650D01*
X9858277Y-15670650D02*
X9877325Y-15680174D01*
X9877325Y-15680174D02*
X9886848Y-15699222D01*
X9886848Y-15699222D02*
X9886848Y-15803984D01*
X9982086Y-15803984D02*
X9982086Y-15670650D01*
X9982086Y-15689698D02*
X9991610Y-15680174D01*
X9991610Y-15680174D02*
X10010658Y-15670650D01*
X10010658Y-15670650D02*
X10039229Y-15670650D01*
X10039229Y-15670650D02*
X10058277Y-15680174D01*
X10058277Y-15680174D02*
X10067801Y-15699222D01*
X10067801Y-15699222D02*
X10067801Y-15803984D01*
X10067801Y-15699222D02*
X10077325Y-15680174D01*
X10077325Y-15680174D02*
X10096372Y-15670650D01*
X10096372Y-15670650D02*
X10124944Y-15670650D01*
X10124944Y-15670650D02*
X10143991Y-15680174D01*
X10143991Y-15680174D02*
X10153515Y-15699222D01*
X10153515Y-15699222D02*
X10153515Y-15803984D01*
X10543991Y-15594460D02*
X10372563Y-15851603D01*
X10801134Y-15603984D02*
X10820182Y-15603984D01*
X10820182Y-15603984D02*
X10839229Y-15613508D01*
X10839229Y-15613508D02*
X10848753Y-15623031D01*
X10848753Y-15623031D02*
X10858277Y-15642079D01*
X10858277Y-15642079D02*
X10867801Y-15680174D01*
X10867801Y-15680174D02*
X10867801Y-15727793D01*
X10867801Y-15727793D02*
X10858277Y-15765888D01*
X10858277Y-15765888D02*
X10848753Y-15784936D01*
X10848753Y-15784936D02*
X10839229Y-15794460D01*
X10839229Y-15794460D02*
X10820182Y-15803984D01*
X10820182Y-15803984D02*
X10801134Y-15803984D01*
X10801134Y-15803984D02*
X10782087Y-15794460D01*
X10782087Y-15794460D02*
X10772563Y-15784936D01*
X10772563Y-15784936D02*
X10763039Y-15765888D01*
X10763039Y-15765888D02*
X10753515Y-15727793D01*
X10753515Y-15727793D02*
X10753515Y-15680174D01*
X10753515Y-15680174D02*
X10763039Y-15642079D01*
X10763039Y-15642079D02*
X10772563Y-15623031D01*
X10772563Y-15623031D02*
X10782087Y-15613508D01*
X10782087Y-15613508D02*
X10801134Y-15603984D01*
X10953515Y-15784936D02*
X10963039Y-15794460D01*
X10963039Y-15794460D02*
X10953515Y-15803984D01*
X10953515Y-15803984D02*
X10943991Y-15794460D01*
X10943991Y-15794460D02*
X10953515Y-15784936D01*
X10953515Y-15784936D02*
X10953515Y-15803984D01*
X11086848Y-15603984D02*
X11105896Y-15603984D01*
X11105896Y-15603984D02*
X11124944Y-15613508D01*
X11124944Y-15613508D02*
X11134468Y-15623031D01*
X11134468Y-15623031D02*
X11143991Y-15642079D01*
X11143991Y-15642079D02*
X11153515Y-15680174D01*
X11153515Y-15680174D02*
X11153515Y-15727793D01*
X11153515Y-15727793D02*
X11143991Y-15765888D01*
X11143991Y-15765888D02*
X11134468Y-15784936D01*
X11134468Y-15784936D02*
X11124944Y-15794460D01*
X11124944Y-15794460D02*
X11105896Y-15803984D01*
X11105896Y-15803984D02*
X11086848Y-15803984D01*
X11086848Y-15803984D02*
X11067801Y-15794460D01*
X11067801Y-15794460D02*
X11058277Y-15784936D01*
X11058277Y-15784936D02*
X11048753Y-15765888D01*
X11048753Y-15765888D02*
X11039229Y-15727793D01*
X11039229Y-15727793D02*
X11039229Y-15680174D01*
X11039229Y-15680174D02*
X11048753Y-15642079D01*
X11048753Y-15642079D02*
X11058277Y-15623031D01*
X11058277Y-15623031D02*
X11067801Y-15613508D01*
X11067801Y-15613508D02*
X11086848Y-15603984D01*
X11220182Y-15603984D02*
X11343991Y-15603984D01*
X11343991Y-15603984D02*
X11277325Y-15680174D01*
X11277325Y-15680174D02*
X11305896Y-15680174D01*
X11305896Y-15680174D02*
X11324944Y-15689698D01*
X11324944Y-15689698D02*
X11334467Y-15699222D01*
X11334467Y-15699222D02*
X11343991Y-15718269D01*
X11343991Y-15718269D02*
X11343991Y-15765888D01*
X11343991Y-15765888D02*
X11334467Y-15784936D01*
X11334467Y-15784936D02*
X11324944Y-15794460D01*
X11324944Y-15794460D02*
X11305896Y-15803984D01*
X11305896Y-15803984D02*
X11248753Y-15803984D01*
X11248753Y-15803984D02*
X11229706Y-15794460D01*
X11229706Y-15794460D02*
X11220182Y-15784936D01*
X11534467Y-15803984D02*
X11420182Y-15803984D01*
X11477325Y-15803984D02*
X11477325Y-15603984D01*
X11477325Y-15603984D02*
X11458277Y-15632555D01*
X11458277Y-15632555D02*
X11439229Y-15651603D01*
X11439229Y-15651603D02*
X11420182Y-15661127D01*
X11715420Y-15603984D02*
X11620182Y-15603984D01*
X11620182Y-15603984D02*
X11610658Y-15699222D01*
X11610658Y-15699222D02*
X11620182Y-15689698D01*
X11620182Y-15689698D02*
X11639229Y-15680174D01*
X11639229Y-15680174D02*
X11686848Y-15680174D01*
X11686848Y-15680174D02*
X11705896Y-15689698D01*
X11705896Y-15689698D02*
X11715420Y-15699222D01*
X11715420Y-15699222D02*
X11724944Y-15718269D01*
X11724944Y-15718269D02*
X11724944Y-15765888D01*
X11724944Y-15765888D02*
X11715420Y-15784936D01*
X11715420Y-15784936D02*
X11705896Y-15794460D01*
X11705896Y-15794460D02*
X11686848Y-15803984D01*
X11686848Y-15803984D02*
X11639229Y-15803984D01*
X11639229Y-15803984D02*
X11620182Y-15794460D01*
X11620182Y-15794460D02*
X11610658Y-15784936D01*
X11801134Y-15603984D02*
X11801134Y-15642079D01*
X11877325Y-15603984D02*
X11877325Y-15642079D01*
X12172563Y-15880174D02*
X12163039Y-15870650D01*
X12163039Y-15870650D02*
X12143991Y-15842079D01*
X12143991Y-15842079D02*
X12134468Y-15823031D01*
X12134468Y-15823031D02*
X12124944Y-15794460D01*
X12124944Y-15794460D02*
X12115420Y-15746841D01*
X12115420Y-15746841D02*
X12115420Y-15708746D01*
X12115420Y-15708746D02*
X12124944Y-15661127D01*
X12124944Y-15661127D02*
X12134468Y-15632555D01*
X12134468Y-15632555D02*
X12143991Y-15613508D01*
X12143991Y-15613508D02*
X12163039Y-15584936D01*
X12163039Y-15584936D02*
X12172563Y-15575412D01*
X12239229Y-15623031D02*
X12248753Y-15613508D01*
X12248753Y-15613508D02*
X12267801Y-15603984D01*
X12267801Y-15603984D02*
X12315420Y-15603984D01*
X12315420Y-15603984D02*
X12334468Y-15613508D01*
X12334468Y-15613508D02*
X12343991Y-15623031D01*
X12343991Y-15623031D02*
X12353515Y-15642079D01*
X12353515Y-15642079D02*
X12353515Y-15661127D01*
X12353515Y-15661127D02*
X12343991Y-15689698D01*
X12343991Y-15689698D02*
X12229706Y-15803984D01*
X12229706Y-15803984D02*
X12353515Y-15803984D01*
X12591610Y-15803984D02*
X12591610Y-15603984D01*
X12677325Y-15803984D02*
X12677325Y-15699222D01*
X12677325Y-15699222D02*
X12667801Y-15680174D01*
X12667801Y-15680174D02*
X12648753Y-15670650D01*
X12648753Y-15670650D02*
X12620182Y-15670650D01*
X12620182Y-15670650D02*
X12601134Y-15680174D01*
X12601134Y-15680174D02*
X12591610Y-15689698D01*
X12801134Y-15803984D02*
X12782087Y-15794460D01*
X12782087Y-15794460D02*
X12772563Y-15784936D01*
X12772563Y-15784936D02*
X12763039Y-15765888D01*
X12763039Y-15765888D02*
X12763039Y-15708746D01*
X12763039Y-15708746D02*
X12772563Y-15689698D01*
X12772563Y-15689698D02*
X12782087Y-15680174D01*
X12782087Y-15680174D02*
X12801134Y-15670650D01*
X12801134Y-15670650D02*
X12829706Y-15670650D01*
X12829706Y-15670650D02*
X12848753Y-15680174D01*
X12848753Y-15680174D02*
X12858277Y-15689698D01*
X12858277Y-15689698D02*
X12867801Y-15708746D01*
X12867801Y-15708746D02*
X12867801Y-15765888D01*
X12867801Y-15765888D02*
X12858277Y-15784936D01*
X12858277Y-15784936D02*
X12848753Y-15794460D01*
X12848753Y-15794460D02*
X12829706Y-15803984D01*
X12829706Y-15803984D02*
X12801134Y-15803984D01*
X12982087Y-15803984D02*
X12963039Y-15794460D01*
X12963039Y-15794460D02*
X12953515Y-15775412D01*
X12953515Y-15775412D02*
X12953515Y-15603984D01*
X13134468Y-15794460D02*
X13115420Y-15803984D01*
X13115420Y-15803984D02*
X13077325Y-15803984D01*
X13077325Y-15803984D02*
X13058277Y-15794460D01*
X13058277Y-15794460D02*
X13048753Y-15775412D01*
X13048753Y-15775412D02*
X13048753Y-15699222D01*
X13048753Y-15699222D02*
X13058277Y-15680174D01*
X13058277Y-15680174D02*
X13077325Y-15670650D01*
X13077325Y-15670650D02*
X13115420Y-15670650D01*
X13115420Y-15670650D02*
X13134468Y-15680174D01*
X13134468Y-15680174D02*
X13143991Y-15699222D01*
X13143991Y-15699222D02*
X13143991Y-15718269D01*
X13143991Y-15718269D02*
X13048753Y-15737317D01*
X13220182Y-15794460D02*
X13239230Y-15803984D01*
X13239230Y-15803984D02*
X13277325Y-15803984D01*
X13277325Y-15803984D02*
X13296372Y-15794460D01*
X13296372Y-15794460D02*
X13305896Y-15775412D01*
X13305896Y-15775412D02*
X13305896Y-15765888D01*
X13305896Y-15765888D02*
X13296372Y-15746841D01*
X13296372Y-15746841D02*
X13277325Y-15737317D01*
X13277325Y-15737317D02*
X13248753Y-15737317D01*
X13248753Y-15737317D02*
X13229706Y-15727793D01*
X13229706Y-15727793D02*
X13220182Y-15708746D01*
X13220182Y-15708746D02*
X13220182Y-15699222D01*
X13220182Y-15699222D02*
X13229706Y-15680174D01*
X13229706Y-15680174D02*
X13248753Y-15670650D01*
X13248753Y-15670650D02*
X13277325Y-15670650D01*
X13277325Y-15670650D02*
X13296372Y-15680174D01*
X13372563Y-15880174D02*
X13382087Y-15870650D01*
X13382087Y-15870650D02*
X13401134Y-15842079D01*
X13401134Y-15842079D02*
X13410658Y-15823031D01*
X13410658Y-15823031D02*
X13420182Y-15794460D01*
X13420182Y-15794460D02*
X13429706Y-15746841D01*
X13429706Y-15746841D02*
X13429706Y-15708746D01*
X13429706Y-15708746D02*
X13420182Y-15661127D01*
X13420182Y-15661127D02*
X13410658Y-15632555D01*
X13410658Y-15632555D02*
X13401134Y-15613508D01*
X13401134Y-15613508D02*
X13382087Y-15584936D01*
X13382087Y-15584936D02*
X13372563Y-15575412D01*
D12*
X8502500Y-15929000D02*
X8597500Y-16024000D01*
X8597500Y-15929000D02*
X8502500Y-16024000D01*
X8550000Y-15929000D02*
X8550000Y-16024000D01*
X8502500Y-15976500D02*
X8597500Y-15976500D01*
D11*
X8896372Y-15867984D02*
X8915420Y-15867984D01*
X8915420Y-15867984D02*
X8934467Y-15877508D01*
X8934467Y-15877508D02*
X8943991Y-15887031D01*
X8943991Y-15887031D02*
X8953515Y-15906079D01*
X8953515Y-15906079D02*
X8963039Y-15944174D01*
X8963039Y-15944174D02*
X8963039Y-15991793D01*
X8963039Y-15991793D02*
X8953515Y-16029888D01*
X8953515Y-16029888D02*
X8943991Y-16048936D01*
X8943991Y-16048936D02*
X8934467Y-16058460D01*
X8934467Y-16058460D02*
X8915420Y-16067984D01*
X8915420Y-16067984D02*
X8896372Y-16067984D01*
X8896372Y-16067984D02*
X8877324Y-16058460D01*
X8877324Y-16058460D02*
X8867801Y-16048936D01*
X8867801Y-16048936D02*
X8858277Y-16029888D01*
X8858277Y-16029888D02*
X8848753Y-15991793D01*
X8848753Y-15991793D02*
X8848753Y-15944174D01*
X8848753Y-15944174D02*
X8858277Y-15906079D01*
X8858277Y-15906079D02*
X8867801Y-15887031D01*
X8867801Y-15887031D02*
X8877324Y-15877508D01*
X8877324Y-15877508D02*
X8896372Y-15867984D01*
X9048753Y-16048936D02*
X9058277Y-16058460D01*
X9058277Y-16058460D02*
X9048753Y-16067984D01*
X9048753Y-16067984D02*
X9039229Y-16058460D01*
X9039229Y-16058460D02*
X9048753Y-16048936D01*
X9048753Y-16048936D02*
X9048753Y-16067984D01*
X9153515Y-16067984D02*
X9191610Y-16067984D01*
X9191610Y-16067984D02*
X9210658Y-16058460D01*
X9210658Y-16058460D02*
X9220182Y-16048936D01*
X9220182Y-16048936D02*
X9239229Y-16020365D01*
X9239229Y-16020365D02*
X9248753Y-15982269D01*
X9248753Y-15982269D02*
X9248753Y-15906079D01*
X9248753Y-15906079D02*
X9239229Y-15887031D01*
X9239229Y-15887031D02*
X9229705Y-15877508D01*
X9229705Y-15877508D02*
X9210658Y-15867984D01*
X9210658Y-15867984D02*
X9172563Y-15867984D01*
X9172563Y-15867984D02*
X9153515Y-15877508D01*
X9153515Y-15877508D02*
X9143991Y-15887031D01*
X9143991Y-15887031D02*
X9134467Y-15906079D01*
X9134467Y-15906079D02*
X9134467Y-15953698D01*
X9134467Y-15953698D02*
X9143991Y-15972746D01*
X9143991Y-15972746D02*
X9153515Y-15982269D01*
X9153515Y-15982269D02*
X9172563Y-15991793D01*
X9172563Y-15991793D02*
X9210658Y-15991793D01*
X9210658Y-15991793D02*
X9229705Y-15982269D01*
X9229705Y-15982269D02*
X9239229Y-15972746D01*
X9239229Y-15972746D02*
X9248753Y-15953698D01*
X9429705Y-15867984D02*
X9334467Y-15867984D01*
X9334467Y-15867984D02*
X9324944Y-15963222D01*
X9324944Y-15963222D02*
X9334467Y-15953698D01*
X9334467Y-15953698D02*
X9353515Y-15944174D01*
X9353515Y-15944174D02*
X9401134Y-15944174D01*
X9401134Y-15944174D02*
X9420182Y-15953698D01*
X9420182Y-15953698D02*
X9429705Y-15963222D01*
X9429705Y-15963222D02*
X9439229Y-15982269D01*
X9439229Y-15982269D02*
X9439229Y-16029888D01*
X9439229Y-16029888D02*
X9429705Y-16048936D01*
X9429705Y-16048936D02*
X9420182Y-16058460D01*
X9420182Y-16058460D02*
X9401134Y-16067984D01*
X9401134Y-16067984D02*
X9353515Y-16067984D01*
X9353515Y-16067984D02*
X9334467Y-16058460D01*
X9334467Y-16058460D02*
X9324944Y-16048936D01*
X9563039Y-15867984D02*
X9582086Y-15867984D01*
X9582086Y-15867984D02*
X9601134Y-15877508D01*
X9601134Y-15877508D02*
X9610658Y-15887031D01*
X9610658Y-15887031D02*
X9620182Y-15906079D01*
X9620182Y-15906079D02*
X9629705Y-15944174D01*
X9629705Y-15944174D02*
X9629705Y-15991793D01*
X9629705Y-15991793D02*
X9620182Y-16029888D01*
X9620182Y-16029888D02*
X9610658Y-16048936D01*
X9610658Y-16048936D02*
X9601134Y-16058460D01*
X9601134Y-16058460D02*
X9582086Y-16067984D01*
X9582086Y-16067984D02*
X9563039Y-16067984D01*
X9563039Y-16067984D02*
X9543991Y-16058460D01*
X9543991Y-16058460D02*
X9534467Y-16048936D01*
X9534467Y-16048936D02*
X9524944Y-16029888D01*
X9524944Y-16029888D02*
X9515420Y-15991793D01*
X9515420Y-15991793D02*
X9515420Y-15944174D01*
X9515420Y-15944174D02*
X9524944Y-15906079D01*
X9524944Y-15906079D02*
X9534467Y-15887031D01*
X9534467Y-15887031D02*
X9543991Y-15877508D01*
X9543991Y-15877508D02*
X9563039Y-15867984D01*
X9715420Y-16067984D02*
X9715420Y-15934650D01*
X9715420Y-15953698D02*
X9724944Y-15944174D01*
X9724944Y-15944174D02*
X9743991Y-15934650D01*
X9743991Y-15934650D02*
X9772563Y-15934650D01*
X9772563Y-15934650D02*
X9791610Y-15944174D01*
X9791610Y-15944174D02*
X9801134Y-15963222D01*
X9801134Y-15963222D02*
X9801134Y-16067984D01*
X9801134Y-15963222D02*
X9810658Y-15944174D01*
X9810658Y-15944174D02*
X9829705Y-15934650D01*
X9829705Y-15934650D02*
X9858277Y-15934650D01*
X9858277Y-15934650D02*
X9877325Y-15944174D01*
X9877325Y-15944174D02*
X9886848Y-15963222D01*
X9886848Y-15963222D02*
X9886848Y-16067984D01*
X9982086Y-16067984D02*
X9982086Y-15934650D01*
X9982086Y-15953698D02*
X9991610Y-15944174D01*
X9991610Y-15944174D02*
X10010658Y-15934650D01*
X10010658Y-15934650D02*
X10039229Y-15934650D01*
X10039229Y-15934650D02*
X10058277Y-15944174D01*
X10058277Y-15944174D02*
X10067801Y-15963222D01*
X10067801Y-15963222D02*
X10067801Y-16067984D01*
X10067801Y-15963222D02*
X10077325Y-15944174D01*
X10077325Y-15944174D02*
X10096372Y-15934650D01*
X10096372Y-15934650D02*
X10124944Y-15934650D01*
X10124944Y-15934650D02*
X10143991Y-15944174D01*
X10143991Y-15944174D02*
X10153515Y-15963222D01*
X10153515Y-15963222D02*
X10153515Y-16067984D01*
X10543991Y-15858460D02*
X10372563Y-16115603D01*
X10801134Y-15867984D02*
X10820182Y-15867984D01*
X10820182Y-15867984D02*
X10839229Y-15877508D01*
X10839229Y-15877508D02*
X10848753Y-15887031D01*
X10848753Y-15887031D02*
X10858277Y-15906079D01*
X10858277Y-15906079D02*
X10867801Y-15944174D01*
X10867801Y-15944174D02*
X10867801Y-15991793D01*
X10867801Y-15991793D02*
X10858277Y-16029888D01*
X10858277Y-16029888D02*
X10848753Y-16048936D01*
X10848753Y-16048936D02*
X10839229Y-16058460D01*
X10839229Y-16058460D02*
X10820182Y-16067984D01*
X10820182Y-16067984D02*
X10801134Y-16067984D01*
X10801134Y-16067984D02*
X10782087Y-16058460D01*
X10782087Y-16058460D02*
X10772563Y-16048936D01*
X10772563Y-16048936D02*
X10763039Y-16029888D01*
X10763039Y-16029888D02*
X10753515Y-15991793D01*
X10753515Y-15991793D02*
X10753515Y-15944174D01*
X10753515Y-15944174D02*
X10763039Y-15906079D01*
X10763039Y-15906079D02*
X10772563Y-15887031D01*
X10772563Y-15887031D02*
X10782087Y-15877508D01*
X10782087Y-15877508D02*
X10801134Y-15867984D01*
X10953515Y-16048936D02*
X10963039Y-16058460D01*
X10963039Y-16058460D02*
X10953515Y-16067984D01*
X10953515Y-16067984D02*
X10943991Y-16058460D01*
X10943991Y-16058460D02*
X10953515Y-16048936D01*
X10953515Y-16048936D02*
X10953515Y-16067984D01*
X11086848Y-15867984D02*
X11105896Y-15867984D01*
X11105896Y-15867984D02*
X11124944Y-15877508D01*
X11124944Y-15877508D02*
X11134468Y-15887031D01*
X11134468Y-15887031D02*
X11143991Y-15906079D01*
X11143991Y-15906079D02*
X11153515Y-15944174D01*
X11153515Y-15944174D02*
X11153515Y-15991793D01*
X11153515Y-15991793D02*
X11143991Y-16029888D01*
X11143991Y-16029888D02*
X11134468Y-16048936D01*
X11134468Y-16048936D02*
X11124944Y-16058460D01*
X11124944Y-16058460D02*
X11105896Y-16067984D01*
X11105896Y-16067984D02*
X11086848Y-16067984D01*
X11086848Y-16067984D02*
X11067801Y-16058460D01*
X11067801Y-16058460D02*
X11058277Y-16048936D01*
X11058277Y-16048936D02*
X11048753Y-16029888D01*
X11048753Y-16029888D02*
X11039229Y-15991793D01*
X11039229Y-15991793D02*
X11039229Y-15944174D01*
X11039229Y-15944174D02*
X11048753Y-15906079D01*
X11048753Y-15906079D02*
X11058277Y-15887031D01*
X11058277Y-15887031D02*
X11067801Y-15877508D01*
X11067801Y-15877508D02*
X11086848Y-15867984D01*
X11220182Y-15867984D02*
X11343991Y-15867984D01*
X11343991Y-15867984D02*
X11277325Y-15944174D01*
X11277325Y-15944174D02*
X11305896Y-15944174D01*
X11305896Y-15944174D02*
X11324944Y-15953698D01*
X11324944Y-15953698D02*
X11334467Y-15963222D01*
X11334467Y-15963222D02*
X11343991Y-15982269D01*
X11343991Y-15982269D02*
X11343991Y-16029888D01*
X11343991Y-16029888D02*
X11334467Y-16048936D01*
X11334467Y-16048936D02*
X11324944Y-16058460D01*
X11324944Y-16058460D02*
X11305896Y-16067984D01*
X11305896Y-16067984D02*
X11248753Y-16067984D01*
X11248753Y-16067984D02*
X11229706Y-16058460D01*
X11229706Y-16058460D02*
X11220182Y-16048936D01*
X11410658Y-15867984D02*
X11543991Y-15867984D01*
X11543991Y-15867984D02*
X11458277Y-16067984D01*
X11705896Y-15934650D02*
X11705896Y-16067984D01*
X11658277Y-15858460D02*
X11610658Y-16001317D01*
X11610658Y-16001317D02*
X11734467Y-16001317D01*
X11801134Y-15867984D02*
X11801134Y-15906079D01*
X11877325Y-15867984D02*
X11877325Y-15906079D01*
X12172563Y-16144174D02*
X12163039Y-16134650D01*
X12163039Y-16134650D02*
X12143991Y-16106079D01*
X12143991Y-16106079D02*
X12134468Y-16087031D01*
X12134468Y-16087031D02*
X12124944Y-16058460D01*
X12124944Y-16058460D02*
X12115420Y-16010841D01*
X12115420Y-16010841D02*
X12115420Y-15972746D01*
X12115420Y-15972746D02*
X12124944Y-15925127D01*
X12124944Y-15925127D02*
X12134468Y-15896555D01*
X12134468Y-15896555D02*
X12143991Y-15877508D01*
X12143991Y-15877508D02*
X12163039Y-15848936D01*
X12163039Y-15848936D02*
X12172563Y-15839412D01*
X12343991Y-15867984D02*
X12248753Y-15867984D01*
X12248753Y-15867984D02*
X12239229Y-15963222D01*
X12239229Y-15963222D02*
X12248753Y-15953698D01*
X12248753Y-15953698D02*
X12267801Y-15944174D01*
X12267801Y-15944174D02*
X12315420Y-15944174D01*
X12315420Y-15944174D02*
X12334468Y-15953698D01*
X12334468Y-15953698D02*
X12343991Y-15963222D01*
X12343991Y-15963222D02*
X12353515Y-15982269D01*
X12353515Y-15982269D02*
X12353515Y-16029888D01*
X12353515Y-16029888D02*
X12343991Y-16048936D01*
X12343991Y-16048936D02*
X12334468Y-16058460D01*
X12334468Y-16058460D02*
X12315420Y-16067984D01*
X12315420Y-16067984D02*
X12267801Y-16067984D01*
X12267801Y-16067984D02*
X12248753Y-16058460D01*
X12248753Y-16058460D02*
X12239229Y-16048936D01*
X12524944Y-15934650D02*
X12524944Y-16067984D01*
X12477325Y-15858460D02*
X12429706Y-16001317D01*
X12429706Y-16001317D02*
X12553515Y-16001317D01*
X12782087Y-16067984D02*
X12782087Y-15867984D01*
X12867801Y-16067984D02*
X12867801Y-15963222D01*
X12867801Y-15963222D02*
X12858277Y-15944174D01*
X12858277Y-15944174D02*
X12839230Y-15934650D01*
X12839230Y-15934650D02*
X12810658Y-15934650D01*
X12810658Y-15934650D02*
X12791610Y-15944174D01*
X12791610Y-15944174D02*
X12782087Y-15953698D01*
X12991610Y-16067984D02*
X12972563Y-16058460D01*
X12972563Y-16058460D02*
X12963039Y-16048936D01*
X12963039Y-16048936D02*
X12953515Y-16029888D01*
X12953515Y-16029888D02*
X12953515Y-15972746D01*
X12953515Y-15972746D02*
X12963039Y-15953698D01*
X12963039Y-15953698D02*
X12972563Y-15944174D01*
X12972563Y-15944174D02*
X12991610Y-15934650D01*
X12991610Y-15934650D02*
X13020182Y-15934650D01*
X13020182Y-15934650D02*
X13039230Y-15944174D01*
X13039230Y-15944174D02*
X13048753Y-15953698D01*
X13048753Y-15953698D02*
X13058277Y-15972746D01*
X13058277Y-15972746D02*
X13058277Y-16029888D01*
X13058277Y-16029888D02*
X13048753Y-16048936D01*
X13048753Y-16048936D02*
X13039230Y-16058460D01*
X13039230Y-16058460D02*
X13020182Y-16067984D01*
X13020182Y-16067984D02*
X12991610Y-16067984D01*
X13172563Y-16067984D02*
X13153515Y-16058460D01*
X13153515Y-16058460D02*
X13143991Y-16039412D01*
X13143991Y-16039412D02*
X13143991Y-15867984D01*
X13324944Y-16058460D02*
X13305896Y-16067984D01*
X13305896Y-16067984D02*
X13267801Y-16067984D01*
X13267801Y-16067984D02*
X13248753Y-16058460D01*
X13248753Y-16058460D02*
X13239230Y-16039412D01*
X13239230Y-16039412D02*
X13239230Y-15963222D01*
X13239230Y-15963222D02*
X13248753Y-15944174D01*
X13248753Y-15944174D02*
X13267801Y-15934650D01*
X13267801Y-15934650D02*
X13305896Y-15934650D01*
X13305896Y-15934650D02*
X13324944Y-15944174D01*
X13324944Y-15944174D02*
X13334468Y-15963222D01*
X13334468Y-15963222D02*
X13334468Y-15982269D01*
X13334468Y-15982269D02*
X13239230Y-16001317D01*
X13410658Y-16058460D02*
X13429706Y-16067984D01*
X13429706Y-16067984D02*
X13467801Y-16067984D01*
X13467801Y-16067984D02*
X13486849Y-16058460D01*
X13486849Y-16058460D02*
X13496372Y-16039412D01*
X13496372Y-16039412D02*
X13496372Y-16029888D01*
X13496372Y-16029888D02*
X13486849Y-16010841D01*
X13486849Y-16010841D02*
X13467801Y-16001317D01*
X13467801Y-16001317D02*
X13439230Y-16001317D01*
X13439230Y-16001317D02*
X13420182Y-15991793D01*
X13420182Y-15991793D02*
X13410658Y-15972746D01*
X13410658Y-15972746D02*
X13410658Y-15963222D01*
X13410658Y-15963222D02*
X13420182Y-15944174D01*
X13420182Y-15944174D02*
X13439230Y-15934650D01*
X13439230Y-15934650D02*
X13467801Y-15934650D01*
X13467801Y-15934650D02*
X13486849Y-15944174D01*
X13563039Y-16144174D02*
X13572563Y-16134650D01*
X13572563Y-16134650D02*
X13591611Y-16106079D01*
X13591611Y-16106079D02*
X13601134Y-16087031D01*
X13601134Y-16087031D02*
X13610658Y-16058460D01*
X13610658Y-16058460D02*
X13620182Y-16010841D01*
X13620182Y-16010841D02*
X13620182Y-15972746D01*
X13620182Y-15972746D02*
X13610658Y-15925127D01*
X13610658Y-15925127D02*
X13601134Y-15896555D01*
X13601134Y-15896555D02*
X13591611Y-15877508D01*
X13591611Y-15877508D02*
X13572563Y-15848936D01*
X13572563Y-15848936D02*
X13563039Y-15839412D01*
D12*
X8497500Y-16190500D02*
X8597500Y-16290500D01*
X8597500Y-16190500D02*
X8497500Y-16290500D01*
X8582856Y-16275856D02*
X8582856Y-16205144D01*
X8512144Y-16205144D01*
X8512144Y-16275856D01*
X8582856Y-16275856D01*
D11*
X8963039Y-16331984D02*
X8848753Y-16331984D01*
X8905896Y-16331984D02*
X8905896Y-16131984D01*
X8905896Y-16131984D02*
X8886848Y-16160555D01*
X8886848Y-16160555D02*
X8867801Y-16179603D01*
X8867801Y-16179603D02*
X8848753Y-16189127D01*
X9048753Y-16312936D02*
X9058277Y-16322460D01*
X9058277Y-16322460D02*
X9048753Y-16331984D01*
X9048753Y-16331984D02*
X9039229Y-16322460D01*
X9039229Y-16322460D02*
X9048753Y-16312936D01*
X9048753Y-16312936D02*
X9048753Y-16331984D01*
X9182086Y-16131984D02*
X9201134Y-16131984D01*
X9201134Y-16131984D02*
X9220182Y-16141508D01*
X9220182Y-16141508D02*
X9229705Y-16151031D01*
X9229705Y-16151031D02*
X9239229Y-16170079D01*
X9239229Y-16170079D02*
X9248753Y-16208174D01*
X9248753Y-16208174D02*
X9248753Y-16255793D01*
X9248753Y-16255793D02*
X9239229Y-16293888D01*
X9239229Y-16293888D02*
X9229705Y-16312936D01*
X9229705Y-16312936D02*
X9220182Y-16322460D01*
X9220182Y-16322460D02*
X9201134Y-16331984D01*
X9201134Y-16331984D02*
X9182086Y-16331984D01*
X9182086Y-16331984D02*
X9163039Y-16322460D01*
X9163039Y-16322460D02*
X9153515Y-16312936D01*
X9153515Y-16312936D02*
X9143991Y-16293888D01*
X9143991Y-16293888D02*
X9134467Y-16255793D01*
X9134467Y-16255793D02*
X9134467Y-16208174D01*
X9134467Y-16208174D02*
X9143991Y-16170079D01*
X9143991Y-16170079D02*
X9153515Y-16151031D01*
X9153515Y-16151031D02*
X9163039Y-16141508D01*
X9163039Y-16141508D02*
X9182086Y-16131984D01*
X9372563Y-16131984D02*
X9391610Y-16131984D01*
X9391610Y-16131984D02*
X9410658Y-16141508D01*
X9410658Y-16141508D02*
X9420182Y-16151031D01*
X9420182Y-16151031D02*
X9429705Y-16170079D01*
X9429705Y-16170079D02*
X9439229Y-16208174D01*
X9439229Y-16208174D02*
X9439229Y-16255793D01*
X9439229Y-16255793D02*
X9429705Y-16293888D01*
X9429705Y-16293888D02*
X9420182Y-16312936D01*
X9420182Y-16312936D02*
X9410658Y-16322460D01*
X9410658Y-16322460D02*
X9391610Y-16331984D01*
X9391610Y-16331984D02*
X9372563Y-16331984D01*
X9372563Y-16331984D02*
X9353515Y-16322460D01*
X9353515Y-16322460D02*
X9343991Y-16312936D01*
X9343991Y-16312936D02*
X9334467Y-16293888D01*
X9334467Y-16293888D02*
X9324944Y-16255793D01*
X9324944Y-16255793D02*
X9324944Y-16208174D01*
X9324944Y-16208174D02*
X9334467Y-16170079D01*
X9334467Y-16170079D02*
X9343991Y-16151031D01*
X9343991Y-16151031D02*
X9353515Y-16141508D01*
X9353515Y-16141508D02*
X9372563Y-16131984D01*
X9563039Y-16131984D02*
X9582086Y-16131984D01*
X9582086Y-16131984D02*
X9601134Y-16141508D01*
X9601134Y-16141508D02*
X9610658Y-16151031D01*
X9610658Y-16151031D02*
X9620182Y-16170079D01*
X9620182Y-16170079D02*
X9629705Y-16208174D01*
X9629705Y-16208174D02*
X9629705Y-16255793D01*
X9629705Y-16255793D02*
X9620182Y-16293888D01*
X9620182Y-16293888D02*
X9610658Y-16312936D01*
X9610658Y-16312936D02*
X9601134Y-16322460D01*
X9601134Y-16322460D02*
X9582086Y-16331984D01*
X9582086Y-16331984D02*
X9563039Y-16331984D01*
X9563039Y-16331984D02*
X9543991Y-16322460D01*
X9543991Y-16322460D02*
X9534467Y-16312936D01*
X9534467Y-16312936D02*
X9524944Y-16293888D01*
X9524944Y-16293888D02*
X9515420Y-16255793D01*
X9515420Y-16255793D02*
X9515420Y-16208174D01*
X9515420Y-16208174D02*
X9524944Y-16170079D01*
X9524944Y-16170079D02*
X9534467Y-16151031D01*
X9534467Y-16151031D02*
X9543991Y-16141508D01*
X9543991Y-16141508D02*
X9563039Y-16131984D01*
X9715420Y-16331984D02*
X9715420Y-16198650D01*
X9715420Y-16217698D02*
X9724944Y-16208174D01*
X9724944Y-16208174D02*
X9743991Y-16198650D01*
X9743991Y-16198650D02*
X9772563Y-16198650D01*
X9772563Y-16198650D02*
X9791610Y-16208174D01*
X9791610Y-16208174D02*
X9801134Y-16227222D01*
X9801134Y-16227222D02*
X9801134Y-16331984D01*
X9801134Y-16227222D02*
X9810658Y-16208174D01*
X9810658Y-16208174D02*
X9829705Y-16198650D01*
X9829705Y-16198650D02*
X9858277Y-16198650D01*
X9858277Y-16198650D02*
X9877325Y-16208174D01*
X9877325Y-16208174D02*
X9886848Y-16227222D01*
X9886848Y-16227222D02*
X9886848Y-16331984D01*
X9982086Y-16331984D02*
X9982086Y-16198650D01*
X9982086Y-16217698D02*
X9991610Y-16208174D01*
X9991610Y-16208174D02*
X10010658Y-16198650D01*
X10010658Y-16198650D02*
X10039229Y-16198650D01*
X10039229Y-16198650D02*
X10058277Y-16208174D01*
X10058277Y-16208174D02*
X10067801Y-16227222D01*
X10067801Y-16227222D02*
X10067801Y-16331984D01*
X10067801Y-16227222D02*
X10077325Y-16208174D01*
X10077325Y-16208174D02*
X10096372Y-16198650D01*
X10096372Y-16198650D02*
X10124944Y-16198650D01*
X10124944Y-16198650D02*
X10143991Y-16208174D01*
X10143991Y-16208174D02*
X10153515Y-16227222D01*
X10153515Y-16227222D02*
X10153515Y-16331984D01*
X10543991Y-16122460D02*
X10372563Y-16379603D01*
X10801134Y-16131984D02*
X10820182Y-16131984D01*
X10820182Y-16131984D02*
X10839229Y-16141508D01*
X10839229Y-16141508D02*
X10848753Y-16151031D01*
X10848753Y-16151031D02*
X10858277Y-16170079D01*
X10858277Y-16170079D02*
X10867801Y-16208174D01*
X10867801Y-16208174D02*
X10867801Y-16255793D01*
X10867801Y-16255793D02*
X10858277Y-16293888D01*
X10858277Y-16293888D02*
X10848753Y-16312936D01*
X10848753Y-16312936D02*
X10839229Y-16322460D01*
X10839229Y-16322460D02*
X10820182Y-16331984D01*
X10820182Y-16331984D02*
X10801134Y-16331984D01*
X10801134Y-16331984D02*
X10782087Y-16322460D01*
X10782087Y-16322460D02*
X10772563Y-16312936D01*
X10772563Y-16312936D02*
X10763039Y-16293888D01*
X10763039Y-16293888D02*
X10753515Y-16255793D01*
X10753515Y-16255793D02*
X10753515Y-16208174D01*
X10753515Y-16208174D02*
X10763039Y-16170079D01*
X10763039Y-16170079D02*
X10772563Y-16151031D01*
X10772563Y-16151031D02*
X10782087Y-16141508D01*
X10782087Y-16141508D02*
X10801134Y-16131984D01*
X10953515Y-16312936D02*
X10963039Y-16322460D01*
X10963039Y-16322460D02*
X10953515Y-16331984D01*
X10953515Y-16331984D02*
X10943991Y-16322460D01*
X10943991Y-16322460D02*
X10953515Y-16312936D01*
X10953515Y-16312936D02*
X10953515Y-16331984D01*
X11086848Y-16131984D02*
X11105896Y-16131984D01*
X11105896Y-16131984D02*
X11124944Y-16141508D01*
X11124944Y-16141508D02*
X11134468Y-16151031D01*
X11134468Y-16151031D02*
X11143991Y-16170079D01*
X11143991Y-16170079D02*
X11153515Y-16208174D01*
X11153515Y-16208174D02*
X11153515Y-16255793D01*
X11153515Y-16255793D02*
X11143991Y-16293888D01*
X11143991Y-16293888D02*
X11134468Y-16312936D01*
X11134468Y-16312936D02*
X11124944Y-16322460D01*
X11124944Y-16322460D02*
X11105896Y-16331984D01*
X11105896Y-16331984D02*
X11086848Y-16331984D01*
X11086848Y-16331984D02*
X11067801Y-16322460D01*
X11067801Y-16322460D02*
X11058277Y-16312936D01*
X11058277Y-16312936D02*
X11048753Y-16293888D01*
X11048753Y-16293888D02*
X11039229Y-16255793D01*
X11039229Y-16255793D02*
X11039229Y-16208174D01*
X11039229Y-16208174D02*
X11048753Y-16170079D01*
X11048753Y-16170079D02*
X11058277Y-16151031D01*
X11058277Y-16151031D02*
X11067801Y-16141508D01*
X11067801Y-16141508D02*
X11086848Y-16131984D01*
X11220182Y-16131984D02*
X11343991Y-16131984D01*
X11343991Y-16131984D02*
X11277325Y-16208174D01*
X11277325Y-16208174D02*
X11305896Y-16208174D01*
X11305896Y-16208174D02*
X11324944Y-16217698D01*
X11324944Y-16217698D02*
X11334467Y-16227222D01*
X11334467Y-16227222D02*
X11343991Y-16246269D01*
X11343991Y-16246269D02*
X11343991Y-16293888D01*
X11343991Y-16293888D02*
X11334467Y-16312936D01*
X11334467Y-16312936D02*
X11324944Y-16322460D01*
X11324944Y-16322460D02*
X11305896Y-16331984D01*
X11305896Y-16331984D02*
X11248753Y-16331984D01*
X11248753Y-16331984D02*
X11229706Y-16322460D01*
X11229706Y-16322460D02*
X11220182Y-16312936D01*
X11439229Y-16331984D02*
X11477325Y-16331984D01*
X11477325Y-16331984D02*
X11496372Y-16322460D01*
X11496372Y-16322460D02*
X11505896Y-16312936D01*
X11505896Y-16312936D02*
X11524944Y-16284365D01*
X11524944Y-16284365D02*
X11534467Y-16246269D01*
X11534467Y-16246269D02*
X11534467Y-16170079D01*
X11534467Y-16170079D02*
X11524944Y-16151031D01*
X11524944Y-16151031D02*
X11515420Y-16141508D01*
X11515420Y-16141508D02*
X11496372Y-16131984D01*
X11496372Y-16131984D02*
X11458277Y-16131984D01*
X11458277Y-16131984D02*
X11439229Y-16141508D01*
X11439229Y-16141508D02*
X11429706Y-16151031D01*
X11429706Y-16151031D02*
X11420182Y-16170079D01*
X11420182Y-16170079D02*
X11420182Y-16217698D01*
X11420182Y-16217698D02*
X11429706Y-16236746D01*
X11429706Y-16236746D02*
X11439229Y-16246269D01*
X11439229Y-16246269D02*
X11458277Y-16255793D01*
X11458277Y-16255793D02*
X11496372Y-16255793D01*
X11496372Y-16255793D02*
X11515420Y-16246269D01*
X11515420Y-16246269D02*
X11524944Y-16236746D01*
X11524944Y-16236746D02*
X11534467Y-16217698D01*
X11705896Y-16198650D02*
X11705896Y-16331984D01*
X11658277Y-16122460D02*
X11610658Y-16265317D01*
X11610658Y-16265317D02*
X11734467Y-16265317D01*
X11801134Y-16131984D02*
X11801134Y-16170079D01*
X11877325Y-16131984D02*
X11877325Y-16170079D01*
X12172563Y-16408174D02*
X12163039Y-16398650D01*
X12163039Y-16398650D02*
X12143991Y-16370079D01*
X12143991Y-16370079D02*
X12134468Y-16351031D01*
X12134468Y-16351031D02*
X12124944Y-16322460D01*
X12124944Y-16322460D02*
X12115420Y-16274841D01*
X12115420Y-16274841D02*
X12115420Y-16236746D01*
X12115420Y-16236746D02*
X12124944Y-16189127D01*
X12124944Y-16189127D02*
X12134468Y-16160555D01*
X12134468Y-16160555D02*
X12143991Y-16141508D01*
X12143991Y-16141508D02*
X12163039Y-16112936D01*
X12163039Y-16112936D02*
X12172563Y-16103412D01*
X12334468Y-16198650D02*
X12334468Y-16331984D01*
X12286848Y-16122460D02*
X12239229Y-16265317D01*
X12239229Y-16265317D02*
X12363039Y-16265317D01*
X12591610Y-16331984D02*
X12591610Y-16131984D01*
X12677325Y-16331984D02*
X12677325Y-16227222D01*
X12677325Y-16227222D02*
X12667801Y-16208174D01*
X12667801Y-16208174D02*
X12648753Y-16198650D01*
X12648753Y-16198650D02*
X12620182Y-16198650D01*
X12620182Y-16198650D02*
X12601134Y-16208174D01*
X12601134Y-16208174D02*
X12591610Y-16217698D01*
X12801134Y-16331984D02*
X12782087Y-16322460D01*
X12782087Y-16322460D02*
X12772563Y-16312936D01*
X12772563Y-16312936D02*
X12763039Y-16293888D01*
X12763039Y-16293888D02*
X12763039Y-16236746D01*
X12763039Y-16236746D02*
X12772563Y-16217698D01*
X12772563Y-16217698D02*
X12782087Y-16208174D01*
X12782087Y-16208174D02*
X12801134Y-16198650D01*
X12801134Y-16198650D02*
X12829706Y-16198650D01*
X12829706Y-16198650D02*
X12848753Y-16208174D01*
X12848753Y-16208174D02*
X12858277Y-16217698D01*
X12858277Y-16217698D02*
X12867801Y-16236746D01*
X12867801Y-16236746D02*
X12867801Y-16293888D01*
X12867801Y-16293888D02*
X12858277Y-16312936D01*
X12858277Y-16312936D02*
X12848753Y-16322460D01*
X12848753Y-16322460D02*
X12829706Y-16331984D01*
X12829706Y-16331984D02*
X12801134Y-16331984D01*
X12982087Y-16331984D02*
X12963039Y-16322460D01*
X12963039Y-16322460D02*
X12953515Y-16303412D01*
X12953515Y-16303412D02*
X12953515Y-16131984D01*
X13134468Y-16322460D02*
X13115420Y-16331984D01*
X13115420Y-16331984D02*
X13077325Y-16331984D01*
X13077325Y-16331984D02*
X13058277Y-16322460D01*
X13058277Y-16322460D02*
X13048753Y-16303412D01*
X13048753Y-16303412D02*
X13048753Y-16227222D01*
X13048753Y-16227222D02*
X13058277Y-16208174D01*
X13058277Y-16208174D02*
X13077325Y-16198650D01*
X13077325Y-16198650D02*
X13115420Y-16198650D01*
X13115420Y-16198650D02*
X13134468Y-16208174D01*
X13134468Y-16208174D02*
X13143991Y-16227222D01*
X13143991Y-16227222D02*
X13143991Y-16246269D01*
X13143991Y-16246269D02*
X13048753Y-16265317D01*
X13220182Y-16322460D02*
X13239230Y-16331984D01*
X13239230Y-16331984D02*
X13277325Y-16331984D01*
X13277325Y-16331984D02*
X13296372Y-16322460D01*
X13296372Y-16322460D02*
X13305896Y-16303412D01*
X13305896Y-16303412D02*
X13305896Y-16293888D01*
X13305896Y-16293888D02*
X13296372Y-16274841D01*
X13296372Y-16274841D02*
X13277325Y-16265317D01*
X13277325Y-16265317D02*
X13248753Y-16265317D01*
X13248753Y-16265317D02*
X13229706Y-16255793D01*
X13229706Y-16255793D02*
X13220182Y-16236746D01*
X13220182Y-16236746D02*
X13220182Y-16227222D01*
X13220182Y-16227222D02*
X13229706Y-16208174D01*
X13229706Y-16208174D02*
X13248753Y-16198650D01*
X13248753Y-16198650D02*
X13277325Y-16198650D01*
X13277325Y-16198650D02*
X13296372Y-16208174D01*
X13372563Y-16408174D02*
X13382087Y-16398650D01*
X13382087Y-16398650D02*
X13401134Y-16370079D01*
X13401134Y-16370079D02*
X13410658Y-16351031D01*
X13410658Y-16351031D02*
X13420182Y-16322460D01*
X13420182Y-16322460D02*
X13429706Y-16274841D01*
X13429706Y-16274841D02*
X13429706Y-16236746D01*
X13429706Y-16236746D02*
X13420182Y-16189127D01*
X13420182Y-16189127D02*
X13410658Y-16160555D01*
X13410658Y-16160555D02*
X13401134Y-16141508D01*
X13401134Y-16141508D02*
X13382087Y-16112936D01*
X13382087Y-16112936D02*
X13372563Y-16103412D01*
M02*
