G04 #@! TF.GenerationSoftware,KiCad,Pcbnew,9.0.0*
G04 #@! TF.CreationDate,2025-03-31T20:11:42+09:00*
G04 #@! TF.ProjectId,circuit-sugoi-tsuyoi-machine,63697263-7569-4742-9d73-75676f692d74,rev?*
G04 #@! TF.SameCoordinates,Original*
G04 #@! TF.FileFunction,Paste,Top*
G04 #@! TF.FilePolarity,Positive*
%FSLAX46Y46*%
G04 Gerber Fmt 4.6, Leading zero omitted, Abs format (unit mm)*
G04 Created by KiCad (PCBNEW 9.0.0) date 2025-03-31 20:11:42*
%MOMM*%
%LPD*%
G01*
G04 APERTURE LIST*
G04 Aperture macros list*
%AMRoundRect*
0 Rectangle with rounded corners*
0 $1 Rounding radius*
0 $2 $3 $4 $5 $6 $7 $8 $9 X,Y pos of 4 corners*
0 Add a 4 corners polygon primitive as box body*
4,1,4,$2,$3,$4,$5,$6,$7,$8,$9,$2,$3,0*
0 Add four circle primitives for the rounded corners*
1,1,$1+$1,$2,$3*
1,1,$1+$1,$4,$5*
1,1,$1+$1,$6,$7*
1,1,$1+$1,$8,$9*
0 Add four rect primitives between the rounded corners*
20,1,$1+$1,$2,$3,$4,$5,0*
20,1,$1+$1,$4,$5,$6,$7,0*
20,1,$1+$1,$6,$7,$8,$9,0*
20,1,$1+$1,$8,$9,$2,$3,0*%
%AMFreePoly0*
4,1,9,3.862500,-0.866500,0.737500,-0.866500,0.737500,-0.450000,-0.737500,-0.450000,-0.737500,0.450000,0.737500,0.450000,0.737500,0.866500,3.862500,0.866500,3.862500,-0.866500,3.862500,-0.866500,$1*%
G04 Aperture macros list end*
%ADD10RoundRect,0.237500X-0.300000X-0.237500X0.300000X-0.237500X0.300000X0.237500X-0.300000X0.237500X0*%
%ADD11RoundRect,0.237500X-0.237500X0.300000X-0.237500X-0.300000X0.237500X-0.300000X0.237500X0.300000X0*%
%ADD12RoundRect,0.237500X-0.237500X0.250000X-0.237500X-0.250000X0.237500X-0.250000X0.237500X0.250000X0*%
%ADD13RoundRect,0.237500X0.300000X0.237500X-0.300000X0.237500X-0.300000X-0.237500X0.300000X-0.237500X0*%
%ADD14RoundRect,0.250000X-0.295000X-0.435000X0.295000X-0.435000X0.295000X0.435000X-0.295000X0.435000X0*%
%ADD15RoundRect,0.150000X-0.737500X-0.150000X0.737500X-0.150000X0.737500X0.150000X-0.737500X0.150000X0*%
%ADD16RoundRect,0.075000X-0.700000X-0.075000X0.700000X-0.075000X0.700000X0.075000X-0.700000X0.075000X0*%
%ADD17RoundRect,0.075000X-0.075000X-0.700000X0.075000X-0.700000X0.075000X0.700000X-0.075000X0.700000X0*%
%ADD18RoundRect,0.237500X0.237500X-0.300000X0.237500X0.300000X-0.237500X0.300000X-0.237500X-0.300000X0*%
%ADD19RoundRect,0.225000X-0.425000X-0.225000X0.425000X-0.225000X0.425000X0.225000X-0.425000X0.225000X0*%
%ADD20FreePoly0,0.000000*%
%ADD21RoundRect,0.237500X0.237500X-0.287500X0.237500X0.287500X-0.237500X0.287500X-0.237500X-0.287500X0*%
G04 APERTURE END LIST*
D10*
X144637500Y-86000000D03*
X146362500Y-86000000D03*
D11*
X141500000Y-101637500D03*
X141500000Y-103362500D03*
D12*
X107500000Y-120175000D03*
X107500000Y-122000000D03*
D13*
X95862500Y-113500000D03*
X94137500Y-113500000D03*
X95862500Y-116500000D03*
X94137500Y-116500000D03*
X152725000Y-98500000D03*
X151000000Y-98500000D03*
D14*
X159020000Y-97050000D03*
X159020000Y-98750000D03*
X160380000Y-97050000D03*
X160380000Y-98750000D03*
D15*
X157137500Y-95995000D03*
X157137500Y-97265000D03*
X157137500Y-98535000D03*
X157137500Y-99805000D03*
X162262500Y-99805000D03*
X162262500Y-98535000D03*
X162262500Y-97265000D03*
X162262500Y-95995000D03*
D11*
X144500000Y-98137500D03*
X144500000Y-99862500D03*
D10*
X165137500Y-92000000D03*
X166862500Y-92000000D03*
D14*
X159120000Y-89050000D03*
X159120000Y-90750000D03*
X160480000Y-89050000D03*
X160480000Y-90750000D03*
D15*
X157237500Y-87995000D03*
X157237500Y-89265000D03*
X157237500Y-90535000D03*
X157237500Y-91805000D03*
X162362500Y-91805000D03*
X162362500Y-90535000D03*
X162362500Y-89265000D03*
X162362500Y-87995000D03*
D16*
X132825000Y-88250000D03*
X132825000Y-88750000D03*
X132825000Y-89250000D03*
X132825000Y-89750000D03*
X132825000Y-90250000D03*
X132825000Y-90750000D03*
X132825000Y-91250000D03*
X132825000Y-91750000D03*
X132825000Y-92250000D03*
X132825000Y-92750000D03*
X132825000Y-93250000D03*
X132825000Y-93750000D03*
X132825000Y-94250000D03*
X132825000Y-94750000D03*
X132825000Y-95250000D03*
X132825000Y-95750000D03*
D17*
X134750000Y-97675000D03*
X135250000Y-97675000D03*
X135750000Y-97675000D03*
X136250000Y-97675000D03*
X136750000Y-97675000D03*
X137250000Y-97675000D03*
X137750000Y-97675000D03*
X138250000Y-97675000D03*
X138750000Y-97675000D03*
X139250000Y-97675000D03*
X139750000Y-97675000D03*
X140250000Y-97675000D03*
X140750000Y-97675000D03*
X141250000Y-97675000D03*
X141750000Y-97675000D03*
X142250000Y-97675000D03*
D16*
X144175000Y-95750000D03*
X144175000Y-95250000D03*
X144175000Y-94750000D03*
X144175000Y-94250000D03*
X144175000Y-93750000D03*
X144175000Y-93250000D03*
X144175000Y-92750000D03*
X144175000Y-92250000D03*
X144175000Y-91750000D03*
X144175000Y-91250000D03*
X144175000Y-90750000D03*
X144175000Y-90250000D03*
X144175000Y-89750000D03*
X144175000Y-89250000D03*
X144175000Y-88750000D03*
X144175000Y-88250000D03*
D17*
X142250000Y-86325000D03*
X141750000Y-86325000D03*
X141250000Y-86325000D03*
X140750000Y-86325000D03*
X140250000Y-86325000D03*
X139750000Y-86325000D03*
X139250000Y-86325000D03*
X138750000Y-86325000D03*
X138250000Y-86325000D03*
X137750000Y-86325000D03*
X137250000Y-86325000D03*
X136750000Y-86325000D03*
X136250000Y-86325000D03*
X135750000Y-86325000D03*
X135250000Y-86325000D03*
X134750000Y-86325000D03*
D13*
X154500000Y-90500000D03*
X152775000Y-90500000D03*
D18*
X132500000Y-85862500D03*
X132500000Y-84137500D03*
D19*
X98500000Y-113500000D03*
D20*
X98587500Y-115000000D03*
D19*
X98500000Y-116500000D03*
D21*
X113530000Y-128337500D03*
X113530000Y-126587500D03*
D10*
X165000000Y-100000000D03*
X166725000Y-100000000D03*
D12*
X113610000Y-120175000D03*
X113610000Y-122000000D03*
X110600000Y-120175000D03*
X110600000Y-122000000D03*
D13*
X132362500Y-98000000D03*
X130637500Y-98000000D03*
D12*
X116530000Y-120175000D03*
X116530000Y-122000000D03*
D21*
X107100000Y-128337500D03*
X107100000Y-126587500D03*
X116700000Y-128337500D03*
X116700000Y-126587500D03*
X110300000Y-128337500D03*
X110300000Y-126587500D03*
D12*
X127500000Y-90587500D03*
X127500000Y-92412500D03*
M02*
