G04 #@! TF.GenerationSoftware,KiCad,Pcbnew,9.0.0*
G04 #@! TF.CreationDate,2025-03-31T20:11:42+09:00*
G04 #@! TF.ProjectId,circuit-sugoi-tsuyoi-machine,63697263-7569-4742-9d73-75676f692d74,rev?*
G04 #@! TF.SameCoordinates,Original*
G04 #@! TF.FileFunction,Soldermask,Top*
G04 #@! TF.FilePolarity,Negative*
%FSLAX46Y46*%
G04 Gerber Fmt 4.6, Leading zero omitted, Abs format (unit mm)*
G04 Created by KiCad (PCBNEW 9.0.0) date 2025-03-31 20:11:42*
%MOMM*%
%LPD*%
G01*
G04 APERTURE LIST*
G04 Aperture macros list*
%AMRoundRect*
0 Rectangle with rounded corners*
0 $1 Rounding radius*
0 $2 $3 $4 $5 $6 $7 $8 $9 X,Y pos of 4 corners*
0 Add a 4 corners polygon primitive as box body*
4,1,4,$2,$3,$4,$5,$6,$7,$8,$9,$2,$3,0*
0 Add four circle primitives for the rounded corners*
1,1,$1+$1,$2,$3*
1,1,$1+$1,$4,$5*
1,1,$1+$1,$6,$7*
1,1,$1+$1,$8,$9*
0 Add four rect primitives between the rounded corners*
20,1,$1+$1,$2,$3,$4,$5,0*
20,1,$1+$1,$4,$5,$6,$7,0*
20,1,$1+$1,$6,$7,$8,$9,0*
20,1,$1+$1,$8,$9,$2,$3,0*%
%AMFreePoly0*
4,1,9,3.862500,-0.866500,0.737500,-0.866500,0.737500,-0.450000,-0.737500,-0.450000,-0.737500,0.450000,0.737500,0.450000,0.737500,0.866500,3.862500,0.866500,3.862500,-0.866500,3.862500,-0.866500,$1*%
G04 Aperture macros list end*
%ADD10RoundRect,0.237500X-0.300000X-0.237500X0.300000X-0.237500X0.300000X0.237500X-0.300000X0.237500X0*%
%ADD11RoundRect,0.250000X-0.600000X-0.725000X0.600000X-0.725000X0.600000X0.725000X-0.600000X0.725000X0*%
%ADD12O,1.700000X1.950000*%
%ADD13RoundRect,0.250000X0.725000X-0.600000X0.725000X0.600000X-0.725000X0.600000X-0.725000X-0.600000X0*%
%ADD14O,1.950000X1.700000*%
%ADD15RoundRect,0.237500X-0.237500X0.300000X-0.237500X-0.300000X0.237500X-0.300000X0.237500X0.300000X0*%
%ADD16RoundRect,0.237500X-0.237500X0.250000X-0.237500X-0.250000X0.237500X-0.250000X0.237500X0.250000X0*%
%ADD17RoundRect,0.237500X0.300000X0.237500X-0.300000X0.237500X-0.300000X-0.237500X0.300000X-0.237500X0*%
%ADD18RoundRect,0.250000X0.600000X0.725000X-0.600000X0.725000X-0.600000X-0.725000X0.600000X-0.725000X0*%
%ADD19C,7.200000*%
%ADD20RoundRect,0.250000X-0.512000X0.512000X-0.512000X-0.512000X0.512000X-0.512000X0.512000X0.512000X0*%
%ADD21C,1.524000*%
%ADD22R,2.710000X3.400000*%
%ADD23RoundRect,0.150000X-0.737500X-0.150000X0.737500X-0.150000X0.737500X0.150000X-0.737500X0.150000X0*%
%ADD24C,1.000000*%
%ADD25RoundRect,0.250000X-0.725000X0.600000X-0.725000X-0.600000X0.725000X-0.600000X0.725000X0.600000X0*%
%ADD26RoundRect,0.075000X-0.700000X-0.075000X0.700000X-0.075000X0.700000X0.075000X-0.700000X0.075000X0*%
%ADD27RoundRect,0.075000X-0.075000X-0.700000X0.075000X-0.700000X0.075000X0.700000X-0.075000X0.700000X0*%
%ADD28RoundRect,0.250000X-0.265000X-0.615000X0.265000X-0.615000X0.265000X0.615000X-0.265000X0.615000X0*%
%ADD29O,1.030000X1.730000*%
%ADD30RoundRect,0.237500X0.237500X-0.300000X0.237500X0.300000X-0.237500X0.300000X-0.237500X-0.300000X0*%
%ADD31RoundRect,0.225000X-0.425000X-0.225000X0.425000X-0.225000X0.425000X0.225000X-0.425000X0.225000X0*%
%ADD32FreePoly0,0.000000*%
%ADD33RoundRect,0.237500X0.237500X-0.287500X0.237500X0.287500X-0.237500X0.287500X-0.237500X-0.287500X0*%
%ADD34C,1.500000*%
G04 APERTURE END LIST*
D10*
X144637500Y-86000000D03*
X146362500Y-86000000D03*
D11*
X97500000Y-88000000D03*
D12*
X100000000Y-88000000D03*
X102500000Y-88000000D03*
D13*
X142500000Y-127000000D03*
D14*
X142500000Y-124500000D03*
X142500000Y-122000000D03*
D15*
X141500000Y-101637500D03*
X141500000Y-103362500D03*
D16*
X107500000Y-120175000D03*
X107500000Y-122000000D03*
D17*
X95862500Y-113500000D03*
X94137500Y-113500000D03*
D18*
X186500000Y-105000000D03*
D12*
X184000000Y-105000000D03*
X181500000Y-105000000D03*
D17*
X95862500Y-116500000D03*
X94137500Y-116500000D03*
D19*
X191500000Y-132000000D03*
D20*
X127500000Y-62250000D03*
D21*
X127500000Y-64750000D03*
X127500000Y-67250000D03*
X127500000Y-69750000D03*
D19*
X91500000Y-57000000D03*
D13*
X171350000Y-127000000D03*
D14*
X171350000Y-124500000D03*
X171350000Y-122000000D03*
D11*
X97500000Y-107000000D03*
D12*
X100000000Y-107000000D03*
X102500000Y-107000000D03*
D17*
X152725000Y-98500000D03*
X151000000Y-98500000D03*
D22*
X159700000Y-97900000D03*
D23*
X157137500Y-95995000D03*
X157137500Y-97265000D03*
X157137500Y-98535000D03*
X157137500Y-99805000D03*
X162262500Y-99805000D03*
X162262500Y-98535000D03*
X162262500Y-97265000D03*
X162262500Y-95995000D03*
D24*
X120500000Y-86900000D03*
X120500000Y-85000000D03*
D25*
X103500000Y-62500000D03*
D14*
X103500000Y-65000000D03*
X103500000Y-67500000D03*
X103500000Y-70000000D03*
D15*
X144500000Y-98137500D03*
X144500000Y-99862500D03*
D10*
X165137500Y-92000000D03*
X166862500Y-92000000D03*
D19*
X191500000Y-57000000D03*
D22*
X159800000Y-89900000D03*
D23*
X157237500Y-87995000D03*
X157237500Y-89265000D03*
X157237500Y-90535000D03*
X157237500Y-91805000D03*
X162362500Y-91805000D03*
X162362500Y-90535000D03*
X162362500Y-89265000D03*
X162362500Y-87995000D03*
D20*
X119000000Y-62250000D03*
D21*
X119000000Y-64750000D03*
X119000000Y-67250000D03*
X119000000Y-69750000D03*
D18*
X186500000Y-95500000D03*
D12*
X184000000Y-95500000D03*
X181500000Y-95500000D03*
D26*
X132825000Y-88250000D03*
X132825000Y-88750000D03*
X132825000Y-89250000D03*
X132825000Y-89750000D03*
X132825000Y-90250000D03*
X132825000Y-90750000D03*
X132825000Y-91250000D03*
X132825000Y-91750000D03*
X132825000Y-92250000D03*
X132825000Y-92750000D03*
X132825000Y-93250000D03*
X132825000Y-93750000D03*
X132825000Y-94250000D03*
X132825000Y-94750000D03*
X132825000Y-95250000D03*
X132825000Y-95750000D03*
D27*
X134750000Y-97675000D03*
X135250000Y-97675000D03*
X135750000Y-97675000D03*
X136250000Y-97675000D03*
X136750000Y-97675000D03*
X137250000Y-97675000D03*
X137750000Y-97675000D03*
X138250000Y-97675000D03*
X138750000Y-97675000D03*
X139250000Y-97675000D03*
X139750000Y-97675000D03*
X140250000Y-97675000D03*
X140750000Y-97675000D03*
X141250000Y-97675000D03*
X141750000Y-97675000D03*
X142250000Y-97675000D03*
D26*
X144175000Y-95750000D03*
X144175000Y-95250000D03*
X144175000Y-94750000D03*
X144175000Y-94250000D03*
X144175000Y-93750000D03*
X144175000Y-93250000D03*
X144175000Y-92750000D03*
X144175000Y-92250000D03*
X144175000Y-91750000D03*
X144175000Y-91250000D03*
X144175000Y-90750000D03*
X144175000Y-90250000D03*
X144175000Y-89750000D03*
X144175000Y-89250000D03*
X144175000Y-88750000D03*
X144175000Y-88250000D03*
D27*
X142250000Y-86325000D03*
X141750000Y-86325000D03*
X141250000Y-86325000D03*
X140750000Y-86325000D03*
X140250000Y-86325000D03*
X139750000Y-86325000D03*
X139250000Y-86325000D03*
X138750000Y-86325000D03*
X138250000Y-86325000D03*
X137750000Y-86325000D03*
X137250000Y-86325000D03*
X136750000Y-86325000D03*
X136250000Y-86325000D03*
X135750000Y-86325000D03*
X135250000Y-86325000D03*
X134750000Y-86325000D03*
D13*
X99500000Y-126000000D03*
D14*
X99500000Y-123500000D03*
X99500000Y-121000000D03*
D19*
X91500000Y-132000000D03*
D11*
X179000000Y-70000000D03*
D12*
X181500000Y-70000000D03*
X184000000Y-70000000D03*
X186500000Y-70000000D03*
D28*
X157750000Y-67550000D03*
D29*
X159250000Y-67550000D03*
X160750000Y-67550000D03*
X162250000Y-67550000D03*
X163750000Y-67550000D03*
X165250000Y-67550000D03*
D17*
X154500000Y-90500000D03*
X152775000Y-90500000D03*
D13*
X152350000Y-127000000D03*
D14*
X152350000Y-124500000D03*
X152350000Y-122000000D03*
D11*
X179000000Y-82000000D03*
D12*
X181500000Y-82000000D03*
X184000000Y-82000000D03*
X186500000Y-82000000D03*
D21*
X125540000Y-121190000D03*
X125500000Y-128750000D03*
X120500000Y-121250000D03*
X120460000Y-128810000D03*
D13*
X161850000Y-127000000D03*
D14*
X161850000Y-124500000D03*
X161850000Y-122000000D03*
D30*
X132500000Y-85862500D03*
X132500000Y-84137500D03*
D11*
X97500000Y-78500000D03*
D12*
X100000000Y-78500000D03*
X102500000Y-78500000D03*
D31*
X98500000Y-113500000D03*
D32*
X98587500Y-115000000D03*
D31*
X98500000Y-116500000D03*
D11*
X97500000Y-97500000D03*
D12*
X100000000Y-97500000D03*
X102500000Y-97500000D03*
D33*
X113530000Y-128337500D03*
X113530000Y-126587500D03*
D10*
X165000000Y-100000000D03*
X166725000Y-100000000D03*
D16*
X113610000Y-120175000D03*
X113610000Y-122000000D03*
X110600000Y-120175000D03*
X110600000Y-122000000D03*
D17*
X132362500Y-98000000D03*
X130637500Y-98000000D03*
D18*
X186500000Y-124000000D03*
D12*
X184000000Y-124000000D03*
X181500000Y-124000000D03*
D13*
X132850000Y-127000000D03*
D14*
X132850000Y-124500000D03*
X132850000Y-122000000D03*
D16*
X116530000Y-120175000D03*
X116530000Y-122000000D03*
D34*
X120500000Y-96950000D03*
X120500000Y-92070000D03*
D33*
X107100000Y-128337500D03*
X107100000Y-126587500D03*
X116700000Y-128337500D03*
X116700000Y-126587500D03*
X110300000Y-128337500D03*
X110300000Y-126587500D03*
D20*
X136000000Y-62250000D03*
D21*
X136000000Y-64750000D03*
X136000000Y-67250000D03*
X136000000Y-69750000D03*
D20*
X144500000Y-62250000D03*
D21*
X144500000Y-64750000D03*
X144500000Y-67250000D03*
X144500000Y-69750000D03*
D16*
X127500000Y-90587500D03*
X127500000Y-92412500D03*
D18*
X186500000Y-114500000D03*
D12*
X184000000Y-114500000D03*
X181500000Y-114500000D03*
M02*
